ISO-10303-21;
HEADER;
FILE_DESCRIPTION(('FreeCAD Model'),'2;1');
FILE_NAME('Open CASCADE Shape Model','2026-10-08T18:08:36',('FreeCAD'),(
    'FreeCAD'),'Open CASCADE STEP processor 8.0','FreeCAD','Unknown');
FILE_SCHEMA(('AUTOMOTIVE_DESIGN { 1 0 10303 214 1 1 1 1 }'));
ENDSEC;
DATA;
#1 = APPLICATION_PROTOCOL_DEFINITION('international standard',
  'automotive_design',2000,#2);
#2 = APPLICATION_CONTEXT(
  'core data for automotive mechanical design processes');
#3 = SHAPE_DEFINITION_REPRESENTATION(#4,#10);
#4 = PRODUCT_DEFINITION_SHAPE('','',#5);
#5 = PRODUCT_DEFINITION('design','',#6,#9);
#6 = PRODUCT_DEFINITION_FORMATION('','',#7);
#7 = PRODUCT('Open CASCADE STEP translator 8.0 2',
  'Open CASCADE STEP translator 8.0 2','',(#8));
#8 = PRODUCT_CONTEXT('',#2,'mechanical');
#9 = PRODUCT_DEFINITION_CONTEXT('part definition',#2,'design');
#10 = ADVANCED_BREP_SHAPE_REPRESENTATION('',(#11,#15),#731);
#11 = AXIS2_PLACEMENT_3D('',#12,#13,#14);
#12 = CARTESIAN_POINT('',(0.,0.,0.));
#13 = DIRECTION('',(0.,0.,1.));
#14 = DIRECTION('',(1.,0.,-0.));
#15 = MANIFOLD_SOLID_BREP('',#16);
#16 = CLOSED_SHELL('',(#17,#125,#158,#183,#208,#225,#256,#280,#304,#321,
    #354,#379,#404,#421,#464,#488,#512,#541,#553,#596,#620,#644,#673,
    #685,#702,#714));
#17 = ADVANCED_FACE('',(#18,#52,#86),#120,.F.);
#18 = FACE_BOUND('',#19,.F.);
#19 = EDGE_LOOP('',(#20,#30,#38,#46));
#20 = ORIENTED_EDGE('',*,*,#21,.F.);
#21 = EDGE_CURVE('',#22,#24,#26,.T.);
#22 = VERTEX_POINT('',#23);
#23 = CARTESIAN_POINT('',(-6.1,2.22044604925E-16,-9.));
#24 = VERTEX_POINT('',#25);
#25 = CARTESIAN_POINT('',(-6.1,2.22044604925E-16,9.));
#26 = LINE('',#27,#28);
#27 = CARTESIAN_POINT('',(-6.1,2.22044604925E-16,-7.5));
#28 = VECTOR('',#29,1.);
#29 = DIRECTION('',(0.,0.,1.));
#30 = ORIENTED_EDGE('',*,*,#31,.T.);
#31 = EDGE_CURVE('',#22,#32,#34,.T.);
#32 = VERTEX_POINT('',#33);
#33 = CARTESIAN_POINT('',(-1.E-01,2.22044604925E-16,-9.));
#34 = LINE('',#35,#36);
#35 = CARTESIAN_POINT('',(-4.6,2.22044604925E-16,-9.));
#36 = VECTOR('',#37,1.);
#37 = DIRECTION('',(1.,0.,-0.));
#38 = ORIENTED_EDGE('',*,*,#39,.T.);
#39 = EDGE_CURVE('',#32,#40,#42,.T.);
#40 = VERTEX_POINT('',#41);
#41 = CARTESIAN_POINT('',(-1.E-01,2.22044604925E-16,9.));
#42 = LINE('',#43,#44);
#43 = CARTESIAN_POINT('',(-1.E-01,2.22044604925E-16,-7.5));
#44 = VECTOR('',#45,1.);
#45 = DIRECTION('',(0.,0.,1.));
#46 = ORIENTED_EDGE('',*,*,#47,.F.);
#47 = EDGE_CURVE('',#24,#40,#48,.T.);
#48 = LINE('',#49,#50);
#49 = CARTESIAN_POINT('',(-4.6,2.22044604925E-16,9.));
#50 = VECTOR('',#51,1.);
#51 = DIRECTION('',(1.,0.,-0.));
#52 = FACE_BOUND('',#53,.F.);
#53 = EDGE_LOOP('',(#54,#64,#72,#80));
#54 = ORIENTED_EDGE('',*,*,#55,.F.);
#55 = EDGE_CURVE('',#56,#58,#60,.T.);
#56 = VERTEX_POINT('',#57);
#57 = CARTESIAN_POINT('',(-15.,0.,-15.));
#58 = VERTEX_POINT('',#59);
#59 = CARTESIAN_POINT('',(15.,0.,-15.));
#60 = LINE('',#61,#62);
#61 = CARTESIAN_POINT('',(-15.,0.,-15.));
#62 = VECTOR('',#63,1.);
#63 = DIRECTION('',(1.,0.,-0.));
#64 = ORIENTED_EDGE('',*,*,#65,.T.);
#65 = EDGE_CURVE('',#56,#66,#68,.T.);
#66 = VERTEX_POINT('',#67);
#67 = CARTESIAN_POINT('',(-15.,0.,15.));
#68 = LINE('',#69,#70);
#69 = CARTESIAN_POINT('',(-15.,0.,-15.));
#70 = VECTOR('',#71,1.);
#71 = DIRECTION('',(0.,0.,1.));
#72 = ORIENTED_EDGE('',*,*,#73,.T.);
#73 = EDGE_CURVE('',#66,#74,#76,.T.);
#74 = VERTEX_POINT('',#75);
#75 = CARTESIAN_POINT('',(15.,0.,15.));
#76 = LINE('',#77,#78);
#77 = CARTESIAN_POINT('',(-15.,0.,15.));
#78 = VECTOR('',#79,1.);
#79 = DIRECTION('',(1.,0.,-0.));
#80 = ORIENTED_EDGE('',*,*,#81,.F.);
#81 = EDGE_CURVE('',#58,#74,#82,.T.);
#82 = LINE('',#83,#84);
#83 = CARTESIAN_POINT('',(15.,0.,-15.));
#84 = VECTOR('',#85,1.);
#85 = DIRECTION('',(0.,0.,1.));
#86 = FACE_BOUND('',#87,.F.);
#87 = EDGE_LOOP('',(#88,#98,#106,#114));
#88 = ORIENTED_EDGE('',*,*,#89,.F.);
#89 = EDGE_CURVE('',#90,#92,#94,.T.);
#90 = VERTEX_POINT('',#91);
#91 = CARTESIAN_POINT('',(0.1,2.22044604925E-16,-9.));
#92 = VERTEX_POINT('',#93);
#93 = CARTESIAN_POINT('',(0.1,2.22044604925E-16,9.));
#94 = LINE('',#95,#96);
#95 = CARTESIAN_POINT('',(0.1,2.22044604925E-16,-7.5));
#96 = VECTOR('',#97,1.);
#97 = DIRECTION('',(0.,0.,1.));
#98 = ORIENTED_EDGE('',*,*,#99,.T.);
#99 = EDGE_CURVE('',#90,#100,#102,.T.);
#100 = VERTEX_POINT('',#101);
#101 = CARTESIAN_POINT('',(6.1,2.22044604925E-16,-9.));
#102 = LINE('',#103,#104);
#103 = CARTESIAN_POINT('',(1.6,2.22044604925E-16,-9.));
#104 = VECTOR('',#105,1.);
#105 = DIRECTION('',(1.,0.,-0.));
#106 = ORIENTED_EDGE('',*,*,#107,.T.);
#107 = EDGE_CURVE('',#100,#108,#110,.T.);
#108 = VERTEX_POINT('',#109);
#109 = CARTESIAN_POINT('',(6.1,2.22044604925E-16,9.));
#110 = LINE('',#111,#112);
#111 = CARTESIAN_POINT('',(6.1,2.22044604925E-16,-7.5));
#112 = VECTOR('',#113,1.);
#113 = DIRECTION('',(0.,0.,1.));
#114 = ORIENTED_EDGE('',*,*,#115,.F.);
#115 = EDGE_CURVE('',#92,#108,#116,.T.);
#116 = LINE('',#117,#118);
#117 = CARTESIAN_POINT('',(1.6,2.22044604925E-16,9.));
#118 = VECTOR('',#119,1.);
#119 = DIRECTION('',(1.,0.,-0.));
#120 = PLANE('',#121);
#121 = AXIS2_PLACEMENT_3D('',#122,#123,#124);
#122 = CARTESIAN_POINT('',(-15.,0.,-15.));
#123 = DIRECTION('',(-0.,1.,0.));
#124 = DIRECTION('',(0.,0.,1.));
#125 = ADVANCED_FACE('',(#126),#153,.F.);
#126 = FACE_BOUND('',#127,.T.);
#127 = EDGE_LOOP('',(#128,#137,#145,#152));
#128 = ORIENTED_EDGE('',*,*,#129,.T.);
#129 = EDGE_CURVE('',#22,#130,#132,.T.);
#130 = VERTEX_POINT('',#131);
#131 = CARTESIAN_POINT('',(-4.6,-1.5,-7.5));
#132 = ELLIPSE('',#133,2.12132034356,1.5);
#133 = AXIS2_PLACEMENT_3D('',#134,#135,#136);
#134 = CARTESIAN_POINT('',(-6.1,-1.5,-9.));
#135 = DIRECTION('',(0.707106781187,0.,-0.707106781187));
#136 = DIRECTION('',(0.707106781187,0.,0.707106781187));
#137 = ORIENTED_EDGE('',*,*,#138,.T.);
#138 = EDGE_CURVE('',#130,#139,#141,.T.);
#139 = VERTEX_POINT('',#140);
#140 = CARTESIAN_POINT('',(-4.6,-1.5,7.5));
#141 = LINE('',#142,#143);
#142 = CARTESIAN_POINT('',(-4.6,-1.5,-7.5));
#143 = VECTOR('',#144,1.);
#144 = DIRECTION('',(0.,0.,1.));
#145 = ORIENTED_EDGE('',*,*,#146,.F.);
#146 = EDGE_CURVE('',#24,#139,#147,.T.);
#147 = ELLIPSE('',#148,2.12132034356,1.5);
#148 = AXIS2_PLACEMENT_3D('',#149,#150,#151);
#149 = CARTESIAN_POINT('',(-6.1,-1.5,9.));
#150 = DIRECTION('',(-0.707106781187,0.,-0.707106781187));
#151 = DIRECTION('',(-0.707106781187,0.,0.707106781187));
#152 = ORIENTED_EDGE('',*,*,#21,.F.);
#153 = CYLINDRICAL_SURFACE('',#154,1.5);
#154 = AXIS2_PLACEMENT_3D('',#155,#156,#157);
#155 = CARTESIAN_POINT('',(-6.1,-1.5,-7.5));
#156 = DIRECTION('',(0.,0.,1.));
#157 = DIRECTION('',(-0.,1.,0.));
#158 = ADVANCED_FACE('',(#159),#178,.F.);
#159 = FACE_BOUND('',#160,.F.);
#160 = EDGE_LOOP('',(#161,#162,#170,#177));
#161 = ORIENTED_EDGE('',*,*,#129,.T.);
#162 = ORIENTED_EDGE('',*,*,#163,.T.);
#163 = EDGE_CURVE('',#130,#164,#166,.T.);
#164 = VERTEX_POINT('',#165);
#165 = CARTESIAN_POINT('',(-1.6,-1.5,-7.5));
#166 = LINE('',#167,#168);
#167 = CARTESIAN_POINT('',(-4.6,-1.5,-7.5));
#168 = VECTOR('',#169,1.);
#169 = DIRECTION('',(1.,0.,-0.));
#170 = ORIENTED_EDGE('',*,*,#171,.F.);
#171 = EDGE_CURVE('',#32,#164,#172,.T.);
#172 = ELLIPSE('',#173,2.12132034356,1.5);
#173 = AXIS2_PLACEMENT_3D('',#174,#175,#176);
#174 = CARTESIAN_POINT('',(-1.E-01,-1.5,-9.));
#175 = DIRECTION('',(0.707106781187,0.,0.707106781187));
#176 = DIRECTION('',(0.707106781187,0.,-0.707106781187));
#177 = ORIENTED_EDGE('',*,*,#31,.F.);
#178 = CYLINDRICAL_SURFACE('',#179,1.5);
#179 = AXIS2_PLACEMENT_3D('',#180,#181,#182);
#180 = CARTESIAN_POINT('',(-4.6,-1.5,-9.));
#181 = DIRECTION('',(1.,0.,-0.));
#182 = DIRECTION('',(0.,1.,0.));
#183 = ADVANCED_FACE('',(#184),#203,.F.);
#184 = FACE_BOUND('',#185,.T.);
#185 = EDGE_LOOP('',(#186,#187,#195,#202));
#186 = ORIENTED_EDGE('',*,*,#146,.T.);
#187 = ORIENTED_EDGE('',*,*,#188,.T.);
#188 = EDGE_CURVE('',#139,#189,#191,.T.);
#189 = VERTEX_POINT('',#190);
#190 = CARTESIAN_POINT('',(-1.6,-1.5,7.5));
#191 = LINE('',#192,#193);
#192 = CARTESIAN_POINT('',(-4.6,-1.5,7.5));
#193 = VECTOR('',#194,1.);
#194 = DIRECTION('',(1.,0.,-0.));
#195 = ORIENTED_EDGE('',*,*,#196,.F.);
#196 = EDGE_CURVE('',#40,#189,#197,.T.);
#197 = ELLIPSE('',#198,2.12132034356,1.5);
#198 = AXIS2_PLACEMENT_3D('',#199,#200,#201);
#199 = CARTESIAN_POINT('',(-1.E-01,-1.5,9.));
#200 = DIRECTION('',(-0.707106781187,-0.,0.707106781187));
#201 = DIRECTION('',(0.707106781187,0.,0.707106781187));
#202 = ORIENTED_EDGE('',*,*,#47,.F.);
#203 = CYLINDRICAL_SURFACE('',#204,1.5);
#204 = AXIS2_PLACEMENT_3D('',#205,#206,#207);
#205 = CARTESIAN_POINT('',(-4.6,-1.5,9.));
#206 = DIRECTION('',(1.,0.,-0.));
#207 = DIRECTION('',(0.,1.,0.));
#208 = ADVANCED_FACE('',(#209),#220,.F.);
#209 = FACE_BOUND('',#210,.F.);
#210 = EDGE_LOOP('',(#211,#212,#218,#219));
#211 = ORIENTED_EDGE('',*,*,#171,.T.);
#212 = ORIENTED_EDGE('',*,*,#213,.T.);
#213 = EDGE_CURVE('',#164,#189,#214,.T.);
#214 = LINE('',#215,#216);
#215 = CARTESIAN_POINT('',(-1.6,-1.5,-7.5));
#216 = VECTOR('',#217,1.);
#217 = DIRECTION('',(0.,0.,1.));
#218 = ORIENTED_EDGE('',*,*,#196,.F.);
#219 = ORIENTED_EDGE('',*,*,#39,.F.);
#220 = CYLINDRICAL_SURFACE('',#221,1.5);
#221 = AXIS2_PLACEMENT_3D('',#222,#223,#224);
#222 = CARTESIAN_POINT('',(-1.E-01,-1.5,-7.5));
#223 = DIRECTION('',(0.,0.,1.));
#224 = DIRECTION('',(-0.,1.,0.));
#225 = ADVANCED_FACE('',(#226),#251,.F.);
#226 = FACE_BOUND('',#227,.F.);
#227 = EDGE_LOOP('',(#228,#236,#237,#245));
#228 = ORIENTED_EDGE('',*,*,#229,.F.);
#229 = EDGE_CURVE('',#56,#230,#232,.T.);
#230 = VERTEX_POINT('',#231);
#231 = CARTESIAN_POINT('',(-15.,2.5,-15.));
#232 = LINE('',#233,#234);
#233 = CARTESIAN_POINT('',(-15.,0.,-15.));
#234 = VECTOR('',#235,1.);
#235 = DIRECTION('',(-0.,1.,0.));
#236 = ORIENTED_EDGE('',*,*,#55,.T.);
#237 = ORIENTED_EDGE('',*,*,#238,.T.);
#238 = EDGE_CURVE('',#58,#239,#241,.T.);
#239 = VERTEX_POINT('',#240);
#240 = CARTESIAN_POINT('',(15.,2.5,-15.));
#241 = LINE('',#242,#243);
#242 = CARTESIAN_POINT('',(15.,0.,-15.));
#243 = VECTOR('',#244,1.);
#244 = DIRECTION('',(-0.,1.,0.));
#245 = ORIENTED_EDGE('',*,*,#246,.F.);
#246 = EDGE_CURVE('',#230,#239,#247,.T.);
#247 = LINE('',#248,#249);
#248 = CARTESIAN_POINT('',(-15.,2.5,-15.));
#249 = VECTOR('',#250,1.);
#250 = DIRECTION('',(1.,0.,-0.));
#251 = PLANE('',#252);
#252 = AXIS2_PLACEMENT_3D('',#253,#254,#255);
#253 = CARTESIAN_POINT('',(-15.,0.,-15.));
#254 = DIRECTION('',(0.,0.,1.));
#255 = DIRECTION('',(1.,0.,-0.));
#256 = ADVANCED_FACE('',(#257),#275,.T.);
#257 = FACE_BOUND('',#258,.T.);
#258 = EDGE_LOOP('',(#259,#260,#261,#269));
#259 = ORIENTED_EDGE('',*,*,#81,.F.);
#260 = ORIENTED_EDGE('',*,*,#238,.T.);
#261 = ORIENTED_EDGE('',*,*,#262,.T.);
#262 = EDGE_CURVE('',#239,#263,#265,.T.);
#263 = VERTEX_POINT('',#264);
#264 = CARTESIAN_POINT('',(15.,2.5,15.));
#265 = LINE('',#266,#267);
#266 = CARTESIAN_POINT('',(15.,2.5,-15.));
#267 = VECTOR('',#268,1.);
#268 = DIRECTION('',(0.,0.,1.));
#269 = ORIENTED_EDGE('',*,*,#270,.F.);
#270 = EDGE_CURVE('',#74,#263,#271,.T.);
#271 = LINE('',#272,#273);
#272 = CARTESIAN_POINT('',(15.,0.,15.));
#273 = VECTOR('',#274,1.);
#274 = DIRECTION('',(-0.,1.,0.));
#275 = PLANE('',#276);
#276 = AXIS2_PLACEMENT_3D('',#277,#278,#279);
#277 = CARTESIAN_POINT('',(15.,0.,-15.));
#278 = DIRECTION('',(1.,0.,-0.));
#279 = DIRECTION('',(0.,0.,1.));
#280 = ADVANCED_FACE('',(#281),#299,.F.);
#281 = FACE_BOUND('',#282,.F.);
#282 = EDGE_LOOP('',(#283,#284,#285,#293));
#283 = ORIENTED_EDGE('',*,*,#65,.F.);
#284 = ORIENTED_EDGE('',*,*,#229,.T.);
#285 = ORIENTED_EDGE('',*,*,#286,.T.);
#286 = EDGE_CURVE('',#230,#287,#289,.T.);
#287 = VERTEX_POINT('',#288);
#288 = CARTESIAN_POINT('',(-15.,2.5,15.));
#289 = LINE('',#290,#291);
#290 = CARTESIAN_POINT('',(-15.,2.5,-15.));
#291 = VECTOR('',#292,1.);
#292 = DIRECTION('',(0.,0.,1.));
#293 = ORIENTED_EDGE('',*,*,#294,.F.);
#294 = EDGE_CURVE('',#66,#287,#295,.T.);
#295 = LINE('',#296,#297);
#296 = CARTESIAN_POINT('',(-15.,0.,15.));
#297 = VECTOR('',#298,1.);
#298 = DIRECTION('',(-0.,1.,0.));
#299 = PLANE('',#300);
#300 = AXIS2_PLACEMENT_3D('',#301,#302,#303);
#301 = CARTESIAN_POINT('',(-15.,0.,-15.));
#302 = DIRECTION('',(1.,0.,-0.));
#303 = DIRECTION('',(0.,0.,1.));
#304 = ADVANCED_FACE('',(#305),#316,.T.);
#305 = FACE_BOUND('',#306,.T.);
#306 = EDGE_LOOP('',(#307,#308,#309,#310));
#307 = ORIENTED_EDGE('',*,*,#294,.F.);
#308 = ORIENTED_EDGE('',*,*,#73,.T.);
#309 = ORIENTED_EDGE('',*,*,#270,.T.);
#310 = ORIENTED_EDGE('',*,*,#311,.F.);
#311 = EDGE_CURVE('',#287,#263,#312,.T.);
#312 = LINE('',#313,#314);
#313 = CARTESIAN_POINT('',(-15.,2.5,15.));
#314 = VECTOR('',#315,1.);
#315 = DIRECTION('',(1.,0.,-0.));
#316 = PLANE('',#317);
#317 = AXIS2_PLACEMENT_3D('',#318,#319,#320);
#318 = CARTESIAN_POINT('',(-15.,0.,15.));
#319 = DIRECTION('',(0.,0.,1.));
#320 = DIRECTION('',(1.,0.,-0.));
#321 = ADVANCED_FACE('',(#322),#349,.F.);
#322 = FACE_BOUND('',#323,.T.);
#323 = EDGE_LOOP('',(#324,#333,#341,#348));
#324 = ORIENTED_EDGE('',*,*,#325,.T.);
#325 = EDGE_CURVE('',#90,#326,#328,.T.);
#326 = VERTEX_POINT('',#327);
#327 = CARTESIAN_POINT('',(1.6,-1.5,-7.5));
#328 = ELLIPSE('',#329,2.12132034356,1.5);
#329 = AXIS2_PLACEMENT_3D('',#330,#331,#332);
#330 = CARTESIAN_POINT('',(0.1,-1.5,-9.));
#331 = DIRECTION('',(0.707106781187,0.,-0.707106781187));
#332 = DIRECTION('',(0.707106781187,0.,0.707106781187));
#333 = ORIENTED_EDGE('',*,*,#334,.T.);
#334 = EDGE_CURVE('',#326,#335,#337,.T.);
#335 = VERTEX_POINT('',#336);
#336 = CARTESIAN_POINT('',(1.6,-1.5,7.5));
#337 = LINE('',#338,#339);
#338 = CARTESIAN_POINT('',(1.6,-1.5,-7.5));
#339 = VECTOR('',#340,1.);
#340 = DIRECTION('',(0.,0.,1.));
#341 = ORIENTED_EDGE('',*,*,#342,.F.);
#342 = EDGE_CURVE('',#92,#335,#343,.T.);
#343 = ELLIPSE('',#344,2.12132034356,1.5);
#344 = AXIS2_PLACEMENT_3D('',#345,#346,#347);
#345 = CARTESIAN_POINT('',(0.1,-1.5,9.));
#346 = DIRECTION('',(-0.707106781187,0.,-0.707106781187));
#347 = DIRECTION('',(-0.707106781187,0.,0.707106781187));
#348 = ORIENTED_EDGE('',*,*,#89,.F.);
#349 = CYLINDRICAL_SURFACE('',#350,1.5);
#350 = AXIS2_PLACEMENT_3D('',#351,#352,#353);
#351 = CARTESIAN_POINT('',(0.1,-1.5,-7.5));
#352 = DIRECTION('',(0.,0.,1.));
#353 = DIRECTION('',(-0.,1.,0.));
#354 = ADVANCED_FACE('',(#355),#374,.F.);
#355 = FACE_BOUND('',#356,.F.);
#356 = EDGE_LOOP('',(#357,#358,#366,#373));
#357 = ORIENTED_EDGE('',*,*,#325,.T.);
#358 = ORIENTED_EDGE('',*,*,#359,.T.);
#359 = EDGE_CURVE('',#326,#360,#362,.T.);
#360 = VERTEX_POINT('',#361);
#361 = CARTESIAN_POINT('',(4.6,-1.5,-7.5));
#362 = LINE('',#363,#364);
#363 = CARTESIAN_POINT('',(1.6,-1.5,-7.5));
#364 = VECTOR('',#365,1.);
#365 = DIRECTION('',(1.,0.,-0.));
#366 = ORIENTED_EDGE('',*,*,#367,.F.);
#367 = EDGE_CURVE('',#100,#360,#368,.T.);
#368 = ELLIPSE('',#369,2.12132034356,1.5);
#369 = AXIS2_PLACEMENT_3D('',#370,#371,#372);
#370 = CARTESIAN_POINT('',(6.1,-1.5,-9.));
#371 = DIRECTION('',(0.707106781187,0.,0.707106781187));
#372 = DIRECTION('',(-0.707106781187,0.,0.707106781187));
#373 = ORIENTED_EDGE('',*,*,#99,.F.);
#374 = CYLINDRICAL_SURFACE('',#375,1.5);
#375 = AXIS2_PLACEMENT_3D('',#376,#377,#378);
#376 = CARTESIAN_POINT('',(1.6,-1.5,-9.));
#377 = DIRECTION('',(1.,0.,-0.));
#378 = DIRECTION('',(0.,1.,0.));
#379 = ADVANCED_FACE('',(#380),#399,.F.);
#380 = FACE_BOUND('',#381,.T.);
#381 = EDGE_LOOP('',(#382,#383,#391,#398));
#382 = ORIENTED_EDGE('',*,*,#342,.T.);
#383 = ORIENTED_EDGE('',*,*,#384,.T.);
#384 = EDGE_CURVE('',#335,#385,#387,.T.);
#385 = VERTEX_POINT('',#386);
#386 = CARTESIAN_POINT('',(4.6,-1.5,7.5));
#387 = LINE('',#388,#389);
#388 = CARTESIAN_POINT('',(1.6,-1.5,7.5));
#389 = VECTOR('',#390,1.);
#390 = DIRECTION('',(1.,0.,-0.));
#391 = ORIENTED_EDGE('',*,*,#392,.F.);
#392 = EDGE_CURVE('',#108,#385,#393,.T.);
#393 = ELLIPSE('',#394,2.12132034356,1.5);
#394 = AXIS2_PLACEMENT_3D('',#395,#396,#397);
#395 = CARTESIAN_POINT('',(6.1,-1.5,9.));
#396 = DIRECTION('',(-0.707106781187,-0.,0.707106781187));
#397 = DIRECTION('',(0.707106781187,0.,0.707106781187));
#398 = ORIENTED_EDGE('',*,*,#115,.F.);
#399 = CYLINDRICAL_SURFACE('',#400,1.5);
#400 = AXIS2_PLACEMENT_3D('',#401,#402,#403);
#401 = CARTESIAN_POINT('',(1.6,-1.5,9.));
#402 = DIRECTION('',(1.,0.,-0.));
#403 = DIRECTION('',(0.,1.,0.));
#404 = ADVANCED_FACE('',(#405),#416,.F.);
#405 = FACE_BOUND('',#406,.F.);
#406 = EDGE_LOOP('',(#407,#408,#414,#415));
#407 = ORIENTED_EDGE('',*,*,#367,.T.);
#408 = ORIENTED_EDGE('',*,*,#409,.T.);
#409 = EDGE_CURVE('',#360,#385,#410,.T.);
#410 = LINE('',#411,#412);
#411 = CARTESIAN_POINT('',(4.6,-1.5,-7.5));
#412 = VECTOR('',#413,1.);
#413 = DIRECTION('',(0.,0.,1.));
#414 = ORIENTED_EDGE('',*,*,#392,.F.);
#415 = ORIENTED_EDGE('',*,*,#107,.F.);
#416 = CYLINDRICAL_SURFACE('',#417,1.5);
#417 = AXIS2_PLACEMENT_3D('',#418,#419,#420);
#418 = CARTESIAN_POINT('',(6.1,-1.5,-7.5));
#419 = DIRECTION('',(0.,0.,1.));
#420 = DIRECTION('',(-0.,1.,0.));
#421 = ADVANCED_FACE('',(#422,#448),#459,.T.);
#422 = FACE_BOUND('',#423,.T.);
#423 = EDGE_LOOP('',(#424,#432,#433,#441));
#424 = ORIENTED_EDGE('',*,*,#425,.T.);
#425 = EDGE_CURVE('',#426,#139,#428,.T.);
#426 = VERTEX_POINT('',#427);
#427 = CARTESIAN_POINT('',(-4.6,-10.,7.5));
#428 = LINE('',#429,#430);
#429 = CARTESIAN_POINT('',(-4.6,-10.,7.5));
#430 = VECTOR('',#431,1.);
#431 = DIRECTION('',(-0.,1.,0.));
#432 = ORIENTED_EDGE('',*,*,#138,.F.);
#433 = ORIENTED_EDGE('',*,*,#434,.F.);
#434 = EDGE_CURVE('',#435,#130,#437,.T.);
#435 = VERTEX_POINT('',#436);
#436 = CARTESIAN_POINT('',(-4.6,-10.,-7.5));
#437 = LINE('',#438,#439);
#438 = CARTESIAN_POINT('',(-4.6,-10.,-7.5));
#439 = VECTOR('',#440,1.);
#440 = DIRECTION('',(-0.,1.,0.));
#441 = ORIENTED_EDGE('',*,*,#442,.F.);
#442 = EDGE_CURVE('',#426,#435,#443,.T.);
#443 = CIRCLE('',#444,7.5);
#444 = AXIS2_PLACEMENT_3D('',#445,#446,#447);
#445 = CARTESIAN_POINT('',(-4.6,-10.,0.));
#446 = DIRECTION('',(1.,0.,0.));
#447 = DIRECTION('',(-0.,0.,1.));
#448 = FACE_BOUND('',#449,.T.);
#449 = EDGE_LOOP('',(#450));
#450 = ORIENTED_EDGE('',*,*,#451,.T.);
#451 = EDGE_CURVE('',#452,#452,#454,.T.);
#452 = VERTEX_POINT('',#453);
#453 = CARTESIAN_POINT('',(-4.6,-10.,2.6));
#454 = CIRCLE('',#455,2.6);
#455 = AXIS2_PLACEMENT_3D('',#456,#457,#458);
#456 = CARTESIAN_POINT('',(-4.6,-10.,0.));
#457 = DIRECTION('',(1.,0.,0.));
#458 = DIRECTION('',(-0.,0.,1.));
#459 = PLANE('',#460);
#460 = AXIS2_PLACEMENT_3D('',#461,#462,#463);
#461 = CARTESIAN_POINT('',(-4.6,-7.346571442187,3.707179490922E-16));
#462 = DIRECTION('',(-1.,-0.,-0.));
#463 = DIRECTION('',(0.,0.,-1.));
#464 = ADVANCED_FACE('',(#465),#483,.F.);
#465 = FACE_BOUND('',#466,.F.);
#466 = EDGE_LOOP('',(#467,#468,#476,#482));
#467 = ORIENTED_EDGE('',*,*,#434,.F.);
#468 = ORIENTED_EDGE('',*,*,#469,.T.);
#469 = EDGE_CURVE('',#435,#470,#472,.T.);
#470 = VERTEX_POINT('',#471);
#471 = CARTESIAN_POINT('',(-1.6,-10.,-7.5));
#472 = LINE('',#473,#474);
#473 = CARTESIAN_POINT('',(-4.6,-10.,-7.5));
#474 = VECTOR('',#475,1.);
#475 = DIRECTION('',(1.,0.,-0.));
#476 = ORIENTED_EDGE('',*,*,#477,.T.);
#477 = EDGE_CURVE('',#470,#164,#478,.T.);
#478 = LINE('',#479,#480);
#479 = CARTESIAN_POINT('',(-1.6,-10.,-7.5));
#480 = VECTOR('',#481,1.);
#481 = DIRECTION('',(-0.,1.,0.));
#482 = ORIENTED_EDGE('',*,*,#163,.F.);
#483 = PLANE('',#484);
#484 = AXIS2_PLACEMENT_3D('',#485,#486,#487);
#485 = CARTESIAN_POINT('',(-4.6,-10.,-7.5));
#486 = DIRECTION('',(0.,0.,1.));
#487 = DIRECTION('',(1.,0.,-0.));
#488 = ADVANCED_FACE('',(#489),#507,.T.);
#489 = FACE_BOUND('',#490,.T.);
#490 = EDGE_LOOP('',(#491,#492,#500,#506));
#491 = ORIENTED_EDGE('',*,*,#425,.F.);
#492 = ORIENTED_EDGE('',*,*,#493,.T.);
#493 = EDGE_CURVE('',#426,#494,#496,.T.);
#494 = VERTEX_POINT('',#495);
#495 = CARTESIAN_POINT('',(-1.6,-10.,7.5));
#496 = LINE('',#497,#498);
#497 = CARTESIAN_POINT('',(-4.6,-10.,7.5));
#498 = VECTOR('',#499,1.);
#499 = DIRECTION('',(1.,0.,-0.));
#500 = ORIENTED_EDGE('',*,*,#501,.T.);
#501 = EDGE_CURVE('',#494,#189,#502,.T.);
#502 = LINE('',#503,#504);
#503 = CARTESIAN_POINT('',(-1.6,-10.,7.5));
#504 = VECTOR('',#505,1.);
#505 = DIRECTION('',(-0.,1.,0.));
#506 = ORIENTED_EDGE('',*,*,#188,.F.);
#507 = PLANE('',#508);
#508 = AXIS2_PLACEMENT_3D('',#509,#510,#511);
#509 = CARTESIAN_POINT('',(-4.6,-10.,7.5));
#510 = DIRECTION('',(0.,0.,1.));
#511 = DIRECTION('',(1.,0.,-0.));
#512 = ADVANCED_FACE('',(#513,#525),#536,.T.);
#513 = FACE_BOUND('',#514,.T.);
#514 = EDGE_LOOP('',(#515,#516,#523,#524));
#515 = ORIENTED_EDGE('',*,*,#501,.F.);
#516 = ORIENTED_EDGE('',*,*,#517,.T.);
#517 = EDGE_CURVE('',#494,#470,#518,.T.);
#518 = CIRCLE('',#519,7.5);
#519 = AXIS2_PLACEMENT_3D('',#520,#521,#522);
#520 = CARTESIAN_POINT('',(-1.6,-10.,0.));
#521 = DIRECTION('',(1.,0.,0.));
#522 = DIRECTION('',(-0.,0.,1.));
#523 = ORIENTED_EDGE('',*,*,#477,.T.);
#524 = ORIENTED_EDGE('',*,*,#213,.T.);
#525 = FACE_BOUND('',#526,.T.);
#526 = EDGE_LOOP('',(#527));
#527 = ORIENTED_EDGE('',*,*,#528,.F.);
#528 = EDGE_CURVE('',#529,#529,#531,.T.);
#529 = VERTEX_POINT('',#530);
#530 = CARTESIAN_POINT('',(-1.6,-10.,2.6));
#531 = CIRCLE('',#532,2.6);
#532 = AXIS2_PLACEMENT_3D('',#533,#534,#535);
#533 = CARTESIAN_POINT('',(-1.6,-10.,0.));
#534 = DIRECTION('',(1.,0.,0.));
#535 = DIRECTION('',(-0.,0.,1.));
#536 = PLANE('',#537);
#537 = AXIS2_PLACEMENT_3D('',#538,#539,#540);
#538 = CARTESIAN_POINT('',(-1.6,-7.346571442187,2.471452993948E-16));
#539 = DIRECTION('',(1.,0.,0.));
#540 = DIRECTION('',(-0.,0.,1.));
#541 = ADVANCED_FACE('',(#542),#548,.T.);
#542 = FACE_BOUND('',#543,.T.);
#543 = EDGE_LOOP('',(#544,#545,#546,#547));
#544 = ORIENTED_EDGE('',*,*,#246,.F.);
#545 = ORIENTED_EDGE('',*,*,#286,.T.);
#546 = ORIENTED_EDGE('',*,*,#311,.T.);
#547 = ORIENTED_EDGE('',*,*,#262,.F.);
#548 = PLANE('',#549);
#549 = AXIS2_PLACEMENT_3D('',#550,#551,#552);
#550 = CARTESIAN_POINT('',(-15.,2.5,-15.));
#551 = DIRECTION('',(-0.,1.,0.));
#552 = DIRECTION('',(0.,0.,1.));
#553 = ADVANCED_FACE('',(#554,#580),#591,.T.);
#554 = FACE_BOUND('',#555,.T.);
#555 = EDGE_LOOP('',(#556,#564,#565,#573));
#556 = ORIENTED_EDGE('',*,*,#557,.T.);
#557 = EDGE_CURVE('',#558,#335,#560,.T.);
#558 = VERTEX_POINT('',#559);
#559 = CARTESIAN_POINT('',(1.6,-10.,7.5));
#560 = LINE('',#561,#562);
#561 = CARTESIAN_POINT('',(1.6,-10.,7.5));
#562 = VECTOR('',#563,1.);
#563 = DIRECTION('',(-0.,1.,0.));
#564 = ORIENTED_EDGE('',*,*,#334,.F.);
#565 = ORIENTED_EDGE('',*,*,#566,.F.);
#566 = EDGE_CURVE('',#567,#326,#569,.T.);
#567 = VERTEX_POINT('',#568);
#568 = CARTESIAN_POINT('',(1.6,-10.,-7.5));
#569 = LINE('',#570,#571);
#570 = CARTESIAN_POINT('',(1.6,-10.,-7.5));
#571 = VECTOR('',#572,1.);
#572 = DIRECTION('',(-0.,1.,0.));
#573 = ORIENTED_EDGE('',*,*,#574,.F.);
#574 = EDGE_CURVE('',#558,#567,#575,.T.);
#575 = CIRCLE('',#576,7.5);
#576 = AXIS2_PLACEMENT_3D('',#577,#578,#579);
#577 = CARTESIAN_POINT('',(1.6,-10.,0.));
#578 = DIRECTION('',(1.,0.,0.));
#579 = DIRECTION('',(-0.,0.,1.));
#580 = FACE_BOUND('',#581,.T.);
#581 = EDGE_LOOP('',(#582));
#582 = ORIENTED_EDGE('',*,*,#583,.T.);
#583 = EDGE_CURVE('',#584,#584,#586,.T.);
#584 = VERTEX_POINT('',#585);
#585 = CARTESIAN_POINT('',(1.6,-10.,2.6));
#586 = CIRCLE('',#587,2.6);
#587 = AXIS2_PLACEMENT_3D('',#588,#589,#590);
#588 = CARTESIAN_POINT('',(1.6,-10.,0.));
#589 = DIRECTION('',(1.,0.,0.));
#590 = DIRECTION('',(-0.,0.,1.));
#591 = PLANE('',#592);
#592 = AXIS2_PLACEMENT_3D('',#593,#594,#595);
#593 = CARTESIAN_POINT('',(1.6,-7.346571442187,3.707179490922E-16));
#594 = DIRECTION('',(-1.,-0.,-0.));
#595 = DIRECTION('',(0.,0.,-1.));
#596 = ADVANCED_FACE('',(#597),#615,.F.);
#597 = FACE_BOUND('',#598,.F.);
#598 = EDGE_LOOP('',(#599,#600,#608,#614));
#599 = ORIENTED_EDGE('',*,*,#566,.F.);
#600 = ORIENTED_EDGE('',*,*,#601,.T.);
#601 = EDGE_CURVE('',#567,#602,#604,.T.);
#602 = VERTEX_POINT('',#603);
#603 = CARTESIAN_POINT('',(4.6,-10.,-7.5));
#604 = LINE('',#605,#606);
#605 = CARTESIAN_POINT('',(1.6,-10.,-7.5));
#606 = VECTOR('',#607,1.);
#607 = DIRECTION('',(1.,0.,-0.));
#608 = ORIENTED_EDGE('',*,*,#609,.T.);
#609 = EDGE_CURVE('',#602,#360,#610,.T.);
#610 = LINE('',#611,#612);
#611 = CARTESIAN_POINT('',(4.6,-10.,-7.5));
#612 = VECTOR('',#613,1.);
#613 = DIRECTION('',(-0.,1.,0.));
#614 = ORIENTED_EDGE('',*,*,#359,.F.);
#615 = PLANE('',#616);
#616 = AXIS2_PLACEMENT_3D('',#617,#618,#619);
#617 = CARTESIAN_POINT('',(1.6,-10.,-7.5));
#618 = DIRECTION('',(0.,0.,1.));
#619 = DIRECTION('',(1.,0.,-0.));
#620 = ADVANCED_FACE('',(#621),#639,.T.);
#621 = FACE_BOUND('',#622,.T.);
#622 = EDGE_LOOP('',(#623,#624,#632,#638));
#623 = ORIENTED_EDGE('',*,*,#557,.F.);
#624 = ORIENTED_EDGE('',*,*,#625,.T.);
#625 = EDGE_CURVE('',#558,#626,#628,.T.);
#626 = VERTEX_POINT('',#627);
#627 = CARTESIAN_POINT('',(4.6,-10.,7.5));
#628 = LINE('',#629,#630);
#629 = CARTESIAN_POINT('',(1.6,-10.,7.5));
#630 = VECTOR('',#631,1.);
#631 = DIRECTION('',(1.,0.,-0.));
#632 = ORIENTED_EDGE('',*,*,#633,.T.);
#633 = EDGE_CURVE('',#626,#385,#634,.T.);
#634 = LINE('',#635,#636);
#635 = CARTESIAN_POINT('',(4.6,-10.,7.5));
#636 = VECTOR('',#637,1.);
#637 = DIRECTION('',(-0.,1.,0.));
#638 = ORIENTED_EDGE('',*,*,#384,.F.);
#639 = PLANE('',#640);
#640 = AXIS2_PLACEMENT_3D('',#641,#642,#643);
#641 = CARTESIAN_POINT('',(1.6,-10.,7.5));
#642 = DIRECTION('',(0.,0.,1.));
#643 = DIRECTION('',(1.,0.,-0.));
#644 = ADVANCED_FACE('',(#645,#657),#668,.T.);
#645 = FACE_BOUND('',#646,.T.);
#646 = EDGE_LOOP('',(#647,#648,#655,#656));
#647 = ORIENTED_EDGE('',*,*,#633,.F.);
#648 = ORIENTED_EDGE('',*,*,#649,.T.);
#649 = EDGE_CURVE('',#626,#602,#650,.T.);
#650 = CIRCLE('',#651,7.5);
#651 = AXIS2_PLACEMENT_3D('',#652,#653,#654);
#652 = CARTESIAN_POINT('',(4.6,-10.,0.));
#653 = DIRECTION('',(1.,0.,0.));
#654 = DIRECTION('',(-0.,0.,1.));
#655 = ORIENTED_EDGE('',*,*,#609,.T.);
#656 = ORIENTED_EDGE('',*,*,#409,.T.);
#657 = FACE_BOUND('',#658,.T.);
#658 = EDGE_LOOP('',(#659));
#659 = ORIENTED_EDGE('',*,*,#660,.F.);
#660 = EDGE_CURVE('',#661,#661,#663,.T.);
#661 = VERTEX_POINT('',#662);
#662 = CARTESIAN_POINT('',(4.6,-10.,2.6));
#663 = CIRCLE('',#664,2.6);
#664 = AXIS2_PLACEMENT_3D('',#665,#666,#667);
#665 = CARTESIAN_POINT('',(4.6,-10.,0.));
#666 = DIRECTION('',(1.,0.,0.));
#667 = DIRECTION('',(-0.,0.,1.));
#668 = PLANE('',#669);
#669 = AXIS2_PLACEMENT_3D('',#670,#671,#672);
#670 = CARTESIAN_POINT('',(4.6,-7.346571442187,2.471452993948E-16));
#671 = DIRECTION('',(1.,0.,0.));
#672 = DIRECTION('',(-0.,0.,1.));
#673 = ADVANCED_FACE('',(#674),#680,.T.);
#674 = FACE_BOUND('',#675,.T.);
#675 = EDGE_LOOP('',(#676,#677,#678,#679));
#676 = ORIENTED_EDGE('',*,*,#517,.F.);
#677 = ORIENTED_EDGE('',*,*,#493,.F.);
#678 = ORIENTED_EDGE('',*,*,#442,.T.);
#679 = ORIENTED_EDGE('',*,*,#469,.T.);
#680 = CYLINDRICAL_SURFACE('',#681,7.5);
#681 = AXIS2_PLACEMENT_3D('',#682,#683,#684);
#682 = CARTESIAN_POINT('',(-4.6,-10.,0.));
#683 = DIRECTION('',(1.,0.,0.));
#684 = DIRECTION('',(-0.,0.,1.));
#685 = ADVANCED_FACE('',(#686),#697,.F.);
#686 = FACE_BOUND('',#687,.F.);
#687 = EDGE_LOOP('',(#688,#689,#695,#696));
#688 = ORIENTED_EDGE('',*,*,#528,.F.);
#689 = ORIENTED_EDGE('',*,*,#690,.F.);
#690 = EDGE_CURVE('',#452,#529,#691,.T.);
#691 = LINE('',#692,#693);
#692 = CARTESIAN_POINT('',(-20.,-10.,2.6));
#693 = VECTOR('',#694,1.);
#694 = DIRECTION('',(1.,0.,0.));
#695 = ORIENTED_EDGE('',*,*,#451,.T.);
#696 = ORIENTED_EDGE('',*,*,#690,.T.);
#697 = CYLINDRICAL_SURFACE('',#698,2.6);
#698 = AXIS2_PLACEMENT_3D('',#699,#700,#701);
#699 = CARTESIAN_POINT('',(-20.,-10.,0.));
#700 = DIRECTION('',(1.,0.,0.));
#701 = DIRECTION('',(-0.,0.,1.));
#702 = ADVANCED_FACE('',(#703),#709,.T.);
#703 = FACE_BOUND('',#704,.T.);
#704 = EDGE_LOOP('',(#705,#706,#707,#708));
#705 = ORIENTED_EDGE('',*,*,#649,.F.);
#706 = ORIENTED_EDGE('',*,*,#625,.F.);
#707 = ORIENTED_EDGE('',*,*,#574,.T.);
#708 = ORIENTED_EDGE('',*,*,#601,.T.);
#709 = CYLINDRICAL_SURFACE('',#710,7.5);
#710 = AXIS2_PLACEMENT_3D('',#711,#712,#713);
#711 = CARTESIAN_POINT('',(1.6,-10.,0.));
#712 = DIRECTION('',(1.,0.,0.));
#713 = DIRECTION('',(-0.,0.,1.));
#714 = ADVANCED_FACE('',(#715),#726,.F.);
#715 = FACE_BOUND('',#716,.F.);
#716 = EDGE_LOOP('',(#717,#718,#724,#725));
#717 = ORIENTED_EDGE('',*,*,#660,.F.);
#718 = ORIENTED_EDGE('',*,*,#719,.F.);
#719 = EDGE_CURVE('',#584,#661,#720,.T.);
#720 = LINE('',#721,#722);
#721 = CARTESIAN_POINT('',(-20.,-10.,2.6));
#722 = VECTOR('',#723,1.);
#723 = DIRECTION('',(1.,0.,0.));
#724 = ORIENTED_EDGE('',*,*,#583,.T.);
#725 = ORIENTED_EDGE('',*,*,#719,.T.);
#726 = CYLINDRICAL_SURFACE('',#727,2.6);
#727 = AXIS2_PLACEMENT_3D('',#728,#729,#730);
#728 = CARTESIAN_POINT('',(-20.,-10.,0.));
#729 = DIRECTION('',(1.,0.,0.));
#730 = DIRECTION('',(-0.,0.,1.));
#731 = ( GEOMETRIC_REPRESENTATION_CONTEXT(3) 
GLOBAL_UNCERTAINTY_ASSIGNED_CONTEXT((#735)) GLOBAL_UNIT_ASSIGNED_CONTEXT
((#732,#733,#734)) REPRESENTATION_CONTEXT('Context #1',
  '3D Context with UNIT and UNCERTAINTY') );
#732 = ( LENGTH_UNIT() NAMED_UNIT(*) SI_UNIT(.MILLI.,.METRE.) );
#733 = ( NAMED_UNIT(*) PLANE_ANGLE_UNIT() SI_UNIT($,.RADIAN.) );
#734 = ( NAMED_UNIT(*) SI_UNIT($,.STERADIAN.) SOLID_ANGLE_UNIT() );
#735 = UNCERTAINTY_MEASURE_WITH_UNIT(LENGTH_MEASURE(1.E-07),#732,
  'distance_accuracy_value','confusion accuracy');
#736 = PRODUCT_RELATED_PRODUCT_CATEGORY('part',$,(#7));
ENDSEC;
END-ISO-10303-21;
