%TF.GenerationSoftware,KiCad,Pcbnew,9.0.8+dfsg-1*%
%TF.CreationDate,2026-10-08T16:17:40+05:30*%
%TF.ProjectId,VisionAid_Carrier,56697369-6f6e-4416-9964-5f4361727269,v0.1*%
%TF.SameCoordinates,Original*%
%TF.FileFunction,Legend,Top*%
%TF.FilePolarity,Positive*%
%FSLAX46Y46*%
G04 Gerber Fmt 4.6, Leading zero omitted, Abs format (unit mm)*
G04 Created by KiCad (PCBNEW 9.0.8+dfsg-1) date 2026-10-08 16:17:40*
%MOMM*%
%LPD*%
G01*
G04 APERTURE LIST*
%ADD10C,0.120000*%
%ADD11C,0.150000*%
G04 APERTURE END LIST*
D10*
X110652380Y-116963855D02*
X110652380Y-117535283D01*
X110652380Y-117535283D02*
X110614285Y-117649569D01*
X110614285Y-117649569D02*
X110538094Y-117725760D01*
X110538094Y-117725760D02*
X110423809Y-117763855D01*
X110423809Y-117763855D02*
X110347618Y-117763855D01*
X110957142Y-116963855D02*
X111490476Y-116963855D01*
X111490476Y-116963855D02*
X111147618Y-117763855D01*
X112404762Y-117763855D02*
X112404762Y-116963855D01*
X112404762Y-116963855D02*
X112671428Y-117535283D01*
X112671428Y-117535283D02*
X112938095Y-116963855D01*
X112938095Y-116963855D02*
X112938095Y-117763855D01*
X113471429Y-116963855D02*
X113623810Y-116963855D01*
X113623810Y-116963855D02*
X113700000Y-117001950D01*
X113700000Y-117001950D02*
X113776191Y-117078140D01*
X113776191Y-117078140D02*
X113814286Y-117230521D01*
X113814286Y-117230521D02*
X113814286Y-117497188D01*
X113814286Y-117497188D02*
X113776191Y-117649569D01*
X113776191Y-117649569D02*
X113700000Y-117725760D01*
X113700000Y-117725760D02*
X113623810Y-117763855D01*
X113623810Y-117763855D02*
X113471429Y-117763855D01*
X113471429Y-117763855D02*
X113395238Y-117725760D01*
X113395238Y-117725760D02*
X113319048Y-117649569D01*
X113319048Y-117649569D02*
X113280952Y-117497188D01*
X113280952Y-117497188D02*
X113280952Y-117230521D01*
X113280952Y-117230521D02*
X113319048Y-117078140D01*
X113319048Y-117078140D02*
X113395238Y-117001950D01*
X113395238Y-117001950D02*
X113471429Y-116963855D01*
X114042857Y-116963855D02*
X114500000Y-116963855D01*
X114271428Y-117763855D02*
X114271428Y-116963855D01*
X114766667Y-117459093D02*
X115376191Y-117459093D01*
X116214286Y-117763855D02*
X115947619Y-117382902D01*
X115757143Y-117763855D02*
X115757143Y-116963855D01*
X115757143Y-116963855D02*
X116061905Y-116963855D01*
X116061905Y-116963855D02*
X116138095Y-117001950D01*
X116138095Y-117001950D02*
X116176190Y-117040045D01*
X116176190Y-117040045D02*
X116214286Y-117116236D01*
X116214286Y-117116236D02*
X116214286Y-117230521D01*
X116214286Y-117230521D02*
X116176190Y-117306712D01*
X116176190Y-117306712D02*
X116138095Y-117344807D01*
X116138095Y-117344807D02*
X116061905Y-117382902D01*
X116061905Y-117382902D02*
X115757143Y-117382902D01*
X110842857Y-128963855D02*
X110842857Y-128163855D01*
X110842857Y-128163855D02*
X111147619Y-128163855D01*
X111147619Y-128163855D02*
X111223809Y-128201950D01*
X111223809Y-128201950D02*
X111261904Y-128240045D01*
X111261904Y-128240045D02*
X111300000Y-128316236D01*
X111300000Y-128316236D02*
X111300000Y-128430521D01*
X111300000Y-128430521D02*
X111261904Y-128506712D01*
X111261904Y-128506712D02*
X111223809Y-128544807D01*
X111223809Y-128544807D02*
X111147619Y-128582902D01*
X111147619Y-128582902D02*
X110842857Y-128582902D01*
X111566666Y-128163855D02*
X111757142Y-128963855D01*
X111757142Y-128963855D02*
X111909523Y-128392426D01*
X111909523Y-128392426D02*
X112061904Y-128963855D01*
X112061904Y-128963855D02*
X112252381Y-128163855D01*
X113014286Y-128963855D02*
X112747619Y-128582902D01*
X112557143Y-128963855D02*
X112557143Y-128163855D01*
X112557143Y-128163855D02*
X112861905Y-128163855D01*
X112861905Y-128163855D02*
X112938095Y-128201950D01*
X112938095Y-128201950D02*
X112976190Y-128240045D01*
X112976190Y-128240045D02*
X113014286Y-128316236D01*
X113014286Y-128316236D02*
X113014286Y-128430521D01*
X113014286Y-128430521D02*
X112976190Y-128506712D01*
X112976190Y-128506712D02*
X112938095Y-128544807D01*
X112938095Y-128544807D02*
X112861905Y-128582902D01*
X112861905Y-128582902D02*
X112557143Y-128582902D01*
X114347619Y-128963855D02*
X113966667Y-128963855D01*
X113966667Y-128963855D02*
X113966667Y-128163855D01*
X114614286Y-128544807D02*
X114880952Y-128544807D01*
X114995238Y-128963855D02*
X114614286Y-128963855D01*
X114614286Y-128963855D02*
X114614286Y-128163855D01*
X114614286Y-128163855D02*
X114995238Y-128163855D01*
X115338096Y-128963855D02*
X115338096Y-128163855D01*
X115338096Y-128163855D02*
X115528572Y-128163855D01*
X115528572Y-128163855D02*
X115642858Y-128201950D01*
X115642858Y-128201950D02*
X115719048Y-128278140D01*
X115719048Y-128278140D02*
X115757143Y-128354331D01*
X115757143Y-128354331D02*
X115795239Y-128506712D01*
X115795239Y-128506712D02*
X115795239Y-128620998D01*
X115795239Y-128620998D02*
X115757143Y-128773379D01*
X115757143Y-128773379D02*
X115719048Y-128849569D01*
X115719048Y-128849569D02*
X115642858Y-128925760D01*
X115642858Y-128925760D02*
X115528572Y-128963855D01*
X115528572Y-128963855D02*
X115338096Y-128963855D01*
X121738092Y-107863855D02*
X121738092Y-108435283D01*
X121738092Y-108435283D02*
X121699997Y-108549569D01*
X121699997Y-108549569D02*
X121623806Y-108625760D01*
X121623806Y-108625760D02*
X121509521Y-108663855D01*
X121509521Y-108663855D02*
X121433330Y-108663855D01*
X122538092Y-108663855D02*
X122080949Y-108663855D01*
X122309521Y-108663855D02*
X122309521Y-107863855D01*
X122309521Y-107863855D02*
X122233330Y-107978140D01*
X122233330Y-107978140D02*
X122157140Y-108054331D01*
X122157140Y-108054331D02*
X122080949Y-108092426D01*
X123909521Y-107901950D02*
X123833331Y-107863855D01*
X123833331Y-107863855D02*
X123719045Y-107863855D01*
X123719045Y-107863855D02*
X123604759Y-107901950D01*
X123604759Y-107901950D02*
X123528569Y-107978140D01*
X123528569Y-107978140D02*
X123490474Y-108054331D01*
X123490474Y-108054331D02*
X123452378Y-108206712D01*
X123452378Y-108206712D02*
X123452378Y-108320998D01*
X123452378Y-108320998D02*
X123490474Y-108473379D01*
X123490474Y-108473379D02*
X123528569Y-108549569D01*
X123528569Y-108549569D02*
X123604759Y-108625760D01*
X123604759Y-108625760D02*
X123719045Y-108663855D01*
X123719045Y-108663855D02*
X123795236Y-108663855D01*
X123795236Y-108663855D02*
X123909521Y-108625760D01*
X123909521Y-108625760D02*
X123947617Y-108587664D01*
X123947617Y-108587664D02*
X123947617Y-108320998D01*
X123947617Y-108320998D02*
X123795236Y-108320998D01*
X124290474Y-108663855D02*
X124290474Y-107863855D01*
X124290474Y-107863855D02*
X124595236Y-107863855D01*
X124595236Y-107863855D02*
X124671426Y-107901950D01*
X124671426Y-107901950D02*
X124709521Y-107940045D01*
X124709521Y-107940045D02*
X124747617Y-108016236D01*
X124747617Y-108016236D02*
X124747617Y-108130521D01*
X124747617Y-108130521D02*
X124709521Y-108206712D01*
X124709521Y-108206712D02*
X124671426Y-108244807D01*
X124671426Y-108244807D02*
X124595236Y-108282902D01*
X124595236Y-108282902D02*
X124290474Y-108282902D01*
X125090474Y-108663855D02*
X125090474Y-107863855D01*
X125623807Y-107863855D02*
X125776188Y-107863855D01*
X125776188Y-107863855D02*
X125852378Y-107901950D01*
X125852378Y-107901950D02*
X125928569Y-107978140D01*
X125928569Y-107978140D02*
X125966664Y-108130521D01*
X125966664Y-108130521D02*
X125966664Y-108397188D01*
X125966664Y-108397188D02*
X125928569Y-108549569D01*
X125928569Y-108549569D02*
X125852378Y-108625760D01*
X125852378Y-108625760D02*
X125776188Y-108663855D01*
X125776188Y-108663855D02*
X125623807Y-108663855D01*
X125623807Y-108663855D02*
X125547616Y-108625760D01*
X125547616Y-108625760D02*
X125471426Y-108549569D01*
X125471426Y-108549569D02*
X125433330Y-108397188D01*
X125433330Y-108397188D02*
X125433330Y-108130521D01*
X125433330Y-108130521D02*
X125471426Y-107978140D01*
X125471426Y-107978140D02*
X125547616Y-107901950D01*
X125547616Y-107901950D02*
X125623807Y-107863855D01*
X126919045Y-108663855D02*
X126919045Y-108130521D01*
X126919045Y-108282902D02*
X126957140Y-108206712D01*
X126957140Y-108206712D02*
X126995235Y-108168617D01*
X126995235Y-108168617D02*
X127071426Y-108130521D01*
X127071426Y-108130521D02*
X127147616Y-108130521D01*
X127414283Y-108663855D02*
X127414283Y-108130521D01*
X127414283Y-107863855D02*
X127376187Y-107901950D01*
X127376187Y-107901950D02*
X127414283Y-107940045D01*
X127414283Y-107940045D02*
X127452378Y-107901950D01*
X127452378Y-107901950D02*
X127414283Y-107863855D01*
X127414283Y-107863855D02*
X127414283Y-107940045D01*
X127795235Y-108663855D02*
X127795235Y-107863855D01*
X127795235Y-108168617D02*
X127871425Y-108130521D01*
X127871425Y-108130521D02*
X128023806Y-108130521D01*
X128023806Y-108130521D02*
X128099997Y-108168617D01*
X128099997Y-108168617D02*
X128138092Y-108206712D01*
X128138092Y-108206712D02*
X128176187Y-108282902D01*
X128176187Y-108282902D02*
X128176187Y-108511474D01*
X128176187Y-108511474D02*
X128138092Y-108587664D01*
X128138092Y-108587664D02*
X128099997Y-108625760D01*
X128099997Y-108625760D02*
X128023806Y-108663855D01*
X128023806Y-108663855D02*
X127871425Y-108663855D01*
X127871425Y-108663855D02*
X127795235Y-108625760D01*
X128519045Y-108663855D02*
X128519045Y-107863855D01*
X128519045Y-108168617D02*
X128595235Y-108130521D01*
X128595235Y-108130521D02*
X128747616Y-108130521D01*
X128747616Y-108130521D02*
X128823807Y-108168617D01*
X128823807Y-108168617D02*
X128861902Y-108206712D01*
X128861902Y-108206712D02*
X128899997Y-108282902D01*
X128899997Y-108282902D02*
X128899997Y-108511474D01*
X128899997Y-108511474D02*
X128861902Y-108587664D01*
X128861902Y-108587664D02*
X128823807Y-108625760D01*
X128823807Y-108625760D02*
X128747616Y-108663855D01*
X128747616Y-108663855D02*
X128595235Y-108663855D01*
X128595235Y-108663855D02*
X128519045Y-108625760D01*
X129357140Y-108663855D02*
X129280950Y-108625760D01*
X129280950Y-108625760D02*
X129242855Y-108587664D01*
X129242855Y-108587664D02*
X129204759Y-108511474D01*
X129204759Y-108511474D02*
X129204759Y-108282902D01*
X129204759Y-108282902D02*
X129242855Y-108206712D01*
X129242855Y-108206712D02*
X129280950Y-108168617D01*
X129280950Y-108168617D02*
X129357140Y-108130521D01*
X129357140Y-108130521D02*
X129471426Y-108130521D01*
X129471426Y-108130521D02*
X129547617Y-108168617D01*
X129547617Y-108168617D02*
X129585712Y-108206712D01*
X129585712Y-108206712D02*
X129623807Y-108282902D01*
X129623807Y-108282902D02*
X129623807Y-108511474D01*
X129623807Y-108511474D02*
X129585712Y-108587664D01*
X129585712Y-108587664D02*
X129547617Y-108625760D01*
X129547617Y-108625760D02*
X129471426Y-108663855D01*
X129471426Y-108663855D02*
X129357140Y-108663855D01*
X129966665Y-108130521D02*
X129966665Y-108663855D01*
X129966665Y-108206712D02*
X130004760Y-108168617D01*
X130004760Y-108168617D02*
X130080950Y-108130521D01*
X130080950Y-108130521D02*
X130195236Y-108130521D01*
X130195236Y-108130521D02*
X130271427Y-108168617D01*
X130271427Y-108168617D02*
X130309522Y-108244807D01*
X130309522Y-108244807D02*
X130309522Y-108663855D01*
X130728570Y-108625760D02*
X130728570Y-108663855D01*
X130728570Y-108663855D02*
X130690475Y-108740045D01*
X130690475Y-108740045D02*
X130652379Y-108778140D01*
X131680951Y-108130521D02*
X131680951Y-108930521D01*
X131680951Y-108168617D02*
X131757141Y-108130521D01*
X131757141Y-108130521D02*
X131909522Y-108130521D01*
X131909522Y-108130521D02*
X131985713Y-108168617D01*
X131985713Y-108168617D02*
X132023808Y-108206712D01*
X132023808Y-108206712D02*
X132061903Y-108282902D01*
X132061903Y-108282902D02*
X132061903Y-108511474D01*
X132061903Y-108511474D02*
X132023808Y-108587664D01*
X132023808Y-108587664D02*
X131985713Y-108625760D01*
X131985713Y-108625760D02*
X131909522Y-108663855D01*
X131909522Y-108663855D02*
X131757141Y-108663855D01*
X131757141Y-108663855D02*
X131680951Y-108625760D01*
X132404761Y-108663855D02*
X132404761Y-108130521D01*
X132404761Y-107863855D02*
X132366665Y-107901950D01*
X132366665Y-107901950D02*
X132404761Y-107940045D01*
X132404761Y-107940045D02*
X132442856Y-107901950D01*
X132442856Y-107901950D02*
X132404761Y-107863855D01*
X132404761Y-107863855D02*
X132404761Y-107940045D01*
X132785713Y-108130521D02*
X132785713Y-108663855D01*
X132785713Y-108206712D02*
X132823808Y-108168617D01*
X132823808Y-108168617D02*
X132899998Y-108130521D01*
X132899998Y-108130521D02*
X133014284Y-108130521D01*
X133014284Y-108130521D02*
X133090475Y-108168617D01*
X133090475Y-108168617D02*
X133128570Y-108244807D01*
X133128570Y-108244807D02*
X133128570Y-108663855D01*
X134538094Y-108663855D02*
X134080951Y-108663855D01*
X134309523Y-108663855D02*
X134309523Y-107863855D01*
X134309523Y-107863855D02*
X134233332Y-107978140D01*
X134233332Y-107978140D02*
X134157142Y-108054331D01*
X134157142Y-108054331D02*
X134080951Y-108092426D01*
X135490476Y-108244807D02*
X136100000Y-108244807D01*
X136100000Y-108473379D02*
X135490476Y-108473379D01*
X137052380Y-108625760D02*
X137128571Y-108663855D01*
X137128571Y-108663855D02*
X137280952Y-108663855D01*
X137280952Y-108663855D02*
X137357142Y-108625760D01*
X137357142Y-108625760D02*
X137395238Y-108549569D01*
X137395238Y-108549569D02*
X137395238Y-108511474D01*
X137395238Y-108511474D02*
X137357142Y-108435283D01*
X137357142Y-108435283D02*
X137280952Y-108397188D01*
X137280952Y-108397188D02*
X137166666Y-108397188D01*
X137166666Y-108397188D02*
X137090476Y-108359093D01*
X137090476Y-108359093D02*
X137052380Y-108282902D01*
X137052380Y-108282902D02*
X137052380Y-108244807D01*
X137052380Y-108244807D02*
X137090476Y-108168617D01*
X137090476Y-108168617D02*
X137166666Y-108130521D01*
X137166666Y-108130521D02*
X137280952Y-108130521D01*
X137280952Y-108130521D02*
X137357142Y-108168617D01*
X138080952Y-108130521D02*
X138080952Y-108930521D01*
X138080952Y-108625760D02*
X138004761Y-108663855D01*
X138004761Y-108663855D02*
X137852380Y-108663855D01*
X137852380Y-108663855D02*
X137776190Y-108625760D01*
X137776190Y-108625760D02*
X137738095Y-108587664D01*
X137738095Y-108587664D02*
X137699999Y-108511474D01*
X137699999Y-108511474D02*
X137699999Y-108282902D01*
X137699999Y-108282902D02*
X137738095Y-108206712D01*
X137738095Y-108206712D02*
X137776190Y-108168617D01*
X137776190Y-108168617D02*
X137852380Y-108130521D01*
X137852380Y-108130521D02*
X138004761Y-108130521D01*
X138004761Y-108130521D02*
X138080952Y-108168617D01*
X138804762Y-108130521D02*
X138804762Y-108663855D01*
X138461905Y-108130521D02*
X138461905Y-108549569D01*
X138461905Y-108549569D02*
X138500000Y-108625760D01*
X138500000Y-108625760D02*
X138576190Y-108663855D01*
X138576190Y-108663855D02*
X138690476Y-108663855D01*
X138690476Y-108663855D02*
X138766667Y-108625760D01*
X138766667Y-108625760D02*
X138804762Y-108587664D01*
X139528572Y-108663855D02*
X139528572Y-108244807D01*
X139528572Y-108244807D02*
X139490477Y-108168617D01*
X139490477Y-108168617D02*
X139414286Y-108130521D01*
X139414286Y-108130521D02*
X139261905Y-108130521D01*
X139261905Y-108130521D02*
X139185715Y-108168617D01*
X139528572Y-108625760D02*
X139452381Y-108663855D01*
X139452381Y-108663855D02*
X139261905Y-108663855D01*
X139261905Y-108663855D02*
X139185715Y-108625760D01*
X139185715Y-108625760D02*
X139147619Y-108549569D01*
X139147619Y-108549569D02*
X139147619Y-108473379D01*
X139147619Y-108473379D02*
X139185715Y-108397188D01*
X139185715Y-108397188D02*
X139261905Y-108359093D01*
X139261905Y-108359093D02*
X139452381Y-108359093D01*
X139452381Y-108359093D02*
X139528572Y-108320998D01*
X139909525Y-108663855D02*
X139909525Y-108130521D01*
X139909525Y-108282902D02*
X139947620Y-108206712D01*
X139947620Y-108206712D02*
X139985715Y-108168617D01*
X139985715Y-108168617D02*
X140061906Y-108130521D01*
X140061906Y-108130521D02*
X140138096Y-108130521D01*
X140709525Y-108625760D02*
X140633334Y-108663855D01*
X140633334Y-108663855D02*
X140480953Y-108663855D01*
X140480953Y-108663855D02*
X140404763Y-108625760D01*
X140404763Y-108625760D02*
X140366667Y-108549569D01*
X140366667Y-108549569D02*
X140366667Y-108244807D01*
X140366667Y-108244807D02*
X140404763Y-108168617D01*
X140404763Y-108168617D02*
X140480953Y-108130521D01*
X140480953Y-108130521D02*
X140633334Y-108130521D01*
X140633334Y-108130521D02*
X140709525Y-108168617D01*
X140709525Y-108168617D02*
X140747620Y-108244807D01*
X140747620Y-108244807D02*
X140747620Y-108320998D01*
X140747620Y-108320998D02*
X140366667Y-108397188D01*
X141700001Y-108130521D02*
X141700001Y-108930521D01*
X141700001Y-108168617D02*
X141776191Y-108130521D01*
X141776191Y-108130521D02*
X141928572Y-108130521D01*
X141928572Y-108130521D02*
X142004763Y-108168617D01*
X142004763Y-108168617D02*
X142042858Y-108206712D01*
X142042858Y-108206712D02*
X142080953Y-108282902D01*
X142080953Y-108282902D02*
X142080953Y-108511474D01*
X142080953Y-108511474D02*
X142042858Y-108587664D01*
X142042858Y-108587664D02*
X142004763Y-108625760D01*
X142004763Y-108625760D02*
X141928572Y-108663855D01*
X141928572Y-108663855D02*
X141776191Y-108663855D01*
X141776191Y-108663855D02*
X141700001Y-108625760D01*
X142766668Y-108663855D02*
X142766668Y-108244807D01*
X142766668Y-108244807D02*
X142728573Y-108168617D01*
X142728573Y-108168617D02*
X142652382Y-108130521D01*
X142652382Y-108130521D02*
X142500001Y-108130521D01*
X142500001Y-108130521D02*
X142423811Y-108168617D01*
X142766668Y-108625760D02*
X142690477Y-108663855D01*
X142690477Y-108663855D02*
X142500001Y-108663855D01*
X142500001Y-108663855D02*
X142423811Y-108625760D01*
X142423811Y-108625760D02*
X142385715Y-108549569D01*
X142385715Y-108549569D02*
X142385715Y-108473379D01*
X142385715Y-108473379D02*
X142423811Y-108397188D01*
X142423811Y-108397188D02*
X142500001Y-108359093D01*
X142500001Y-108359093D02*
X142690477Y-108359093D01*
X142690477Y-108359093D02*
X142766668Y-108320998D01*
X143490478Y-108663855D02*
X143490478Y-107863855D01*
X143490478Y-108625760D02*
X143414287Y-108663855D01*
X143414287Y-108663855D02*
X143261906Y-108663855D01*
X143261906Y-108663855D02*
X143185716Y-108625760D01*
X143185716Y-108625760D02*
X143147621Y-108587664D01*
X143147621Y-108587664D02*
X143109525Y-108511474D01*
X143109525Y-108511474D02*
X143109525Y-108282902D01*
X143109525Y-108282902D02*
X143147621Y-108206712D01*
X143147621Y-108206712D02*
X143185716Y-108168617D01*
X143185716Y-108168617D02*
X143261906Y-108130521D01*
X143261906Y-108130521D02*
X143414287Y-108130521D01*
X143414287Y-108130521D02*
X143490478Y-108168617D01*
X108063855Y-115195238D02*
X108635283Y-115195238D01*
X108635283Y-115195238D02*
X108749569Y-115233333D01*
X108749569Y-115233333D02*
X108825760Y-115309524D01*
X108825760Y-115309524D02*
X108863855Y-115423809D01*
X108863855Y-115423809D02*
X108863855Y-115500000D01*
X108863855Y-114776190D02*
X108863855Y-114623809D01*
X108863855Y-114623809D02*
X108825760Y-114547619D01*
X108825760Y-114547619D02*
X108787664Y-114509523D01*
X108787664Y-114509523D02*
X108673379Y-114433333D01*
X108673379Y-114433333D02*
X108520998Y-114395238D01*
X108520998Y-114395238D02*
X108216236Y-114395238D01*
X108216236Y-114395238D02*
X108140045Y-114433333D01*
X108140045Y-114433333D02*
X108101950Y-114471428D01*
X108101950Y-114471428D02*
X108063855Y-114547619D01*
X108063855Y-114547619D02*
X108063855Y-114700000D01*
X108063855Y-114700000D02*
X108101950Y-114776190D01*
X108101950Y-114776190D02*
X108140045Y-114814285D01*
X108140045Y-114814285D02*
X108216236Y-114852381D01*
X108216236Y-114852381D02*
X108406712Y-114852381D01*
X108406712Y-114852381D02*
X108482902Y-114814285D01*
X108482902Y-114814285D02*
X108520998Y-114776190D01*
X108520998Y-114776190D02*
X108559093Y-114700000D01*
X108559093Y-114700000D02*
X108559093Y-114547619D01*
X108559093Y-114547619D02*
X108520998Y-114471428D01*
X108520998Y-114471428D02*
X108482902Y-114433333D01*
X108482902Y-114433333D02*
X108406712Y-114395238D01*
X108444807Y-113176190D02*
X108482902Y-113061904D01*
X108482902Y-113061904D02*
X108520998Y-113023809D01*
X108520998Y-113023809D02*
X108597188Y-112985713D01*
X108597188Y-112985713D02*
X108711474Y-112985713D01*
X108711474Y-112985713D02*
X108787664Y-113023809D01*
X108787664Y-113023809D02*
X108825760Y-113061904D01*
X108825760Y-113061904D02*
X108863855Y-113138094D01*
X108863855Y-113138094D02*
X108863855Y-113442856D01*
X108863855Y-113442856D02*
X108063855Y-113442856D01*
X108063855Y-113442856D02*
X108063855Y-113176190D01*
X108063855Y-113176190D02*
X108101950Y-113099999D01*
X108101950Y-113099999D02*
X108140045Y-113061904D01*
X108140045Y-113061904D02*
X108216236Y-113023809D01*
X108216236Y-113023809D02*
X108292426Y-113023809D01*
X108292426Y-113023809D02*
X108368617Y-113061904D01*
X108368617Y-113061904D02*
X108406712Y-113099999D01*
X108406712Y-113099999D02*
X108444807Y-113176190D01*
X108444807Y-113176190D02*
X108444807Y-113442856D01*
X108063855Y-112757142D02*
X108063855Y-112299999D01*
X108863855Y-112528571D02*
X108063855Y-112528571D01*
X108863855Y-112033332D02*
X108063855Y-112033332D01*
X108063855Y-112033332D02*
X108863855Y-111576189D01*
X108863855Y-111576189D02*
X108063855Y-111576189D01*
X108063855Y-129138095D02*
X108635283Y-129138095D01*
X108635283Y-129138095D02*
X108749569Y-129176190D01*
X108749569Y-129176190D02*
X108825760Y-129252381D01*
X108825760Y-129252381D02*
X108863855Y-129366666D01*
X108863855Y-129366666D02*
X108863855Y-129442857D01*
X108406712Y-128642857D02*
X108368617Y-128719047D01*
X108368617Y-128719047D02*
X108330521Y-128757142D01*
X108330521Y-128757142D02*
X108254331Y-128795238D01*
X108254331Y-128795238D02*
X108216236Y-128795238D01*
X108216236Y-128795238D02*
X108140045Y-128757142D01*
X108140045Y-128757142D02*
X108101950Y-128719047D01*
X108101950Y-128719047D02*
X108063855Y-128642857D01*
X108063855Y-128642857D02*
X108063855Y-128490476D01*
X108063855Y-128490476D02*
X108101950Y-128414285D01*
X108101950Y-128414285D02*
X108140045Y-128376190D01*
X108140045Y-128376190D02*
X108216236Y-128338095D01*
X108216236Y-128338095D02*
X108254331Y-128338095D01*
X108254331Y-128338095D02*
X108330521Y-128376190D01*
X108330521Y-128376190D02*
X108368617Y-128414285D01*
X108368617Y-128414285D02*
X108406712Y-128490476D01*
X108406712Y-128490476D02*
X108406712Y-128642857D01*
X108406712Y-128642857D02*
X108444807Y-128719047D01*
X108444807Y-128719047D02*
X108482902Y-128757142D01*
X108482902Y-128757142D02*
X108559093Y-128795238D01*
X108559093Y-128795238D02*
X108711474Y-128795238D01*
X108711474Y-128795238D02*
X108787664Y-128757142D01*
X108787664Y-128757142D02*
X108825760Y-128719047D01*
X108825760Y-128719047D02*
X108863855Y-128642857D01*
X108863855Y-128642857D02*
X108863855Y-128490476D01*
X108863855Y-128490476D02*
X108825760Y-128414285D01*
X108825760Y-128414285D02*
X108787664Y-128376190D01*
X108787664Y-128376190D02*
X108711474Y-128338095D01*
X108711474Y-128338095D02*
X108559093Y-128338095D01*
X108559093Y-128338095D02*
X108482902Y-128376190D01*
X108482902Y-128376190D02*
X108444807Y-128414285D01*
X108444807Y-128414285D02*
X108406712Y-128490476D01*
X108863855Y-127385713D02*
X108063855Y-127385713D01*
X108863855Y-127004761D02*
X108063855Y-127004761D01*
X108063855Y-127004761D02*
X108635283Y-126738095D01*
X108635283Y-126738095D02*
X108063855Y-126471428D01*
X108063855Y-126471428D02*
X108863855Y-126471428D01*
X108063855Y-126090475D02*
X108711474Y-126090475D01*
X108711474Y-126090475D02*
X108787664Y-126052380D01*
X108787664Y-126052380D02*
X108825760Y-126014285D01*
X108825760Y-126014285D02*
X108863855Y-125938094D01*
X108863855Y-125938094D02*
X108863855Y-125785713D01*
X108863855Y-125785713D02*
X108825760Y-125709523D01*
X108825760Y-125709523D02*
X108787664Y-125671428D01*
X108787664Y-125671428D02*
X108711474Y-125633332D01*
X108711474Y-125633332D02*
X108063855Y-125633332D01*
X108063855Y-143571428D02*
X108635283Y-143571428D01*
X108635283Y-143571428D02*
X108749569Y-143609523D01*
X108749569Y-143609523D02*
X108825760Y-143685714D01*
X108825760Y-143685714D02*
X108863855Y-143799999D01*
X108863855Y-143799999D02*
X108863855Y-143876190D01*
X108063855Y-142847618D02*
X108063855Y-142999999D01*
X108063855Y-142999999D02*
X108101950Y-143076190D01*
X108101950Y-143076190D02*
X108140045Y-143114285D01*
X108140045Y-143114285D02*
X108254331Y-143190475D01*
X108254331Y-143190475D02*
X108406712Y-143228571D01*
X108406712Y-143228571D02*
X108711474Y-143228571D01*
X108711474Y-143228571D02*
X108787664Y-143190475D01*
X108787664Y-143190475D02*
X108825760Y-143152380D01*
X108825760Y-143152380D02*
X108863855Y-143076190D01*
X108863855Y-143076190D02*
X108863855Y-142923809D01*
X108863855Y-142923809D02*
X108825760Y-142847618D01*
X108825760Y-142847618D02*
X108787664Y-142809523D01*
X108787664Y-142809523D02*
X108711474Y-142771428D01*
X108711474Y-142771428D02*
X108520998Y-142771428D01*
X108520998Y-142771428D02*
X108444807Y-142809523D01*
X108444807Y-142809523D02*
X108406712Y-142847618D01*
X108406712Y-142847618D02*
X108368617Y-142923809D01*
X108368617Y-142923809D02*
X108368617Y-143076190D01*
X108368617Y-143076190D02*
X108406712Y-143152380D01*
X108406712Y-143152380D02*
X108444807Y-143190475D01*
X108444807Y-143190475D02*
X108520998Y-143228571D01*
X108863855Y-141819046D02*
X108063855Y-141819046D01*
X108063855Y-141819046D02*
X108635283Y-141552380D01*
X108635283Y-141552380D02*
X108063855Y-141285713D01*
X108063855Y-141285713D02*
X108863855Y-141285713D01*
X108063855Y-140752379D02*
X108063855Y-140599998D01*
X108063855Y-140599998D02*
X108101950Y-140523808D01*
X108101950Y-140523808D02*
X108178140Y-140447617D01*
X108178140Y-140447617D02*
X108330521Y-140409522D01*
X108330521Y-140409522D02*
X108597188Y-140409522D01*
X108597188Y-140409522D02*
X108749569Y-140447617D01*
X108749569Y-140447617D02*
X108825760Y-140523808D01*
X108825760Y-140523808D02*
X108863855Y-140599998D01*
X108863855Y-140599998D02*
X108863855Y-140752379D01*
X108863855Y-140752379D02*
X108825760Y-140828570D01*
X108825760Y-140828570D02*
X108749569Y-140904760D01*
X108749569Y-140904760D02*
X108597188Y-140942856D01*
X108597188Y-140942856D02*
X108330521Y-140942856D01*
X108330521Y-140942856D02*
X108178140Y-140904760D01*
X108178140Y-140904760D02*
X108101950Y-140828570D01*
X108101950Y-140828570D02*
X108063855Y-140752379D01*
X108063855Y-140180951D02*
X108063855Y-139723808D01*
X108863855Y-139952380D02*
X108063855Y-139952380D01*
X108559093Y-139457141D02*
X108559093Y-138847618D01*
X108863855Y-138085713D02*
X108863855Y-138466665D01*
X108863855Y-138466665D02*
X108063855Y-138466665D01*
D11*
X112011904Y-152354819D02*
X112011904Y-153069104D01*
X112011904Y-153069104D02*
X111964285Y-153211961D01*
X111964285Y-153211961D02*
X111869047Y-153307200D01*
X111869047Y-153307200D02*
X111726190Y-153354819D01*
X111726190Y-153354819D02*
X111630952Y-153354819D01*
X112440476Y-152450057D02*
X112488095Y-152402438D01*
X112488095Y-152402438D02*
X112583333Y-152354819D01*
X112583333Y-152354819D02*
X112821428Y-152354819D01*
X112821428Y-152354819D02*
X112916666Y-152402438D01*
X112916666Y-152402438D02*
X112964285Y-152450057D01*
X112964285Y-152450057D02*
X113011904Y-152545295D01*
X113011904Y-152545295D02*
X113011904Y-152640533D01*
X113011904Y-152640533D02*
X112964285Y-152783390D01*
X112964285Y-152783390D02*
X112392857Y-153354819D01*
X112392857Y-153354819D02*
X113011904Y-153354819D01*
X114202381Y-152354819D02*
X114202381Y-153164342D01*
X114202381Y-153164342D02*
X114250000Y-153259580D01*
X114250000Y-153259580D02*
X114297619Y-153307200D01*
X114297619Y-153307200D02*
X114392857Y-153354819D01*
X114392857Y-153354819D02*
X114583333Y-153354819D01*
X114583333Y-153354819D02*
X114678571Y-153307200D01*
X114678571Y-153307200D02*
X114726190Y-153259580D01*
X114726190Y-153259580D02*
X114773809Y-153164342D01*
X114773809Y-153164342D02*
X114773809Y-152354819D01*
X115202381Y-153307200D02*
X115345238Y-153354819D01*
X115345238Y-153354819D02*
X115583333Y-153354819D01*
X115583333Y-153354819D02*
X115678571Y-153307200D01*
X115678571Y-153307200D02*
X115726190Y-153259580D01*
X115726190Y-153259580D02*
X115773809Y-153164342D01*
X115773809Y-153164342D02*
X115773809Y-153069104D01*
X115773809Y-153069104D02*
X115726190Y-152973866D01*
X115726190Y-152973866D02*
X115678571Y-152926247D01*
X115678571Y-152926247D02*
X115583333Y-152878628D01*
X115583333Y-152878628D02*
X115392857Y-152831009D01*
X115392857Y-152831009D02*
X115297619Y-152783390D01*
X115297619Y-152783390D02*
X115250000Y-152735771D01*
X115250000Y-152735771D02*
X115202381Y-152640533D01*
X115202381Y-152640533D02*
X115202381Y-152545295D01*
X115202381Y-152545295D02*
X115250000Y-152450057D01*
X115250000Y-152450057D02*
X115297619Y-152402438D01*
X115297619Y-152402438D02*
X115392857Y-152354819D01*
X115392857Y-152354819D02*
X115630952Y-152354819D01*
X115630952Y-152354819D02*
X115773809Y-152402438D01*
X116202381Y-152973866D02*
X116964286Y-152973866D01*
X117916666Y-153354819D02*
X117440476Y-153354819D01*
X117440476Y-153354819D02*
X117440476Y-152354819D01*
X127916666Y-152354819D02*
X127916666Y-153069104D01*
X127916666Y-153069104D02*
X127869047Y-153211961D01*
X127869047Y-153211961D02*
X127773809Y-153307200D01*
X127773809Y-153307200D02*
X127630952Y-153354819D01*
X127630952Y-153354819D02*
X127535714Y-153354819D01*
X128297619Y-152354819D02*
X128916666Y-152354819D01*
X128916666Y-152354819D02*
X128583333Y-152735771D01*
X128583333Y-152735771D02*
X128726190Y-152735771D01*
X128726190Y-152735771D02*
X128821428Y-152783390D01*
X128821428Y-152783390D02*
X128869047Y-152831009D01*
X128869047Y-152831009D02*
X128916666Y-152926247D01*
X128916666Y-152926247D02*
X128916666Y-153164342D01*
X128916666Y-153164342D02*
X128869047Y-153259580D01*
X128869047Y-153259580D02*
X128821428Y-153307200D01*
X128821428Y-153307200D02*
X128726190Y-153354819D01*
X128726190Y-153354819D02*
X128440476Y-153354819D01*
X128440476Y-153354819D02*
X128345238Y-153307200D01*
X128345238Y-153307200D02*
X128297619Y-153259580D01*
X130107143Y-152354819D02*
X130107143Y-153164342D01*
X130107143Y-153164342D02*
X130154762Y-153259580D01*
X130154762Y-153259580D02*
X130202381Y-153307200D01*
X130202381Y-153307200D02*
X130297619Y-153354819D01*
X130297619Y-153354819D02*
X130488095Y-153354819D01*
X130488095Y-153354819D02*
X130583333Y-153307200D01*
X130583333Y-153307200D02*
X130630952Y-153259580D01*
X130630952Y-153259580D02*
X130678571Y-153164342D01*
X130678571Y-153164342D02*
X130678571Y-152354819D01*
X131107143Y-153307200D02*
X131250000Y-153354819D01*
X131250000Y-153354819D02*
X131488095Y-153354819D01*
X131488095Y-153354819D02*
X131583333Y-153307200D01*
X131583333Y-153307200D02*
X131630952Y-153259580D01*
X131630952Y-153259580D02*
X131678571Y-153164342D01*
X131678571Y-153164342D02*
X131678571Y-153069104D01*
X131678571Y-153069104D02*
X131630952Y-152973866D01*
X131630952Y-152973866D02*
X131583333Y-152926247D01*
X131583333Y-152926247D02*
X131488095Y-152878628D01*
X131488095Y-152878628D02*
X131297619Y-152831009D01*
X131297619Y-152831009D02*
X131202381Y-152783390D01*
X131202381Y-152783390D02*
X131154762Y-152735771D01*
X131154762Y-152735771D02*
X131107143Y-152640533D01*
X131107143Y-152640533D02*
X131107143Y-152545295D01*
X131107143Y-152545295D02*
X131154762Y-152450057D01*
X131154762Y-152450057D02*
X131202381Y-152402438D01*
X131202381Y-152402438D02*
X131297619Y-152354819D01*
X131297619Y-152354819D02*
X131535714Y-152354819D01*
X131535714Y-152354819D02*
X131678571Y-152402438D01*
X132107143Y-152973866D02*
X132869048Y-152973866D01*
X133916666Y-153354819D02*
X133583333Y-152878628D01*
X133345238Y-153354819D02*
X133345238Y-152354819D01*
X133345238Y-152354819D02*
X133726190Y-152354819D01*
X133726190Y-152354819D02*
X133821428Y-152402438D01*
X133821428Y-152402438D02*
X133869047Y-152450057D01*
X133869047Y-152450057D02*
X133916666Y-152545295D01*
X133916666Y-152545295D02*
X133916666Y-152688152D01*
X133916666Y-152688152D02*
X133869047Y-152783390D01*
X133869047Y-152783390D02*
X133821428Y-152831009D01*
X133821428Y-152831009D02*
X133726190Y-152878628D01*
X133726190Y-152878628D02*
X133345238Y-152878628D01*
X143892857Y-152354819D02*
X143892857Y-153069104D01*
X143892857Y-153069104D02*
X143845238Y-153211961D01*
X143845238Y-153211961D02*
X143750000Y-153307200D01*
X143750000Y-153307200D02*
X143607143Y-153354819D01*
X143607143Y-153354819D02*
X143511905Y-153354819D01*
X144797619Y-152688152D02*
X144797619Y-153354819D01*
X144559524Y-152307200D02*
X144321429Y-153021485D01*
X144321429Y-153021485D02*
X144940476Y-153021485D01*
X146083334Y-152354819D02*
X146083334Y-153164342D01*
X146083334Y-153164342D02*
X146130953Y-153259580D01*
X146130953Y-153259580D02*
X146178572Y-153307200D01*
X146178572Y-153307200D02*
X146273810Y-153354819D01*
X146273810Y-153354819D02*
X146464286Y-153354819D01*
X146464286Y-153354819D02*
X146559524Y-153307200D01*
X146559524Y-153307200D02*
X146607143Y-153259580D01*
X146607143Y-153259580D02*
X146654762Y-153164342D01*
X146654762Y-153164342D02*
X146654762Y-152354819D01*
X147083334Y-153307200D02*
X147226191Y-153354819D01*
X147226191Y-153354819D02*
X147464286Y-153354819D01*
X147464286Y-153354819D02*
X147559524Y-153307200D01*
X147559524Y-153307200D02*
X147607143Y-153259580D01*
X147607143Y-153259580D02*
X147654762Y-153164342D01*
X147654762Y-153164342D02*
X147654762Y-153069104D01*
X147654762Y-153069104D02*
X147607143Y-152973866D01*
X147607143Y-152973866D02*
X147559524Y-152926247D01*
X147559524Y-152926247D02*
X147464286Y-152878628D01*
X147464286Y-152878628D02*
X147273810Y-152831009D01*
X147273810Y-152831009D02*
X147178572Y-152783390D01*
X147178572Y-152783390D02*
X147130953Y-152735771D01*
X147130953Y-152735771D02*
X147083334Y-152640533D01*
X147083334Y-152640533D02*
X147083334Y-152545295D01*
X147083334Y-152545295D02*
X147130953Y-152450057D01*
X147130953Y-152450057D02*
X147178572Y-152402438D01*
X147178572Y-152402438D02*
X147273810Y-152354819D01*
X147273810Y-152354819D02*
X147511905Y-152354819D01*
X147511905Y-152354819D02*
X147654762Y-152402438D01*
X148083334Y-152973866D02*
X148845239Y-152973866D01*
X149321429Y-153354819D02*
X149321429Y-152354819D01*
X149321429Y-152831009D02*
X149892857Y-152831009D01*
X149892857Y-153354819D02*
X149892857Y-152354819D01*
X169464285Y-152354819D02*
X169464285Y-153069104D01*
X169464285Y-153069104D02*
X169416666Y-153211961D01*
X169416666Y-153211961D02*
X169321428Y-153307200D01*
X169321428Y-153307200D02*
X169178571Y-153354819D01*
X169178571Y-153354819D02*
X169083333Y-153354819D01*
X170416666Y-152354819D02*
X169940476Y-152354819D01*
X169940476Y-152354819D02*
X169892857Y-152831009D01*
X169892857Y-152831009D02*
X169940476Y-152783390D01*
X169940476Y-152783390D02*
X170035714Y-152735771D01*
X170035714Y-152735771D02*
X170273809Y-152735771D01*
X170273809Y-152735771D02*
X170369047Y-152783390D01*
X170369047Y-152783390D02*
X170416666Y-152831009D01*
X170416666Y-152831009D02*
X170464285Y-152926247D01*
X170464285Y-152926247D02*
X170464285Y-153164342D01*
X170464285Y-153164342D02*
X170416666Y-153259580D01*
X170416666Y-153259580D02*
X170369047Y-153307200D01*
X170369047Y-153307200D02*
X170273809Y-153354819D01*
X170273809Y-153354819D02*
X170035714Y-153354819D01*
X170035714Y-153354819D02*
X169940476Y-153307200D01*
X169940476Y-153307200D02*
X169892857Y-153259580D01*
X172130952Y-153354819D02*
X171654762Y-153354819D01*
X171654762Y-153354819D02*
X171654762Y-152354819D01*
X172464286Y-153354819D02*
X172464286Y-152354819D01*
X172940476Y-153354819D02*
X172940476Y-152354819D01*
X172940476Y-152354819D02*
X173178571Y-152354819D01*
X173178571Y-152354819D02*
X173321428Y-152402438D01*
X173321428Y-152402438D02*
X173416666Y-152497676D01*
X173416666Y-152497676D02*
X173464285Y-152592914D01*
X173464285Y-152592914D02*
X173511904Y-152783390D01*
X173511904Y-152783390D02*
X173511904Y-152926247D01*
X173511904Y-152926247D02*
X173464285Y-153116723D01*
X173464285Y-153116723D02*
X173416666Y-153211961D01*
X173416666Y-153211961D02*
X173321428Y-153307200D01*
X173321428Y-153307200D02*
X173178571Y-153354819D01*
X173178571Y-153354819D02*
X172940476Y-153354819D01*
X173892857Y-153069104D02*
X174369047Y-153069104D01*
X173797619Y-153354819D02*
X174130952Y-152354819D01*
X174130952Y-152354819D02*
X174464285Y-153354819D01*
X175369047Y-153354819D02*
X175035714Y-152878628D01*
X174797619Y-153354819D02*
X174797619Y-152354819D01*
X174797619Y-152354819D02*
X175178571Y-152354819D01*
X175178571Y-152354819D02*
X175273809Y-152402438D01*
X175273809Y-152402438D02*
X175321428Y-152450057D01*
X175321428Y-152450057D02*
X175369047Y-152545295D01*
X175369047Y-152545295D02*
X175369047Y-152688152D01*
X175369047Y-152688152D02*
X175321428Y-152783390D01*
X175321428Y-152783390D02*
X175273809Y-152831009D01*
X175273809Y-152831009D02*
X175178571Y-152878628D01*
X175178571Y-152878628D02*
X174797619Y-152878628D01*
X138738095Y-110306819D02*
X139309523Y-110306819D01*
X139023809Y-111306819D02*
X139023809Y-110306819D01*
X139642857Y-111306819D02*
X139642857Y-110306819D01*
X139642857Y-110306819D02*
X140023809Y-110306819D01*
X140023809Y-110306819D02*
X140119047Y-110354438D01*
X140119047Y-110354438D02*
X140166666Y-110402057D01*
X140166666Y-110402057D02*
X140214285Y-110497295D01*
X140214285Y-110497295D02*
X140214285Y-110640152D01*
X140214285Y-110640152D02*
X140166666Y-110735390D01*
X140166666Y-110735390D02*
X140119047Y-110783009D01*
X140119047Y-110783009D02*
X140023809Y-110830628D01*
X140023809Y-110830628D02*
X139642857Y-110830628D01*
X141071428Y-110640152D02*
X141071428Y-111306819D01*
X140833333Y-110259200D02*
X140595238Y-110973485D01*
X140595238Y-110973485D02*
X141214285Y-110973485D01*
X169419047Y-102231009D02*
X169561904Y-102278628D01*
X169561904Y-102278628D02*
X169609523Y-102326247D01*
X169609523Y-102326247D02*
X169657142Y-102421485D01*
X169657142Y-102421485D02*
X169657142Y-102564342D01*
X169657142Y-102564342D02*
X169609523Y-102659580D01*
X169609523Y-102659580D02*
X169561904Y-102707200D01*
X169561904Y-102707200D02*
X169466666Y-102754819D01*
X169466666Y-102754819D02*
X169085714Y-102754819D01*
X169085714Y-102754819D02*
X169085714Y-101754819D01*
X169085714Y-101754819D02*
X169419047Y-101754819D01*
X169419047Y-101754819D02*
X169514285Y-101802438D01*
X169514285Y-101802438D02*
X169561904Y-101850057D01*
X169561904Y-101850057D02*
X169609523Y-101945295D01*
X169609523Y-101945295D02*
X169609523Y-102040533D01*
X169609523Y-102040533D02*
X169561904Y-102135771D01*
X169561904Y-102135771D02*
X169514285Y-102183390D01*
X169514285Y-102183390D02*
X169419047Y-102231009D01*
X169419047Y-102231009D02*
X169085714Y-102231009D01*
X169990476Y-101754819D02*
X170657142Y-101754819D01*
X170657142Y-101754819D02*
X169990476Y-102754819D01*
X169990476Y-102754819D02*
X170657142Y-102754819D01*
X171561904Y-102754819D02*
X170990476Y-102754819D01*
X171276190Y-102754819D02*
X171276190Y-101754819D01*
X171276190Y-101754819D02*
X171180952Y-101897676D01*
X171180952Y-101897676D02*
X171085714Y-101992914D01*
X171085714Y-101992914D02*
X170990476Y-102040533D01*
X166109048Y-107033866D02*
X166870953Y-107033866D01*
X166490000Y-107414819D02*
X166490000Y-106652914D01*
X150738095Y-110306819D02*
X151309523Y-110306819D01*
X151023809Y-111306819D02*
X151023809Y-110306819D01*
X151642857Y-111306819D02*
X151642857Y-110306819D01*
X151642857Y-110306819D02*
X152023809Y-110306819D01*
X152023809Y-110306819D02*
X152119047Y-110354438D01*
X152119047Y-110354438D02*
X152166666Y-110402057D01*
X152166666Y-110402057D02*
X152214285Y-110497295D01*
X152214285Y-110497295D02*
X152214285Y-110640152D01*
X152214285Y-110640152D02*
X152166666Y-110735390D01*
X152166666Y-110735390D02*
X152119047Y-110783009D01*
X152119047Y-110783009D02*
X152023809Y-110830628D01*
X152023809Y-110830628D02*
X151642857Y-110830628D01*
X153071428Y-110306819D02*
X152880952Y-110306819D01*
X152880952Y-110306819D02*
X152785714Y-110354438D01*
X152785714Y-110354438D02*
X152738095Y-110402057D01*
X152738095Y-110402057D02*
X152642857Y-110544914D01*
X152642857Y-110544914D02*
X152595238Y-110735390D01*
X152595238Y-110735390D02*
X152595238Y-111116342D01*
X152595238Y-111116342D02*
X152642857Y-111211580D01*
X152642857Y-111211580D02*
X152690476Y-111259200D01*
X152690476Y-111259200D02*
X152785714Y-111306819D01*
X152785714Y-111306819D02*
X152976190Y-111306819D01*
X152976190Y-111306819D02*
X153071428Y-111259200D01*
X153071428Y-111259200D02*
X153119047Y-111211580D01*
X153119047Y-111211580D02*
X153166666Y-111116342D01*
X153166666Y-111116342D02*
X153166666Y-110878247D01*
X153166666Y-110878247D02*
X153119047Y-110783009D01*
X153119047Y-110783009D02*
X153071428Y-110735390D01*
X153071428Y-110735390D02*
X152976190Y-110687771D01*
X152976190Y-110687771D02*
X152785714Y-110687771D01*
X152785714Y-110687771D02*
X152690476Y-110735390D01*
X152690476Y-110735390D02*
X152642857Y-110783009D01*
X152642857Y-110783009D02*
X152595238Y-110878247D01*
X185654819Y-130761904D02*
X186464342Y-130761904D01*
X186464342Y-130761904D02*
X186559580Y-130714285D01*
X186559580Y-130714285D02*
X186607200Y-130666666D01*
X186607200Y-130666666D02*
X186654819Y-130571428D01*
X186654819Y-130571428D02*
X186654819Y-130380952D01*
X186654819Y-130380952D02*
X186607200Y-130285714D01*
X186607200Y-130285714D02*
X186559580Y-130238095D01*
X186559580Y-130238095D02*
X186464342Y-130190476D01*
X186464342Y-130190476D02*
X185654819Y-130190476D01*
X186654819Y-129190476D02*
X186654819Y-129761904D01*
X186654819Y-129476190D02*
X185654819Y-129476190D01*
X185654819Y-129476190D02*
X185797676Y-129571428D01*
X185797676Y-129571428D02*
X185892914Y-129666666D01*
X185892914Y-129666666D02*
X185940533Y-129761904D01*
X182254819Y-132380951D02*
X183064342Y-132380951D01*
X183064342Y-132380951D02*
X183159580Y-132333332D01*
X183159580Y-132333332D02*
X183207200Y-132285713D01*
X183207200Y-132285713D02*
X183254819Y-132190475D01*
X183254819Y-132190475D02*
X183254819Y-131999999D01*
X183254819Y-131999999D02*
X183207200Y-131904761D01*
X183207200Y-131904761D02*
X183159580Y-131857142D01*
X183159580Y-131857142D02*
X183064342Y-131809523D01*
X183064342Y-131809523D02*
X182254819Y-131809523D01*
X183207200Y-131380951D02*
X183254819Y-131238094D01*
X183254819Y-131238094D02*
X183254819Y-130999999D01*
X183254819Y-130999999D02*
X183207200Y-130904761D01*
X183207200Y-130904761D02*
X183159580Y-130857142D01*
X183159580Y-130857142D02*
X183064342Y-130809523D01*
X183064342Y-130809523D02*
X182969104Y-130809523D01*
X182969104Y-130809523D02*
X182873866Y-130857142D01*
X182873866Y-130857142D02*
X182826247Y-130904761D01*
X182826247Y-130904761D02*
X182778628Y-130999999D01*
X182778628Y-130999999D02*
X182731009Y-131190475D01*
X182731009Y-131190475D02*
X182683390Y-131285713D01*
X182683390Y-131285713D02*
X182635771Y-131333332D01*
X182635771Y-131333332D02*
X182540533Y-131380951D01*
X182540533Y-131380951D02*
X182445295Y-131380951D01*
X182445295Y-131380951D02*
X182350057Y-131333332D01*
X182350057Y-131333332D02*
X182302438Y-131285713D01*
X182302438Y-131285713D02*
X182254819Y-131190475D01*
X182254819Y-131190475D02*
X182254819Y-130952380D01*
X182254819Y-130952380D02*
X182302438Y-130809523D01*
X182731009Y-130047618D02*
X182778628Y-129904761D01*
X182778628Y-129904761D02*
X182826247Y-129857142D01*
X182826247Y-129857142D02*
X182921485Y-129809523D01*
X182921485Y-129809523D02*
X183064342Y-129809523D01*
X183064342Y-129809523D02*
X183159580Y-129857142D01*
X183159580Y-129857142D02*
X183207200Y-129904761D01*
X183207200Y-129904761D02*
X183254819Y-129999999D01*
X183254819Y-129999999D02*
X183254819Y-130380951D01*
X183254819Y-130380951D02*
X182254819Y-130380951D01*
X182254819Y-130380951D02*
X182254819Y-130047618D01*
X182254819Y-130047618D02*
X182302438Y-129952380D01*
X182302438Y-129952380D02*
X182350057Y-129904761D01*
X182350057Y-129904761D02*
X182445295Y-129857142D01*
X182445295Y-129857142D02*
X182540533Y-129857142D01*
X182540533Y-129857142D02*
X182635771Y-129904761D01*
X182635771Y-129904761D02*
X182683390Y-129952380D01*
X182683390Y-129952380D02*
X182731009Y-130047618D01*
X182731009Y-130047618D02*
X182731009Y-130380951D01*
X182873866Y-129380951D02*
X182873866Y-128619047D01*
X183159580Y-127571428D02*
X183207200Y-127619047D01*
X183207200Y-127619047D02*
X183254819Y-127761904D01*
X183254819Y-127761904D02*
X183254819Y-127857142D01*
X183254819Y-127857142D02*
X183207200Y-127999999D01*
X183207200Y-127999999D02*
X183111961Y-128095237D01*
X183111961Y-128095237D02*
X183016723Y-128142856D01*
X183016723Y-128142856D02*
X182826247Y-128190475D01*
X182826247Y-128190475D02*
X182683390Y-128190475D01*
X182683390Y-128190475D02*
X182492914Y-128142856D01*
X182492914Y-128142856D02*
X182397676Y-128095237D01*
X182397676Y-128095237D02*
X182302438Y-127999999D01*
X182302438Y-127999999D02*
X182254819Y-127857142D01*
X182254819Y-127857142D02*
X182254819Y-127761904D01*
X182254819Y-127761904D02*
X182302438Y-127619047D01*
X182302438Y-127619047D02*
X182350057Y-127571428D01*
X126738095Y-110306819D02*
X127309523Y-110306819D01*
X127023809Y-111306819D02*
X127023809Y-110306819D01*
X127642857Y-111306819D02*
X127642857Y-110306819D01*
X127642857Y-110306819D02*
X128023809Y-110306819D01*
X128023809Y-110306819D02*
X128119047Y-110354438D01*
X128119047Y-110354438D02*
X128166666Y-110402057D01*
X128166666Y-110402057D02*
X128214285Y-110497295D01*
X128214285Y-110497295D02*
X128214285Y-110640152D01*
X128214285Y-110640152D02*
X128166666Y-110735390D01*
X128166666Y-110735390D02*
X128119047Y-110783009D01*
X128119047Y-110783009D02*
X128023809Y-110830628D01*
X128023809Y-110830628D02*
X127642857Y-110830628D01*
X128595238Y-110402057D02*
X128642857Y-110354438D01*
X128642857Y-110354438D02*
X128738095Y-110306819D01*
X128738095Y-110306819D02*
X128976190Y-110306819D01*
X128976190Y-110306819D02*
X129071428Y-110354438D01*
X129071428Y-110354438D02*
X129119047Y-110402057D01*
X129119047Y-110402057D02*
X129166666Y-110497295D01*
X129166666Y-110497295D02*
X129166666Y-110592533D01*
X129166666Y-110592533D02*
X129119047Y-110735390D01*
X129119047Y-110735390D02*
X128547619Y-111306819D01*
X128547619Y-111306819D02*
X129166666Y-111306819D01*
X144738095Y-110306819D02*
X145309523Y-110306819D01*
X145023809Y-111306819D02*
X145023809Y-110306819D01*
X145642857Y-111306819D02*
X145642857Y-110306819D01*
X145642857Y-110306819D02*
X146023809Y-110306819D01*
X146023809Y-110306819D02*
X146119047Y-110354438D01*
X146119047Y-110354438D02*
X146166666Y-110402057D01*
X146166666Y-110402057D02*
X146214285Y-110497295D01*
X146214285Y-110497295D02*
X146214285Y-110640152D01*
X146214285Y-110640152D02*
X146166666Y-110735390D01*
X146166666Y-110735390D02*
X146119047Y-110783009D01*
X146119047Y-110783009D02*
X146023809Y-110830628D01*
X146023809Y-110830628D02*
X145642857Y-110830628D01*
X147119047Y-110306819D02*
X146642857Y-110306819D01*
X146642857Y-110306819D02*
X146595238Y-110783009D01*
X146595238Y-110783009D02*
X146642857Y-110735390D01*
X146642857Y-110735390D02*
X146738095Y-110687771D01*
X146738095Y-110687771D02*
X146976190Y-110687771D01*
X146976190Y-110687771D02*
X147071428Y-110735390D01*
X147071428Y-110735390D02*
X147119047Y-110783009D01*
X147119047Y-110783009D02*
X147166666Y-110878247D01*
X147166666Y-110878247D02*
X147166666Y-111116342D01*
X147166666Y-111116342D02*
X147119047Y-111211580D01*
X147119047Y-111211580D02*
X147071428Y-111259200D01*
X147071428Y-111259200D02*
X146976190Y-111306819D01*
X146976190Y-111306819D02*
X146738095Y-111306819D01*
X146738095Y-111306819D02*
X146642857Y-111259200D01*
X146642857Y-111259200D02*
X146595238Y-111211580D01*
X132738095Y-110306819D02*
X133309523Y-110306819D01*
X133023809Y-111306819D02*
X133023809Y-110306819D01*
X133642857Y-111306819D02*
X133642857Y-110306819D01*
X133642857Y-110306819D02*
X134023809Y-110306819D01*
X134023809Y-110306819D02*
X134119047Y-110354438D01*
X134119047Y-110354438D02*
X134166666Y-110402057D01*
X134166666Y-110402057D02*
X134214285Y-110497295D01*
X134214285Y-110497295D02*
X134214285Y-110640152D01*
X134214285Y-110640152D02*
X134166666Y-110735390D01*
X134166666Y-110735390D02*
X134119047Y-110783009D01*
X134119047Y-110783009D02*
X134023809Y-110830628D01*
X134023809Y-110830628D02*
X133642857Y-110830628D01*
X134547619Y-110306819D02*
X135166666Y-110306819D01*
X135166666Y-110306819D02*
X134833333Y-110687771D01*
X134833333Y-110687771D02*
X134976190Y-110687771D01*
X134976190Y-110687771D02*
X135071428Y-110735390D01*
X135071428Y-110735390D02*
X135119047Y-110783009D01*
X135119047Y-110783009D02*
X135166666Y-110878247D01*
X135166666Y-110878247D02*
X135166666Y-111116342D01*
X135166666Y-111116342D02*
X135119047Y-111211580D01*
X135119047Y-111211580D02*
X135071428Y-111259200D01*
X135071428Y-111259200D02*
X134976190Y-111306819D01*
X134976190Y-111306819D02*
X134690476Y-111306819D01*
X134690476Y-111306819D02*
X134595238Y-111259200D01*
X134595238Y-111259200D02*
X134547619Y-111211580D01*
X120738095Y-110306819D02*
X121309523Y-110306819D01*
X121023809Y-111306819D02*
X121023809Y-110306819D01*
X121642857Y-111306819D02*
X121642857Y-110306819D01*
X121642857Y-110306819D02*
X122023809Y-110306819D01*
X122023809Y-110306819D02*
X122119047Y-110354438D01*
X122119047Y-110354438D02*
X122166666Y-110402057D01*
X122166666Y-110402057D02*
X122214285Y-110497295D01*
X122214285Y-110497295D02*
X122214285Y-110640152D01*
X122214285Y-110640152D02*
X122166666Y-110735390D01*
X122166666Y-110735390D02*
X122119047Y-110783009D01*
X122119047Y-110783009D02*
X122023809Y-110830628D01*
X122023809Y-110830628D02*
X121642857Y-110830628D01*
X123166666Y-111306819D02*
X122595238Y-111306819D01*
X122880952Y-111306819D02*
X122880952Y-110306819D01*
X122880952Y-110306819D02*
X122785714Y-110449676D01*
X122785714Y-110449676D02*
X122690476Y-110544914D01*
X122690476Y-110544914D02*
X122595238Y-110592533D01*
D10*
%TO.C,Q2*%
X147965000Y-122185000D02*
X149485000Y-122185000D01*
X147965000Y-122235000D02*
X147965000Y-122185000D01*
X147965000Y-124135000D02*
X147965000Y-123355000D01*
X147965000Y-125305000D02*
X147965000Y-125255000D01*
X149485000Y-122185000D02*
X149485000Y-123185000D01*
X149485000Y-124305000D02*
X149485000Y-125305000D01*
X149485000Y-125305000D02*
X147965000Y-125305000D01*
X147665000Y-123695000D02*
X147185000Y-123695000D01*
X147425000Y-123365000D01*
X147665000Y-123695000D01*
G36*
X147665000Y-123695000D02*
G01*
X147185000Y-123695000D01*
X147425000Y-123365000D01*
X147665000Y-123695000D01*
G37*
%TO.C,D3*%
X142535000Y-128675000D02*
X142535000Y-130675000D01*
X142535000Y-128675000D02*
X146545000Y-128675000D01*
X142535000Y-130675000D02*
X146545000Y-130675000D01*
%TO.C,C8*%
X172084420Y-125965000D02*
X172365580Y-125965000D01*
X172084420Y-126985000D02*
X172365580Y-126985000D01*
%TO.C,TP4*%
X140950000Y-112500000D02*
G75*
G02*
X139050000Y-112500000I-950000J0D01*
G01*
X139050000Y-112500000D02*
G75*
G02*
X140950000Y-112500000I950000J0D01*
G01*
%TO.C,J4*%
X140150000Y-144750000D02*
X140150000Y-146000000D01*
X140450000Y-147300000D02*
X141200000Y-147300000D01*
X141200000Y-147300000D02*
X141200000Y-150250000D01*
X141200000Y-150250000D02*
X146750000Y-150250000D01*
X141400000Y-144750000D02*
X140150000Y-144750000D01*
X152300000Y-147300000D02*
X152300000Y-150250000D01*
X152300000Y-150250000D02*
X146750000Y-150250000D01*
X153050000Y-147300000D02*
X152300000Y-147300000D01*
X140440000Y-145040000D02*
X153060000Y-145040000D01*
X153060000Y-151010000D01*
X140440000Y-151010000D01*
X140440000Y-145040000D01*
X140450000Y-145050000D02*
X142250000Y-145050000D01*
X142250000Y-145800000D01*
X140450000Y-145800000D01*
X140450000Y-145050000D01*
X143750000Y-145050000D02*
X149750000Y-145050000D01*
X149750000Y-145800000D01*
X143750000Y-145800000D01*
X143750000Y-145050000D01*
X151250000Y-145050000D02*
X153050000Y-145050000D01*
X153050000Y-145800000D01*
X151250000Y-145800000D01*
X151250000Y-145050000D01*
%TO.C,R11*%
X178687742Y-122252500D02*
X179162258Y-122252500D01*
X178687742Y-123297500D02*
X179162258Y-123297500D01*
%TO.C,D5*%
X112565000Y-120700000D02*
X112565000Y-122985000D01*
X112565000Y-122985000D02*
X114035000Y-122985000D01*
X114035000Y-122985000D02*
X114035000Y-120700000D01*
%TO.C,R1*%
X156537742Y-122252500D02*
X157012258Y-122252500D01*
X156537742Y-123297500D02*
X157012258Y-123297500D01*
%TO.C,D4*%
X147625000Y-128675000D02*
X147625000Y-130675000D01*
X147625000Y-128675000D02*
X151635000Y-128675000D01*
X147625000Y-130675000D02*
X151635000Y-130675000D01*
%TO.C,BZ1*%
X176400000Y-109500000D02*
G75*
G02*
X164200000Y-109500000I-6100000J0D01*
G01*
X164200000Y-109500000D02*
G75*
G02*
X176400000Y-109500000I6100000J0D01*
G01*
%TO.C,TP6*%
X152950000Y-112500000D02*
G75*
G02*
X151050000Y-112500000I-950000J0D01*
G01*
X151050000Y-112500000D02*
G75*
G02*
X152950000Y-112500000I950000J0D01*
G01*
%TO.C,U1*%
X184500000Y-117050000D02*
X119900000Y-117050000D01*
X119900000Y-142950000D01*
X184500000Y-142950000D01*
X184500000Y-117050000D01*
%TO.C,R17*%
X165287742Y-125952500D02*
X165762258Y-125952500D01*
X165287742Y-126997500D02*
X165762258Y-126997500D01*
%TO.C,Q1*%
X143715000Y-122185000D02*
X145235000Y-122185000D01*
X143715000Y-122235000D02*
X143715000Y-122185000D01*
X143715000Y-124135000D02*
X143715000Y-123355000D01*
X143715000Y-125305000D02*
X143715000Y-125255000D01*
X145235000Y-122185000D02*
X145235000Y-123185000D01*
X145235000Y-124305000D02*
X145235000Y-125305000D01*
X145235000Y-125305000D02*
X143715000Y-125305000D01*
X143415000Y-123695000D02*
X142935000Y-123695000D01*
X143175000Y-123365000D01*
X143415000Y-123695000D01*
G36*
X143415000Y-123695000D02*
G01*
X142935000Y-123695000D01*
X143175000Y-123365000D01*
X143415000Y-123695000D01*
G37*
%TO.C,R7*%
X165287742Y-122252500D02*
X165762258Y-122252500D01*
X165287742Y-123297500D02*
X165762258Y-123297500D01*
%TO.C,D2*%
X155935000Y-125985000D02*
X155935000Y-127985000D01*
X155935000Y-125985000D02*
X159945000Y-125985000D01*
X155935000Y-127985000D02*
X159945000Y-127985000D01*
%TO.C,J9*%
X101750000Y-108200000D02*
X101750000Y-113750000D01*
X101750000Y-119300000D02*
X101750000Y-113750000D01*
X104700000Y-107450000D02*
X104700000Y-108200000D01*
X104700000Y-108200000D02*
X101750000Y-108200000D01*
X104700000Y-119300000D02*
X101750000Y-119300000D01*
X104700000Y-120050000D02*
X104700000Y-119300000D01*
X107250000Y-107150000D02*
X106000000Y-107150000D01*
X107250000Y-108400000D02*
X107250000Y-107150000D01*
X106950000Y-107450000D02*
X106200000Y-107450000D01*
X106200000Y-109250000D01*
X106950000Y-109250000D01*
X106950000Y-107450000D01*
X106950000Y-110750000D02*
X106200000Y-110750000D01*
X106200000Y-116750000D01*
X106950000Y-116750000D01*
X106950000Y-110750000D01*
X106950000Y-118250000D02*
X106200000Y-118250000D01*
X106200000Y-120050000D01*
X106950000Y-120050000D01*
X106950000Y-118250000D01*
X106960000Y-107440000D02*
X100990000Y-107440000D01*
X100990000Y-120060000D01*
X106960000Y-120060000D01*
X106960000Y-107440000D01*
%TO.C,TP2*%
X128950000Y-112500000D02*
G75*
G02*
X127050000Y-112500000I-950000J0D01*
G01*
X127050000Y-112500000D02*
G75*
G02*
X128950000Y-112500000I950000J0D01*
G01*
%TO.C,R16*%
X178687742Y-124102500D02*
X179162258Y-124102500D01*
X178687742Y-125147500D02*
X179162258Y-125147500D01*
%TO.C,R6*%
X153837742Y-126042500D02*
X154312258Y-126042500D01*
X153837742Y-127087500D02*
X154312258Y-127087500D01*
%TO.C,R10*%
X175337742Y-122252500D02*
X175812258Y-122252500D01*
X175337742Y-123297500D02*
X175812258Y-123297500D01*
%TO.C,TP5*%
X146950000Y-112500000D02*
G75*
G02*
X145050000Y-112500000I-950000J0D01*
G01*
X145050000Y-112500000D02*
G75*
G02*
X146950000Y-112500000I950000J0D01*
G01*
%TO.C,C6*%
X178784420Y-125965000D02*
X179065580Y-125965000D01*
X178784420Y-126985000D02*
X179065580Y-126985000D01*
%TO.C,R2*%
X159887742Y-122252500D02*
X160362258Y-122252500D01*
X159887742Y-123297500D02*
X160362258Y-123297500D01*
%TO.C,R15*%
X175337742Y-124102500D02*
X175812258Y-124102500D01*
X175337742Y-125147500D02*
X175812258Y-125147500D01*
%TO.C,R18*%
X112777500Y-125737258D02*
X112777500Y-125262742D01*
X113822500Y-125737258D02*
X113822500Y-125262742D01*
%TO.C,R13*%
X168637742Y-124102500D02*
X169112258Y-124102500D01*
X168637742Y-125147500D02*
X169112258Y-125147500D01*
%TO.C,J6*%
X101750000Y-136200000D02*
X101750000Y-139250000D01*
X101750000Y-142300000D02*
X101750000Y-139250000D01*
X104700000Y-135450000D02*
X104700000Y-136200000D01*
X104700000Y-136200000D02*
X101750000Y-136200000D01*
X104700000Y-142300000D02*
X101750000Y-142300000D01*
X104700000Y-143050000D02*
X104700000Y-142300000D01*
X107250000Y-135150000D02*
X106000000Y-135150000D01*
X107250000Y-136400000D02*
X107250000Y-135150000D01*
X106950000Y-135450000D02*
X106200000Y-135450000D01*
X106200000Y-137250000D01*
X106950000Y-137250000D01*
X106950000Y-135450000D01*
X106950000Y-138750000D02*
X106200000Y-138750000D01*
X106200000Y-139750000D01*
X106950000Y-139750000D01*
X106950000Y-138750000D01*
X106950000Y-141250000D02*
X106200000Y-141250000D01*
X106200000Y-143050000D01*
X106950000Y-143050000D01*
X106950000Y-141250000D01*
X106960000Y-135440000D02*
X100990000Y-135440000D01*
X100990000Y-143060000D01*
X106960000Y-143060000D01*
X106960000Y-135440000D01*
%TO.C,J7*%
X110550000Y-108200000D02*
X110550000Y-111250000D01*
X110550000Y-114300000D02*
X110550000Y-111250000D01*
X113500000Y-107450000D02*
X113500000Y-108200000D01*
X113500000Y-108200000D02*
X110550000Y-108200000D01*
X113500000Y-114300000D02*
X110550000Y-114300000D01*
X113500000Y-115050000D02*
X113500000Y-114300000D01*
X116050000Y-107150000D02*
X114800000Y-107150000D01*
X116050000Y-108400000D02*
X116050000Y-107150000D01*
X115750000Y-107450000D02*
X115000000Y-107450000D01*
X115000000Y-109250000D01*
X115750000Y-109250000D01*
X115750000Y-107450000D01*
X115750000Y-110750000D02*
X115000000Y-110750000D01*
X115000000Y-111750000D01*
X115750000Y-111750000D01*
X115750000Y-110750000D01*
X115750000Y-113250000D02*
X115000000Y-113250000D01*
X115000000Y-115050000D01*
X115750000Y-115050000D01*
X115750000Y-113250000D01*
X115760000Y-107440000D02*
X109790000Y-107440000D01*
X109790000Y-115060000D01*
X115760000Y-115060000D01*
X115760000Y-107440000D01*
%TO.C,TP3*%
X134950000Y-112500000D02*
G75*
G02*
X133050000Y-112500000I-950000J0D01*
G01*
X133050000Y-112500000D02*
G75*
G02*
X134950000Y-112500000I950000J0D01*
G01*
%TO.C,C4*%
X131984420Y-129855000D02*
X132265580Y-129855000D01*
X131984420Y-130875000D02*
X132265580Y-130875000D01*
%TO.C,J5*%
X165650000Y-144750000D02*
X165650000Y-146000000D01*
X165950000Y-147300000D02*
X166700000Y-147300000D01*
X166700000Y-147300000D02*
X166700000Y-150250000D01*
X166700000Y-150250000D02*
X172250000Y-150250000D01*
X166900000Y-144750000D02*
X165650000Y-144750000D01*
X177800000Y-147300000D02*
X177800000Y-150250000D01*
X177800000Y-150250000D02*
X172250000Y-150250000D01*
X178550000Y-147300000D02*
X177800000Y-147300000D01*
X165940000Y-145040000D02*
X178560000Y-145040000D01*
X178560000Y-151010000D01*
X165940000Y-151010000D01*
X165940000Y-145040000D01*
X165950000Y-145050000D02*
X167750000Y-145050000D01*
X167750000Y-145800000D01*
X165950000Y-145800000D01*
X165950000Y-145050000D01*
X169250000Y-145050000D02*
X175250000Y-145050000D01*
X175250000Y-145800000D01*
X169250000Y-145800000D01*
X169250000Y-145050000D01*
X176750000Y-145050000D02*
X178550000Y-145050000D01*
X178550000Y-145800000D01*
X176750000Y-145800000D01*
X176750000Y-145050000D01*
%TO.C,R3*%
X143787742Y-126042500D02*
X144262258Y-126042500D01*
X143787742Y-127087500D02*
X144262258Y-127087500D01*
%TO.C,R14*%
X171987742Y-124102500D02*
X172462258Y-124102500D01*
X171987742Y-125147500D02*
X172462258Y-125147500D01*
%TO.C,J1*%
X106990000Y-100850000D02*
X158010000Y-100850000D01*
X106990000Y-103500000D02*
X106990000Y-100850000D01*
X106990000Y-106150000D02*
X106990000Y-104770000D01*
X108370000Y-106150000D02*
X106990000Y-106150000D01*
X109640000Y-103500000D02*
X106990000Y-103500000D01*
X109640000Y-106150000D02*
X109640000Y-103500000D01*
X109640000Y-106150000D02*
X158010000Y-106150000D01*
X158010000Y-106150000D02*
X158010000Y-100850000D01*
%TO.C,C9*%
X175434420Y-125965000D02*
X175715580Y-125965000D01*
X175434420Y-126985000D02*
X175715580Y-126985000D01*
%TO.C,C7*%
X168734420Y-125965000D02*
X169015580Y-125965000D01*
X168734420Y-126985000D02*
X169015580Y-126985000D01*
%TO.C,J3*%
X124150000Y-144750000D02*
X124150000Y-146000000D01*
X124450000Y-147300000D02*
X125200000Y-147300000D01*
X125200000Y-147300000D02*
X125200000Y-150250000D01*
X125200000Y-150250000D02*
X130750000Y-150250000D01*
X125400000Y-144750000D02*
X124150000Y-144750000D01*
X136300000Y-147300000D02*
X136300000Y-150250000D01*
X136300000Y-150250000D02*
X130750000Y-150250000D01*
X137050000Y-147300000D02*
X136300000Y-147300000D01*
X124440000Y-145040000D02*
X137060000Y-145040000D01*
X137060000Y-151010000D01*
X124440000Y-151010000D01*
X124440000Y-145040000D01*
X124450000Y-145050000D02*
X126250000Y-145050000D01*
X126250000Y-145800000D01*
X124450000Y-145800000D01*
X124450000Y-145050000D01*
X127750000Y-145050000D02*
X133750000Y-145050000D01*
X133750000Y-145800000D01*
X127750000Y-145800000D01*
X127750000Y-145050000D01*
X135250000Y-145050000D02*
X137050000Y-145050000D01*
X137050000Y-145800000D01*
X135250000Y-145800000D01*
X135250000Y-145050000D01*
%TO.C,C1*%
X137273748Y-122285000D02*
X138696252Y-122285000D01*
X137273748Y-124105000D02*
X138696252Y-124105000D01*
%TO.C,R5*%
X150487742Y-126042500D02*
X150962258Y-126042500D01*
X150487742Y-127087500D02*
X150962258Y-127087500D01*
%TO.C,C5*%
X130373748Y-133570000D02*
X130896252Y-133570000D01*
X130373748Y-135040000D02*
X130896252Y-135040000D01*
%TO.C,R8*%
X168637742Y-122252500D02*
X169112258Y-122252500D01*
X168637742Y-123297500D02*
X169112258Y-123297500D01*
%TO.C,R4*%
X147137742Y-126042500D02*
X147612258Y-126042500D01*
X147137742Y-127087500D02*
X147612258Y-127087500D01*
%TO.C,J2*%
X108150000Y-144750000D02*
X108150000Y-146000000D01*
X108450000Y-147300000D02*
X109200000Y-147300000D01*
X109200000Y-147300000D02*
X109200000Y-150250000D01*
X109200000Y-150250000D02*
X114750000Y-150250000D01*
X109400000Y-144750000D02*
X108150000Y-144750000D01*
X120300000Y-147300000D02*
X120300000Y-150250000D01*
X120300000Y-150250000D02*
X114750000Y-150250000D01*
X121050000Y-147300000D02*
X120300000Y-147300000D01*
X108440000Y-145040000D02*
X121060000Y-145040000D01*
X121060000Y-151010000D01*
X108440000Y-151010000D01*
X108440000Y-145040000D01*
X108450000Y-145050000D02*
X110250000Y-145050000D01*
X110250000Y-145800000D01*
X108450000Y-145800000D01*
X108450000Y-145050000D01*
X111750000Y-145050000D02*
X117750000Y-145050000D01*
X117750000Y-145800000D01*
X111750000Y-145800000D01*
X111750000Y-145050000D01*
X119250000Y-145050000D02*
X121050000Y-145050000D01*
X121050000Y-145800000D01*
X119250000Y-145800000D01*
X119250000Y-145050000D01*
%TO.C,R9*%
X171987742Y-122252500D02*
X172462258Y-122252500D01*
X171987742Y-123297500D02*
X172462258Y-123297500D01*
%TO.C,C2*%
X122983748Y-129880000D02*
X123506252Y-129880000D01*
X122983748Y-131350000D02*
X123506252Y-131350000D01*
%TO.C,R12*%
X165287742Y-124102500D02*
X165762258Y-124102500D01*
X165287742Y-125147500D02*
X165762258Y-125147500D01*
%TO.C,C3*%
X125325000Y-129775000D02*
X125325000Y-132795000D01*
X125325000Y-132795000D02*
X129545000Y-132795000D01*
X129545000Y-129775000D02*
X125325000Y-129775000D01*
%TO.C,J8*%
X101750000Y-122200000D02*
X101750000Y-127750000D01*
X101750000Y-133300000D02*
X101750000Y-127750000D01*
X104700000Y-121450000D02*
X104700000Y-122200000D01*
X104700000Y-122200000D02*
X101750000Y-122200000D01*
X104700000Y-133300000D02*
X101750000Y-133300000D01*
X104700000Y-134050000D02*
X104700000Y-133300000D01*
X107250000Y-121150000D02*
X106000000Y-121150000D01*
X107250000Y-122400000D02*
X107250000Y-121150000D01*
X106950000Y-121450000D02*
X106200000Y-121450000D01*
X106200000Y-123250000D01*
X106950000Y-123250000D01*
X106950000Y-121450000D01*
X106950000Y-124750000D02*
X106200000Y-124750000D01*
X106200000Y-130750000D01*
X106950000Y-130750000D01*
X106950000Y-124750000D01*
X106950000Y-132250000D02*
X106200000Y-132250000D01*
X106200000Y-134050000D01*
X106950000Y-134050000D01*
X106950000Y-132250000D01*
X106960000Y-121440000D02*
X100990000Y-121440000D01*
X100990000Y-134060000D01*
X106960000Y-134060000D01*
X106960000Y-121440000D01*
%TO.C,D1*%
X121535000Y-133425000D02*
X121535000Y-136725000D01*
X121535000Y-133425000D02*
X127045000Y-133425000D01*
X121535000Y-136725000D02*
X127045000Y-136725000D01*
%TO.C,F1*%
X132412936Y-122265000D02*
X133617064Y-122265000D01*
X132412936Y-124085000D02*
X133617064Y-124085000D01*
%TO.C,Q3*%
X152215000Y-122185000D02*
X153735000Y-122185000D01*
X152215000Y-122235000D02*
X152215000Y-122185000D01*
X152215000Y-124135000D02*
X152215000Y-123355000D01*
X152215000Y-125305000D02*
X152215000Y-125255000D01*
X153735000Y-122185000D02*
X153735000Y-123185000D01*
X153735000Y-124305000D02*
X153735000Y-125305000D01*
X153735000Y-125305000D02*
X152215000Y-125305000D01*
X151915000Y-123695000D02*
X151435000Y-123695000D01*
X151675000Y-123365000D01*
X151915000Y-123695000D01*
G36*
X151915000Y-123695000D02*
G01*
X151435000Y-123695000D01*
X151675000Y-123365000D01*
X151915000Y-123695000D01*
G37*
%TO.C,TP1*%
X122950000Y-112500000D02*
G75*
G02*
X121050000Y-112500000I-950000J0D01*
G01*
X121050000Y-112500000D02*
G75*
G02*
X122950000Y-112500000I950000J0D01*
G01*
%TO.C,U2*%
X124095000Y-122235000D02*
X127855000Y-122235000D01*
X124095000Y-129055000D02*
X127855000Y-129055000D01*
X127855000Y-122235000D02*
X127855000Y-123495000D01*
X127855000Y-129055000D02*
X127855000Y-127795000D01*
X122815000Y-122335000D02*
X122575000Y-122005000D01*
X123055000Y-122005000D01*
X122815000Y-122335000D01*
G36*
X122815000Y-122335000D02*
G01*
X122575000Y-122005000D01*
X123055000Y-122005000D01*
X122815000Y-122335000D01*
G37*
%TD*%
M02*
