%TF.GenerationSoftware,KiCad,Pcbnew,9.0.8+dfsg-1*%
%TF.CreationDate,2026-10-08T16:17:40+05:30*%
%TF.ProjectId,VisionAid_Carrier,56697369-6f6e-4416-9964-5f4361727269,v0.1*%
%TF.SameCoordinates,Original*%
%TF.FileFunction,Paste,Top*%
%TF.FilePolarity,Positive*%
%FSLAX46Y46*%
G04 Gerber Fmt 4.6, Leading zero omitted, Abs format (unit mm)*
G04 Created by KiCad (PCBNEW 9.0.8+dfsg-1) date 2026-10-08 16:17:40*
%MOMM*%
%LPD*%
G01*
G04 APERTURE LIST*
G04 Aperture macros list*
%AMRoundRect*
0 Rectangle with rounded corners*
0 $1 Rounding radius*
0 $2 $3 $4 $5 $6 $7 $8 $9 X,Y pos of 4 corners*
0 Add a 4 corners polygon primitive as box body*
4,1,4,$2,$3,$4,$5,$6,$7,$8,$9,$2,$3,0*
0 Add four circle primitives for the rounded corners*
1,1,$1+$1,$2,$3*
1,1,$1+$1,$4,$5*
1,1,$1+$1,$6,$7*
1,1,$1+$1,$8,$9*
0 Add four rect primitives between the rounded corners*
20,1,$1+$1,$2,$3,$4,$5,0*
20,1,$1+$1,$4,$5,$6,$7,0*
20,1,$1+$1,$6,$7,$8,$9,0*
20,1,$1+$1,$8,$9,$2,$3,0*%
G04 Aperture macros list end*
%ADD10RoundRect,0.150000X-0.587500X-0.150000X0.587500X-0.150000X0.587500X0.150000X-0.587500X0.150000X0*%
%ADD11RoundRect,0.225000X-0.225000X-0.375000X0.225000X-0.375000X0.225000X0.375000X-0.225000X0.375000X0*%
%ADD12RoundRect,0.225000X-0.225000X-0.250000X0.225000X-0.250000X0.225000X0.250000X-0.225000X0.250000X0*%
%ADD13RoundRect,0.200000X-0.200000X-0.275000X0.200000X-0.275000X0.200000X0.275000X-0.200000X0.275000X0*%
%ADD14RoundRect,0.218750X0.256250X-0.218750X0.256250X0.218750X-0.256250X0.218750X-0.256250X-0.218750X0*%
%ADD15RoundRect,0.200000X0.275000X-0.200000X0.275000X0.200000X-0.275000X0.200000X-0.275000X-0.200000X0*%
%ADD16RoundRect,0.250000X-0.325000X-0.650000X0.325000X-0.650000X0.325000X0.650000X-0.325000X0.650000X0*%
%ADD17RoundRect,0.250000X-0.250000X-0.475000X0.250000X-0.475000X0.250000X0.475000X-0.250000X0.475000X0*%
%ADD18RoundRect,0.250000X-0.420000X-0.945000X0.420000X-0.945000X0.420000X0.945000X-0.420000X0.945000X0*%
%ADD19RoundRect,0.250000X-1.000000X-0.650000X1.000000X-0.650000X1.000000X0.650000X-1.000000X0.650000X0*%
%ADD20RoundRect,0.250000X-0.375000X-0.625000X0.375000X-0.625000X0.375000X0.625000X-0.375000X0.625000X0*%
%ADD21RoundRect,0.375000X-0.625000X-0.375000X0.625000X-0.375000X0.625000X0.375000X-0.625000X0.375000X0*%
%ADD22RoundRect,0.500000X-0.500000X-1.400000X0.500000X-1.400000X0.500000X1.400000X-0.500000X1.400000X0*%
G04 APERTURE END LIST*
D10*
%TO.C,Q2*%
X147787500Y-122795000D03*
X147787500Y-124695000D03*
X149662500Y-123745000D03*
%TD*%
D11*
%TO.C,D3*%
X143245000Y-129675000D03*
X146545000Y-129675000D03*
%TD*%
D12*
%TO.C,C8*%
X171450000Y-126475000D03*
X173000000Y-126475000D03*
%TD*%
D13*
%TO.C,R11*%
X178100000Y-122775000D03*
X179750000Y-122775000D03*
%TD*%
D14*
%TO.C,D5*%
X113300000Y-122287500D03*
X113300000Y-120712500D03*
%TD*%
D13*
%TO.C,R1*%
X155950000Y-122775000D03*
X157600000Y-122775000D03*
%TD*%
D11*
%TO.C,D4*%
X148335000Y-129675000D03*
X151635000Y-129675000D03*
%TD*%
D13*
%TO.C,R17*%
X164700000Y-126475000D03*
X166350000Y-126475000D03*
%TD*%
D10*
%TO.C,Q1*%
X143537500Y-122795000D03*
X143537500Y-124695000D03*
X145412500Y-123745000D03*
%TD*%
D13*
%TO.C,R7*%
X164700000Y-122775000D03*
X166350000Y-122775000D03*
%TD*%
D11*
%TO.C,D2*%
X156645000Y-126985000D03*
X159945000Y-126985000D03*
%TD*%
D13*
%TO.C,R16*%
X178100000Y-124625000D03*
X179750000Y-124625000D03*
%TD*%
%TO.C,R6*%
X153250000Y-126565000D03*
X154900000Y-126565000D03*
%TD*%
%TO.C,R10*%
X174750000Y-122775000D03*
X176400000Y-122775000D03*
%TD*%
D12*
%TO.C,C6*%
X178150000Y-126475000D03*
X179700000Y-126475000D03*
%TD*%
D13*
%TO.C,R2*%
X159300000Y-122775000D03*
X160950000Y-122775000D03*
%TD*%
%TO.C,R15*%
X174750000Y-124625000D03*
X176400000Y-124625000D03*
%TD*%
D15*
%TO.C,R18*%
X113300000Y-126325000D03*
X113300000Y-124675000D03*
%TD*%
D13*
%TO.C,R13*%
X168050000Y-124625000D03*
X169700000Y-124625000D03*
%TD*%
D12*
%TO.C,C4*%
X131350000Y-130365000D03*
X132900000Y-130365000D03*
%TD*%
D13*
%TO.C,R3*%
X143200000Y-126565000D03*
X144850000Y-126565000D03*
%TD*%
%TO.C,R14*%
X171400000Y-124625000D03*
X173050000Y-124625000D03*
%TD*%
D12*
%TO.C,C9*%
X174800000Y-126475000D03*
X176350000Y-126475000D03*
%TD*%
%TO.C,C7*%
X168100000Y-126475000D03*
X169650000Y-126475000D03*
%TD*%
D16*
%TO.C,C1*%
X136510000Y-123195000D03*
X139460000Y-123195000D03*
%TD*%
D13*
%TO.C,R5*%
X149900000Y-126565000D03*
X151550000Y-126565000D03*
%TD*%
D17*
%TO.C,C5*%
X129685000Y-134305000D03*
X131585000Y-134305000D03*
%TD*%
D13*
%TO.C,R8*%
X168050000Y-122775000D03*
X169700000Y-122775000D03*
%TD*%
%TO.C,R4*%
X146550000Y-126565000D03*
X148200000Y-126565000D03*
%TD*%
%TO.C,R9*%
X171400000Y-122775000D03*
X173050000Y-122775000D03*
%TD*%
D17*
%TO.C,C2*%
X122295000Y-130615000D03*
X124195000Y-130615000D03*
%TD*%
D13*
%TO.C,R12*%
X164700000Y-124625000D03*
X166350000Y-124625000D03*
%TD*%
D18*
%TO.C,C3*%
X126255000Y-131285000D03*
X129335000Y-131285000D03*
%TD*%
D19*
%TO.C,D1*%
X123045000Y-135075000D03*
X127045000Y-135075000D03*
%TD*%
D20*
%TO.C,F1*%
X131615000Y-123175000D03*
X134415000Y-123175000D03*
%TD*%
D10*
%TO.C,Q3*%
X152037500Y-122795000D03*
X152037500Y-124695000D03*
X153912500Y-123745000D03*
%TD*%
D21*
%TO.C,U2*%
X122795000Y-123345000D03*
X122795000Y-125645000D03*
D22*
X129095000Y-125645000D03*
D21*
X122795000Y-127945000D03*
%TD*%
M02*
