%TF.GenerationSoftware,KiCad,Pcbnew,9.0.8+dfsg-1*%
%TF.CreationDate,2026-10-08T16:17:40+05:30*%
%TF.ProjectId,VisionAid_Carrier,56697369-6f6e-4416-9964-5f4361727269,v0.1*%
%TF.SameCoordinates,Original*%
%TF.FileFunction,Copper,L2,Bot*%
%TF.FilePolarity,Positive*%
%FSLAX46Y46*%
G04 Gerber Fmt 4.6, Leading zero omitted, Abs format (unit mm)*
G04 Created by KiCad (PCBNEW 9.0.8+dfsg-1) date 2026-10-08 16:17:40*
%MOMM*%
%LPD*%
G01*
G04 APERTURE LIST*
G04 Aperture macros list*
%AMRoundRect*
0 Rectangle with rounded corners*
0 $1 Rounding radius*
0 $2 $3 $4 $5 $6 $7 $8 $9 X,Y pos of 4 corners*
0 Add a 4 corners polygon primitive as box body*
4,1,4,$2,$3,$4,$5,$6,$7,$8,$9,$2,$3,0*
0 Add four circle primitives for the rounded corners*
1,1,$1+$1,$2,$3*
1,1,$1+$1,$4,$5*
1,1,$1+$1,$6,$7*
1,1,$1+$1,$8,$9*
0 Add four rect primitives between the rounded corners*
20,1,$1+$1,$2,$3,$4,$5,0*
20,1,$1+$1,$4,$5,$6,$7,0*
20,1,$1+$1,$6,$7,$8,$9,0*
20,1,$1+$1,$8,$9,$2,$3,0*%
G04 Aperture macros list end*
%TA.AperFunction,ComponentPad*%
%ADD10RoundRect,0.250000X-0.600000X-0.725000X0.600000X-0.725000X0.600000X0.725000X-0.600000X0.725000X0*%
%TD*%
%TA.AperFunction,ComponentPad*%
%ADD11O,1.700000X1.950000*%
%TD*%
%TA.AperFunction,ComponentPad*%
%ADD12R,2.000000X2.000000*%
%TD*%
%TA.AperFunction,ComponentPad*%
%ADD13C,2.000000*%
%TD*%
%TA.AperFunction,ComponentPad*%
%ADD14R,1.700000X1.700000*%
%TD*%
%TA.AperFunction,ComponentPad*%
%ADD15O,1.700000X1.700000*%
%TD*%
%TA.AperFunction,ComponentPad*%
%ADD16RoundRect,0.250000X-0.725000X0.600000X-0.725000X-0.600000X0.725000X-0.600000X0.725000X0.600000X0*%
%TD*%
%TA.AperFunction,ComponentPad*%
%ADD17O,1.950000X1.700000*%
%TD*%
%TA.AperFunction,ComponentPad*%
%ADD18RoundRect,0.250000X-0.750000X0.600000X-0.750000X-0.600000X0.750000X-0.600000X0.750000X0.600000X0*%
%TD*%
%TA.AperFunction,ComponentPad*%
%ADD19O,2.000000X1.700000*%
%TD*%
%TA.AperFunction,ComponentPad*%
%ADD20C,1.700000*%
%TD*%
%TA.AperFunction,ViaPad*%
%ADD21C,0.600000*%
%TD*%
%TA.AperFunction,ViaPad*%
%ADD22C,0.800000*%
%TD*%
%TA.AperFunction,Conductor*%
%ADD23C,0.300000*%
%TD*%
%TA.AperFunction,Conductor*%
%ADD24C,0.225000*%
%TD*%
%TA.AperFunction,Conductor*%
%ADD25C,0.500000*%
%TD*%
%TA.AperFunction,Conductor*%
%ADD26C,0.375000*%
%TD*%
%TA.AperFunction,Conductor*%
%ADD27C,0.250000*%
%TD*%
%TA.AperFunction,Conductor*%
%ADD28C,0.187400*%
%TD*%
%TA.AperFunction,Conductor*%
%ADD29C,0.150000*%
%TD*%
G04 APERTURE END LIST*
D10*
%TO.P,J4,1*%
%TO.N,+3V3*%
X143000000Y-147500000D03*
D11*
%TO.P,J4,2*%
%TO.N,/US_H_TRIG_C*%
X145500000Y-147500000D03*
%TO.P,J4,3*%
%TO.N,/US_H_ECHO_C*%
X148000000Y-147500000D03*
%TO.P,J4,4*%
%TO.N,GND*%
X150500000Y-147500000D03*
%TD*%
D12*
%TO.P,BZ1,1*%
%TO.N,+5V*%
X166500000Y-109500000D03*
D13*
%TO.P,BZ1,2*%
%TO.N,/BUZZ_D*%
X174100000Y-109500000D03*
%TD*%
D14*
%TO.P,U1,1*%
%TO.N,unconnected-(U1-P38-Pad1)*%
X181410000Y-118570000D03*
D15*
%TO.P,U1,2*%
%TO.N,unconnected-(U1-P37-Pad2)*%
X178870000Y-118570000D03*
%TO.P,U1,3*%
%TO.N,unconnected-(U1-P36-Pad3)*%
X176330000Y-118570000D03*
%TO.P,U1,4*%
%TO.N,unconnected-(U1-P39-Pad4)*%
X173790000Y-118570000D03*
%TO.P,U1,5*%
%TO.N,/US_L_TRIG*%
X171250000Y-118570000D03*
%TO.P,U1,6*%
%TO.N,/US_L_ECHO*%
X168710000Y-118570000D03*
%TO.P,U1,7*%
%TO.N,/US_R_TRIG*%
X166170000Y-118570000D03*
%TO.P,U1,8*%
%TO.N,/US_R_ECHO*%
X163630000Y-118570000D03*
%TO.P,U1,9*%
%TO.N,/US_H_TRIG*%
X161090000Y-118570000D03*
%TO.P,U1,10*%
%TO.N,/US_H_ECHO*%
X158550000Y-118570000D03*
%TO.P,U1,11*%
%TO.N,/LIDAR_TX*%
X156010000Y-118570000D03*
%TO.P,U1,12*%
%TO.N,/LIDAR_RX*%
X153470000Y-118570000D03*
%TO.P,U1,13*%
%TO.N,/PI_TXD*%
X150930000Y-118570000D03*
%TO.P,U1,14*%
%TO.N,/PI_RXD*%
X148390000Y-118570000D03*
%TO.P,U1,15*%
%TO.N,/PI_HB*%
X145850000Y-118570000D03*
%TO.P,U1,16*%
%TO.N,/FPGA_FAULT_N*%
X143310000Y-118570000D03*
%TO.P,U1,17*%
%TO.N,/MOT_L_PWM*%
X140770000Y-118570000D03*
%TO.P,U1,18*%
%TO.N,/MOT_R_PWM*%
X138230000Y-118570000D03*
%TO.P,U1,19*%
%TO.N,/BUZZ_EN*%
X135690000Y-118570000D03*
%TO.P,U1,20*%
%TO.N,/BTN_READ*%
X133150000Y-118570000D03*
%TO.P,U1,21*%
%TO.N,/BTN_MODE*%
X130610000Y-118570000D03*
%TO.P,U1,22*%
%TO.N,/BTN_QUIET*%
X128070000Y-118570000D03*
%TO.P,U1,23*%
%TO.N,unconnected-(U1-P68-Pad23)*%
X125530000Y-118570000D03*
%TO.P,U1,24*%
%TO.N,unconnected-(U1-P69-Pad24)*%
X122990000Y-118570000D03*
%TO.P,U1,25*%
%TO.N,unconnected-(U1-3V3-Pad25)*%
X122990000Y-141430000D03*
%TO.P,U1,26*%
%TO.N,GND*%
X125530000Y-141430000D03*
%TO.P,U1,27*%
%TO.N,unconnected-(U1-P32-Pad27)*%
X128070000Y-141430000D03*
%TO.P,U1,28*%
%TO.N,unconnected-(U1-P31-Pad28)*%
X130610000Y-141430000D03*
%TO.P,U1,29*%
%TO.N,unconnected-(U1-P49-Pad29)*%
X133150000Y-141430000D03*
%TO.P,U1,30*%
%TO.N,unconnected-(U1-P48-Pad30)*%
X135690000Y-141430000D03*
%TO.P,U1,31*%
%TO.N,/TN_5V*%
X138230000Y-141430000D03*
%TO.P,U1,32*%
%TO.N,unconnected-(U1-P70-Pad32)*%
X140770000Y-141430000D03*
%TO.P,U1,33*%
%TO.N,unconnected-(U1-P71-Pad33)*%
X143310000Y-141430000D03*
%TO.P,U1,34*%
%TO.N,unconnected-(U1-P72-Pad34)*%
X145850000Y-141430000D03*
%TO.P,U1,35*%
%TO.N,unconnected-(U1-P73-Pad35)*%
X148390000Y-141430000D03*
%TO.P,U1,36*%
%TO.N,unconnected-(U1-P74-Pad36)*%
X150930000Y-141430000D03*
%TO.P,U1,37*%
%TO.N,unconnected-(U1-P75-Pad37)*%
X153470000Y-141430000D03*
%TO.P,U1,38*%
%TO.N,unconnected-(U1-P76-Pad38)*%
X156010000Y-141430000D03*
%TO.P,U1,39*%
%TO.N,unconnected-(U1-P77-Pad39)*%
X158550000Y-141430000D03*
%TO.P,U1,40*%
%TO.N,unconnected-(U1-P79_1V8-Pad40)*%
X161090000Y-141430000D03*
%TO.P,U1,41*%
%TO.N,unconnected-(U1-P80_1V8-Pad41)*%
X163630000Y-141430000D03*
%TO.P,U1,42*%
%TO.N,unconnected-(U1-P81_1V8-Pad42)*%
X166170000Y-141430000D03*
%TO.P,U1,43*%
%TO.N,unconnected-(U1-P82_1V8-Pad43)*%
X168710000Y-141430000D03*
%TO.P,U1,44*%
%TO.N,unconnected-(U1-P83_1V8-Pad44)*%
X171250000Y-141430000D03*
%TO.P,U1,45*%
%TO.N,unconnected-(U1-P84_1V8-Pad45)*%
X173790000Y-141430000D03*
%TO.P,U1,46*%
%TO.N,unconnected-(U1-P85_1V8-Pad46)*%
X176330000Y-141430000D03*
%TO.P,U1,47*%
%TO.N,unconnected-(U1-P86_1V8-Pad47)*%
X178870000Y-141430000D03*
%TO.P,U1,48*%
%TO.N,unconnected-(U1-P63_1V8-Pad48)*%
X181410000Y-141430000D03*
%TD*%
D16*
%TO.P,J9,1*%
%TO.N,/BTN_READ*%
X104500000Y-110000000D03*
D17*
%TO.P,J9,2*%
%TO.N,/BTN_MODE*%
X104500000Y-112500000D03*
%TO.P,J9,3*%
%TO.N,/BTN_QUIET*%
X104500000Y-115000000D03*
%TO.P,J9,4*%
%TO.N,GND*%
X104500000Y-117500000D03*
%TD*%
D18*
%TO.P,J6,1*%
%TO.N,+3V3*%
X104500000Y-138000000D03*
D19*
%TO.P,J6,2*%
%TO.N,/MOT_L_D*%
X104500000Y-140500000D03*
%TD*%
D18*
%TO.P,J7,1*%
%TO.N,+3V3*%
X113300000Y-110000000D03*
D19*
%TO.P,J7,2*%
%TO.N,/MOT_R_D*%
X113300000Y-112500000D03*
%TD*%
D10*
%TO.P,J5,1*%
%TO.N,+5V*%
X168500000Y-147500000D03*
D11*
%TO.P,J5,2*%
%TO.N,/LIDAR_TX_C*%
X171000000Y-147500000D03*
%TO.P,J5,3*%
%TO.N,/LIDAR_RX_C*%
X173500000Y-147500000D03*
%TO.P,J5,4*%
%TO.N,GND*%
X176000000Y-147500000D03*
%TD*%
D14*
%TO.P,J1,1*%
%TO.N,unconnected-(J1-Pin_1-Pad1)*%
X108370000Y-104770000D03*
D20*
%TO.P,J1,2*%
%TO.N,/PI_5V*%
X108370000Y-102230000D03*
%TO.P,J1,3*%
%TO.N,/I2C_SDA*%
X110910000Y-104770000D03*
%TO.P,J1,4*%
%TO.N,/PI_5V*%
X110910000Y-102230000D03*
%TO.P,J1,5*%
%TO.N,/I2C_SCL*%
X113450000Y-104770000D03*
%TO.P,J1,6*%
%TO.N,GND*%
X113450000Y-102230000D03*
%TO.P,J1,7*%
%TO.N,unconnected-(J1-Pin_7-Pad7)*%
X115990000Y-104770000D03*
%TO.P,J1,8*%
%TO.N,/PI_TXD*%
X115990000Y-102230000D03*
%TO.P,J1,9*%
%TO.N,GND*%
X118530000Y-104770000D03*
%TO.P,J1,10*%
%TO.N,/PI_RXD*%
X118530000Y-102230000D03*
%TO.P,J1,11*%
%TO.N,/PI_HB*%
X121070000Y-104770000D03*
%TO.P,J1,12*%
%TO.N,unconnected-(J1-Pin_12-Pad12)*%
X121070000Y-102230000D03*
%TO.P,J1,13*%
%TO.N,/FPGA_FAULT_N*%
X123610000Y-104770000D03*
%TO.P,J1,14*%
%TO.N,GND*%
X123610000Y-102230000D03*
%TO.P,J1,15*%
%TO.N,unconnected-(J1-Pin_15-Pad15)*%
X126150000Y-104770000D03*
%TO.P,J1,16*%
%TO.N,unconnected-(J1-Pin_16-Pad16)*%
X126150000Y-102230000D03*
%TO.P,J1,17*%
%TO.N,unconnected-(J1-Pin_17-Pad17)*%
X128690000Y-104770000D03*
%TO.P,J1,18*%
%TO.N,unconnected-(J1-Pin_18-Pad18)*%
X128690000Y-102230000D03*
%TO.P,J1,19*%
%TO.N,unconnected-(J1-Pin_19-Pad19)*%
X131230000Y-104770000D03*
%TO.P,J1,20*%
%TO.N,GND*%
X131230000Y-102230000D03*
%TO.P,J1,21*%
%TO.N,unconnected-(J1-Pin_21-Pad21)*%
X133770000Y-104770000D03*
%TO.P,J1,22*%
%TO.N,unconnected-(J1-Pin_22-Pad22)*%
X133770000Y-102230000D03*
%TO.P,J1,23*%
%TO.N,unconnected-(J1-Pin_23-Pad23)*%
X136310000Y-104770000D03*
%TO.P,J1,24*%
%TO.N,unconnected-(J1-Pin_24-Pad24)*%
X136310000Y-102230000D03*
%TO.P,J1,25*%
%TO.N,GND*%
X138850000Y-104770000D03*
%TO.P,J1,26*%
%TO.N,unconnected-(J1-Pin_26-Pad26)*%
X138850000Y-102230000D03*
%TO.P,J1,27*%
%TO.N,unconnected-(J1-Pin_27-Pad27)*%
X141390000Y-104770000D03*
%TO.P,J1,28*%
%TO.N,unconnected-(J1-Pin_28-Pad28)*%
X141390000Y-102230000D03*
%TO.P,J1,29*%
%TO.N,unconnected-(J1-Pin_29-Pad29)*%
X143930000Y-104770000D03*
%TO.P,J1,30*%
%TO.N,GND*%
X143930000Y-102230000D03*
%TO.P,J1,31*%
%TO.N,unconnected-(J1-Pin_31-Pad31)*%
X146470000Y-104770000D03*
%TO.P,J1,32*%
%TO.N,unconnected-(J1-Pin_32-Pad32)*%
X146470000Y-102230000D03*
%TO.P,J1,33*%
%TO.N,unconnected-(J1-Pin_33-Pad33)*%
X149010000Y-104770000D03*
%TO.P,J1,34*%
%TO.N,GND*%
X149010000Y-102230000D03*
%TO.P,J1,35*%
%TO.N,unconnected-(J1-Pin_35-Pad35)*%
X151550000Y-104770000D03*
%TO.P,J1,36*%
%TO.N,unconnected-(J1-Pin_36-Pad36)*%
X151550000Y-102230000D03*
%TO.P,J1,37*%
%TO.N,unconnected-(J1-Pin_37-Pad37)*%
X154090000Y-104770000D03*
%TO.P,J1,38*%
%TO.N,unconnected-(J1-Pin_38-Pad38)*%
X154090000Y-102230000D03*
%TO.P,J1,39*%
%TO.N,GND*%
X156630000Y-104770000D03*
%TO.P,J1,40*%
%TO.N,unconnected-(J1-Pin_40-Pad40)*%
X156630000Y-102230000D03*
%TD*%
D10*
%TO.P,J3,1*%
%TO.N,+3V3*%
X127000000Y-147500000D03*
D11*
%TO.P,J3,2*%
%TO.N,/US_R_TRIG_C*%
X129500000Y-147500000D03*
%TO.P,J3,3*%
%TO.N,/US_R_ECHO_C*%
X132000000Y-147500000D03*
%TO.P,J3,4*%
%TO.N,GND*%
X134500000Y-147500000D03*
%TD*%
D10*
%TO.P,J2,1*%
%TO.N,+3V3*%
X111000000Y-147500000D03*
D11*
%TO.P,J2,2*%
%TO.N,/US_L_TRIG_C*%
X113500000Y-147500000D03*
%TO.P,J2,3*%
%TO.N,/US_L_ECHO_C*%
X116000000Y-147500000D03*
%TO.P,J2,4*%
%TO.N,GND*%
X118500000Y-147500000D03*
%TD*%
D16*
%TO.P,J8,1*%
%TO.N,+3V3*%
X104500000Y-124000000D03*
D17*
%TO.P,J8,2*%
%TO.N,/I2C_SDA*%
X104500000Y-126500000D03*
%TO.P,J8,3*%
%TO.N,/I2C_SCL*%
X104500000Y-129000000D03*
%TO.P,J8,4*%
%TO.N,GND*%
X104500000Y-131500000D03*
%TD*%
D21*
%TO.N,+3V3*%
X157929600Y-129644100D03*
X157546500Y-127899000D03*
X137804700Y-135115300D03*
X109211800Y-111233700D03*
D22*
%TO.N,+5V*%
X176147000Y-131772300D03*
X152139000Y-131811000D03*
X119097700Y-113263800D03*
X135682200Y-125645900D03*
X149431800Y-129943100D03*
D21*
%TO.N,/BTN_MODE*%
X172219400Y-125705600D03*
X168007000Y-130478000D03*
X180654300Y-124997100D03*
X144217200Y-130145200D03*
%TO.N,/BTN_QUIET*%
X165593400Y-125718400D03*
X175571800Y-125703200D03*
X171238000Y-128981600D03*
X164544200Y-128981600D03*
%TO.N,/BTN_READ*%
X167260100Y-121951700D03*
X164900000Y-119247100D03*
X170311700Y-120930000D03*
%TO.N,/BUZZ_D*%
X154637300Y-125063100D03*
X152599200Y-129675000D03*
%TO.N,/BUZZ_EN*%
X142435900Y-125800900D03*
%TO.N,/BUZZ_G*%
X150423600Y-128498900D03*
X153361200Y-125561300D03*
%TO.N,/I2C_SDA*%
X105625000Y-106124000D03*
%TO.N,/LIDAR_RX*%
X159533700Y-117521000D03*
X172043800Y-123791500D03*
%TO.N,/LIDAR_RX_C*%
X173794600Y-123880400D03*
%TO.N,/LIDAR_TX*%
X168701900Y-123773100D03*
%TO.N,/LIDAR_TX_C*%
X170457800Y-125382800D03*
%TO.N,/MOT_L_D*%
X142585600Y-121130000D03*
X110556900Y-124819000D03*
X157923800Y-125742100D03*
X146518000Y-122929400D03*
%TO.N,/MOT_L_G*%
X146600000Y-113714000D03*
X156860000Y-123515000D03*
X144935500Y-122795000D03*
%TO.N,/MOT_L_PWM*%
X155192900Y-122017900D03*
%TO.N,/MOT_R_D*%
X148397700Y-123745000D03*
X145703800Y-128833800D03*
%TO.N,/MOT_R_G*%
X159918600Y-123921900D03*
X151332700Y-125506800D03*
D22*
%TO.N,/PI_5V*%
X130766900Y-124709300D03*
D21*
%TO.N,/PI_HB*%
X150315000Y-113898800D03*
%TO.N,/PI_TXD*%
X149470900Y-115629100D03*
%TO.N,/US_H_ECHO_C*%
X164108900Y-123747000D03*
%TO.N,/US_H_TRIG*%
X177324100Y-121999100D03*
%TO.N,/US_L_ECHO_C*%
X166996700Y-135514900D03*
X170647500Y-123812900D03*
%TO.N,/US_L_TRIG_C*%
X162775400Y-122097700D03*
X144485000Y-144210900D03*
%TO.N,/US_R_ECHO*%
X173993100Y-122018100D03*
%TO.N,/US_R_TRIG*%
X168641200Y-121489000D03*
%TO.N,/US_R_TRIG_C*%
X172159700Y-122063000D03*
D22*
%TO.N,GND*%
X135009400Y-113507800D03*
X125922600Y-133094300D03*
X173591900Y-139941200D03*
X175712400Y-127483000D03*
X132723600Y-133915700D03*
%TD*%
D23*
%TO.N,+3V3*%
X139563000Y-144063000D02*
X139563000Y-136873600D01*
X103119500Y-141028000D02*
X109591500Y-147500000D01*
X104500000Y-138000000D02*
X103119700Y-136619700D01*
X109591500Y-147500000D02*
X111000000Y-147500000D01*
X105083600Y-130250000D02*
X103119700Y-130250000D01*
X139563000Y-136873600D02*
X137804700Y-135115300D01*
X109211800Y-126121800D02*
X105083600Y-130250000D01*
X103119500Y-139882900D02*
X103119500Y-141028000D01*
X157546500Y-129261000D02*
X157929600Y-129644100D01*
X157546500Y-127899000D02*
X157546500Y-129261000D01*
X109211800Y-111233700D02*
X109211800Y-126121800D01*
X103119700Y-130250000D02*
X103027700Y-130158000D01*
D24*
X103027700Y-126503800D02*
X103027700Y-126123600D01*
D23*
X103400000Y-139602400D02*
X103119500Y-139882900D01*
X104500000Y-138000000D02*
X103837500Y-138662500D01*
X103027700Y-130158000D02*
X103027700Y-126503800D01*
X103837500Y-138662500D02*
X103837500Y-139098300D01*
X103027700Y-125472300D02*
X104500000Y-124000000D01*
X103027700Y-126123600D02*
X103027700Y-125472300D01*
X103119700Y-136619700D02*
X103119700Y-130250000D01*
X143000000Y-147500000D02*
X139563000Y-144063000D01*
D24*
X103837500Y-139164900D02*
X103400000Y-139602400D01*
X103837500Y-139098300D02*
X103837500Y-139164900D01*
D25*
%TO.N,+5V*%
X182710200Y-121726500D02*
X182710200Y-125209100D01*
X182725300Y-145050400D02*
X178850500Y-148925200D01*
X135682200Y-125645900D02*
X140953600Y-130917300D01*
X148457600Y-130917300D02*
X149431800Y-129943100D01*
X150271100Y-129943100D02*
X149431800Y-129943100D01*
X176147000Y-131772300D02*
X182725300Y-138350600D01*
X152139000Y-131811000D02*
X150271100Y-129943100D01*
X119097700Y-116543200D02*
X119097700Y-113263800D01*
X181675800Y-108029200D02*
X182710200Y-109063600D01*
X135682200Y-125645900D02*
X132751700Y-122715400D01*
X132751700Y-122715400D02*
X125269900Y-122715400D01*
X125269900Y-122715400D02*
X119097700Y-116543200D01*
D26*
X182710200Y-109063600D02*
X182710200Y-121726500D01*
X173008100Y-148925200D02*
X171982400Y-149950900D01*
D25*
X182710200Y-125209100D02*
X176147000Y-131772300D01*
X170950900Y-149950900D02*
X168500000Y-147500000D01*
D26*
X178850500Y-148925200D02*
X173008100Y-148925200D01*
D25*
X169422500Y-108029200D02*
X181675800Y-108029200D01*
X171982400Y-149950900D02*
X170950900Y-149950900D01*
X167951700Y-109500000D02*
X169422500Y-108029200D01*
X182725300Y-138350600D02*
X182725300Y-145050400D01*
X166500000Y-109500000D02*
X167951700Y-109500000D01*
X140953600Y-130917300D02*
X148457600Y-130917300D01*
D27*
%TO.N,/BTN_MODE*%
X173383500Y-122754300D02*
X178411500Y-122754300D01*
X172219400Y-125705600D02*
X168007000Y-129918000D01*
X168007000Y-129918000D02*
X168007000Y-130478000D01*
X144217200Y-130145200D02*
X141209200Y-130145200D01*
X172219400Y-125705600D02*
X172670500Y-125254500D01*
X130610000Y-118570000D02*
X130610000Y-119633300D01*
X130697300Y-119633300D02*
X130610000Y-119633300D01*
X178411500Y-122754300D02*
X180654300Y-124997100D01*
X172670500Y-123467300D02*
X173383500Y-122754300D01*
X141209200Y-130145200D02*
X130697300Y-119633300D01*
X172670500Y-125254500D02*
X172670500Y-123467300D01*
%TO.N,/BTN_QUIET*%
X175571800Y-124770700D02*
X174007100Y-123206000D01*
X174007100Y-123206000D02*
X173570600Y-123206000D01*
X164544200Y-126767600D02*
X165593400Y-125718400D01*
X173122200Y-127097400D02*
X171238000Y-128981600D01*
X173122200Y-123654400D02*
X173122200Y-127097400D01*
X164544200Y-128981600D02*
X164544200Y-126767600D01*
X175571800Y-125703200D02*
X175571800Y-124770700D01*
X173570600Y-123206000D02*
X173122200Y-123654400D01*
%TO.N,/BTN_READ*%
X167260100Y-121951700D02*
X164900000Y-119591600D01*
X167457700Y-122149300D02*
X169092400Y-122149300D01*
X169092400Y-122149300D02*
X170311700Y-120930000D01*
X167260100Y-121951700D02*
X167457700Y-122149300D01*
X164900000Y-119591600D02*
X164900000Y-119247100D01*
%TO.N,/BUZZ_D*%
X171119600Y-112480400D02*
X160413800Y-112480400D01*
X160609800Y-123694700D02*
X160609800Y-124718100D01*
X160609800Y-124718100D02*
X158507300Y-126820600D01*
X154637300Y-126820600D02*
X154637300Y-125063100D01*
X158507300Y-126820600D02*
X154637300Y-126820600D01*
X160413800Y-112480400D02*
X154824800Y-118069400D01*
X154637300Y-127636900D02*
X154637300Y-126820600D01*
X154824800Y-118069400D02*
X154824800Y-119049100D01*
X154824800Y-119049100D02*
X159070800Y-123295100D01*
X159070800Y-123295100D02*
X160210200Y-123295100D01*
X160210200Y-123295100D02*
X160609800Y-123694700D01*
X174100000Y-109500000D02*
X171119600Y-112480400D01*
X152599200Y-129675000D02*
X154637300Y-127636900D01*
%TO.N,/BUZZ_EN*%
X136381700Y-119746700D02*
X135690000Y-119746700D01*
X142435900Y-125800900D02*
X136381700Y-119746700D01*
X135690000Y-118570000D02*
X135690000Y-119746700D01*
%TO.N,/BUZZ_G*%
X153361200Y-125561300D02*
X150423600Y-128498900D01*
%TO.N,/FPGA_FAULT_N*%
X136233200Y-117393200D02*
X136233200Y-117393300D01*
X139712400Y-117394800D02*
X139713900Y-117393300D01*
X142133300Y-118202200D02*
X142133300Y-118570000D01*
X139338200Y-117394800D02*
X139712400Y-117394800D01*
X141324400Y-117393300D02*
X142133300Y-118202200D01*
X139336700Y-117393300D02*
X139338200Y-117394800D01*
X123610000Y-104770000D02*
X136233200Y-117393200D01*
X139713900Y-117393300D02*
X141324400Y-117393300D01*
X143310000Y-118570000D02*
X142133300Y-118570000D01*
X136233200Y-117393300D02*
X139336700Y-117393300D01*
%TO.N,/I2C_SCL*%
X109640000Y-102695300D02*
X109640000Y-101340400D01*
X105014800Y-127823300D02*
X104500000Y-127823300D01*
X108327700Y-100610400D02*
X107194800Y-100610400D01*
X109640000Y-101340400D02*
X108778100Y-100478500D01*
X106996000Y-102199400D02*
X106276600Y-102918800D01*
X110538000Y-103593300D02*
X109640000Y-102695300D01*
X106276600Y-102918800D02*
X106276600Y-126561500D01*
D28*
X107194800Y-102000600D02*
X106996000Y-102199400D01*
X108459600Y-100478500D02*
X108327700Y-100610400D01*
D27*
X106276600Y-126561500D02*
X105014800Y-127823300D01*
X113450000Y-104770000D02*
X112273300Y-103593300D01*
D28*
X107194800Y-100610400D02*
X107194800Y-102000600D01*
D27*
X104500000Y-129000000D02*
X104500000Y-127823300D01*
X112273300Y-103593300D02*
X110538000Y-103593300D01*
D28*
X108778100Y-100478500D02*
X108459600Y-100478500D01*
D27*
%TO.N,/I2C_SDA*%
X105824900Y-124880900D02*
X105824900Y-106323900D01*
X105824900Y-106323900D02*
X105625000Y-106124000D01*
X104500000Y-126500000D02*
X104500000Y-125323300D01*
X105382500Y-125323300D02*
X105824900Y-124880900D01*
X104500000Y-125323300D02*
X105382500Y-125323300D01*
%TO.N,/LIDAR_RX*%
X169863900Y-122601000D02*
X171067600Y-121397300D01*
X172391400Y-121397300D02*
X172806700Y-121812600D01*
X172043800Y-123080000D02*
X172043800Y-123791500D01*
X159820000Y-117807300D02*
X159533700Y-117521000D01*
X172806700Y-121812600D02*
X172806700Y-122317100D01*
X160497300Y-119821500D02*
X162342700Y-119821500D01*
D29*
X159820000Y-119520000D02*
X160195800Y-119520000D01*
D27*
X172806700Y-122317100D02*
X172043800Y-123080000D01*
X165122200Y-122601000D02*
X169863900Y-122601000D01*
X162342700Y-119821500D02*
X165122200Y-122601000D01*
D29*
X160195800Y-119520000D02*
X160497300Y-119821500D01*
D27*
X159820000Y-119520000D02*
X159820000Y-117807300D01*
X171067600Y-121397300D02*
X172391400Y-121397300D01*
%TO.N,/LIDAR_RX_C*%
X172605400Y-146605500D02*
X172323300Y-146887600D01*
X172323300Y-146887600D02*
X172323300Y-147500000D01*
X173794600Y-138309300D02*
X172605400Y-139498500D01*
X172605400Y-139498500D02*
X172605400Y-146605500D01*
X173500000Y-147500000D02*
X172323300Y-147500000D01*
X173794600Y-123880400D02*
X173794600Y-138309300D01*
%TO.N,/LIDAR_TX*%
X165337400Y-123773100D02*
X168701900Y-123773100D01*
X161837500Y-120273200D02*
X165337400Y-123773100D01*
X160310200Y-120273200D02*
X161837500Y-120273200D01*
X158312200Y-120008500D02*
X160045600Y-120008500D01*
X156010000Y-118570000D02*
X157186700Y-118570000D01*
X157186700Y-118883000D02*
X158312200Y-120008500D01*
X160045600Y-120008500D02*
X160045600Y-120008600D01*
X157186700Y-118570000D02*
X157186700Y-118883000D01*
X160045600Y-120008600D02*
X160310200Y-120273200D01*
%TO.N,/LIDAR_TX_C*%
X171000000Y-147500000D02*
X169823300Y-147500000D01*
X169823300Y-147500000D02*
X169823300Y-146887500D01*
X170457800Y-125382800D02*
X166359200Y-129481400D01*
D28*
X169980000Y-141356500D02*
X170074800Y-141261700D01*
X170074800Y-141261700D02*
X170074800Y-139495500D01*
D27*
X166359200Y-129481400D02*
X166359200Y-135779900D01*
X169823300Y-146887500D02*
X169980000Y-146730800D01*
X169980000Y-146730800D02*
X169980000Y-141356500D01*
X166359200Y-135779900D02*
X170074800Y-139495500D01*
%TO.N,/MOT_L_D*%
X146000800Y-123446600D02*
X144669300Y-123446600D01*
X104500000Y-140500000D02*
X105826700Y-140500000D01*
X142585600Y-121362900D02*
X142585600Y-121130000D01*
X146518000Y-122929400D02*
X146000800Y-123446600D01*
X146518000Y-122929400D02*
X148489000Y-122929400D01*
X144669300Y-123446600D02*
X142585600Y-121362900D01*
X110556900Y-135769800D02*
X105826700Y-140500000D01*
X110556900Y-124819000D02*
X110556900Y-135769800D01*
X155707700Y-123526000D02*
X157923800Y-125742100D01*
X149085600Y-123526000D02*
X155707700Y-123526000D01*
X148489000Y-122929400D02*
X149085600Y-123526000D01*
%TO.N,/MOT_L_G*%
X155873000Y-121758900D02*
X154536200Y-120422100D01*
X150561500Y-113223200D02*
X147090800Y-113223200D01*
X155873000Y-122670700D02*
X152062200Y-122670700D01*
X151748300Y-114410000D02*
X150561500Y-113223200D01*
X156860000Y-123515000D02*
X156015800Y-122670800D01*
X147090800Y-113223200D02*
X146600000Y-113714000D01*
X155873000Y-122670800D02*
X155873000Y-122670700D01*
X151680800Y-122289300D02*
X145441200Y-122289300D01*
X152200000Y-117699400D02*
X151748300Y-117247700D01*
X145441200Y-122289300D02*
X144935500Y-122795000D01*
X152200000Y-119030300D02*
X152200000Y-117699400D01*
X154536200Y-120422100D02*
X153591800Y-120422100D01*
X152062200Y-122670700D02*
X151680800Y-122289300D01*
X156015800Y-122670800D02*
X155873000Y-122670800D01*
X153591800Y-120422100D02*
X152200000Y-119030300D01*
X155873000Y-122670700D02*
X155873000Y-121758900D01*
X151748300Y-117247700D02*
X151748300Y-114410000D01*
%TO.N,/MOT_L_PWM*%
X140770000Y-118570000D02*
X140835300Y-118635300D01*
D28*
X144116900Y-120981200D02*
X143278800Y-120981200D01*
D27*
X154156200Y-120981200D02*
X144116900Y-120981200D01*
X155192900Y-122017900D02*
X154156200Y-120981200D01*
X140835300Y-118635300D02*
X140835300Y-119020200D01*
D28*
X143278800Y-120981200D02*
X141317800Y-119020200D01*
X141317800Y-119020200D02*
X140835300Y-119020200D01*
%TO.N,/MOT_R_D*%
X131880000Y-117394800D02*
X130147600Y-117394800D01*
D27*
X145703800Y-126670500D02*
X145703800Y-128833800D01*
X131880000Y-119002800D02*
X131880000Y-117394800D01*
X145703800Y-126670500D02*
X139547700Y-126670500D01*
D28*
X130147600Y-117394800D02*
X126733400Y-113980600D01*
D27*
X125252800Y-112500000D02*
X113300000Y-112500000D01*
X148397700Y-123745000D02*
X148397700Y-123976600D01*
X139547700Y-126670500D02*
X131880000Y-119002800D01*
X148397700Y-123976600D02*
X145703800Y-126670500D01*
X126733400Y-113980600D02*
X125252800Y-112500000D01*
%TO.N,/MOT_R_G*%
X159918600Y-123921900D02*
X159918600Y-124729600D01*
X152460200Y-124379300D02*
X151332700Y-125506800D01*
X156895300Y-126368900D02*
X154905700Y-124379300D01*
X158279300Y-126368900D02*
X156895300Y-126368900D01*
X159918600Y-124729600D02*
X158279300Y-126368900D01*
X154905700Y-124379300D02*
X152460200Y-124379300D01*
D25*
%TO.N,/PI_5V*%
X124112200Y-124709300D02*
X130766900Y-124709300D01*
X107027500Y-103572500D02*
X108370000Y-102230000D01*
X112801600Y-113996600D02*
X109963500Y-111158500D01*
X109963500Y-110922300D02*
X107027500Y-107986300D01*
X113348200Y-113945300D02*
X124112200Y-124709300D01*
D26*
X112852900Y-113945300D02*
X112801600Y-113996600D01*
D25*
X109963500Y-111158500D02*
X109963500Y-110922300D01*
D26*
X113348200Y-113945300D02*
X112852900Y-113945300D01*
D25*
X107027500Y-107986300D02*
X107027500Y-103572500D01*
D27*
%TO.N,/PI_HB*%
X145850000Y-118570000D02*
X147026700Y-118570000D01*
X147026700Y-117187100D02*
X150315000Y-113898800D01*
X147026700Y-118570000D02*
X147026700Y-117187100D01*
%TO.N,/PI_RXD*%
X124880000Y-105179400D02*
X124880000Y-104288100D01*
D28*
X144392600Y-116943100D02*
X139525300Y-116943100D01*
D27*
X145343400Y-119752900D02*
X144580000Y-118989500D01*
X144580000Y-118989500D02*
X144580000Y-117130500D01*
X119800000Y-103500000D02*
X118530000Y-102230000D01*
X134376200Y-114675600D02*
X124880000Y-105179400D01*
X124091900Y-103500000D02*
X119800000Y-103500000D01*
X148390000Y-118570000D02*
X147207100Y-119752900D01*
X144580000Y-117130500D02*
X144392600Y-116943100D01*
X147207100Y-119752900D02*
X145343400Y-119752900D01*
X139525300Y-116943100D02*
X137257800Y-114675600D01*
X124880000Y-104288100D02*
X124091900Y-103500000D01*
X137257800Y-114675600D02*
X134376200Y-114675600D01*
%TO.N,/PI_TXD*%
X150930000Y-117088200D02*
X149470900Y-115629100D01*
X150930000Y-118570000D02*
X150930000Y-117088200D01*
%TO.N,/US_H_ECHO_C*%
X152200000Y-136434500D02*
X164108900Y-124525600D01*
X148588400Y-147500000D02*
X149902400Y-148814000D01*
X149902400Y-148814000D02*
X150975200Y-148814000D01*
X152200000Y-147589200D02*
X152200000Y-136434500D01*
X150975200Y-148814000D02*
X152200000Y-147589200D01*
X164108900Y-124525600D02*
X164108900Y-123747000D01*
X148000000Y-147500000D02*
X148588400Y-147500000D01*
%TO.N,/US_H_TRIG*%
X161090000Y-118570000D02*
X161315200Y-118344800D01*
X169980000Y-118162300D02*
X169980000Y-118969200D01*
X164248800Y-116916500D02*
X168734200Y-116916500D01*
X161315200Y-118344800D02*
X161315200Y-117394800D01*
X163784400Y-117380900D02*
X164248800Y-116916500D01*
X174933900Y-119753600D02*
X176813000Y-121632700D01*
X176957700Y-121632700D02*
X176938000Y-121632700D01*
X169980000Y-118969200D02*
X170764400Y-119753600D01*
X177324100Y-121999100D02*
X176957700Y-121632700D01*
X170764400Y-119753600D02*
X174933900Y-119753600D01*
D28*
X163784400Y-117380900D02*
X161329100Y-117380900D01*
X161329100Y-117380900D02*
X161315200Y-117394800D01*
X176938000Y-121632700D02*
X176813000Y-121632700D01*
D27*
X168734200Y-116916500D02*
X169980000Y-118162300D01*
%TO.N,/US_L_ECHO_C*%
X170647500Y-123812900D02*
X171129600Y-124295000D01*
X166996700Y-129899500D02*
X166996700Y-135514900D01*
X171129600Y-124295000D02*
X171129600Y-125766600D01*
X171129600Y-125766600D02*
X166996700Y-129899500D01*
%TO.N,/US_L_TRIG_C*%
X162775400Y-123215900D02*
X162775400Y-122097700D01*
X144580000Y-140397700D02*
X152865700Y-132112000D01*
X144485000Y-144210900D02*
X144580000Y-144115900D01*
X158719000Y-127272300D02*
X162775400Y-123215900D01*
X152865700Y-132112000D02*
X152865700Y-131652800D01*
X152865700Y-131652800D02*
X157246200Y-127272300D01*
X144580000Y-144115900D02*
X144580000Y-140397700D01*
X157246200Y-127272300D02*
X158719000Y-127272300D01*
%TO.N,/US_R_ECHO*%
X173993100Y-122018100D02*
X172260600Y-120285600D01*
X165636600Y-117372400D02*
X164806700Y-118202300D01*
X172260600Y-120285600D02*
X168708100Y-120285600D01*
X167440000Y-118138700D02*
X166673700Y-117372400D01*
X167440000Y-119017500D02*
X167440000Y-118138700D01*
X166673700Y-117372400D02*
X165636600Y-117372400D01*
X163630000Y-118570000D02*
X164806700Y-118570000D01*
X164806700Y-118202300D02*
X164806700Y-118570000D01*
X168708100Y-120285600D02*
X167440000Y-119017500D01*
%TO.N,/US_R_TRIG*%
X166898900Y-119746700D02*
X168641200Y-121489000D01*
X166170000Y-118570000D02*
X166170000Y-119746700D01*
X166170000Y-119746700D02*
X166898900Y-119746700D01*
%TO.N,/US_R_TRIG_C*%
X169686300Y-123874800D02*
X171498100Y-122063000D01*
X151162300Y-149265700D02*
X154674300Y-145753700D01*
X154674300Y-140378200D02*
X169686300Y-125366200D01*
X154674300Y-145753700D02*
X154674300Y-140378200D01*
X131927600Y-149265700D02*
X151162300Y-149265700D01*
X130676700Y-147500000D02*
X130676700Y-148014800D01*
X169686300Y-125366200D02*
X169686300Y-123874800D01*
X130676700Y-148014800D02*
X131927600Y-149265700D01*
X171498100Y-122063000D02*
X172159700Y-122063000D01*
X129500000Y-147500000D02*
X130676700Y-147500000D01*
D25*
%TO.N,GND*%
X175712400Y-127483000D02*
X175295300Y-127900100D01*
X132030900Y-145030900D02*
X134500000Y-147500000D01*
X125530000Y-141430000D02*
X125530000Y-140128300D01*
X129243300Y-136415000D02*
X125530000Y-140128300D01*
D26*
X148659900Y-100929800D02*
X146070300Y-100929800D01*
D25*
X138850000Y-104770000D02*
X138850000Y-109667200D01*
D26*
X146070300Y-100929800D02*
X146000900Y-100860400D01*
D25*
X145299600Y-100860400D02*
X143930000Y-102230000D01*
X138850000Y-109667200D02*
X135009400Y-113507800D01*
D26*
X124509000Y-142730200D02*
X119739200Y-147500000D01*
D25*
X149010000Y-102230000D02*
X148659900Y-101879900D01*
X125530000Y-142730200D02*
X127830700Y-145030900D01*
X130224300Y-136415000D02*
X129243300Y-136415000D01*
X129243300Y-136415000D02*
X125922600Y-133094300D01*
X175295300Y-127900100D02*
X175295300Y-138237800D01*
D26*
X125530000Y-142730200D02*
X124509000Y-142730200D01*
D25*
X148659900Y-101879900D02*
X148659900Y-100929800D01*
X175295300Y-138237800D02*
X173591900Y-139941200D01*
D26*
X118500000Y-147500000D02*
X119739200Y-147500000D01*
D25*
X127830700Y-145030900D02*
X132030900Y-145030900D01*
X125530000Y-141430000D02*
X125530000Y-142730200D01*
X146000900Y-100860400D02*
X145299600Y-100860400D01*
X132723600Y-133915700D02*
X130224300Y-136415000D01*
%TD*%
%TA.AperFunction,Conductor*%
%TO.N,GND*%
G36*
X106742767Y-100320185D02*
G01*
X106788522Y-100372989D01*
X106798466Y-100442147D01*
X106795506Y-100456578D01*
X106769300Y-100554382D01*
X106769300Y-100554384D01*
X106769300Y-100666417D01*
X106796375Y-100767465D01*
X106800600Y-100799558D01*
X106800600Y-101749298D01*
X106780915Y-101816337D01*
X106738605Y-101856682D01*
X106734743Y-101858911D01*
X106734734Y-101858918D01*
X105997896Y-102595755D01*
X105997895Y-102595755D01*
X105997896Y-102595756D01*
X105936114Y-102657538D01*
X105936113Y-102657540D01*
X105880098Y-102754560D01*
X105880097Y-102754563D01*
X105851100Y-102862782D01*
X105851100Y-105401464D01*
X105831415Y-105468503D01*
X105778611Y-105514258D01*
X105710913Y-105524403D01*
X105704058Y-105523500D01*
X105704057Y-105523500D01*
X105545943Y-105523500D01*
X105393216Y-105564423D01*
X105393209Y-105564426D01*
X105256290Y-105643475D01*
X105256282Y-105643481D01*
X105144481Y-105755282D01*
X105144475Y-105755290D01*
X105065426Y-105892209D01*
X105065423Y-105892216D01*
X105024500Y-106044943D01*
X105024500Y-106203056D01*
X105065423Y-106355783D01*
X105065426Y-106355790D01*
X105144475Y-106492709D01*
X105144479Y-106492714D01*
X105144480Y-106492716D01*
X105256284Y-106604520D01*
X105337399Y-106651351D01*
X105385615Y-106701916D01*
X105399400Y-106758738D01*
X105399400Y-108725715D01*
X105379715Y-108792754D01*
X105326911Y-108838509D01*
X105271808Y-108848781D01*
X105271808Y-108849500D01*
X105268102Y-108849500D01*
X103731898Y-108849500D01*
X103692853Y-108854188D01*
X103643438Y-108860122D01*
X103502656Y-108915639D01*
X103382077Y-109007077D01*
X103290639Y-109127656D01*
X103235122Y-109268438D01*
X103234204Y-109276085D01*
X103224500Y-109356898D01*
X103224500Y-110643102D01*
X103227734Y-110670030D01*
X103235122Y-110731561D01*
X103290639Y-110872343D01*
X103382077Y-110992922D01*
X103502656Y-111084360D01*
X103502657Y-111084360D01*
X103502658Y-111084361D01*
X103643436Y-111139877D01*
X103731898Y-111150500D01*
X103731903Y-111150500D01*
X104022331Y-111150500D01*
X104089370Y-111170185D01*
X104135125Y-111222989D01*
X104145069Y-111292147D01*
X104116044Y-111355703D01*
X104060649Y-111392431D01*
X103933363Y-111433787D01*
X103933360Y-111433788D01*
X103772002Y-111516006D01*
X103625505Y-111622441D01*
X103625500Y-111622445D01*
X103497445Y-111750500D01*
X103497441Y-111750505D01*
X103391006Y-111897002D01*
X103308788Y-112058360D01*
X103308787Y-112058363D01*
X103252829Y-112230589D01*
X103224500Y-112409448D01*
X103224500Y-112590551D01*
X103252829Y-112769410D01*
X103308787Y-112941636D01*
X103308788Y-112941639D01*
X103391006Y-113102997D01*
X103497441Y-113249494D01*
X103497445Y-113249499D01*
X103625500Y-113377554D01*
X103625505Y-113377558D01*
X103750157Y-113468122D01*
X103772006Y-113483996D01*
X103876687Y-113537334D01*
X103933360Y-113566211D01*
X103933363Y-113566212D01*
X104019476Y-113594191D01*
X104105591Y-113622171D01*
X104130291Y-113626083D01*
X104139406Y-113627527D01*
X104202540Y-113657457D01*
X104239471Y-113716768D01*
X104238473Y-113786631D01*
X104199863Y-113844863D01*
X104139406Y-113872473D01*
X104105589Y-113877829D01*
X103933363Y-113933787D01*
X103933360Y-113933788D01*
X103772002Y-114016006D01*
X103625505Y-114122441D01*
X103625500Y-114122445D01*
X103497445Y-114250500D01*
X103497441Y-114250505D01*
X103391006Y-114397002D01*
X103308788Y-114558360D01*
X103308787Y-114558363D01*
X103252829Y-114730589D01*
X103224500Y-114909448D01*
X103224500Y-115090551D01*
X103252829Y-115269410D01*
X103308787Y-115441636D01*
X103308788Y-115441639D01*
X103364024Y-115550043D01*
X103377499Y-115576490D01*
X103391006Y-115602997D01*
X103497441Y-115749494D01*
X103497445Y-115749499D01*
X103625500Y-115877554D01*
X103625505Y-115877558D01*
X103743340Y-115963169D01*
X103772006Y-115983996D01*
X103877484Y-116037740D01*
X103933360Y-116066211D01*
X103933363Y-116066212D01*
X104019476Y-116094191D01*
X104105591Y-116122171D01*
X104188429Y-116135291D01*
X104284449Y-116150500D01*
X104284454Y-116150500D01*
X104715551Y-116150500D01*
X104802259Y-116136765D01*
X104894409Y-116122171D01*
X105066639Y-116066211D01*
X105219105Y-115988524D01*
X105287774Y-115975629D01*
X105352514Y-116001905D01*
X105392772Y-116059011D01*
X105399400Y-116099010D01*
X105399400Y-122725715D01*
X105379715Y-122792754D01*
X105326911Y-122838509D01*
X105271808Y-122848781D01*
X105271808Y-122849500D01*
X105268102Y-122849500D01*
X103731898Y-122849500D01*
X103692853Y-122854188D01*
X103643438Y-122860122D01*
X103502656Y-122915639D01*
X103382077Y-123007077D01*
X103290639Y-123127656D01*
X103235122Y-123268438D01*
X103231066Y-123302219D01*
X103224500Y-123356898D01*
X103224500Y-123356903D01*
X103224500Y-124587034D01*
X103204815Y-124654073D01*
X103188181Y-124674715D01*
X102667213Y-125195683D01*
X102667209Y-125195689D01*
X102607901Y-125298412D01*
X102607900Y-125298415D01*
X102607468Y-125300029D01*
X102607466Y-125300036D01*
X102579445Y-125404612D01*
X102577200Y-125412991D01*
X102577200Y-126182909D01*
X102588563Y-126225315D01*
X102603646Y-126281607D01*
X102603646Y-126345793D01*
X102596958Y-126370754D01*
X102577200Y-126444491D01*
X102577200Y-130217309D01*
X102580250Y-130228692D01*
X102601412Y-130307672D01*
X102607900Y-130331885D01*
X102607900Y-130331886D01*
X102616693Y-130347115D01*
X102646617Y-130398945D01*
X102652587Y-130409284D01*
X102669200Y-130471285D01*
X102669200Y-136679008D01*
X102693412Y-136769372D01*
X102699900Y-136793585D01*
X102699900Y-136793586D01*
X102711856Y-136814293D01*
X102759211Y-136896314D01*
X102759213Y-136896316D01*
X103163181Y-137300284D01*
X103196666Y-137361607D01*
X103199500Y-137387965D01*
X103199500Y-138643102D01*
X103205126Y-138689954D01*
X103210122Y-138731561D01*
X103265639Y-138872343D01*
X103321214Y-138945628D01*
X103321356Y-138946003D01*
X103321679Y-138946245D01*
X103333751Y-138978613D01*
X103346038Y-139010939D01*
X103345954Y-139011333D01*
X103346095Y-139011709D01*
X103338756Y-139045444D01*
X103331611Y-139079303D01*
X103331299Y-139079721D01*
X103331243Y-139079982D01*
X103310091Y-139108236D01*
X103259963Y-139158363D01*
X103232213Y-139176914D01*
X103233151Y-139178538D01*
X103226114Y-139182600D01*
X103226113Y-139182601D01*
X103131487Y-139237234D01*
X103123386Y-139241911D01*
X103123383Y-139241913D01*
X102759013Y-139606283D01*
X102759009Y-139606289D01*
X102699701Y-139709012D01*
X102699700Y-139709017D01*
X102669000Y-139823591D01*
X102669000Y-141087308D01*
X102688636Y-141160591D01*
X102699701Y-141201888D01*
X102727187Y-141249494D01*
X102759011Y-141304614D01*
X109314886Y-147860489D01*
X109417613Y-147919799D01*
X109417612Y-147919799D01*
X109429894Y-147923089D01*
X109438887Y-147925499D01*
X109438889Y-147925500D01*
X109458606Y-147930782D01*
X109532191Y-147950500D01*
X109725500Y-147950500D01*
X109792539Y-147970185D01*
X109838294Y-148022989D01*
X109849500Y-148074500D01*
X109849500Y-148268102D01*
X109855126Y-148314954D01*
X109860122Y-148356561D01*
X109860122Y-148356563D01*
X109860123Y-148356564D01*
X109870430Y-148382701D01*
X109915639Y-148497343D01*
X110007077Y-148617922D01*
X110127656Y-148709360D01*
X110127657Y-148709360D01*
X110127658Y-148709361D01*
X110268436Y-148764877D01*
X110356898Y-148775500D01*
X110356903Y-148775500D01*
X111643097Y-148775500D01*
X111643102Y-148775500D01*
X111731564Y-148764877D01*
X111872342Y-148709361D01*
X111992922Y-148617922D01*
X112084361Y-148497342D01*
X112139877Y-148356564D01*
X112150500Y-148268102D01*
X112150500Y-147977669D01*
X112170185Y-147910630D01*
X112222989Y-147864875D01*
X112292147Y-147854931D01*
X112355703Y-147883956D01*
X112392431Y-147939351D01*
X112433787Y-148066636D01*
X112433788Y-148066639D01*
X112516006Y-148227997D01*
X112622441Y-148374494D01*
X112622445Y-148374499D01*
X112750500Y-148502554D01*
X112750505Y-148502558D01*
X112803337Y-148540942D01*
X112897006Y-148608996D01*
X112948036Y-148634997D01*
X113058360Y-148691211D01*
X113058363Y-148691212D01*
X113144476Y-148719191D01*
X113230591Y-148747171D01*
X113308648Y-148759534D01*
X113409449Y-148775500D01*
X113409454Y-148775500D01*
X113590551Y-148775500D01*
X113677259Y-148761765D01*
X113769409Y-148747171D01*
X113941639Y-148691211D01*
X114102994Y-148608996D01*
X114249501Y-148502553D01*
X114377553Y-148374501D01*
X114483996Y-148227994D01*
X114566211Y-148066639D01*
X114622171Y-147894409D01*
X114627527Y-147860594D01*
X114657456Y-147797459D01*
X114716768Y-147760528D01*
X114786630Y-147761526D01*
X114844863Y-147800136D01*
X114872473Y-147860594D01*
X114877829Y-147894410D01*
X114933787Y-148066636D01*
X114933788Y-148066639D01*
X115016006Y-148227997D01*
X115122441Y-148374494D01*
X115122445Y-148374499D01*
X115250500Y-148502554D01*
X115250505Y-148502558D01*
X115303337Y-148540942D01*
X115397006Y-148608996D01*
X115448036Y-148634997D01*
X115558360Y-148691211D01*
X115558363Y-148691212D01*
X115644476Y-148719191D01*
X115730591Y-148747171D01*
X115808648Y-148759534D01*
X115909449Y-148775500D01*
X115909454Y-148775500D01*
X116090551Y-148775500D01*
X116177259Y-148761765D01*
X116269409Y-148747171D01*
X116441639Y-148691211D01*
X116602994Y-148608996D01*
X116749501Y-148502553D01*
X116877553Y-148374501D01*
X116983996Y-148227994D01*
X117066211Y-148066639D01*
X117122171Y-147894409D01*
X117143376Y-147760528D01*
X117150500Y-147715551D01*
X117150500Y-147284448D01*
X117128495Y-147145522D01*
X117122171Y-147105591D01*
X117084312Y-146989071D01*
X117066212Y-146933363D01*
X117066211Y-146933360D01*
X117009232Y-146821535D01*
X116983996Y-146772006D01*
X116954856Y-146731898D01*
X116877558Y-146625505D01*
X116877554Y-146625500D01*
X116749499Y-146497445D01*
X116749494Y-146497441D01*
X116602997Y-146391006D01*
X116602996Y-146391005D01*
X116602994Y-146391004D01*
X116551300Y-146364664D01*
X116441639Y-146308788D01*
X116441636Y-146308787D01*
X116269410Y-146252829D01*
X116090551Y-146224500D01*
X116090546Y-146224500D01*
X115909454Y-146224500D01*
X115909449Y-146224500D01*
X115730589Y-146252829D01*
X115558363Y-146308787D01*
X115558360Y-146308788D01*
X115397002Y-146391006D01*
X115250505Y-146497441D01*
X115250500Y-146497445D01*
X115122445Y-146625500D01*
X115122441Y-146625505D01*
X115016006Y-146772002D01*
X114933788Y-146933360D01*
X114933787Y-146933363D01*
X114877829Y-147105589D01*
X114872473Y-147139406D01*
X114842543Y-147202540D01*
X114783232Y-147239471D01*
X114713369Y-147238473D01*
X114655137Y-147199863D01*
X114627527Y-147139406D01*
X114624958Y-147123187D01*
X114622171Y-147105591D01*
X114584312Y-146989071D01*
X114566212Y-146933363D01*
X114566211Y-146933360D01*
X114509232Y-146821535D01*
X114483996Y-146772006D01*
X114454856Y-146731898D01*
X114377558Y-146625505D01*
X114377554Y-146625500D01*
X114249499Y-146497445D01*
X114249494Y-146497441D01*
X114102997Y-146391006D01*
X114102996Y-146391005D01*
X114102994Y-146391004D01*
X114051300Y-146364664D01*
X113941639Y-146308788D01*
X113941636Y-146308787D01*
X113769410Y-146252829D01*
X113590551Y-146224500D01*
X113590546Y-146224500D01*
X113409454Y-146224500D01*
X113409449Y-146224500D01*
X113230589Y-146252829D01*
X113058363Y-146308787D01*
X113058360Y-146308788D01*
X112897002Y-146391006D01*
X112750505Y-146497441D01*
X112750500Y-146497445D01*
X112622445Y-146625500D01*
X112622441Y-146625505D01*
X112516006Y-146772002D01*
X112433788Y-146933360D01*
X112433787Y-146933363D01*
X112392431Y-147060648D01*
X112352994Y-147118323D01*
X112288635Y-147145522D01*
X112219789Y-147133608D01*
X112168313Y-147086364D01*
X112150500Y-147022330D01*
X112150500Y-146731903D01*
X112150500Y-146731898D01*
X112139877Y-146643436D01*
X112084361Y-146502658D01*
X112084360Y-146502657D01*
X112084360Y-146502656D01*
X111992922Y-146382077D01*
X111872343Y-146290639D01*
X111731561Y-146235122D01*
X111685926Y-146229642D01*
X111643102Y-146224500D01*
X110356898Y-146224500D01*
X110317853Y-146229188D01*
X110268438Y-146235122D01*
X110127656Y-146290639D01*
X110007077Y-146382077D01*
X109915639Y-146502656D01*
X109860122Y-146643438D01*
X109854188Y-146692853D01*
X109849500Y-146731898D01*
X109849500Y-146731903D01*
X109849500Y-146821535D01*
X109829815Y-146888574D01*
X109777011Y-146934329D01*
X109707853Y-146944273D01*
X109644297Y-146915248D01*
X109637819Y-146909216D01*
X104590784Y-141862181D01*
X104557299Y-141800858D01*
X104562283Y-141731166D01*
X104604155Y-141675233D01*
X104669619Y-141650816D01*
X104678465Y-141650500D01*
X104740551Y-141650500D01*
X104827259Y-141636765D01*
X104919409Y-141622171D01*
X105091639Y-141566211D01*
X105252994Y-141483996D01*
X105399501Y-141377553D01*
X105437606Y-141339448D01*
X121839500Y-141339448D01*
X121839500Y-141520551D01*
X121867829Y-141699410D01*
X121923787Y-141871636D01*
X121923788Y-141871639D01*
X122006006Y-142032997D01*
X122112441Y-142179494D01*
X122112445Y-142179499D01*
X122240500Y-142307554D01*
X122240505Y-142307558D01*
X122362815Y-142396420D01*
X122387006Y-142413996D01*
X122471934Y-142457269D01*
X122548360Y-142496211D01*
X122548363Y-142496212D01*
X122634476Y-142524191D01*
X122720591Y-142552171D01*
X122803429Y-142565291D01*
X122899449Y-142580500D01*
X122899454Y-142580500D01*
X123080551Y-142580500D01*
X123167259Y-142566765D01*
X123259409Y-142552171D01*
X123431639Y-142496211D01*
X123592994Y-142413996D01*
X123739501Y-142307553D01*
X123867553Y-142179501D01*
X123973996Y-142032994D01*
X124056211Y-141871639D01*
X124112171Y-141699409D01*
X124126765Y-141607259D01*
X124140500Y-141520551D01*
X124140500Y-141339448D01*
X124124019Y-141235397D01*
X124112171Y-141160591D01*
X124056211Y-140988361D01*
X124056211Y-140988360D01*
X124027740Y-140932484D01*
X123973996Y-140827006D01*
X123960396Y-140808287D01*
X123867558Y-140680505D01*
X123867554Y-140680500D01*
X123739499Y-140552445D01*
X123739494Y-140552441D01*
X123592997Y-140446006D01*
X123592996Y-140446005D01*
X123592994Y-140446004D01*
X123503237Y-140400270D01*
X123431639Y-140363788D01*
X123431636Y-140363787D01*
X123259410Y-140307829D01*
X123080551Y-140279500D01*
X123080546Y-140279500D01*
X122899454Y-140279500D01*
X122899449Y-140279500D01*
X122720589Y-140307829D01*
X122548363Y-140363787D01*
X122548360Y-140363788D01*
X122387002Y-140446006D01*
X122240505Y-140552441D01*
X122240500Y-140552445D01*
X122112445Y-140680500D01*
X122112441Y-140680505D01*
X122006006Y-140827002D01*
X121923788Y-140988360D01*
X121923787Y-140988363D01*
X121867829Y-141160589D01*
X121839500Y-141339448D01*
X105437606Y-141339448D01*
X105527553Y-141249501D01*
X105633996Y-141102994D01*
X105689937Y-140993203D01*
X105737910Y-140942409D01*
X105800421Y-140925500D01*
X105882716Y-140925500D01*
X105882718Y-140925500D01*
X105990937Y-140896503D01*
X106087963Y-140840485D01*
X110897385Y-136031063D01*
X110953403Y-135934037D01*
X110982400Y-135825818D01*
X110982400Y-135713782D01*
X110982400Y-125294098D01*
X111002085Y-125227059D01*
X111018719Y-125206417D01*
X111024736Y-125200400D01*
X111037420Y-125187716D01*
X111116477Y-125050784D01*
X111157400Y-124898057D01*
X111157400Y-124739943D01*
X111116477Y-124587216D01*
X111113245Y-124581618D01*
X111037424Y-124450290D01*
X111037418Y-124450282D01*
X110925617Y-124338481D01*
X110925609Y-124338475D01*
X110788690Y-124259426D01*
X110788686Y-124259424D01*
X110788684Y-124259423D01*
X110635957Y-124218500D01*
X110477843Y-124218500D01*
X110325116Y-124259423D01*
X110325109Y-124259426D01*
X110188190Y-124338475D01*
X110188182Y-124338481D01*
X110076381Y-124450282D01*
X110076375Y-124450290D01*
X109997326Y-124587209D01*
X109997323Y-124587216D01*
X109956400Y-124739943D01*
X109956400Y-124898057D01*
X109994730Y-125041104D01*
X109997323Y-125050783D01*
X109997326Y-125050790D01*
X110076375Y-125187709D01*
X110076381Y-125187717D01*
X110095081Y-125206417D01*
X110128566Y-125267740D01*
X110131400Y-125294098D01*
X110131400Y-135542189D01*
X110111715Y-135609228D01*
X110095081Y-135629870D01*
X105818272Y-139906678D01*
X105756949Y-139940163D01*
X105687257Y-139935179D01*
X105631324Y-139893307D01*
X105630348Y-139891985D01*
X105527553Y-139750499D01*
X105399501Y-139622447D01*
X105399499Y-139622445D01*
X105399494Y-139622441D01*
X105252997Y-139516006D01*
X105252996Y-139516005D01*
X105252994Y-139516004D01*
X105201300Y-139489664D01*
X105091639Y-139433788D01*
X105091636Y-139433787D01*
X104964351Y-139392431D01*
X104906676Y-139352994D01*
X104879477Y-139288636D01*
X104891391Y-139219789D01*
X104938635Y-139168313D01*
X105002669Y-139150500D01*
X105293097Y-139150500D01*
X105293102Y-139150500D01*
X105381564Y-139139877D01*
X105522342Y-139084361D01*
X105642922Y-138992922D01*
X105734361Y-138872342D01*
X105789877Y-138731564D01*
X105800500Y-138643102D01*
X105800500Y-137356898D01*
X105789877Y-137268436D01*
X105734361Y-137127658D01*
X105734360Y-137127657D01*
X105734360Y-137127656D01*
X105642922Y-137007077D01*
X105522343Y-136915639D01*
X105381561Y-136860122D01*
X105335926Y-136854642D01*
X105293102Y-136849500D01*
X105293097Y-136849500D01*
X104037965Y-136849500D01*
X103970926Y-136829815D01*
X103950284Y-136813181D01*
X103606519Y-136469416D01*
X103573034Y-136408093D01*
X103570200Y-136381735D01*
X103570200Y-130824500D01*
X103589885Y-130757461D01*
X103642689Y-130711706D01*
X103694200Y-130700500D01*
X105142908Y-130700500D01*
X105142909Y-130700500D01*
X105233273Y-130676286D01*
X105257487Y-130669799D01*
X105360214Y-130610489D01*
X109572289Y-126398414D01*
X109628971Y-126300237D01*
X109631599Y-126295686D01*
X109662300Y-126181109D01*
X109662300Y-111935186D01*
X109681985Y-111868147D01*
X109734789Y-111822392D01*
X109803947Y-111812448D01*
X109867503Y-111841473D01*
X109873981Y-111847505D01*
X112463586Y-114437110D01*
X112463587Y-114437111D01*
X112463589Y-114437112D01*
X112526350Y-114473347D01*
X112589115Y-114509584D01*
X112729126Y-114547100D01*
X112729129Y-114547100D01*
X112874072Y-114547100D01*
X112874075Y-114547100D01*
X113014085Y-114509584D01*
X113014087Y-114509582D01*
X113014089Y-114509582D01*
X113021599Y-114506472D01*
X113022899Y-114509611D01*
X113075441Y-114496802D01*
X113141493Y-114519579D01*
X113157362Y-114532987D01*
X123774185Y-125149810D01*
X123878092Y-125209800D01*
X123899715Y-125222284D01*
X124039725Y-125259800D01*
X124039726Y-125259800D01*
X124184674Y-125259800D01*
X130292300Y-125259800D01*
X130359339Y-125279485D01*
X130361191Y-125280698D01*
X130420572Y-125320375D01*
X130435089Y-125330075D01*
X130435091Y-125330076D01*
X130435095Y-125330078D01*
X130559506Y-125381610D01*
X130562572Y-125382880D01*
X130562576Y-125382880D01*
X130562577Y-125382881D01*
X130697904Y-125409800D01*
X130697907Y-125409800D01*
X130835895Y-125409800D01*
X130960600Y-125384994D01*
X130971228Y-125382880D01*
X131098711Y-125330075D01*
X131213442Y-125253414D01*
X131311014Y-125155842D01*
X131387675Y-125041111D01*
X131440480Y-124913628D01*
X131461564Y-124807634D01*
X131467400Y-124778295D01*
X131467400Y-124640304D01*
X131440481Y-124504977D01*
X131440480Y-124504976D01*
X131440480Y-124504972D01*
X131424305Y-124465921D01*
X131387678Y-124377495D01*
X131387671Y-124377482D01*
X131311014Y-124262758D01*
X131311011Y-124262754D01*
X131213445Y-124165188D01*
X131213441Y-124165185D01*
X131098717Y-124088528D01*
X131098704Y-124088521D01*
X130971232Y-124035721D01*
X130971222Y-124035718D01*
X130835895Y-124008800D01*
X130835893Y-124008800D01*
X130697907Y-124008800D01*
X130697905Y-124008800D01*
X130562577Y-124035718D01*
X130562567Y-124035721D01*
X130435095Y-124088521D01*
X130435083Y-124088528D01*
X130361191Y-124137902D01*
X130294514Y-124158780D01*
X130292300Y-124158800D01*
X124391587Y-124158800D01*
X124324548Y-124139115D01*
X124303906Y-124122481D01*
X113916925Y-113735500D01*
X113883440Y-113674177D01*
X113888424Y-113604485D01*
X113930296Y-113548552D01*
X113948307Y-113537336D01*
X114052994Y-113483996D01*
X114199501Y-113377553D01*
X114327553Y-113249501D01*
X114433996Y-113102994D01*
X114489937Y-112993203D01*
X114537910Y-112942409D01*
X114600421Y-112925500D01*
X118299674Y-112925500D01*
X118366713Y-112945185D01*
X118412468Y-112997989D01*
X118422412Y-113067147D01*
X118421291Y-113073691D01*
X118397200Y-113194802D01*
X118397200Y-113194807D01*
X118397200Y-113332793D01*
X118397200Y-113332795D01*
X118397199Y-113332795D01*
X118424118Y-113468122D01*
X118424121Y-113468132D01*
X118476922Y-113595606D01*
X118476923Y-113595607D01*
X118476925Y-113595611D01*
X118526302Y-113669508D01*
X118547180Y-113736185D01*
X118547200Y-113738399D01*
X118547200Y-116615676D01*
X118564927Y-116681836D01*
X118584714Y-116755680D01*
X118584716Y-116755685D01*
X118657190Y-116881215D01*
X124931885Y-123155910D01*
X124931887Y-123155911D01*
X124931891Y-123155914D01*
X125050688Y-123224501D01*
X125050689Y-123224501D01*
X125056672Y-123227955D01*
X125057415Y-123228384D01*
X125197425Y-123265900D01*
X125197426Y-123265900D01*
X125342374Y-123265900D01*
X132472313Y-123265900D01*
X132539352Y-123285585D01*
X132559994Y-123302219D01*
X134957344Y-125699569D01*
X134990829Y-125760892D01*
X134991280Y-125763058D01*
X135008618Y-125850222D01*
X135008621Y-125850232D01*
X135061421Y-125977704D01*
X135061428Y-125977717D01*
X135138085Y-126092441D01*
X135138088Y-126092445D01*
X135235654Y-126190011D01*
X135235658Y-126190014D01*
X135350382Y-126266671D01*
X135350395Y-126266678D01*
X135453203Y-126309262D01*
X135477872Y-126319480D01*
X135565042Y-126336819D01*
X135626949Y-126369202D01*
X135628529Y-126370754D01*
X140615585Y-131357810D01*
X140674003Y-131391537D01*
X140741115Y-131430284D01*
X140881125Y-131467800D01*
X140881128Y-131467800D01*
X148530072Y-131467800D01*
X148530074Y-131467800D01*
X148530075Y-131467800D01*
X148670085Y-131430284D01*
X148737197Y-131391537D01*
X148795615Y-131357810D01*
X149485471Y-130667952D01*
X149546792Y-130634469D01*
X149548812Y-130634047D01*
X149636128Y-130616680D01*
X149763611Y-130563875D01*
X149837509Y-130514498D01*
X149855555Y-130508847D01*
X149871465Y-130498623D01*
X149902424Y-130494171D01*
X149904186Y-130493620D01*
X149906400Y-130493600D01*
X149991713Y-130493600D01*
X150058752Y-130513285D01*
X150079394Y-130529919D01*
X151414144Y-131864668D01*
X151447629Y-131925991D01*
X151448080Y-131928157D01*
X151465418Y-132015322D01*
X151465421Y-132015332D01*
X151518221Y-132142804D01*
X151518228Y-132142817D01*
X151594885Y-132257541D01*
X151594888Y-132257545D01*
X151692454Y-132355111D01*
X151692462Y-132355117D01*
X151763676Y-132402701D01*
X151808482Y-132456313D01*
X151817189Y-132525638D01*
X151787035Y-132588665D01*
X151782467Y-132593484D01*
X144301295Y-140074655D01*
X144301296Y-140074656D01*
X144239514Y-140136438D01*
X144239513Y-140136440D01*
X144183498Y-140233460D01*
X144183497Y-140233463D01*
X144154500Y-140341682D01*
X144154500Y-140378104D01*
X144134815Y-140445143D01*
X144082011Y-140490898D01*
X144012853Y-140500842D01*
X143957615Y-140478422D01*
X143912997Y-140446006D01*
X143912996Y-140446005D01*
X143912994Y-140446004D01*
X143823237Y-140400270D01*
X143751639Y-140363788D01*
X143751636Y-140363787D01*
X143579410Y-140307829D01*
X143400551Y-140279500D01*
X143400546Y-140279500D01*
X143219454Y-140279500D01*
X143219449Y-140279500D01*
X143040589Y-140307829D01*
X142868363Y-140363787D01*
X142868360Y-140363788D01*
X142707002Y-140446006D01*
X142560505Y-140552441D01*
X142560500Y-140552445D01*
X142432445Y-140680500D01*
X142432441Y-140680505D01*
X142326006Y-140827002D01*
X142243788Y-140988360D01*
X142243787Y-140988363D01*
X142187829Y-141160589D01*
X142162473Y-141320678D01*
X142132544Y-141383813D01*
X142073232Y-141420744D01*
X142003369Y-141419746D01*
X141945137Y-141381136D01*
X141917527Y-141320678D01*
X141903740Y-141233639D01*
X141892171Y-141160591D01*
X141836211Y-140988361D01*
X141836211Y-140988360D01*
X141807740Y-140932484D01*
X141753996Y-140827006D01*
X141740396Y-140808287D01*
X141647558Y-140680505D01*
X141647554Y-140680500D01*
X141519499Y-140552445D01*
X141519494Y-140552441D01*
X141372997Y-140446006D01*
X141372996Y-140446005D01*
X141372994Y-140446004D01*
X141283237Y-140400270D01*
X141211639Y-140363788D01*
X141211636Y-140363787D01*
X141039410Y-140307829D01*
X140860551Y-140279500D01*
X140860546Y-140279500D01*
X140679454Y-140279500D01*
X140679449Y-140279500D01*
X140500589Y-140307829D01*
X140328363Y-140363787D01*
X140328360Y-140363788D01*
X140193795Y-140432354D01*
X140125126Y-140445250D01*
X140060385Y-140418974D01*
X140020128Y-140361867D01*
X140013500Y-140321869D01*
X140013500Y-136814293D01*
X140013500Y-136814291D01*
X139982799Y-136699714D01*
X139982799Y-136699713D01*
X139982799Y-136699712D01*
X139923492Y-136596989D01*
X139923488Y-136596984D01*
X138441400Y-135114896D01*
X138407915Y-135053573D01*
X138406142Y-135043400D01*
X138405200Y-135036244D01*
X138405200Y-135036243D01*
X138364277Y-134883516D01*
X138364273Y-134883509D01*
X138285224Y-134746590D01*
X138285218Y-134746582D01*
X138173417Y-134634781D01*
X138173409Y-134634775D01*
X138036490Y-134555726D01*
X138036486Y-134555724D01*
X138036484Y-134555723D01*
X137883757Y-134514800D01*
X137725643Y-134514800D01*
X137572916Y-134555723D01*
X137572909Y-134555726D01*
X137435990Y-134634775D01*
X137435982Y-134634781D01*
X137324181Y-134746582D01*
X137324175Y-134746590D01*
X137245126Y-134883509D01*
X137245123Y-134883516D01*
X137204200Y-135036243D01*
X137204200Y-135194356D01*
X137245123Y-135347083D01*
X137245126Y-135347090D01*
X137324175Y-135484009D01*
X137324179Y-135484014D01*
X137324180Y-135484016D01*
X137435984Y-135595820D01*
X137435986Y-135595821D01*
X137435990Y-135595824D01*
X137572909Y-135674873D01*
X137572916Y-135674877D01*
X137725643Y-135715800D01*
X137725645Y-135715800D01*
X137732799Y-135716742D01*
X137796696Y-135745007D01*
X137804297Y-135752000D01*
X139076181Y-137023884D01*
X139109666Y-137085207D01*
X139112500Y-137111565D01*
X139112500Y-140405712D01*
X139092815Y-140472751D01*
X139040011Y-140518506D01*
X138970853Y-140528450D01*
X138915615Y-140506031D01*
X138832993Y-140446003D01*
X138671639Y-140363788D01*
X138671636Y-140363787D01*
X138499410Y-140307829D01*
X138320551Y-140279500D01*
X138320546Y-140279500D01*
X138139454Y-140279500D01*
X138139449Y-140279500D01*
X137960589Y-140307829D01*
X137788363Y-140363787D01*
X137788360Y-140363788D01*
X137627002Y-140446006D01*
X137480505Y-140552441D01*
X137480500Y-140552445D01*
X137352445Y-140680500D01*
X137352441Y-140680505D01*
X137246006Y-140827002D01*
X137163788Y-140988360D01*
X137163787Y-140988363D01*
X137107829Y-141160589D01*
X137082473Y-141320678D01*
X137052544Y-141383813D01*
X136993232Y-141420744D01*
X136923369Y-141419746D01*
X136865137Y-141381136D01*
X136837527Y-141320678D01*
X136823740Y-141233639D01*
X136812171Y-141160591D01*
X136756211Y-140988361D01*
X136756211Y-140988360D01*
X136727740Y-140932484D01*
X136673996Y-140827006D01*
X136660396Y-140808287D01*
X136567558Y-140680505D01*
X136567554Y-140680500D01*
X136439499Y-140552445D01*
X136439494Y-140552441D01*
X136292997Y-140446006D01*
X136292996Y-140446005D01*
X136292994Y-140446004D01*
X136203237Y-140400270D01*
X136131639Y-140363788D01*
X136131636Y-140363787D01*
X135959410Y-140307829D01*
X135780551Y-140279500D01*
X135780546Y-140279500D01*
X135599454Y-140279500D01*
X135599449Y-140279500D01*
X135420589Y-140307829D01*
X135248363Y-140363787D01*
X135248360Y-140363788D01*
X135087002Y-140446006D01*
X134940505Y-140552441D01*
X134940500Y-140552445D01*
X134812445Y-140680500D01*
X134812441Y-140680505D01*
X134706006Y-140827002D01*
X134623788Y-140988360D01*
X134623787Y-140988363D01*
X134567829Y-141160589D01*
X134542473Y-141320678D01*
X134512544Y-141383813D01*
X134453232Y-141420744D01*
X134383369Y-141419746D01*
X134325137Y-141381136D01*
X134297527Y-141320678D01*
X134283740Y-141233639D01*
X134272171Y-141160591D01*
X134216211Y-140988361D01*
X134216211Y-140988360D01*
X134187740Y-140932484D01*
X134133996Y-140827006D01*
X134120396Y-140808287D01*
X134027558Y-140680505D01*
X134027554Y-140680500D01*
X133899499Y-140552445D01*
X133899494Y-140552441D01*
X133752997Y-140446006D01*
X133752996Y-140446005D01*
X133752994Y-140446004D01*
X133663237Y-140400270D01*
X133591639Y-140363788D01*
X133591636Y-140363787D01*
X133419410Y-140307829D01*
X133240551Y-140279500D01*
X133240546Y-140279500D01*
X133059454Y-140279500D01*
X133059449Y-140279500D01*
X132880589Y-140307829D01*
X132708363Y-140363787D01*
X132708360Y-140363788D01*
X132547002Y-140446006D01*
X132400505Y-140552441D01*
X132400500Y-140552445D01*
X132272445Y-140680500D01*
X132272441Y-140680505D01*
X132166006Y-140827002D01*
X132083788Y-140988360D01*
X132083787Y-140988363D01*
X132027829Y-141160589D01*
X132002473Y-141320678D01*
X131972544Y-141383813D01*
X131913232Y-141420744D01*
X131843369Y-141419746D01*
X131785137Y-141381136D01*
X131757527Y-141320678D01*
X131743740Y-141233639D01*
X131732171Y-141160591D01*
X131676211Y-140988361D01*
X131676211Y-140988360D01*
X131647740Y-140932484D01*
X131593996Y-140827006D01*
X131580396Y-140808287D01*
X131487558Y-140680505D01*
X131487554Y-140680500D01*
X131359499Y-140552445D01*
X131359494Y-140552441D01*
X131212997Y-140446006D01*
X131212996Y-140446005D01*
X131212994Y-140446004D01*
X131123237Y-140400270D01*
X131051639Y-140363788D01*
X131051636Y-140363787D01*
X130879410Y-140307829D01*
X130700551Y-140279500D01*
X130700546Y-140279500D01*
X130519454Y-140279500D01*
X130519449Y-140279500D01*
X130340589Y-140307829D01*
X130168363Y-140363787D01*
X130168360Y-140363788D01*
X130007002Y-140446006D01*
X129860505Y-140552441D01*
X129860500Y-140552445D01*
X129732445Y-140680500D01*
X129732441Y-140680505D01*
X129626006Y-140827002D01*
X129543788Y-140988360D01*
X129543787Y-140988363D01*
X129487829Y-141160589D01*
X129462473Y-141320678D01*
X129432544Y-141383813D01*
X129373232Y-141420744D01*
X129303369Y-141419746D01*
X129245137Y-141381136D01*
X129217527Y-141320678D01*
X129203740Y-141233639D01*
X129192171Y-141160591D01*
X129136211Y-140988361D01*
X129136211Y-140988360D01*
X129107740Y-140932484D01*
X129053996Y-140827006D01*
X129040396Y-140808287D01*
X128947558Y-140680505D01*
X128947554Y-140680500D01*
X128819499Y-140552445D01*
X128819494Y-140552441D01*
X128672997Y-140446006D01*
X128672996Y-140446005D01*
X128672994Y-140446004D01*
X128583237Y-140400270D01*
X128511639Y-140363788D01*
X128511636Y-140363787D01*
X128339410Y-140307829D01*
X128160551Y-140279500D01*
X128160546Y-140279500D01*
X127979454Y-140279500D01*
X127979449Y-140279500D01*
X127800589Y-140307829D01*
X127628363Y-140363787D01*
X127628360Y-140363788D01*
X127467002Y-140446006D01*
X127320505Y-140552441D01*
X127320500Y-140552445D01*
X127192445Y-140680500D01*
X127192441Y-140680505D01*
X127086006Y-140827002D01*
X127003788Y-140988360D01*
X127003787Y-140988363D01*
X126947829Y-141160589D01*
X126919500Y-141339448D01*
X126919500Y-141520551D01*
X126947829Y-141699410D01*
X127003787Y-141871636D01*
X127003788Y-141871639D01*
X127086006Y-142032997D01*
X127192441Y-142179494D01*
X127192445Y-142179499D01*
X127320500Y-142307554D01*
X127320505Y-142307558D01*
X127442815Y-142396420D01*
X127467006Y-142413996D01*
X127551934Y-142457269D01*
X127628360Y-142496211D01*
X127628363Y-142496212D01*
X127714476Y-142524191D01*
X127800591Y-142552171D01*
X127883429Y-142565291D01*
X127979449Y-142580500D01*
X127979454Y-142580500D01*
X128160551Y-142580500D01*
X128247259Y-142566765D01*
X128339409Y-142552171D01*
X128511639Y-142496211D01*
X128672994Y-142413996D01*
X128819501Y-142307553D01*
X128947553Y-142179501D01*
X129053996Y-142032994D01*
X129136211Y-141871639D01*
X129192171Y-141699409D01*
X129206422Y-141609425D01*
X129217527Y-141539321D01*
X129247456Y-141476186D01*
X129306768Y-141439255D01*
X129376630Y-141440253D01*
X129434863Y-141478863D01*
X129462473Y-141539321D01*
X129487829Y-141699410D01*
X129543787Y-141871636D01*
X129543788Y-141871639D01*
X129626006Y-142032997D01*
X129732441Y-142179494D01*
X129732445Y-142179499D01*
X129860500Y-142307554D01*
X129860505Y-142307558D01*
X129982815Y-142396420D01*
X130007006Y-142413996D01*
X130091934Y-142457269D01*
X130168360Y-142496211D01*
X130168363Y-142496212D01*
X130254476Y-142524191D01*
X130340591Y-142552171D01*
X130423429Y-142565291D01*
X130519449Y-142580500D01*
X130519454Y-142580500D01*
X130700551Y-142580500D01*
X130787259Y-142566765D01*
X130879409Y-142552171D01*
X131051639Y-142496211D01*
X131212994Y-142413996D01*
X131359501Y-142307553D01*
X131487553Y-142179501D01*
X131593996Y-142032994D01*
X131676211Y-141871639D01*
X131732171Y-141699409D01*
X131746422Y-141609425D01*
X131757527Y-141539321D01*
X131787456Y-141476186D01*
X131846768Y-141439255D01*
X131916630Y-141440253D01*
X131974863Y-141478863D01*
X132002473Y-141539321D01*
X132027829Y-141699410D01*
X132083787Y-141871636D01*
X132083788Y-141871639D01*
X132166006Y-142032997D01*
X132272441Y-142179494D01*
X132272445Y-142179499D01*
X132400500Y-142307554D01*
X132400505Y-142307558D01*
X132522815Y-142396420D01*
X132547006Y-142413996D01*
X132631934Y-142457269D01*
X132708360Y-142496211D01*
X132708363Y-142496212D01*
X132794476Y-142524191D01*
X132880591Y-142552171D01*
X132963429Y-142565291D01*
X133059449Y-142580500D01*
X133059454Y-142580500D01*
X133240551Y-142580500D01*
X133327259Y-142566765D01*
X133419409Y-142552171D01*
X133591639Y-142496211D01*
X133752994Y-142413996D01*
X133899501Y-142307553D01*
X134027553Y-142179501D01*
X134133996Y-142032994D01*
X134216211Y-141871639D01*
X134272171Y-141699409D01*
X134286422Y-141609425D01*
X134297527Y-141539321D01*
X134327456Y-141476186D01*
X134386768Y-141439255D01*
X134456630Y-141440253D01*
X134514863Y-141478863D01*
X134542473Y-141539321D01*
X134567829Y-141699410D01*
X134623787Y-141871636D01*
X134623788Y-141871639D01*
X134706006Y-142032997D01*
X134812441Y-142179494D01*
X134812445Y-142179499D01*
X134940500Y-142307554D01*
X134940505Y-142307558D01*
X135062815Y-142396420D01*
X135087006Y-142413996D01*
X135171934Y-142457269D01*
X135248360Y-142496211D01*
X135248363Y-142496212D01*
X135334476Y-142524191D01*
X135420591Y-142552171D01*
X135503429Y-142565291D01*
X135599449Y-142580500D01*
X135599454Y-142580500D01*
X135780551Y-142580500D01*
X135867259Y-142566765D01*
X135959409Y-142552171D01*
X136131639Y-142496211D01*
X136292994Y-142413996D01*
X136439501Y-142307553D01*
X136567553Y-142179501D01*
X136673996Y-142032994D01*
X136756211Y-141871639D01*
X136812171Y-141699409D01*
X136826422Y-141609425D01*
X136837527Y-141539321D01*
X136867456Y-141476186D01*
X136926768Y-141439255D01*
X136996630Y-141440253D01*
X137054863Y-141478863D01*
X137082473Y-141539321D01*
X137107829Y-141699410D01*
X137163787Y-141871636D01*
X137163788Y-141871639D01*
X137246006Y-142032997D01*
X137352441Y-142179494D01*
X137352445Y-142179499D01*
X137480500Y-142307554D01*
X137480505Y-142307558D01*
X137602815Y-142396420D01*
X137627006Y-142413996D01*
X137711934Y-142457269D01*
X137788360Y-142496211D01*
X137788363Y-142496212D01*
X137874476Y-142524191D01*
X137960591Y-142552171D01*
X138043429Y-142565291D01*
X138139449Y-142580500D01*
X138139454Y-142580500D01*
X138320551Y-142580500D01*
X138407259Y-142566765D01*
X138499409Y-142552171D01*
X138671639Y-142496211D01*
X138832994Y-142413996D01*
X138894787Y-142369101D01*
X138915615Y-142353969D01*
X138981421Y-142330489D01*
X139049475Y-142346314D01*
X139098170Y-142396420D01*
X139112500Y-142454287D01*
X139112500Y-144122309D01*
X139125793Y-144171918D01*
X139143201Y-144236887D01*
X139202511Y-144339614D01*
X139202513Y-144339616D01*
X141813181Y-146950284D01*
X141846666Y-147011607D01*
X141849500Y-147037965D01*
X141849500Y-148268102D01*
X141855126Y-148314954D01*
X141860122Y-148356561D01*
X141860122Y-148356563D01*
X141860123Y-148356564D01*
X141870430Y-148382701D01*
X141915639Y-148497343D01*
X142007079Y-148617924D01*
X142013075Y-148623920D01*
X142011999Y-148624995D01*
X142047907Y-148673586D01*
X142052460Y-148743307D01*
X142018596Y-148804422D01*
X141957067Y-148837527D01*
X141931459Y-148840200D01*
X132665375Y-148840200D01*
X132598336Y-148820515D01*
X132552581Y-148767711D01*
X132542637Y-148698553D01*
X132571662Y-148634997D01*
X132600583Y-148610474D01*
X132602996Y-148608995D01*
X132749494Y-148502558D01*
X132749492Y-148502558D01*
X132749501Y-148502553D01*
X132877553Y-148374501D01*
X132983996Y-148227994D01*
X133066211Y-148066639D01*
X133122171Y-147894409D01*
X133143376Y-147760528D01*
X133150500Y-147715551D01*
X133150500Y-147284448D01*
X133128495Y-147145522D01*
X133122171Y-147105591D01*
X133084312Y-146989071D01*
X133066212Y-146933363D01*
X133066211Y-146933360D01*
X133009232Y-146821535D01*
X132983996Y-146772006D01*
X132954856Y-146731898D01*
X132877558Y-146625505D01*
X132877554Y-146625500D01*
X132749499Y-146497445D01*
X132749494Y-146497441D01*
X132602997Y-146391006D01*
X132602996Y-146391005D01*
X132602994Y-146391004D01*
X132551300Y-146364664D01*
X132441639Y-146308788D01*
X132441636Y-146308787D01*
X132269410Y-146252829D01*
X132090551Y-146224500D01*
X132090546Y-146224500D01*
X131909454Y-146224500D01*
X131909449Y-146224500D01*
X131730589Y-146252829D01*
X131558363Y-146308787D01*
X131558360Y-146308788D01*
X131397002Y-146391006D01*
X131250505Y-146497441D01*
X131250500Y-146497445D01*
X131122445Y-146625500D01*
X131122441Y-146625505D01*
X131016006Y-146772002D01*
X130933789Y-146933360D01*
X130911861Y-147000846D01*
X130893517Y-147027671D01*
X130876296Y-147055219D01*
X130873911Y-147056344D01*
X130872423Y-147058521D01*
X130842492Y-147071169D01*
X130813108Y-147085035D01*
X130810066Y-147084872D01*
X130808064Y-147085719D01*
X130777817Y-147085476D01*
X130769721Y-147084415D01*
X130732718Y-147074500D01*
X130694067Y-147074500D01*
X130686048Y-147073449D01*
X130661190Y-147062469D01*
X130635122Y-147054815D01*
X130629703Y-147048562D01*
X130622135Y-147045219D01*
X130607158Y-147022543D01*
X130589367Y-147002011D01*
X130584230Y-146988817D01*
X130566213Y-146933366D01*
X130566211Y-146933360D01*
X130509232Y-146821535D01*
X130483996Y-146772006D01*
X130454856Y-146731898D01*
X130377558Y-146625505D01*
X130377554Y-146625500D01*
X130249499Y-146497445D01*
X130249494Y-146497441D01*
X130102997Y-146391006D01*
X130102996Y-146391005D01*
X130102994Y-146391004D01*
X130051300Y-146364664D01*
X129941639Y-146308788D01*
X129941636Y-146308787D01*
X129769410Y-146252829D01*
X129590551Y-146224500D01*
X129590546Y-146224500D01*
X129409454Y-146224500D01*
X129409449Y-146224500D01*
X129230589Y-146252829D01*
X129058363Y-146308787D01*
X129058360Y-146308788D01*
X128897002Y-146391006D01*
X128750505Y-146497441D01*
X128750500Y-146497445D01*
X128622445Y-146625500D01*
X128622441Y-146625505D01*
X128516006Y-146772002D01*
X128433788Y-146933360D01*
X128433787Y-146933363D01*
X128392431Y-147060648D01*
X128352994Y-147118323D01*
X128288635Y-147145522D01*
X128219789Y-147133608D01*
X128168313Y-147086364D01*
X128150500Y-147022330D01*
X128150500Y-146731903D01*
X128150500Y-146731898D01*
X128139877Y-146643436D01*
X128084361Y-146502658D01*
X128084360Y-146502657D01*
X128084360Y-146502656D01*
X127992922Y-146382077D01*
X127872343Y-146290639D01*
X127731561Y-146235122D01*
X127685926Y-146229642D01*
X127643102Y-146224500D01*
X126356898Y-146224500D01*
X126317853Y-146229188D01*
X126268438Y-146235122D01*
X126127656Y-146290639D01*
X126007077Y-146382077D01*
X125915639Y-146502656D01*
X125860122Y-146643438D01*
X125854188Y-146692853D01*
X125849500Y-146731898D01*
X125849500Y-148268102D01*
X125855126Y-148314954D01*
X125860122Y-148356561D01*
X125860122Y-148356563D01*
X125860123Y-148356564D01*
X125870430Y-148382701D01*
X125915639Y-148497343D01*
X126007077Y-148617922D01*
X126127656Y-148709360D01*
X126127657Y-148709360D01*
X126127658Y-148709361D01*
X126268436Y-148764877D01*
X126356898Y-148775500D01*
X126356903Y-148775500D01*
X127643097Y-148775500D01*
X127643102Y-148775500D01*
X127731564Y-148764877D01*
X127872342Y-148709361D01*
X127992922Y-148617922D01*
X128084361Y-148497342D01*
X128139877Y-148356564D01*
X128150500Y-148268102D01*
X128150500Y-147977669D01*
X128170185Y-147910630D01*
X128222989Y-147864875D01*
X128292147Y-147854931D01*
X128355703Y-147883956D01*
X128392431Y-147939351D01*
X128433787Y-148066636D01*
X128433788Y-148066639D01*
X128516006Y-148227997D01*
X128622441Y-148374494D01*
X128622445Y-148374499D01*
X128750500Y-148502554D01*
X128750505Y-148502558D01*
X128803337Y-148540942D01*
X128897006Y-148608996D01*
X128948036Y-148634997D01*
X129058360Y-148691211D01*
X129058363Y-148691212D01*
X129144476Y-148719191D01*
X129230591Y-148747171D01*
X129308648Y-148759534D01*
X129409449Y-148775500D01*
X129409454Y-148775500D01*
X129590551Y-148775500D01*
X129677259Y-148761765D01*
X129769409Y-148747171D01*
X129941639Y-148691211D01*
X130102994Y-148608996D01*
X130249501Y-148502553D01*
X130318422Y-148433632D01*
X130379745Y-148400147D01*
X130449437Y-148405131D01*
X130493784Y-148433632D01*
X131666337Y-149606185D01*
X131763363Y-149662203D01*
X131871582Y-149691200D01*
X131871584Y-149691200D01*
X151218316Y-149691200D01*
X151218318Y-149691200D01*
X151326537Y-149662203D01*
X151423563Y-149606185D01*
X155014785Y-146014963D01*
X155070803Y-145917937D01*
X155099800Y-145809718D01*
X155099800Y-145697682D01*
X155099800Y-142434162D01*
X155119485Y-142367123D01*
X155172289Y-142321368D01*
X155241447Y-142311424D01*
X155296685Y-142333844D01*
X155382815Y-142396420D01*
X155407006Y-142413996D01*
X155491934Y-142457269D01*
X155568360Y-142496211D01*
X155568363Y-142496212D01*
X155654476Y-142524191D01*
X155740591Y-142552171D01*
X155823429Y-142565291D01*
X155919449Y-142580500D01*
X155919454Y-142580500D01*
X156100551Y-142580500D01*
X156187259Y-142566765D01*
X156279409Y-142552171D01*
X156451639Y-142496211D01*
X156612994Y-142413996D01*
X156759501Y-142307553D01*
X156887553Y-142179501D01*
X156993996Y-142032994D01*
X157076211Y-141871639D01*
X157132171Y-141699409D01*
X157146422Y-141609425D01*
X157157527Y-141539321D01*
X157187456Y-141476186D01*
X157246768Y-141439255D01*
X157316630Y-141440253D01*
X157374863Y-141478863D01*
X157402473Y-141539321D01*
X157427829Y-141699410D01*
X157483787Y-141871636D01*
X157483788Y-141871639D01*
X157566006Y-142032997D01*
X157672441Y-142179494D01*
X157672445Y-142179499D01*
X157800500Y-142307554D01*
X157800505Y-142307558D01*
X157922815Y-142396420D01*
X157947006Y-142413996D01*
X158031934Y-142457269D01*
X158108360Y-142496211D01*
X158108363Y-142496212D01*
X158194476Y-142524191D01*
X158280591Y-142552171D01*
X158363429Y-142565291D01*
X158459449Y-142580500D01*
X158459454Y-142580500D01*
X158640551Y-142580500D01*
X158727259Y-142566765D01*
X158819409Y-142552171D01*
X158991639Y-142496211D01*
X159152994Y-142413996D01*
X159299501Y-142307553D01*
X159427553Y-142179501D01*
X159533996Y-142032994D01*
X159616211Y-141871639D01*
X159672171Y-141699409D01*
X159686422Y-141609425D01*
X159697527Y-141539321D01*
X159727456Y-141476186D01*
X159786768Y-141439255D01*
X159856630Y-141440253D01*
X159914863Y-141478863D01*
X159942473Y-141539321D01*
X159967829Y-141699410D01*
X160023787Y-141871636D01*
X160023788Y-141871639D01*
X160106006Y-142032997D01*
X160212441Y-142179494D01*
X160212445Y-142179499D01*
X160340500Y-142307554D01*
X160340505Y-142307558D01*
X160462815Y-142396420D01*
X160487006Y-142413996D01*
X160571934Y-142457269D01*
X160648360Y-142496211D01*
X160648363Y-142496212D01*
X160734476Y-142524191D01*
X160820591Y-142552171D01*
X160903429Y-142565291D01*
X160999449Y-142580500D01*
X160999454Y-142580500D01*
X161180551Y-142580500D01*
X161267259Y-142566765D01*
X161359409Y-142552171D01*
X161531639Y-142496211D01*
X161692994Y-142413996D01*
X161839501Y-142307553D01*
X161967553Y-142179501D01*
X162073996Y-142032994D01*
X162156211Y-141871639D01*
X162212171Y-141699409D01*
X162226422Y-141609425D01*
X162237527Y-141539321D01*
X162267456Y-141476186D01*
X162326768Y-141439255D01*
X162396630Y-141440253D01*
X162454863Y-141478863D01*
X162482473Y-141539321D01*
X162507829Y-141699410D01*
X162563787Y-141871636D01*
X162563788Y-141871639D01*
X162646006Y-142032997D01*
X162752441Y-142179494D01*
X162752445Y-142179499D01*
X162880500Y-142307554D01*
X162880505Y-142307558D01*
X163002815Y-142396420D01*
X163027006Y-142413996D01*
X163111934Y-142457269D01*
X163188360Y-142496211D01*
X163188363Y-142496212D01*
X163274476Y-142524191D01*
X163360591Y-142552171D01*
X163443429Y-142565291D01*
X163539449Y-142580500D01*
X163539454Y-142580500D01*
X163720551Y-142580500D01*
X163807259Y-142566765D01*
X163899409Y-142552171D01*
X164071639Y-142496211D01*
X164232994Y-142413996D01*
X164379501Y-142307553D01*
X164507553Y-142179501D01*
X164613996Y-142032994D01*
X164696211Y-141871639D01*
X164752171Y-141699409D01*
X164766422Y-141609425D01*
X164777527Y-141539321D01*
X164807456Y-141476186D01*
X164866768Y-141439255D01*
X164936630Y-141440253D01*
X164994863Y-141478863D01*
X165022473Y-141539321D01*
X165047829Y-141699410D01*
X165103787Y-141871636D01*
X165103788Y-141871639D01*
X165186006Y-142032997D01*
X165292441Y-142179494D01*
X165292445Y-142179499D01*
X165420500Y-142307554D01*
X165420505Y-142307558D01*
X165542815Y-142396420D01*
X165567006Y-142413996D01*
X165651934Y-142457269D01*
X165728360Y-142496211D01*
X165728363Y-142496212D01*
X165814476Y-142524191D01*
X165900591Y-142552171D01*
X165983429Y-142565291D01*
X166079449Y-142580500D01*
X166079454Y-142580500D01*
X166260551Y-142580500D01*
X166347259Y-142566765D01*
X166439409Y-142552171D01*
X166611639Y-142496211D01*
X166772994Y-142413996D01*
X166919501Y-142307553D01*
X167047553Y-142179501D01*
X167153996Y-142032994D01*
X167236211Y-141871639D01*
X167292171Y-141699409D01*
X167306422Y-141609425D01*
X167317527Y-141539321D01*
X167347456Y-141476186D01*
X167406768Y-141439255D01*
X167476630Y-141440253D01*
X167534863Y-141478863D01*
X167562473Y-141539321D01*
X167587829Y-141699410D01*
X167643787Y-141871636D01*
X167643788Y-141871639D01*
X167726006Y-142032997D01*
X167832441Y-142179494D01*
X167832445Y-142179499D01*
X167960500Y-142307554D01*
X167960505Y-142307558D01*
X168082815Y-142396420D01*
X168107006Y-142413996D01*
X168191934Y-142457269D01*
X168268360Y-142496211D01*
X168268363Y-142496212D01*
X168354476Y-142524191D01*
X168440591Y-142552171D01*
X168523429Y-142565291D01*
X168619449Y-142580500D01*
X168619454Y-142580500D01*
X168800551Y-142580500D01*
X168887259Y-142566765D01*
X168979409Y-142552171D01*
X169151639Y-142496211D01*
X169312994Y-142413996D01*
X169337185Y-142396420D01*
X169357614Y-142381578D01*
X169423420Y-142358097D01*
X169491474Y-142373922D01*
X169540169Y-142424027D01*
X169554500Y-142481895D01*
X169554500Y-146181082D01*
X169534815Y-146248121D01*
X169482011Y-146293876D01*
X169412853Y-146303820D01*
X169380585Y-146292857D01*
X169380233Y-146293751D01*
X169324136Y-146271629D01*
X169231564Y-146235123D01*
X169231563Y-146235122D01*
X169231561Y-146235122D01*
X169185926Y-146229642D01*
X169143102Y-146224500D01*
X167856898Y-146224500D01*
X167817853Y-146229188D01*
X167768438Y-146235122D01*
X167627656Y-146290639D01*
X167507077Y-146382077D01*
X167415639Y-146502656D01*
X167360122Y-146643438D01*
X167354188Y-146692853D01*
X167349500Y-146731898D01*
X167349500Y-148268102D01*
X167355126Y-148314954D01*
X167360122Y-148356561D01*
X167360122Y-148356563D01*
X167360123Y-148356564D01*
X167370430Y-148382701D01*
X167415639Y-148497343D01*
X167507077Y-148617922D01*
X167627656Y-148709360D01*
X167627657Y-148709360D01*
X167627658Y-148709361D01*
X167768436Y-148764877D01*
X167856898Y-148775500D01*
X168945613Y-148775500D01*
X169012652Y-148795185D01*
X169033294Y-148811819D01*
X170612885Y-150391410D01*
X170738415Y-150463884D01*
X170878425Y-150501400D01*
X170878426Y-150501400D01*
X170878428Y-150501400D01*
X172054872Y-150501400D01*
X172054875Y-150501400D01*
X172194885Y-150463884D01*
X172320415Y-150391409D01*
X172422909Y-150288915D01*
X172495384Y-150163385D01*
X172499716Y-150147215D01*
X172531809Y-150091625D01*
X173173917Y-149449519D01*
X173235240Y-149416034D01*
X173261598Y-149413200D01*
X178561516Y-149413200D01*
X178623515Y-149429812D01*
X178638015Y-149438184D01*
X178778026Y-149475700D01*
X178778029Y-149475700D01*
X178922971Y-149475700D01*
X178922974Y-149475700D01*
X179062985Y-149438184D01*
X179188515Y-149365710D01*
X183165810Y-145388415D01*
X183238284Y-145262885D01*
X183275800Y-145122874D01*
X183275800Y-144977926D01*
X183275800Y-138278125D01*
X183238284Y-138138115D01*
X183192786Y-138059310D01*
X183165810Y-138012585D01*
X177013206Y-131859981D01*
X176979721Y-131798658D01*
X176984705Y-131728966D01*
X177013206Y-131684619D01*
X179994588Y-128703237D01*
X183150710Y-125547115D01*
X183223184Y-125421585D01*
X183230365Y-125394787D01*
X183233896Y-125381610D01*
X183243706Y-125344994D01*
X183260700Y-125281575D01*
X183260700Y-121654025D01*
X183223184Y-121514015D01*
X183217574Y-121504298D01*
X183214812Y-121499513D01*
X183198200Y-121437515D01*
X183198200Y-109352584D01*
X183214813Y-109290584D01*
X183223184Y-109276085D01*
X183260700Y-109136075D01*
X183260700Y-108991126D01*
X183223184Y-108851115D01*
X183158332Y-108738787D01*
X183150712Y-108725589D01*
X183150708Y-108725584D01*
X182013816Y-107588691D01*
X182013815Y-107588690D01*
X181888285Y-107516216D01*
X181888286Y-107516216D01*
X181853282Y-107506837D01*
X181748275Y-107478700D01*
X169350025Y-107478700D01*
X169245017Y-107506837D01*
X169210014Y-107516216D01*
X169084486Y-107588689D01*
X169084483Y-107588691D01*
X168012180Y-108660994D01*
X167950857Y-108694479D01*
X167881165Y-108689495D01*
X167825232Y-108647623D01*
X167800815Y-108582159D01*
X167800499Y-108573313D01*
X167800499Y-108455143D01*
X167800499Y-108455136D01*
X167798677Y-108439425D01*
X167797586Y-108430012D01*
X167797585Y-108430010D01*
X167797585Y-108430009D01*
X167752206Y-108327235D01*
X167672765Y-108247794D01*
X167672763Y-108247793D01*
X167569992Y-108202415D01*
X167544865Y-108199500D01*
X165455143Y-108199500D01*
X165455117Y-108199502D01*
X165430012Y-108202413D01*
X165430008Y-108202415D01*
X165327235Y-108247793D01*
X165247794Y-108327234D01*
X165202415Y-108430006D01*
X165202415Y-108430008D01*
X165199500Y-108455131D01*
X165199500Y-110544856D01*
X165199502Y-110544882D01*
X165202413Y-110569987D01*
X165202415Y-110569991D01*
X165247793Y-110672764D01*
X165247794Y-110672765D01*
X165327235Y-110752206D01*
X165430009Y-110797585D01*
X165455135Y-110800500D01*
X167544864Y-110800499D01*
X167544879Y-110800497D01*
X167544882Y-110800497D01*
X167569987Y-110797586D01*
X167569988Y-110797585D01*
X167569991Y-110797585D01*
X167672765Y-110752206D01*
X167752206Y-110672765D01*
X167797585Y-110569991D01*
X167800500Y-110544865D01*
X167800500Y-110174500D01*
X167820185Y-110107461D01*
X167872989Y-110061706D01*
X167924500Y-110050500D01*
X168024172Y-110050500D01*
X168024174Y-110050500D01*
X168024175Y-110050500D01*
X168164185Y-110012984D01*
X168188027Y-109999219D01*
X168289715Y-109940510D01*
X169614206Y-108616019D01*
X169675529Y-108582534D01*
X169701887Y-108579700D01*
X172917767Y-108579700D01*
X172984806Y-108599385D01*
X173030561Y-108652189D01*
X173040505Y-108721347D01*
X173018086Y-108776585D01*
X172987712Y-108818390D01*
X172894781Y-109000776D01*
X172831522Y-109195465D01*
X172799500Y-109397648D01*
X172799500Y-109602351D01*
X172831523Y-109804535D01*
X172831523Y-109804538D01*
X172896285Y-110003853D01*
X172894475Y-110004441D01*
X172901074Y-110065868D01*
X172869794Y-110128345D01*
X172866727Y-110131523D01*
X170979671Y-112018581D01*
X170918348Y-112052066D01*
X170891990Y-112054900D01*
X160357782Y-112054900D01*
X160249563Y-112083897D01*
X160249560Y-112083898D01*
X160152540Y-112139913D01*
X160152534Y-112139917D01*
X154497434Y-117795018D01*
X154436111Y-117828503D01*
X154366419Y-117823519D01*
X154322072Y-117795018D01*
X154219499Y-117692445D01*
X154219494Y-117692441D01*
X154072997Y-117586006D01*
X154072996Y-117586005D01*
X154072994Y-117586004D01*
X153996906Y-117547235D01*
X153911639Y-117503788D01*
X153911636Y-117503787D01*
X153739410Y-117447829D01*
X153560551Y-117419500D01*
X153560546Y-117419500D01*
X153379454Y-117419500D01*
X153379449Y-117419500D01*
X153200589Y-117447829D01*
X153028363Y-117503787D01*
X153028360Y-117503788D01*
X152867006Y-117586003D01*
X152797948Y-117636177D01*
X152776043Y-117643992D01*
X152756080Y-117655916D01*
X152743755Y-117655512D01*
X152732141Y-117659656D01*
X152709491Y-117654388D01*
X152686248Y-117653627D01*
X152676097Y-117646623D01*
X152664087Y-117643830D01*
X152647879Y-117627152D01*
X152628740Y-117613946D01*
X152621780Y-117600296D01*
X152615393Y-117593724D01*
X152610641Y-117583646D01*
X152607440Y-117575982D01*
X152596503Y-117535163D01*
X152578389Y-117503789D01*
X152540485Y-117438137D01*
X152461263Y-117358915D01*
X152461262Y-117358914D01*
X152456932Y-117354584D01*
X152456921Y-117354574D01*
X152210119Y-117107771D01*
X152176634Y-117046448D01*
X152173800Y-117020090D01*
X152173800Y-114353984D01*
X152173800Y-114353982D01*
X152144803Y-114245763D01*
X152088785Y-114148737D01*
X152009563Y-114069515D01*
X150822763Y-112882715D01*
X150725737Y-112826697D01*
X150617518Y-112797700D01*
X147146818Y-112797700D01*
X147034782Y-112797700D01*
X146926563Y-112826697D01*
X146926560Y-112826698D01*
X146829540Y-112882713D01*
X146829534Y-112882717D01*
X146635071Y-113077181D01*
X146573748Y-113110666D01*
X146547390Y-113113500D01*
X146520943Y-113113500D01*
X146368216Y-113154423D01*
X146368209Y-113154426D01*
X146231290Y-113233475D01*
X146231282Y-113233481D01*
X146119481Y-113345282D01*
X146119475Y-113345290D01*
X146040426Y-113482209D01*
X146040423Y-113482216D01*
X145999500Y-113634943D01*
X145999500Y-113793057D01*
X146037209Y-113933787D01*
X146040423Y-113945783D01*
X146040426Y-113945790D01*
X146119475Y-114082709D01*
X146119479Y-114082714D01*
X146119480Y-114082716D01*
X146231284Y-114194520D01*
X146231286Y-114194521D01*
X146231290Y-114194524D01*
X146347627Y-114261690D01*
X146368216Y-114273577D01*
X146520943Y-114314500D01*
X146520945Y-114314500D01*
X146679055Y-114314500D01*
X146679057Y-114314500D01*
X146831784Y-114273577D01*
X146968716Y-114194520D01*
X147080520Y-114082716D01*
X147159577Y-113945784D01*
X147200500Y-113793057D01*
X147200500Y-113772700D01*
X147220185Y-113705661D01*
X147272989Y-113659906D01*
X147324500Y-113648700D01*
X149598731Y-113648700D01*
X149665770Y-113668385D01*
X149711525Y-113721189D01*
X149721960Y-113786502D01*
X149720920Y-113795780D01*
X149714500Y-113819743D01*
X149714500Y-113853108D01*
X149713729Y-113859992D01*
X149702786Y-113886082D01*
X149694815Y-113913229D01*
X149687694Y-113922065D01*
X149686705Y-113924424D01*
X149684660Y-113925829D01*
X149678181Y-113933871D01*
X146686217Y-116925834D01*
X146686213Y-116925840D01*
X146630198Y-117022860D01*
X146630197Y-117022863D01*
X146601200Y-117131082D01*
X146601200Y-117459168D01*
X146581515Y-117526207D01*
X146528711Y-117571962D01*
X146459553Y-117581906D01*
X146420905Y-117569653D01*
X146291639Y-117503789D01*
X146291636Y-117503787D01*
X146119410Y-117447829D01*
X145940551Y-117419500D01*
X145940546Y-117419500D01*
X145759454Y-117419500D01*
X145759449Y-117419500D01*
X145580589Y-117447829D01*
X145408363Y-117503787D01*
X145408360Y-117503788D01*
X145247002Y-117586006D01*
X145202385Y-117618422D01*
X145136578Y-117641902D01*
X145068525Y-117626076D01*
X145019830Y-117575970D01*
X145005500Y-117518104D01*
X145005500Y-117074484D01*
X145005500Y-117074482D01*
X144976503Y-116966263D01*
X144920485Y-116869237D01*
X144841263Y-116790015D01*
X144653863Y-116602615D01*
X144556837Y-116546597D01*
X144448618Y-116517600D01*
X144336582Y-116517600D01*
X144235535Y-116544675D01*
X144203444Y-116548900D01*
X139784209Y-116548900D01*
X139717170Y-116529215D01*
X139696528Y-116512581D01*
X138625586Y-115441639D01*
X137519063Y-114335115D01*
X137422037Y-114279097D01*
X137313818Y-114250100D01*
X137313817Y-114250100D01*
X134603810Y-114250100D01*
X134536771Y-114230415D01*
X134516129Y-114213781D01*
X126392753Y-106090405D01*
X126359268Y-106029082D01*
X126364252Y-105959390D01*
X126406124Y-105903457D01*
X126442117Y-105884793D01*
X126591633Y-105836213D01*
X126591639Y-105836211D01*
X126606761Y-105828506D01*
X126752994Y-105753996D01*
X126899501Y-105647553D01*
X127027553Y-105519501D01*
X127133996Y-105372994D01*
X127216211Y-105211639D01*
X127272171Y-105039409D01*
X127286422Y-104949425D01*
X127297527Y-104879321D01*
X127327456Y-104816186D01*
X127386768Y-104779255D01*
X127456630Y-104780253D01*
X127514863Y-104818863D01*
X127542473Y-104879321D01*
X127567829Y-105039410D01*
X127623787Y-105211636D01*
X127623788Y-105211639D01*
X127706006Y-105372997D01*
X127812441Y-105519494D01*
X127812445Y-105519499D01*
X127940500Y-105647554D01*
X127940505Y-105647558D01*
X128068287Y-105740396D01*
X128087006Y-105753996D01*
X128163094Y-105792765D01*
X128248360Y-105836211D01*
X128248363Y-105836212D01*
X128297260Y-105852099D01*
X128420591Y-105892171D01*
X128503429Y-105905291D01*
X128599449Y-105920500D01*
X128599454Y-105920500D01*
X128780551Y-105920500D01*
X128867259Y-105906765D01*
X128959409Y-105892171D01*
X129131639Y-105836211D01*
X129292994Y-105753996D01*
X129439501Y-105647553D01*
X129567553Y-105519501D01*
X129673996Y-105372994D01*
X129756211Y-105211639D01*
X129812171Y-105039409D01*
X129826422Y-104949425D01*
X129837527Y-104879321D01*
X129867456Y-104816186D01*
X129926768Y-104779255D01*
X129996630Y-104780253D01*
X130054863Y-104818863D01*
X130082473Y-104879321D01*
X130107829Y-105039410D01*
X130163787Y-105211636D01*
X130163788Y-105211639D01*
X130246006Y-105372997D01*
X130352441Y-105519494D01*
X130352445Y-105519499D01*
X130480500Y-105647554D01*
X130480505Y-105647558D01*
X130608287Y-105740396D01*
X130627006Y-105753996D01*
X130703094Y-105792765D01*
X130788360Y-105836211D01*
X130788363Y-105836212D01*
X130837260Y-105852099D01*
X130960591Y-105892171D01*
X131043429Y-105905291D01*
X131139449Y-105920500D01*
X131139454Y-105920500D01*
X131320551Y-105920500D01*
X131407259Y-105906765D01*
X131499409Y-105892171D01*
X131671639Y-105836211D01*
X131832994Y-105753996D01*
X131979501Y-105647553D01*
X132107553Y-105519501D01*
X132213996Y-105372994D01*
X132296211Y-105211639D01*
X132352171Y-105039409D01*
X132366422Y-104949425D01*
X132377527Y-104879321D01*
X132407456Y-104816186D01*
X132466768Y-104779255D01*
X132536630Y-104780253D01*
X132594863Y-104818863D01*
X132622473Y-104879321D01*
X132647829Y-105039410D01*
X132703787Y-105211636D01*
X132703788Y-105211639D01*
X132786006Y-105372997D01*
X132892441Y-105519494D01*
X132892445Y-105519499D01*
X133020500Y-105647554D01*
X133020505Y-105647558D01*
X133148287Y-105740396D01*
X133167006Y-105753996D01*
X133243094Y-105792765D01*
X133328360Y-105836211D01*
X133328363Y-105836212D01*
X133377260Y-105852099D01*
X133500591Y-105892171D01*
X133583429Y-105905291D01*
X133679449Y-105920500D01*
X133679454Y-105920500D01*
X133860551Y-105920500D01*
X133947259Y-105906765D01*
X134039409Y-105892171D01*
X134211639Y-105836211D01*
X134372994Y-105753996D01*
X134519501Y-105647553D01*
X134647553Y-105519501D01*
X134753996Y-105372994D01*
X134836211Y-105211639D01*
X134892171Y-105039409D01*
X134906422Y-104949425D01*
X134917527Y-104879321D01*
X134947456Y-104816186D01*
X135006768Y-104779255D01*
X135076630Y-104780253D01*
X135134863Y-104818863D01*
X135162473Y-104879321D01*
X135187829Y-105039410D01*
X135243787Y-105211636D01*
X135243788Y-105211639D01*
X135326006Y-105372997D01*
X135432441Y-105519494D01*
X135432445Y-105519499D01*
X135560500Y-105647554D01*
X135560505Y-105647558D01*
X135688287Y-105740396D01*
X135707006Y-105753996D01*
X135783094Y-105792765D01*
X135868360Y-105836211D01*
X135868363Y-105836212D01*
X135917260Y-105852099D01*
X136040591Y-105892171D01*
X136123429Y-105905291D01*
X136219449Y-105920500D01*
X136219454Y-105920500D01*
X136400551Y-105920500D01*
X136487259Y-105906765D01*
X136579409Y-105892171D01*
X136751639Y-105836211D01*
X136912994Y-105753996D01*
X137059501Y-105647553D01*
X137187553Y-105519501D01*
X137293996Y-105372994D01*
X137376211Y-105211639D01*
X137432171Y-105039409D01*
X137446765Y-104947259D01*
X137460500Y-104860551D01*
X137460500Y-104679448D01*
X137438832Y-104542649D01*
X137432171Y-104500591D01*
X137394095Y-104383402D01*
X137376212Y-104328363D01*
X137376211Y-104328360D01*
X137308967Y-104196389D01*
X137293996Y-104167006D01*
X137261577Y-104122385D01*
X137187558Y-104020505D01*
X137187554Y-104020500D01*
X137059499Y-103892445D01*
X137059494Y-103892441D01*
X136912997Y-103786006D01*
X136912996Y-103786005D01*
X136912994Y-103786004D01*
X136836906Y-103747235D01*
X136751639Y-103703788D01*
X136751636Y-103703787D01*
X136579410Y-103647829D01*
X136419321Y-103622473D01*
X136356186Y-103592544D01*
X136319255Y-103533232D01*
X136320253Y-103463370D01*
X136358863Y-103405137D01*
X136419321Y-103377527D01*
X136489425Y-103366422D01*
X136579409Y-103352171D01*
X136751639Y-103296211D01*
X136912994Y-103213996D01*
X137059501Y-103107553D01*
X137187553Y-102979501D01*
X137293996Y-102832994D01*
X137376211Y-102671639D01*
X137432171Y-102499409D01*
X137448026Y-102399304D01*
X137457527Y-102339321D01*
X137487456Y-102276186D01*
X137546768Y-102239255D01*
X137616630Y-102240253D01*
X137674863Y-102278863D01*
X137702473Y-102339321D01*
X137727829Y-102499410D01*
X137783787Y-102671636D01*
X137783788Y-102671639D01*
X137826041Y-102754563D01*
X137862964Y-102827028D01*
X137866006Y-102832997D01*
X137972441Y-102979494D01*
X137972445Y-102979499D01*
X138100500Y-103107554D01*
X138100505Y-103107558D01*
X138183422Y-103167800D01*
X138247006Y-103213996D01*
X138334705Y-103258681D01*
X138408360Y-103296211D01*
X138408363Y-103296212D01*
X138457260Y-103312099D01*
X138580591Y-103352171D01*
X138663429Y-103365291D01*
X138759449Y-103380500D01*
X138759454Y-103380500D01*
X138940551Y-103380500D01*
X139027259Y-103366765D01*
X139119409Y-103352171D01*
X139291639Y-103296211D01*
X139452994Y-103213996D01*
X139599501Y-103107553D01*
X139727553Y-102979501D01*
X139833996Y-102832994D01*
X139916211Y-102671639D01*
X139972171Y-102499409D01*
X139988026Y-102399304D01*
X139997527Y-102339321D01*
X140027456Y-102276186D01*
X140086768Y-102239255D01*
X140156630Y-102240253D01*
X140214863Y-102278863D01*
X140242473Y-102339321D01*
X140267829Y-102499410D01*
X140323787Y-102671636D01*
X140323788Y-102671639D01*
X140366041Y-102754563D01*
X140402964Y-102827028D01*
X140406006Y-102832997D01*
X140512441Y-102979494D01*
X140512445Y-102979499D01*
X140640500Y-103107554D01*
X140640505Y-103107558D01*
X140723422Y-103167800D01*
X140787006Y-103213996D01*
X140874705Y-103258681D01*
X140948360Y-103296211D01*
X140948363Y-103296212D01*
X140997260Y-103312099D01*
X141120591Y-103352171D01*
X141193639Y-103363740D01*
X141280678Y-103377527D01*
X141343813Y-103407456D01*
X141380744Y-103466768D01*
X141379746Y-103536631D01*
X141341136Y-103594863D01*
X141280678Y-103622473D01*
X141120589Y-103647829D01*
X140948363Y-103703787D01*
X140948360Y-103703788D01*
X140787002Y-103786006D01*
X140640505Y-103892441D01*
X140640500Y-103892445D01*
X140512445Y-104020500D01*
X140512441Y-104020505D01*
X140406006Y-104167002D01*
X140323788Y-104328360D01*
X140323787Y-104328363D01*
X140267829Y-104500589D01*
X140239500Y-104679448D01*
X140239500Y-104860551D01*
X140267829Y-105039410D01*
X140323787Y-105211636D01*
X140323788Y-105211639D01*
X140406006Y-105372997D01*
X140512441Y-105519494D01*
X140512445Y-105519499D01*
X140640500Y-105647554D01*
X140640505Y-105647558D01*
X140768287Y-105740396D01*
X140787006Y-105753996D01*
X140863094Y-105792765D01*
X140948360Y-105836211D01*
X140948363Y-105836212D01*
X140997260Y-105852099D01*
X141120591Y-105892171D01*
X141203429Y-105905291D01*
X141299449Y-105920500D01*
X141299454Y-105920500D01*
X141480551Y-105920500D01*
X141567259Y-105906765D01*
X141659409Y-105892171D01*
X141831639Y-105836211D01*
X141992994Y-105753996D01*
X142139501Y-105647553D01*
X142267553Y-105519501D01*
X142373996Y-105372994D01*
X142456211Y-105211639D01*
X142512171Y-105039409D01*
X142526422Y-104949425D01*
X142537527Y-104879321D01*
X142567456Y-104816186D01*
X142626768Y-104779255D01*
X142696630Y-104780253D01*
X142754863Y-104818863D01*
X142782473Y-104879321D01*
X142807829Y-105039410D01*
X142863787Y-105211636D01*
X142863788Y-105211639D01*
X142946006Y-105372997D01*
X143052441Y-105519494D01*
X143052445Y-105519499D01*
X143180500Y-105647554D01*
X143180505Y-105647558D01*
X143308287Y-105740396D01*
X143327006Y-105753996D01*
X143403094Y-105792765D01*
X143488360Y-105836211D01*
X143488363Y-105836212D01*
X143537260Y-105852099D01*
X143660591Y-105892171D01*
X143743429Y-105905291D01*
X143839449Y-105920500D01*
X143839454Y-105920500D01*
X144020551Y-105920500D01*
X144107259Y-105906765D01*
X144199409Y-105892171D01*
X144371639Y-105836211D01*
X144532994Y-105753996D01*
X144679501Y-105647553D01*
X144807553Y-105519501D01*
X144913996Y-105372994D01*
X144996211Y-105211639D01*
X145052171Y-105039409D01*
X145066422Y-104949425D01*
X145077527Y-104879321D01*
X145107456Y-104816186D01*
X145166768Y-104779255D01*
X145236630Y-104780253D01*
X145294863Y-104818863D01*
X145322473Y-104879321D01*
X145347829Y-105039410D01*
X145403787Y-105211636D01*
X145403788Y-105211639D01*
X145486006Y-105372997D01*
X145592441Y-105519494D01*
X145592445Y-105519499D01*
X145720500Y-105647554D01*
X145720505Y-105647558D01*
X145848287Y-105740396D01*
X145867006Y-105753996D01*
X145943094Y-105792765D01*
X146028360Y-105836211D01*
X146028363Y-105836212D01*
X146077260Y-105852099D01*
X146200591Y-105892171D01*
X146283429Y-105905291D01*
X146379449Y-105920500D01*
X146379454Y-105920500D01*
X146560551Y-105920500D01*
X146647259Y-105906765D01*
X146739409Y-105892171D01*
X146911639Y-105836211D01*
X147072994Y-105753996D01*
X147219501Y-105647553D01*
X147347553Y-105519501D01*
X147453996Y-105372994D01*
X147536211Y-105211639D01*
X147592171Y-105039409D01*
X147606422Y-104949425D01*
X147617527Y-104879321D01*
X147647456Y-104816186D01*
X147706768Y-104779255D01*
X147776630Y-104780253D01*
X147834863Y-104818863D01*
X147862473Y-104879321D01*
X147887829Y-105039410D01*
X147943787Y-105211636D01*
X147943788Y-105211639D01*
X148026006Y-105372997D01*
X148132441Y-105519494D01*
X148132445Y-105519499D01*
X148260500Y-105647554D01*
X148260505Y-105647558D01*
X148388287Y-105740396D01*
X148407006Y-105753996D01*
X148483094Y-105792765D01*
X148568360Y-105836211D01*
X148568363Y-105836212D01*
X148617260Y-105852099D01*
X148740591Y-105892171D01*
X148823429Y-105905291D01*
X148919449Y-105920500D01*
X148919454Y-105920500D01*
X149100551Y-105920500D01*
X149187259Y-105906765D01*
X149279409Y-105892171D01*
X149451639Y-105836211D01*
X149612994Y-105753996D01*
X149759501Y-105647553D01*
X149887553Y-105519501D01*
X149993996Y-105372994D01*
X150076211Y-105211639D01*
X150132171Y-105039409D01*
X150146422Y-104949425D01*
X150157527Y-104879321D01*
X150187456Y-104816186D01*
X150246768Y-104779255D01*
X150316630Y-104780253D01*
X150374863Y-104818863D01*
X150402473Y-104879321D01*
X150427829Y-105039410D01*
X150483787Y-105211636D01*
X150483788Y-105211639D01*
X150566006Y-105372997D01*
X150672441Y-105519494D01*
X150672445Y-105519499D01*
X150800500Y-105647554D01*
X150800505Y-105647558D01*
X150928287Y-105740396D01*
X150947006Y-105753996D01*
X151023094Y-105792765D01*
X151108360Y-105836211D01*
X151108363Y-105836212D01*
X151157260Y-105852099D01*
X151280591Y-105892171D01*
X151363429Y-105905291D01*
X151459449Y-105920500D01*
X151459454Y-105920500D01*
X151640551Y-105920500D01*
X151727259Y-105906765D01*
X151819409Y-105892171D01*
X151991639Y-105836211D01*
X152152994Y-105753996D01*
X152299501Y-105647553D01*
X152427553Y-105519501D01*
X152533996Y-105372994D01*
X152616211Y-105211639D01*
X152672171Y-105039409D01*
X152686422Y-104949425D01*
X152697527Y-104879321D01*
X152727456Y-104816186D01*
X152786768Y-104779255D01*
X152856630Y-104780253D01*
X152914863Y-104818863D01*
X152942473Y-104879321D01*
X152967829Y-105039410D01*
X153023787Y-105211636D01*
X153023788Y-105211639D01*
X153106006Y-105372997D01*
X153212441Y-105519494D01*
X153212445Y-105519499D01*
X153340500Y-105647554D01*
X153340505Y-105647558D01*
X153468287Y-105740396D01*
X153487006Y-105753996D01*
X153563094Y-105792765D01*
X153648360Y-105836211D01*
X153648363Y-105836212D01*
X153697260Y-105852099D01*
X153820591Y-105892171D01*
X153903429Y-105905291D01*
X153999449Y-105920500D01*
X153999454Y-105920500D01*
X154180551Y-105920500D01*
X154267259Y-105906765D01*
X154359409Y-105892171D01*
X154531639Y-105836211D01*
X154692994Y-105753996D01*
X154839501Y-105647553D01*
X154967553Y-105519501D01*
X155073996Y-105372994D01*
X155156211Y-105211639D01*
X155212171Y-105039409D01*
X155226765Y-104947259D01*
X155240500Y-104860551D01*
X155240500Y-104679448D01*
X155218832Y-104542649D01*
X155212171Y-104500591D01*
X155174095Y-104383402D01*
X155156212Y-104328363D01*
X155156211Y-104328360D01*
X155088967Y-104196389D01*
X155073996Y-104167006D01*
X155041577Y-104122385D01*
X154967558Y-104020505D01*
X154967554Y-104020500D01*
X154839499Y-103892445D01*
X154839494Y-103892441D01*
X154692997Y-103786006D01*
X154692996Y-103786005D01*
X154692994Y-103786004D01*
X154616906Y-103747235D01*
X154531639Y-103703788D01*
X154531636Y-103703787D01*
X154359410Y-103647829D01*
X154199321Y-103622473D01*
X154136186Y-103592544D01*
X154099255Y-103533232D01*
X154100253Y-103463370D01*
X154138863Y-103405137D01*
X154199321Y-103377527D01*
X154269425Y-103366422D01*
X154359409Y-103352171D01*
X154531639Y-103296211D01*
X154692994Y-103213996D01*
X154839501Y-103107553D01*
X154967553Y-102979501D01*
X155073996Y-102832994D01*
X155156211Y-102671639D01*
X155212171Y-102499409D01*
X155228026Y-102399304D01*
X155237527Y-102339321D01*
X155267456Y-102276186D01*
X155326768Y-102239255D01*
X155396630Y-102240253D01*
X155454863Y-102278863D01*
X155482473Y-102339321D01*
X155507829Y-102499410D01*
X155563787Y-102671636D01*
X155563788Y-102671639D01*
X155606041Y-102754563D01*
X155642964Y-102827028D01*
X155646006Y-102832997D01*
X155752441Y-102979494D01*
X155752445Y-102979499D01*
X155880500Y-103107554D01*
X155880505Y-103107558D01*
X155963422Y-103167800D01*
X156027006Y-103213996D01*
X156114705Y-103258681D01*
X156188360Y-103296211D01*
X156188363Y-103296212D01*
X156237260Y-103312099D01*
X156360591Y-103352171D01*
X156443429Y-103365291D01*
X156539449Y-103380500D01*
X156539454Y-103380500D01*
X156720551Y-103380500D01*
X156761345Y-103374038D01*
X159899500Y-103374038D01*
X159899500Y-103625962D01*
X159904203Y-103655655D01*
X159938910Y-103874785D01*
X160016760Y-104114383D01*
X160089633Y-104257403D01*
X160125789Y-104328363D01*
X160131132Y-104338848D01*
X160279201Y-104542649D01*
X160279205Y-104542654D01*
X160457345Y-104720794D01*
X160457350Y-104720798D01*
X160592326Y-104818863D01*
X160661155Y-104868870D01*
X160775493Y-104927128D01*
X160885616Y-104983239D01*
X160885618Y-104983239D01*
X160885621Y-104983241D01*
X161125215Y-105061090D01*
X161374038Y-105100500D01*
X161374039Y-105100500D01*
X161625961Y-105100500D01*
X161625962Y-105100500D01*
X161874785Y-105061090D01*
X162114379Y-104983241D01*
X162338845Y-104868870D01*
X162542656Y-104720793D01*
X162720793Y-104542656D01*
X162868870Y-104338845D01*
X162983241Y-104114379D01*
X163061090Y-103874785D01*
X163100500Y-103625962D01*
X163100500Y-103374038D01*
X163061090Y-103125215D01*
X162983241Y-102885621D01*
X162983239Y-102885618D01*
X162983239Y-102885616D01*
X162941747Y-102804184D01*
X162868870Y-102661155D01*
X162821354Y-102595755D01*
X162720798Y-102457350D01*
X162720794Y-102457345D01*
X162542654Y-102279205D01*
X162542649Y-102279201D01*
X162338848Y-102131132D01*
X162338847Y-102131131D01*
X162338845Y-102131130D01*
X162268747Y-102095413D01*
X162114383Y-102016760D01*
X161874785Y-101938910D01*
X161625962Y-101899500D01*
X161374038Y-101899500D01*
X161249626Y-101919205D01*
X161125214Y-101938910D01*
X160885616Y-102016760D01*
X160661151Y-102131132D01*
X160457350Y-102279201D01*
X160457345Y-102279205D01*
X160279205Y-102457345D01*
X160279201Y-102457350D01*
X160131132Y-102661151D01*
X160016760Y-102885616D01*
X159938910Y-103125214D01*
X159909310Y-103312099D01*
X159899500Y-103374038D01*
X156761345Y-103374038D01*
X156807259Y-103366765D01*
X156899409Y-103352171D01*
X157071639Y-103296211D01*
X157232994Y-103213996D01*
X157379501Y-103107553D01*
X157507553Y-102979501D01*
X157613996Y-102832994D01*
X157696211Y-102671639D01*
X157752171Y-102499409D01*
X157768026Y-102399304D01*
X157780500Y-102320551D01*
X157780500Y-102139448D01*
X157761067Y-102016759D01*
X157752171Y-101960591D01*
X157719134Y-101858911D01*
X157696212Y-101788363D01*
X157696211Y-101788360D01*
X157667740Y-101732484D01*
X157613996Y-101627006D01*
X157600396Y-101608287D01*
X157507558Y-101480505D01*
X157507554Y-101480500D01*
X157379499Y-101352445D01*
X157379494Y-101352441D01*
X157232997Y-101246006D01*
X157232996Y-101246005D01*
X157232994Y-101246004D01*
X157173584Y-101215733D01*
X157071639Y-101163788D01*
X157071636Y-101163787D01*
X156899410Y-101107829D01*
X156720551Y-101079500D01*
X156720546Y-101079500D01*
X156539454Y-101079500D01*
X156539449Y-101079500D01*
X156360589Y-101107829D01*
X156188363Y-101163787D01*
X156188360Y-101163788D01*
X156027002Y-101246006D01*
X155880505Y-101352441D01*
X155880500Y-101352445D01*
X155752445Y-101480500D01*
X155752441Y-101480505D01*
X155646006Y-101627002D01*
X155563788Y-101788360D01*
X155563787Y-101788363D01*
X155507829Y-101960589D01*
X155482473Y-102120678D01*
X155452544Y-102183813D01*
X155393232Y-102220744D01*
X155323369Y-102219746D01*
X155265137Y-102181136D01*
X155237527Y-102120678D01*
X155221067Y-102016759D01*
X155212171Y-101960591D01*
X155179134Y-101858911D01*
X155156212Y-101788363D01*
X155156211Y-101788360D01*
X155127740Y-101732484D01*
X155073996Y-101627006D01*
X155060396Y-101608287D01*
X154967558Y-101480505D01*
X154967554Y-101480500D01*
X154839499Y-101352445D01*
X154839494Y-101352441D01*
X154692997Y-101246006D01*
X154692996Y-101246005D01*
X154692994Y-101246004D01*
X154633584Y-101215733D01*
X154531639Y-101163788D01*
X154531636Y-101163787D01*
X154359410Y-101107829D01*
X154180551Y-101079500D01*
X154180546Y-101079500D01*
X153999454Y-101079500D01*
X153999449Y-101079500D01*
X153820589Y-101107829D01*
X153648363Y-101163787D01*
X153648360Y-101163788D01*
X153487002Y-101246006D01*
X153340505Y-101352441D01*
X153340500Y-101352445D01*
X153212445Y-101480500D01*
X153212441Y-101480505D01*
X153106006Y-101627002D01*
X153023788Y-101788360D01*
X153023787Y-101788363D01*
X152967829Y-101960589D01*
X152942473Y-102120678D01*
X152912544Y-102183813D01*
X152853232Y-102220744D01*
X152783369Y-102219746D01*
X152725137Y-102181136D01*
X152697527Y-102120678D01*
X152681067Y-102016759D01*
X152672171Y-101960591D01*
X152639134Y-101858911D01*
X152616212Y-101788363D01*
X152616211Y-101788360D01*
X152587740Y-101732484D01*
X152533996Y-101627006D01*
X152520396Y-101608287D01*
X152427558Y-101480505D01*
X152427554Y-101480500D01*
X152299499Y-101352445D01*
X152299494Y-101352441D01*
X152152997Y-101246006D01*
X152152996Y-101246005D01*
X152152994Y-101246004D01*
X152093584Y-101215733D01*
X151991639Y-101163788D01*
X151991636Y-101163787D01*
X151819410Y-101107829D01*
X151640551Y-101079500D01*
X151640546Y-101079500D01*
X151459454Y-101079500D01*
X151459449Y-101079500D01*
X151280589Y-101107829D01*
X151108363Y-101163787D01*
X151108360Y-101163788D01*
X150947002Y-101246006D01*
X150800505Y-101352441D01*
X150800500Y-101352445D01*
X150672445Y-101480500D01*
X150672441Y-101480505D01*
X150566006Y-101627002D01*
X150483788Y-101788360D01*
X150483787Y-101788363D01*
X150427829Y-101960589D01*
X150399500Y-102139448D01*
X150399500Y-102320551D01*
X150427829Y-102499410D01*
X150483787Y-102671636D01*
X150483788Y-102671639D01*
X150526041Y-102754563D01*
X150562964Y-102827028D01*
X150566006Y-102832997D01*
X150672441Y-102979494D01*
X150672445Y-102979499D01*
X150800500Y-103107554D01*
X150800505Y-103107558D01*
X150883422Y-103167800D01*
X150947006Y-103213996D01*
X151034705Y-103258681D01*
X151108360Y-103296211D01*
X151108363Y-103296212D01*
X151157260Y-103312099D01*
X151280591Y-103352171D01*
X151353639Y-103363740D01*
X151440678Y-103377527D01*
X151503813Y-103407456D01*
X151540744Y-103466768D01*
X151539746Y-103536631D01*
X151501136Y-103594863D01*
X151440678Y-103622473D01*
X151280589Y-103647829D01*
X151108363Y-103703787D01*
X151108360Y-103703788D01*
X150947002Y-103786006D01*
X150800505Y-103892441D01*
X150800500Y-103892445D01*
X150672445Y-104020500D01*
X150672441Y-104020505D01*
X150566006Y-104167002D01*
X150483788Y-104328360D01*
X150483787Y-104328363D01*
X150427829Y-104500589D01*
X150402473Y-104660678D01*
X150372544Y-104723813D01*
X150313232Y-104760744D01*
X150243369Y-104759746D01*
X150185137Y-104721136D01*
X150157527Y-104660678D01*
X150138832Y-104542649D01*
X150132171Y-104500591D01*
X150094095Y-104383402D01*
X150076212Y-104328363D01*
X150076211Y-104328360D01*
X150008967Y-104196389D01*
X149993996Y-104167006D01*
X149961577Y-104122385D01*
X149887558Y-104020505D01*
X149887554Y-104020500D01*
X149759499Y-103892445D01*
X149759494Y-103892441D01*
X149612997Y-103786006D01*
X149612996Y-103786005D01*
X149612994Y-103786004D01*
X149536906Y-103747235D01*
X149451639Y-103703788D01*
X149451636Y-103703787D01*
X149279410Y-103647829D01*
X149100551Y-103619500D01*
X149100546Y-103619500D01*
X148919454Y-103619500D01*
X148919449Y-103619500D01*
X148740589Y-103647829D01*
X148568363Y-103703787D01*
X148568360Y-103703788D01*
X148407002Y-103786006D01*
X148260505Y-103892441D01*
X148260500Y-103892445D01*
X148132445Y-104020500D01*
X148132441Y-104020505D01*
X148026006Y-104167002D01*
X147943788Y-104328360D01*
X147943787Y-104328363D01*
X147887829Y-104500589D01*
X147862473Y-104660678D01*
X147832544Y-104723813D01*
X147773232Y-104760744D01*
X147703369Y-104759746D01*
X147645137Y-104721136D01*
X147617527Y-104660678D01*
X147598832Y-104542649D01*
X147592171Y-104500591D01*
X147554095Y-104383402D01*
X147536212Y-104328363D01*
X147536211Y-104328360D01*
X147468967Y-104196389D01*
X147453996Y-104167006D01*
X147421577Y-104122385D01*
X147347558Y-104020505D01*
X147347554Y-104020500D01*
X147219499Y-103892445D01*
X147219494Y-103892441D01*
X147072997Y-103786006D01*
X147072996Y-103786005D01*
X147072994Y-103786004D01*
X146996906Y-103747235D01*
X146911639Y-103703788D01*
X146911636Y-103703787D01*
X146739410Y-103647829D01*
X146579321Y-103622473D01*
X146516186Y-103592544D01*
X146479255Y-103533232D01*
X146480253Y-103463370D01*
X146518863Y-103405137D01*
X146579321Y-103377527D01*
X146649425Y-103366422D01*
X146739409Y-103352171D01*
X146911639Y-103296211D01*
X147072994Y-103213996D01*
X147219501Y-103107553D01*
X147347553Y-102979501D01*
X147453996Y-102832994D01*
X147536211Y-102671639D01*
X147592171Y-102499409D01*
X147608026Y-102399304D01*
X147620500Y-102320551D01*
X147620500Y-102139448D01*
X147601067Y-102016759D01*
X147592171Y-101960591D01*
X147559134Y-101858911D01*
X147536212Y-101788363D01*
X147536211Y-101788360D01*
X147507740Y-101732484D01*
X147453996Y-101627006D01*
X147440396Y-101608287D01*
X147347558Y-101480505D01*
X147347554Y-101480500D01*
X147219499Y-101352445D01*
X147219494Y-101352441D01*
X147072997Y-101246006D01*
X147072996Y-101246005D01*
X147072994Y-101246004D01*
X147013584Y-101215733D01*
X146911639Y-101163788D01*
X146911636Y-101163787D01*
X146739410Y-101107829D01*
X146560551Y-101079500D01*
X146560546Y-101079500D01*
X146379454Y-101079500D01*
X146379449Y-101079500D01*
X146200589Y-101107829D01*
X146028363Y-101163787D01*
X146028360Y-101163788D01*
X145867002Y-101246006D01*
X145720505Y-101352441D01*
X145720500Y-101352445D01*
X145592445Y-101480500D01*
X145592441Y-101480505D01*
X145486006Y-101627002D01*
X145403788Y-101788360D01*
X145403787Y-101788363D01*
X145347829Y-101960589D01*
X145319500Y-102139448D01*
X145319500Y-102320551D01*
X145347829Y-102499410D01*
X145403787Y-102671636D01*
X145403788Y-102671639D01*
X145446041Y-102754563D01*
X145482964Y-102827028D01*
X145486006Y-102832997D01*
X145592441Y-102979494D01*
X145592445Y-102979499D01*
X145720500Y-103107554D01*
X145720505Y-103107558D01*
X145803422Y-103167800D01*
X145867006Y-103213996D01*
X145954705Y-103258681D01*
X146028360Y-103296211D01*
X146028363Y-103296212D01*
X146077260Y-103312099D01*
X146200591Y-103352171D01*
X146273639Y-103363740D01*
X146360678Y-103377527D01*
X146423813Y-103407456D01*
X146460744Y-103466768D01*
X146459746Y-103536631D01*
X146421136Y-103594863D01*
X146360678Y-103622473D01*
X146200589Y-103647829D01*
X146028363Y-103703787D01*
X146028360Y-103703788D01*
X145867002Y-103786006D01*
X145720505Y-103892441D01*
X145720500Y-103892445D01*
X145592445Y-104020500D01*
X145592441Y-104020505D01*
X145486006Y-104167002D01*
X145403788Y-104328360D01*
X145403787Y-104328363D01*
X145347829Y-104500589D01*
X145322473Y-104660678D01*
X145292544Y-104723813D01*
X145233232Y-104760744D01*
X145163369Y-104759746D01*
X145105137Y-104721136D01*
X145077527Y-104660678D01*
X145058832Y-104542649D01*
X145052171Y-104500591D01*
X145014095Y-104383402D01*
X144996212Y-104328363D01*
X144996211Y-104328360D01*
X144928967Y-104196389D01*
X144913996Y-104167006D01*
X144881577Y-104122385D01*
X144807558Y-104020505D01*
X144807554Y-104020500D01*
X144679499Y-103892445D01*
X144679494Y-103892441D01*
X144532997Y-103786006D01*
X144532996Y-103786005D01*
X144532994Y-103786004D01*
X144456906Y-103747235D01*
X144371639Y-103703788D01*
X144371636Y-103703787D01*
X144199410Y-103647829D01*
X144020551Y-103619500D01*
X144020546Y-103619500D01*
X143839454Y-103619500D01*
X143839449Y-103619500D01*
X143660589Y-103647829D01*
X143488363Y-103703787D01*
X143488360Y-103703788D01*
X143327002Y-103786006D01*
X143180505Y-103892441D01*
X143180500Y-103892445D01*
X143052445Y-104020500D01*
X143052441Y-104020505D01*
X142946006Y-104167002D01*
X142863788Y-104328360D01*
X142863787Y-104328363D01*
X142807829Y-104500589D01*
X142782473Y-104660678D01*
X142752544Y-104723813D01*
X142693232Y-104760744D01*
X142623369Y-104759746D01*
X142565137Y-104721136D01*
X142537527Y-104660678D01*
X142518832Y-104542649D01*
X142512171Y-104500591D01*
X142474095Y-104383402D01*
X142456212Y-104328363D01*
X142456211Y-104328360D01*
X142388967Y-104196389D01*
X142373996Y-104167006D01*
X142341577Y-104122385D01*
X142267558Y-104020505D01*
X142267554Y-104020500D01*
X142139499Y-103892445D01*
X142139494Y-103892441D01*
X141992997Y-103786006D01*
X141992996Y-103786005D01*
X141992994Y-103786004D01*
X141916906Y-103747235D01*
X141831639Y-103703788D01*
X141831636Y-103703787D01*
X141659410Y-103647829D01*
X141499321Y-103622473D01*
X141436186Y-103592544D01*
X141399255Y-103533232D01*
X141400253Y-103463370D01*
X141438863Y-103405137D01*
X141499321Y-103377527D01*
X141569425Y-103366422D01*
X141659409Y-103352171D01*
X141831639Y-103296211D01*
X141992994Y-103213996D01*
X142139501Y-103107553D01*
X142267553Y-102979501D01*
X142373996Y-102832994D01*
X142456211Y-102671639D01*
X142512171Y-102499409D01*
X142528026Y-102399304D01*
X142540500Y-102320551D01*
X142540500Y-102139448D01*
X142521067Y-102016759D01*
X142512171Y-101960591D01*
X142479134Y-101858911D01*
X142456212Y-101788363D01*
X142456211Y-101788360D01*
X142427740Y-101732484D01*
X142373996Y-101627006D01*
X142360396Y-101608287D01*
X142267558Y-101480505D01*
X142267554Y-101480500D01*
X142139499Y-101352445D01*
X142139494Y-101352441D01*
X141992997Y-101246006D01*
X141992996Y-101246005D01*
X141992994Y-101246004D01*
X141933584Y-101215733D01*
X141831639Y-101163788D01*
X141831636Y-101163787D01*
X141659410Y-101107829D01*
X141480551Y-101079500D01*
X141480546Y-101079500D01*
X141299454Y-101079500D01*
X141299449Y-101079500D01*
X141120589Y-101107829D01*
X140948363Y-101163787D01*
X140948360Y-101163788D01*
X140787002Y-101246006D01*
X140640505Y-101352441D01*
X140640500Y-101352445D01*
X140512445Y-101480500D01*
X140512441Y-101480505D01*
X140406006Y-101627002D01*
X140323788Y-101788360D01*
X140323787Y-101788363D01*
X140267829Y-101960589D01*
X140242473Y-102120678D01*
X140212544Y-102183813D01*
X140153232Y-102220744D01*
X140083369Y-102219746D01*
X140025137Y-102181136D01*
X139997527Y-102120678D01*
X139981067Y-102016759D01*
X139972171Y-101960591D01*
X139939134Y-101858911D01*
X139916212Y-101788363D01*
X139916211Y-101788360D01*
X139887740Y-101732484D01*
X139833996Y-101627006D01*
X139820396Y-101608287D01*
X139727558Y-101480505D01*
X139727554Y-101480500D01*
X139599499Y-101352445D01*
X139599494Y-101352441D01*
X139452997Y-101246006D01*
X139452996Y-101246005D01*
X139452994Y-101246004D01*
X139393584Y-101215733D01*
X139291639Y-101163788D01*
X139291636Y-101163787D01*
X139119410Y-101107829D01*
X138940551Y-101079500D01*
X138940546Y-101079500D01*
X138759454Y-101079500D01*
X138759449Y-101079500D01*
X138580589Y-101107829D01*
X138408363Y-101163787D01*
X138408360Y-101163788D01*
X138247002Y-101246006D01*
X138100505Y-101352441D01*
X138100500Y-101352445D01*
X137972445Y-101480500D01*
X137972441Y-101480505D01*
X137866006Y-101627002D01*
X137783788Y-101788360D01*
X137783787Y-101788363D01*
X137727829Y-101960589D01*
X137702473Y-102120678D01*
X137672544Y-102183813D01*
X137613232Y-102220744D01*
X137543369Y-102219746D01*
X137485137Y-102181136D01*
X137457527Y-102120678D01*
X137441067Y-102016759D01*
X137432171Y-101960591D01*
X137399134Y-101858911D01*
X137376212Y-101788363D01*
X137376211Y-101788360D01*
X137347740Y-101732484D01*
X137293996Y-101627006D01*
X137280396Y-101608287D01*
X137187558Y-101480505D01*
X137187554Y-101480500D01*
X137059499Y-101352445D01*
X137059494Y-101352441D01*
X136912997Y-101246006D01*
X136912996Y-101246005D01*
X136912994Y-101246004D01*
X136853584Y-101215733D01*
X136751639Y-101163788D01*
X136751636Y-101163787D01*
X136579410Y-101107829D01*
X136400551Y-101079500D01*
X136400546Y-101079500D01*
X136219454Y-101079500D01*
X136219449Y-101079500D01*
X136040589Y-101107829D01*
X135868363Y-101163787D01*
X135868360Y-101163788D01*
X135707002Y-101246006D01*
X135560505Y-101352441D01*
X135560500Y-101352445D01*
X135432445Y-101480500D01*
X135432441Y-101480505D01*
X135326006Y-101627002D01*
X135243788Y-101788360D01*
X135243787Y-101788363D01*
X135187829Y-101960589D01*
X135162473Y-102120678D01*
X135132544Y-102183813D01*
X135073232Y-102220744D01*
X135003369Y-102219746D01*
X134945137Y-102181136D01*
X134917527Y-102120678D01*
X134901067Y-102016759D01*
X134892171Y-101960591D01*
X134859134Y-101858911D01*
X134836212Y-101788363D01*
X134836211Y-101788360D01*
X134807740Y-101732484D01*
X134753996Y-101627006D01*
X134740396Y-101608287D01*
X134647558Y-101480505D01*
X134647554Y-101480500D01*
X134519499Y-101352445D01*
X134519494Y-101352441D01*
X134372997Y-101246006D01*
X134372996Y-101246005D01*
X134372994Y-101246004D01*
X134313584Y-101215733D01*
X134211639Y-101163788D01*
X134211636Y-101163787D01*
X134039410Y-101107829D01*
X133860551Y-101079500D01*
X133860546Y-101079500D01*
X133679454Y-101079500D01*
X133679449Y-101079500D01*
X133500589Y-101107829D01*
X133328363Y-101163787D01*
X133328360Y-101163788D01*
X133167002Y-101246006D01*
X133020505Y-101352441D01*
X133020500Y-101352445D01*
X132892445Y-101480500D01*
X132892441Y-101480505D01*
X132786006Y-101627002D01*
X132703788Y-101788360D01*
X132703787Y-101788363D01*
X132647829Y-101960589D01*
X132619500Y-102139448D01*
X132619500Y-102320551D01*
X132647829Y-102499410D01*
X132703787Y-102671636D01*
X132703788Y-102671639D01*
X132746041Y-102754563D01*
X132782964Y-102827028D01*
X132786006Y-102832997D01*
X132892441Y-102979494D01*
X132892445Y-102979499D01*
X133020500Y-103107554D01*
X133020505Y-103107558D01*
X133103422Y-103167800D01*
X133167006Y-103213996D01*
X133254705Y-103258681D01*
X133328360Y-103296211D01*
X133328363Y-103296212D01*
X133377260Y-103312099D01*
X133500591Y-103352171D01*
X133573639Y-103363740D01*
X133660678Y-103377527D01*
X133723813Y-103407456D01*
X133760744Y-103466768D01*
X133759746Y-103536631D01*
X133721136Y-103594863D01*
X133660678Y-103622473D01*
X133500589Y-103647829D01*
X133328363Y-103703787D01*
X133328360Y-103703788D01*
X133167002Y-103786006D01*
X133020505Y-103892441D01*
X133020500Y-103892445D01*
X132892445Y-104020500D01*
X132892441Y-104020505D01*
X132786006Y-104167002D01*
X132703788Y-104328360D01*
X132703787Y-104328363D01*
X132647829Y-104500589D01*
X132622473Y-104660678D01*
X132592544Y-104723813D01*
X132533232Y-104760744D01*
X132463369Y-104759746D01*
X132405137Y-104721136D01*
X132377527Y-104660678D01*
X132358832Y-104542649D01*
X132352171Y-104500591D01*
X132314095Y-104383402D01*
X132296212Y-104328363D01*
X132296211Y-104328360D01*
X132228967Y-104196389D01*
X132213996Y-104167006D01*
X132181577Y-104122385D01*
X132107558Y-104020505D01*
X132107554Y-104020500D01*
X131979499Y-103892445D01*
X131979494Y-103892441D01*
X131832997Y-103786006D01*
X131832996Y-103786005D01*
X131832994Y-103786004D01*
X131756906Y-103747235D01*
X131671639Y-103703788D01*
X131671636Y-103703787D01*
X131499410Y-103647829D01*
X131320551Y-103619500D01*
X131320546Y-103619500D01*
X131139454Y-103619500D01*
X131139449Y-103619500D01*
X130960589Y-103647829D01*
X130788363Y-103703787D01*
X130788360Y-103703788D01*
X130627002Y-103786006D01*
X130480505Y-103892441D01*
X130480500Y-103892445D01*
X130352445Y-104020500D01*
X130352441Y-104020505D01*
X130246006Y-104167002D01*
X130163788Y-104328360D01*
X130163787Y-104328363D01*
X130107829Y-104500589D01*
X130082473Y-104660678D01*
X130052544Y-104723813D01*
X129993232Y-104760744D01*
X129923369Y-104759746D01*
X129865137Y-104721136D01*
X129837527Y-104660678D01*
X129818832Y-104542649D01*
X129812171Y-104500591D01*
X129774095Y-104383402D01*
X129756212Y-104328363D01*
X129756211Y-104328360D01*
X129688967Y-104196389D01*
X129673996Y-104167006D01*
X129641577Y-104122385D01*
X129567558Y-104020505D01*
X129567554Y-104020500D01*
X129439499Y-103892445D01*
X129439494Y-103892441D01*
X129292997Y-103786006D01*
X129292996Y-103786005D01*
X129292994Y-103786004D01*
X129216906Y-103747235D01*
X129131639Y-103703788D01*
X129131636Y-103703787D01*
X128959410Y-103647829D01*
X128799321Y-103622473D01*
X128736186Y-103592544D01*
X128699255Y-103533232D01*
X128700253Y-103463370D01*
X128738863Y-103405137D01*
X128799321Y-103377527D01*
X128869425Y-103366422D01*
X128959409Y-103352171D01*
X129131639Y-103296211D01*
X129292994Y-103213996D01*
X129439501Y-103107553D01*
X129567553Y-102979501D01*
X129673996Y-102832994D01*
X129756211Y-102671639D01*
X129812171Y-102499409D01*
X129828026Y-102399304D01*
X129840500Y-102320551D01*
X129840500Y-102139448D01*
X129821067Y-102016759D01*
X129812171Y-101960591D01*
X129779134Y-101858911D01*
X129756212Y-101788363D01*
X129756211Y-101788360D01*
X129727740Y-101732484D01*
X129673996Y-101627006D01*
X129660396Y-101608287D01*
X129567558Y-101480505D01*
X129567554Y-101480500D01*
X129439499Y-101352445D01*
X129439494Y-101352441D01*
X129292997Y-101246006D01*
X129292996Y-101246005D01*
X129292994Y-101246004D01*
X129233584Y-101215733D01*
X129131639Y-101163788D01*
X129131636Y-101163787D01*
X128959410Y-101107829D01*
X128780551Y-101079500D01*
X128780546Y-101079500D01*
X128599454Y-101079500D01*
X128599449Y-101079500D01*
X128420589Y-101107829D01*
X128248363Y-101163787D01*
X128248360Y-101163788D01*
X128087002Y-101246006D01*
X127940505Y-101352441D01*
X127940500Y-101352445D01*
X127812445Y-101480500D01*
X127812441Y-101480505D01*
X127706006Y-101627002D01*
X127623788Y-101788360D01*
X127623787Y-101788363D01*
X127567829Y-101960589D01*
X127542473Y-102120678D01*
X127512544Y-102183813D01*
X127453232Y-102220744D01*
X127383369Y-102219746D01*
X127325137Y-102181136D01*
X127297527Y-102120678D01*
X127281067Y-102016759D01*
X127272171Y-101960591D01*
X127239134Y-101858911D01*
X127216212Y-101788363D01*
X127216211Y-101788360D01*
X127187740Y-101732484D01*
X127133996Y-101627006D01*
X127120396Y-101608287D01*
X127027558Y-101480505D01*
X127027554Y-101480500D01*
X126899499Y-101352445D01*
X126899494Y-101352441D01*
X126752997Y-101246006D01*
X126752996Y-101246005D01*
X126752994Y-101246004D01*
X126693584Y-101215733D01*
X126591639Y-101163788D01*
X126591636Y-101163787D01*
X126419410Y-101107829D01*
X126240551Y-101079500D01*
X126240546Y-101079500D01*
X126059454Y-101079500D01*
X126059449Y-101079500D01*
X125880589Y-101107829D01*
X125708363Y-101163787D01*
X125708360Y-101163788D01*
X125547002Y-101246006D01*
X125400505Y-101352441D01*
X125400500Y-101352445D01*
X125272445Y-101480500D01*
X125272441Y-101480505D01*
X125166006Y-101627002D01*
X125083788Y-101788360D01*
X125083787Y-101788363D01*
X125027829Y-101960589D01*
X124999500Y-102139448D01*
X124999500Y-102320551D01*
X125027829Y-102499410D01*
X125083787Y-102671636D01*
X125083788Y-102671639D01*
X125126041Y-102754563D01*
X125162964Y-102827028D01*
X125166006Y-102832997D01*
X125272441Y-102979494D01*
X125272445Y-102979499D01*
X125400500Y-103107554D01*
X125400505Y-103107558D01*
X125483422Y-103167800D01*
X125547006Y-103213996D01*
X125634705Y-103258681D01*
X125708360Y-103296211D01*
X125708363Y-103296212D01*
X125757260Y-103312099D01*
X125880591Y-103352171D01*
X125953639Y-103363740D01*
X126040678Y-103377527D01*
X126103813Y-103407456D01*
X126140744Y-103466768D01*
X126139746Y-103536631D01*
X126101136Y-103594863D01*
X126040678Y-103622473D01*
X125880589Y-103647829D01*
X125708363Y-103703787D01*
X125708360Y-103703788D01*
X125547002Y-103786006D01*
X125400505Y-103892441D01*
X125400499Y-103892445D01*
X125330976Y-103961968D01*
X125269652Y-103995453D01*
X125199961Y-103990467D01*
X125155615Y-103961967D01*
X124353165Y-103159517D01*
X124353163Y-103159515D01*
X124288479Y-103122169D01*
X124256139Y-103103498D01*
X124256138Y-103103497D01*
X124256137Y-103103497D01*
X124147918Y-103074500D01*
X124147917Y-103074500D01*
X122121896Y-103074500D01*
X122054857Y-103054815D01*
X122009102Y-103002011D01*
X121999158Y-102932853D01*
X122021578Y-102877615D01*
X122046829Y-102842858D01*
X122053996Y-102832994D01*
X122136211Y-102671639D01*
X122192171Y-102499409D01*
X122208026Y-102399304D01*
X122220500Y-102320551D01*
X122220500Y-102139448D01*
X122201067Y-102016759D01*
X122192171Y-101960591D01*
X122159134Y-101858911D01*
X122136212Y-101788363D01*
X122136211Y-101788360D01*
X122107740Y-101732484D01*
X122053996Y-101627006D01*
X122040396Y-101608287D01*
X121947558Y-101480505D01*
X121947554Y-101480500D01*
X121819499Y-101352445D01*
X121819494Y-101352441D01*
X121672997Y-101246006D01*
X121672996Y-101246005D01*
X121672994Y-101246004D01*
X121613584Y-101215733D01*
X121511639Y-101163788D01*
X121511636Y-101163787D01*
X121339410Y-101107829D01*
X121160551Y-101079500D01*
X121160546Y-101079500D01*
X120979454Y-101079500D01*
X120979449Y-101079500D01*
X120800589Y-101107829D01*
X120628363Y-101163787D01*
X120628360Y-101163788D01*
X120467002Y-101246006D01*
X120320505Y-101352441D01*
X120320500Y-101352445D01*
X120192445Y-101480500D01*
X120192441Y-101480505D01*
X120086006Y-101627002D01*
X120003788Y-101788360D01*
X120003787Y-101788363D01*
X119947829Y-101960589D01*
X119922473Y-102120678D01*
X119892544Y-102183813D01*
X119833232Y-102220744D01*
X119763369Y-102219746D01*
X119705137Y-102181136D01*
X119677527Y-102120678D01*
X119661067Y-102016759D01*
X119652171Y-101960591D01*
X119619134Y-101858911D01*
X119596212Y-101788363D01*
X119596211Y-101788360D01*
X119567740Y-101732484D01*
X119513996Y-101627006D01*
X119500396Y-101608287D01*
X119407558Y-101480505D01*
X119407554Y-101480500D01*
X119279499Y-101352445D01*
X119279494Y-101352441D01*
X119132997Y-101246006D01*
X119132996Y-101246005D01*
X119132994Y-101246004D01*
X119073584Y-101215733D01*
X118971639Y-101163788D01*
X118971636Y-101163787D01*
X118799410Y-101107829D01*
X118620551Y-101079500D01*
X118620546Y-101079500D01*
X118439454Y-101079500D01*
X118439449Y-101079500D01*
X118260589Y-101107829D01*
X118088363Y-101163787D01*
X118088360Y-101163788D01*
X117927002Y-101246006D01*
X117780505Y-101352441D01*
X117780500Y-101352445D01*
X117652445Y-101480500D01*
X117652441Y-101480505D01*
X117546006Y-101627002D01*
X117463788Y-101788360D01*
X117463787Y-101788363D01*
X117407829Y-101960589D01*
X117382473Y-102120678D01*
X117352544Y-102183813D01*
X117293232Y-102220744D01*
X117223369Y-102219746D01*
X117165137Y-102181136D01*
X117137527Y-102120678D01*
X117121067Y-102016759D01*
X117112171Y-101960591D01*
X117079134Y-101858911D01*
X117056212Y-101788363D01*
X117056211Y-101788360D01*
X117027740Y-101732484D01*
X116973996Y-101627006D01*
X116960396Y-101608287D01*
X116867558Y-101480505D01*
X116867554Y-101480500D01*
X116739499Y-101352445D01*
X116739494Y-101352441D01*
X116592997Y-101246006D01*
X116592996Y-101246005D01*
X116592994Y-101246004D01*
X116533584Y-101215733D01*
X116431639Y-101163788D01*
X116431636Y-101163787D01*
X116259410Y-101107829D01*
X116080551Y-101079500D01*
X116080546Y-101079500D01*
X115899454Y-101079500D01*
X115899449Y-101079500D01*
X115720589Y-101107829D01*
X115548363Y-101163787D01*
X115548360Y-101163788D01*
X115387002Y-101246006D01*
X115240505Y-101352441D01*
X115240500Y-101352445D01*
X115112445Y-101480500D01*
X115112441Y-101480505D01*
X115006006Y-101627002D01*
X114923788Y-101788360D01*
X114923787Y-101788363D01*
X114867829Y-101960589D01*
X114839500Y-102139448D01*
X114839500Y-102320551D01*
X114867829Y-102499410D01*
X114923787Y-102671636D01*
X114923788Y-102671639D01*
X114966041Y-102754563D01*
X115002964Y-102827028D01*
X115006006Y-102832997D01*
X115112441Y-102979494D01*
X115112445Y-102979499D01*
X115240500Y-103107554D01*
X115240505Y-103107558D01*
X115323422Y-103167800D01*
X115387006Y-103213996D01*
X115474705Y-103258681D01*
X115548360Y-103296211D01*
X115548363Y-103296212D01*
X115597260Y-103312099D01*
X115720591Y-103352171D01*
X115793639Y-103363740D01*
X115880678Y-103377527D01*
X115943813Y-103407456D01*
X115980744Y-103466768D01*
X115979746Y-103536631D01*
X115941136Y-103594863D01*
X115880678Y-103622473D01*
X115720589Y-103647829D01*
X115548363Y-103703787D01*
X115548360Y-103703788D01*
X115387002Y-103786006D01*
X115240505Y-103892441D01*
X115240500Y-103892445D01*
X115112445Y-104020500D01*
X115112441Y-104020505D01*
X115006006Y-104167002D01*
X114923788Y-104328360D01*
X114923787Y-104328363D01*
X114867829Y-104500589D01*
X114842473Y-104660678D01*
X114812544Y-104723813D01*
X114753232Y-104760744D01*
X114683369Y-104759746D01*
X114625137Y-104721136D01*
X114597527Y-104660678D01*
X114578832Y-104542649D01*
X114572171Y-104500591D01*
X114534095Y-104383402D01*
X114516212Y-104328363D01*
X114516211Y-104328360D01*
X114448967Y-104196389D01*
X114433996Y-104167006D01*
X114401577Y-104122385D01*
X114327558Y-104020505D01*
X114327554Y-104020500D01*
X114199499Y-103892445D01*
X114199494Y-103892441D01*
X114052997Y-103786006D01*
X114052996Y-103786005D01*
X114052994Y-103786004D01*
X113976906Y-103747235D01*
X113891639Y-103703788D01*
X113891636Y-103703787D01*
X113719410Y-103647829D01*
X113540551Y-103619500D01*
X113540546Y-103619500D01*
X113359454Y-103619500D01*
X113359449Y-103619500D01*
X113180589Y-103647829D01*
X113063402Y-103685905D01*
X112993560Y-103687900D01*
X112937403Y-103655655D01*
X112534565Y-103252817D01*
X112534563Y-103252815D01*
X112437537Y-103196797D01*
X112329318Y-103167800D01*
X112329317Y-103167800D01*
X111894110Y-103167800D01*
X111827071Y-103148115D01*
X111781316Y-103095311D01*
X111771372Y-103026153D01*
X111793792Y-102970915D01*
X111861577Y-102877615D01*
X111893996Y-102832994D01*
X111976211Y-102671639D01*
X112032171Y-102499409D01*
X112048026Y-102399304D01*
X112060500Y-102320551D01*
X112060500Y-102139448D01*
X112041067Y-102016759D01*
X112032171Y-101960591D01*
X111999134Y-101858911D01*
X111976212Y-101788363D01*
X111976211Y-101788360D01*
X111947740Y-101732484D01*
X111893996Y-101627006D01*
X111880396Y-101608287D01*
X111787558Y-101480505D01*
X111787554Y-101480500D01*
X111659499Y-101352445D01*
X111659494Y-101352441D01*
X111512997Y-101246006D01*
X111512996Y-101246005D01*
X111512994Y-101246004D01*
X111453584Y-101215733D01*
X111351639Y-101163788D01*
X111351636Y-101163787D01*
X111179410Y-101107829D01*
X111000551Y-101079500D01*
X111000546Y-101079500D01*
X110819454Y-101079500D01*
X110819449Y-101079500D01*
X110640589Y-101107829D01*
X110468363Y-101163787D01*
X110468360Y-101163788D01*
X110307003Y-101246005D01*
X110242208Y-101293081D01*
X110176402Y-101316560D01*
X110108348Y-101300734D01*
X110059654Y-101250628D01*
X110049550Y-101224859D01*
X110036503Y-101176163D01*
X109980485Y-101079137D01*
X109901263Y-100999915D01*
X109413529Y-100512181D01*
X109380044Y-100450858D01*
X109385028Y-100381166D01*
X109426900Y-100325233D01*
X109492364Y-100300816D01*
X109501210Y-100300500D01*
X181952405Y-100300500D01*
X181996519Y-100300500D01*
X182003472Y-100300695D01*
X182295306Y-100317084D01*
X182309103Y-100318638D01*
X182593827Y-100367015D01*
X182607382Y-100370108D01*
X182746141Y-100410084D01*
X182884899Y-100450060D01*
X182898023Y-100454653D01*
X183164833Y-100565168D01*
X183177355Y-100571197D01*
X183349641Y-100666417D01*
X183430125Y-100710899D01*
X183441899Y-100718297D01*
X183677430Y-100885415D01*
X183688302Y-100894085D01*
X183717387Y-100920077D01*
X183895372Y-101079134D01*
X183903642Y-101086524D01*
X183913475Y-101096357D01*
X184105914Y-101311697D01*
X184114584Y-101322569D01*
X184281702Y-101558100D01*
X184289100Y-101569874D01*
X184428798Y-101822637D01*
X184434831Y-101835166D01*
X184545346Y-102101976D01*
X184549939Y-102115100D01*
X184629890Y-102392615D01*
X184632984Y-102406172D01*
X184681359Y-102690885D01*
X184682916Y-102704703D01*
X184699305Y-102996527D01*
X184699500Y-103003480D01*
X184699500Y-152996519D01*
X184699305Y-153003472D01*
X184682916Y-153295296D01*
X184681359Y-153309114D01*
X184632984Y-153593827D01*
X184629890Y-153607384D01*
X184549939Y-153884899D01*
X184545346Y-153898024D01*
X184434830Y-154164834D01*
X184428797Y-154177362D01*
X184289100Y-154430124D01*
X184281702Y-154441898D01*
X184114580Y-154677435D01*
X184105909Y-154688307D01*
X183913473Y-154903641D01*
X183903641Y-154913473D01*
X183688307Y-155105909D01*
X183677435Y-155114580D01*
X183441898Y-155281702D01*
X183430124Y-155289100D01*
X183177362Y-155428797D01*
X183164834Y-155434830D01*
X182898024Y-155545346D01*
X182884899Y-155549939D01*
X182607384Y-155629890D01*
X182593827Y-155632984D01*
X182309114Y-155681359D01*
X182295296Y-155682916D01*
X182003472Y-155699305D01*
X181996519Y-155699500D01*
X103003481Y-155699500D01*
X102996528Y-155699305D01*
X102704703Y-155682916D01*
X102690885Y-155681359D01*
X102406172Y-155632984D01*
X102392615Y-155629890D01*
X102115100Y-155549939D01*
X102101976Y-155545346D01*
X101835166Y-155434831D01*
X101822637Y-155428798D01*
X101569874Y-155289100D01*
X101558100Y-155281702D01*
X101322569Y-155114584D01*
X101311697Y-155105914D01*
X101096357Y-154913475D01*
X101086524Y-154903642D01*
X100894085Y-154688302D01*
X100885415Y-154677430D01*
X100718297Y-154441899D01*
X100710899Y-154430125D01*
X100678864Y-154372163D01*
X100571197Y-154177355D01*
X100565168Y-154164835D01*
X100454653Y-153898024D01*
X100454653Y-153898023D01*
X100450060Y-153884899D01*
X100370109Y-153607384D01*
X100367015Y-153593827D01*
X100358320Y-153542654D01*
X100318638Y-153309103D01*
X100317084Y-153295306D01*
X100300695Y-153003472D01*
X100300500Y-152996519D01*
X100300500Y-152374038D01*
X101899500Y-152374038D01*
X101899500Y-152625961D01*
X101938910Y-152874785D01*
X102016760Y-153114383D01*
X102095413Y-153268747D01*
X102115981Y-153309114D01*
X102131132Y-153338848D01*
X102279201Y-153542649D01*
X102279205Y-153542654D01*
X102457345Y-153720794D01*
X102457350Y-153720798D01*
X102635117Y-153849952D01*
X102661155Y-153868870D01*
X102804184Y-153941747D01*
X102885616Y-153983239D01*
X102885618Y-153983239D01*
X102885621Y-153983241D01*
X103125215Y-154061090D01*
X103374038Y-154100500D01*
X103374039Y-154100500D01*
X103625961Y-154100500D01*
X103625962Y-154100500D01*
X103874785Y-154061090D01*
X104114379Y-153983241D01*
X104338845Y-153868870D01*
X104542656Y-153720793D01*
X104720793Y-153542656D01*
X104868870Y-153338845D01*
X104983241Y-153114379D01*
X105061090Y-152874785D01*
X105100500Y-152625962D01*
X105100500Y-152374038D01*
X159899500Y-152374038D01*
X159899500Y-152625961D01*
X159938910Y-152874785D01*
X160016760Y-153114383D01*
X160095413Y-153268747D01*
X160115981Y-153309114D01*
X160131132Y-153338848D01*
X160279201Y-153542649D01*
X160279205Y-153542654D01*
X160457345Y-153720794D01*
X160457350Y-153720798D01*
X160635117Y-153849952D01*
X160661155Y-153868870D01*
X160804184Y-153941747D01*
X160885616Y-153983239D01*
X160885618Y-153983239D01*
X160885621Y-153983241D01*
X161125215Y-154061090D01*
X161374038Y-154100500D01*
X161374039Y-154100500D01*
X161625961Y-154100500D01*
X161625962Y-154100500D01*
X161874785Y-154061090D01*
X162114379Y-153983241D01*
X162338845Y-153868870D01*
X162542656Y-153720793D01*
X162720793Y-153542656D01*
X162868870Y-153338845D01*
X162983241Y-153114379D01*
X163061090Y-152874785D01*
X163100500Y-152625962D01*
X163100500Y-152374038D01*
X163061090Y-152125215D01*
X162983241Y-151885621D01*
X162983239Y-151885618D01*
X162983239Y-151885616D01*
X162941747Y-151804184D01*
X162868870Y-151661155D01*
X162849952Y-151635117D01*
X162720798Y-151457350D01*
X162720794Y-151457345D01*
X162542654Y-151279205D01*
X162542649Y-151279201D01*
X162338848Y-151131132D01*
X162338847Y-151131131D01*
X162338845Y-151131130D01*
X162268747Y-151095413D01*
X162114383Y-151016760D01*
X161874785Y-150938910D01*
X161625962Y-150899500D01*
X161374038Y-150899500D01*
X161249626Y-150919205D01*
X161125214Y-150938910D01*
X160885616Y-151016760D01*
X160661151Y-151131132D01*
X160457350Y-151279201D01*
X160457345Y-151279205D01*
X160279205Y-151457345D01*
X160279201Y-151457350D01*
X160131132Y-151661151D01*
X160016760Y-151885616D01*
X159938910Y-152125214D01*
X159899500Y-152374038D01*
X105100500Y-152374038D01*
X105061090Y-152125215D01*
X104983241Y-151885621D01*
X104983239Y-151885618D01*
X104983239Y-151885616D01*
X104941747Y-151804184D01*
X104868870Y-151661155D01*
X104849952Y-151635117D01*
X104720798Y-151457350D01*
X104720794Y-151457345D01*
X104542654Y-151279205D01*
X104542649Y-151279201D01*
X104338848Y-151131132D01*
X104338847Y-151131131D01*
X104338845Y-151131130D01*
X104268747Y-151095413D01*
X104114383Y-151016760D01*
X103874785Y-150938910D01*
X103625962Y-150899500D01*
X103374038Y-150899500D01*
X103249626Y-150919205D01*
X103125214Y-150938910D01*
X102885616Y-151016760D01*
X102661151Y-151131132D01*
X102457350Y-151279201D01*
X102457345Y-151279205D01*
X102279205Y-151457345D01*
X102279201Y-151457350D01*
X102131132Y-151661151D01*
X102016760Y-151885616D01*
X101938910Y-152125214D01*
X101899500Y-152374038D01*
X100300500Y-152374038D01*
X100300500Y-103374038D01*
X101899500Y-103374038D01*
X101899500Y-103625962D01*
X101904203Y-103655655D01*
X101938910Y-103874785D01*
X102016760Y-104114383D01*
X102089633Y-104257403D01*
X102125789Y-104328363D01*
X102131132Y-104338848D01*
X102279201Y-104542649D01*
X102279205Y-104542654D01*
X102457345Y-104720794D01*
X102457350Y-104720798D01*
X102592326Y-104818863D01*
X102661155Y-104868870D01*
X102775493Y-104927128D01*
X102885616Y-104983239D01*
X102885618Y-104983239D01*
X102885621Y-104983241D01*
X103125215Y-105061090D01*
X103374038Y-105100500D01*
X103374039Y-105100500D01*
X103625961Y-105100500D01*
X103625962Y-105100500D01*
X103874785Y-105061090D01*
X104114379Y-104983241D01*
X104338845Y-104868870D01*
X104542656Y-104720793D01*
X104720793Y-104542656D01*
X104868870Y-104338845D01*
X104983241Y-104114379D01*
X105061090Y-103874785D01*
X105100500Y-103625962D01*
X105100500Y-103374038D01*
X105061090Y-103125215D01*
X104983241Y-102885621D01*
X104983239Y-102885618D01*
X104983239Y-102885616D01*
X104941747Y-102804184D01*
X104868870Y-102661155D01*
X104821354Y-102595755D01*
X104720798Y-102457350D01*
X104720794Y-102457345D01*
X104542654Y-102279205D01*
X104542649Y-102279201D01*
X104338848Y-102131132D01*
X104338847Y-102131131D01*
X104338845Y-102131130D01*
X104268747Y-102095413D01*
X104114383Y-102016760D01*
X103874785Y-101938910D01*
X103625962Y-101899500D01*
X103374038Y-101899500D01*
X103249626Y-101919205D01*
X103125214Y-101938910D01*
X102885616Y-102016760D01*
X102661151Y-102131132D01*
X102457350Y-102279201D01*
X102457345Y-102279205D01*
X102279205Y-102457345D01*
X102279201Y-102457350D01*
X102131132Y-102661151D01*
X102016760Y-102885616D01*
X101938910Y-103125214D01*
X101909310Y-103312099D01*
X101899500Y-103374038D01*
X100300500Y-103374038D01*
X100300500Y-103003480D01*
X100300695Y-102996527D01*
X100304271Y-102932853D01*
X100317084Y-102704691D01*
X100318638Y-102690897D01*
X100367017Y-102406158D01*
X100370109Y-102392615D01*
X100450060Y-102115095D01*
X100454651Y-102101976D01*
X100489949Y-102016760D01*
X100565174Y-101835150D01*
X100571201Y-101822637D01*
X100710901Y-101569868D01*
X100718296Y-101558100D01*
X100759841Y-101499548D01*
X100885427Y-101322550D01*
X100894078Y-101311703D01*
X101086526Y-101096355D01*
X101096357Y-101086525D01*
X101104624Y-101079137D01*
X101311703Y-100894078D01*
X101322550Y-100885427D01*
X101558105Y-100718292D01*
X101569868Y-100710901D01*
X101822650Y-100571194D01*
X101835150Y-100565174D01*
X102101983Y-100454648D01*
X102115095Y-100450060D01*
X102392623Y-100370106D01*
X102406158Y-100367017D01*
X102690897Y-100318638D01*
X102704691Y-100317084D01*
X102996528Y-100300695D01*
X103003481Y-100300500D01*
X103047594Y-100300500D01*
X106675728Y-100300500D01*
X106742767Y-100320185D01*
G37*
%TD.AperFunction*%
%TA.AperFunction,Conductor*%
G36*
X180157071Y-141439973D02*
G01*
X180176630Y-141440253D01*
X180190040Y-141449144D01*
X180205543Y-141453457D01*
X180218561Y-141468054D01*
X180234863Y-141478863D01*
X180241855Y-141494173D01*
X180252047Y-141505602D01*
X180262473Y-141539321D01*
X180287829Y-141699410D01*
X180343787Y-141871636D01*
X180343788Y-141871639D01*
X180426006Y-142032997D01*
X180532441Y-142179494D01*
X180532445Y-142179499D01*
X180660500Y-142307554D01*
X180660505Y-142307558D01*
X180782815Y-142396420D01*
X180807006Y-142413996D01*
X180891934Y-142457269D01*
X180968360Y-142496211D01*
X180968363Y-142496212D01*
X181054476Y-142524191D01*
X181140591Y-142552171D01*
X181223429Y-142565291D01*
X181319449Y-142580500D01*
X181319454Y-142580500D01*
X181500551Y-142580500D01*
X181587259Y-142566765D01*
X181679409Y-142552171D01*
X181851639Y-142496211D01*
X181851639Y-142496210D01*
X181851644Y-142496209D01*
X181958390Y-142441818D01*
X181994504Y-142423416D01*
X182063174Y-142410520D01*
X182127914Y-142436796D01*
X182168172Y-142493902D01*
X182174800Y-142533901D01*
X182174800Y-144771013D01*
X182155115Y-144838052D01*
X182138481Y-144858694D01*
X178596294Y-148400881D01*
X178534971Y-148434366D01*
X178508613Y-148437200D01*
X174575363Y-148437200D01*
X174508324Y-148417515D01*
X174462569Y-148364711D01*
X174452625Y-148295553D01*
X174475045Y-148240315D01*
X174479109Y-148234719D01*
X174483996Y-148227994D01*
X174566211Y-148066639D01*
X174622171Y-147894409D01*
X174643376Y-147760528D01*
X174650500Y-147715551D01*
X174650500Y-147284448D01*
X174628495Y-147145522D01*
X174622171Y-147105591D01*
X174584312Y-146989071D01*
X174566212Y-146933363D01*
X174566211Y-146933360D01*
X174509232Y-146821535D01*
X174483996Y-146772006D01*
X174454856Y-146731898D01*
X174377558Y-146625505D01*
X174377554Y-146625500D01*
X174249499Y-146497445D01*
X174249494Y-146497441D01*
X174102997Y-146391006D01*
X174102996Y-146391005D01*
X174102994Y-146391004D01*
X174051300Y-146364664D01*
X173941639Y-146308788D01*
X173941636Y-146308787D01*
X173769410Y-146252829D01*
X173590551Y-146224500D01*
X173590546Y-146224500D01*
X173409454Y-146224500D01*
X173409449Y-146224500D01*
X173230591Y-146252828D01*
X173193216Y-146264972D01*
X173123375Y-146266966D01*
X173063542Y-146230884D01*
X173032716Y-146168182D01*
X173030900Y-146147040D01*
X173030900Y-142536805D01*
X173050585Y-142469766D01*
X173103389Y-142424011D01*
X173172547Y-142414067D01*
X173211193Y-142426320D01*
X173266081Y-142454287D01*
X173348356Y-142496209D01*
X173348363Y-142496212D01*
X173434476Y-142524191D01*
X173520591Y-142552171D01*
X173603429Y-142565291D01*
X173699449Y-142580500D01*
X173699454Y-142580500D01*
X173880551Y-142580500D01*
X173967259Y-142566765D01*
X174059409Y-142552171D01*
X174231639Y-142496211D01*
X174392994Y-142413996D01*
X174539501Y-142307553D01*
X174667553Y-142179501D01*
X174773996Y-142032994D01*
X174856211Y-141871639D01*
X174912171Y-141699409D01*
X174926422Y-141609425D01*
X174937527Y-141539321D01*
X174967456Y-141476186D01*
X175026768Y-141439255D01*
X175096630Y-141440253D01*
X175154863Y-141478863D01*
X175182473Y-141539321D01*
X175207829Y-141699410D01*
X175263787Y-141871636D01*
X175263788Y-141871639D01*
X175346006Y-142032997D01*
X175452441Y-142179494D01*
X175452445Y-142179499D01*
X175580500Y-142307554D01*
X175580505Y-142307558D01*
X175702815Y-142396420D01*
X175727006Y-142413996D01*
X175811934Y-142457269D01*
X175888360Y-142496211D01*
X175888363Y-142496212D01*
X175974476Y-142524191D01*
X176060591Y-142552171D01*
X176143429Y-142565291D01*
X176239449Y-142580500D01*
X176239454Y-142580500D01*
X176420551Y-142580500D01*
X176507259Y-142566765D01*
X176599409Y-142552171D01*
X176771639Y-142496211D01*
X176932994Y-142413996D01*
X177079501Y-142307553D01*
X177207553Y-142179501D01*
X177313996Y-142032994D01*
X177396211Y-141871639D01*
X177452171Y-141699409D01*
X177466422Y-141609425D01*
X177477527Y-141539321D01*
X177507456Y-141476186D01*
X177566768Y-141439255D01*
X177636630Y-141440253D01*
X177694863Y-141478863D01*
X177722473Y-141539321D01*
X177747829Y-141699410D01*
X177803787Y-141871636D01*
X177803788Y-141871639D01*
X177886006Y-142032997D01*
X177992441Y-142179494D01*
X177992445Y-142179499D01*
X178120500Y-142307554D01*
X178120505Y-142307558D01*
X178242815Y-142396420D01*
X178267006Y-142413996D01*
X178351934Y-142457269D01*
X178428360Y-142496211D01*
X178428363Y-142496212D01*
X178514476Y-142524191D01*
X178600591Y-142552171D01*
X178683429Y-142565291D01*
X178779449Y-142580500D01*
X178779454Y-142580500D01*
X178960551Y-142580500D01*
X179047259Y-142566765D01*
X179139409Y-142552171D01*
X179311639Y-142496211D01*
X179472994Y-142413996D01*
X179619501Y-142307553D01*
X179747553Y-142179501D01*
X179853996Y-142032994D01*
X179936211Y-141871639D01*
X179992171Y-141699409D01*
X180006422Y-141609425D01*
X180017527Y-141539321D01*
X180024418Y-141524782D01*
X180026481Y-141508824D01*
X180039077Y-141493860D01*
X180047456Y-141476186D01*
X180061116Y-141467679D01*
X180071478Y-141455372D01*
X180090162Y-141449594D01*
X180106768Y-141439255D01*
X180122857Y-141439484D01*
X180138229Y-141434732D01*
X180157071Y-141439973D01*
G37*
%TD.AperFunction*%
%TA.AperFunction,Conductor*%
G36*
X149696630Y-141440253D02*
G01*
X149754863Y-141478863D01*
X149782473Y-141539321D01*
X149807829Y-141699410D01*
X149863787Y-141871636D01*
X149863788Y-141871639D01*
X149946006Y-142032997D01*
X150052441Y-142179494D01*
X150052445Y-142179499D01*
X150180500Y-142307554D01*
X150180505Y-142307558D01*
X150302815Y-142396420D01*
X150327006Y-142413996D01*
X150411934Y-142457269D01*
X150488360Y-142496211D01*
X150488363Y-142496212D01*
X150574476Y-142524191D01*
X150660591Y-142552171D01*
X150743429Y-142565291D01*
X150839449Y-142580500D01*
X150839454Y-142580500D01*
X151020551Y-142580500D01*
X151107259Y-142566765D01*
X151199409Y-142552171D01*
X151371639Y-142496211D01*
X151532994Y-142413996D01*
X151557185Y-142396420D01*
X151577614Y-142381578D01*
X151643420Y-142358097D01*
X151711474Y-142373922D01*
X151760169Y-142424027D01*
X151774500Y-142481895D01*
X151774500Y-147361590D01*
X151754815Y-147428629D01*
X151738181Y-147449271D01*
X150835271Y-148352181D01*
X150773948Y-148385666D01*
X150747590Y-148388500D01*
X150130010Y-148388500D01*
X150062971Y-148368815D01*
X150042329Y-148352181D01*
X149186819Y-147496671D01*
X149153334Y-147435348D01*
X149150500Y-147408990D01*
X149150500Y-147284448D01*
X149128495Y-147145522D01*
X149122171Y-147105591D01*
X149084312Y-146989071D01*
X149066212Y-146933363D01*
X149066211Y-146933360D01*
X149009232Y-146821535D01*
X148983996Y-146772006D01*
X148954856Y-146731898D01*
X148877558Y-146625505D01*
X148877554Y-146625500D01*
X148749499Y-146497445D01*
X148749494Y-146497441D01*
X148602997Y-146391006D01*
X148602996Y-146391005D01*
X148602994Y-146391004D01*
X148551300Y-146364664D01*
X148441639Y-146308788D01*
X148441636Y-146308787D01*
X148269410Y-146252829D01*
X148090551Y-146224500D01*
X148090546Y-146224500D01*
X147909454Y-146224500D01*
X147909449Y-146224500D01*
X147730589Y-146252829D01*
X147558363Y-146308787D01*
X147558360Y-146308788D01*
X147397002Y-146391006D01*
X147250505Y-146497441D01*
X147250500Y-146497445D01*
X147122445Y-146625500D01*
X147122441Y-146625505D01*
X147016006Y-146772002D01*
X146933788Y-146933360D01*
X146933787Y-146933363D01*
X146877829Y-147105589D01*
X146872473Y-147139406D01*
X146842543Y-147202540D01*
X146783232Y-147239471D01*
X146713369Y-147238473D01*
X146655137Y-147199863D01*
X146627527Y-147139406D01*
X146624958Y-147123187D01*
X146622171Y-147105591D01*
X146584312Y-146989071D01*
X146566212Y-146933363D01*
X146566211Y-146933360D01*
X146509232Y-146821535D01*
X146483996Y-146772006D01*
X146454856Y-146731898D01*
X146377558Y-146625505D01*
X146377554Y-146625500D01*
X146249499Y-146497445D01*
X146249494Y-146497441D01*
X146102997Y-146391006D01*
X146102996Y-146391005D01*
X146102994Y-146391004D01*
X146051300Y-146364664D01*
X145941639Y-146308788D01*
X145941636Y-146308787D01*
X145769410Y-146252829D01*
X145590551Y-146224500D01*
X145590546Y-146224500D01*
X145409454Y-146224500D01*
X145409449Y-146224500D01*
X145230589Y-146252829D01*
X145058363Y-146308787D01*
X145058360Y-146308788D01*
X144897002Y-146391006D01*
X144750505Y-146497441D01*
X144750500Y-146497445D01*
X144622445Y-146625500D01*
X144622441Y-146625505D01*
X144516006Y-146772002D01*
X144433788Y-146933360D01*
X144433787Y-146933363D01*
X144392431Y-147060648D01*
X144352994Y-147118323D01*
X144288635Y-147145522D01*
X144219789Y-147133608D01*
X144168313Y-147086364D01*
X144150500Y-147022330D01*
X144150500Y-146731903D01*
X144150500Y-146731898D01*
X144139877Y-146643436D01*
X144084361Y-146502658D01*
X144084360Y-146502657D01*
X144084360Y-146502656D01*
X143992922Y-146382077D01*
X143872343Y-146290639D01*
X143731561Y-146235122D01*
X143685926Y-146229642D01*
X143643102Y-146224500D01*
X143643097Y-146224500D01*
X142412965Y-146224500D01*
X142345926Y-146204815D01*
X142325284Y-146188181D01*
X140049819Y-143912716D01*
X140016334Y-143851393D01*
X140013500Y-143825035D01*
X140013500Y-142538130D01*
X140033185Y-142471091D01*
X140085989Y-142425336D01*
X140155147Y-142415392D01*
X140193794Y-142427645D01*
X140221437Y-142441730D01*
X140328355Y-142496209D01*
X140328363Y-142496212D01*
X140414476Y-142524191D01*
X140500591Y-142552171D01*
X140583429Y-142565291D01*
X140679449Y-142580500D01*
X140679454Y-142580500D01*
X140860551Y-142580500D01*
X140947259Y-142566765D01*
X141039409Y-142552171D01*
X141211639Y-142496211D01*
X141372994Y-142413996D01*
X141519501Y-142307553D01*
X141647553Y-142179501D01*
X141753996Y-142032994D01*
X141836211Y-141871639D01*
X141892171Y-141699409D01*
X141906422Y-141609425D01*
X141917527Y-141539321D01*
X141947456Y-141476186D01*
X142006768Y-141439255D01*
X142076630Y-141440253D01*
X142134863Y-141478863D01*
X142162473Y-141539321D01*
X142187829Y-141699410D01*
X142243787Y-141871636D01*
X142243788Y-141871639D01*
X142326006Y-142032997D01*
X142432441Y-142179494D01*
X142432445Y-142179499D01*
X142560500Y-142307554D01*
X142560505Y-142307558D01*
X142682815Y-142396420D01*
X142707006Y-142413996D01*
X142791934Y-142457269D01*
X142868360Y-142496211D01*
X142868363Y-142496212D01*
X142954476Y-142524191D01*
X143040591Y-142552171D01*
X143123429Y-142565291D01*
X143219449Y-142580500D01*
X143219454Y-142580500D01*
X143400551Y-142580500D01*
X143487259Y-142566765D01*
X143579409Y-142552171D01*
X143751639Y-142496211D01*
X143912994Y-142413996D01*
X143937185Y-142396420D01*
X143957614Y-142381578D01*
X144023420Y-142358097D01*
X144091474Y-142373922D01*
X144140169Y-142424027D01*
X144154500Y-142481895D01*
X144154500Y-143640802D01*
X144134815Y-143707841D01*
X144118181Y-143728483D01*
X144004481Y-143842182D01*
X144004475Y-143842190D01*
X143925426Y-143979109D01*
X143925423Y-143979116D01*
X143884500Y-144131843D01*
X143884500Y-144289957D01*
X143897806Y-144339613D01*
X143925423Y-144442683D01*
X143925426Y-144442690D01*
X144004475Y-144579609D01*
X144004479Y-144579614D01*
X144004480Y-144579616D01*
X144116284Y-144691420D01*
X144116286Y-144691421D01*
X144116290Y-144691424D01*
X144253209Y-144770473D01*
X144253216Y-144770477D01*
X144405943Y-144811400D01*
X144405945Y-144811400D01*
X144564055Y-144811400D01*
X144564057Y-144811400D01*
X144716784Y-144770477D01*
X144853716Y-144691420D01*
X144965520Y-144579616D01*
X145044577Y-144442684D01*
X145085500Y-144289957D01*
X145085500Y-144131843D01*
X145044577Y-143979116D01*
X145022112Y-143940205D01*
X145005500Y-143878206D01*
X145005500Y-142481895D01*
X145025185Y-142414856D01*
X145077989Y-142369101D01*
X145147147Y-142359157D01*
X145202386Y-142381578D01*
X145247001Y-142413993D01*
X145247003Y-142413994D01*
X145247006Y-142413996D01*
X145322885Y-142452658D01*
X145408360Y-142496211D01*
X145408363Y-142496212D01*
X145494476Y-142524191D01*
X145580591Y-142552171D01*
X145663429Y-142565291D01*
X145759449Y-142580500D01*
X145759454Y-142580500D01*
X145940551Y-142580500D01*
X146027259Y-142566765D01*
X146119409Y-142552171D01*
X146291639Y-142496211D01*
X146452994Y-142413996D01*
X146599501Y-142307553D01*
X146727553Y-142179501D01*
X146833996Y-142032994D01*
X146916211Y-141871639D01*
X146972171Y-141699409D01*
X146986422Y-141609425D01*
X146997527Y-141539321D01*
X147027456Y-141476186D01*
X147086768Y-141439255D01*
X147156630Y-141440253D01*
X147214863Y-141478863D01*
X147242473Y-141539321D01*
X147267829Y-141699410D01*
X147323787Y-141871636D01*
X147323788Y-141871639D01*
X147406006Y-142032997D01*
X147512441Y-142179494D01*
X147512445Y-142179499D01*
X147640500Y-142307554D01*
X147640505Y-142307558D01*
X147762815Y-142396420D01*
X147787006Y-142413996D01*
X147871934Y-142457269D01*
X147948360Y-142496211D01*
X147948363Y-142496212D01*
X148034476Y-142524191D01*
X148120591Y-142552171D01*
X148203429Y-142565291D01*
X148299449Y-142580500D01*
X148299454Y-142580500D01*
X148480551Y-142580500D01*
X148567259Y-142566765D01*
X148659409Y-142552171D01*
X148831639Y-142496211D01*
X148992994Y-142413996D01*
X149139501Y-142307553D01*
X149267553Y-142179501D01*
X149373996Y-142032994D01*
X149456211Y-141871639D01*
X149512171Y-141699409D01*
X149526422Y-141609425D01*
X149537527Y-141539321D01*
X149567456Y-141476186D01*
X149626768Y-141439255D01*
X149696630Y-141440253D01*
G37*
%TD.AperFunction*%
%TA.AperFunction,Conductor*%
G36*
X177636630Y-118580253D02*
G01*
X177694863Y-118618863D01*
X177722473Y-118679321D01*
X177747829Y-118839410D01*
X177803787Y-119011636D01*
X177803788Y-119011639D01*
X177859664Y-119121300D01*
X177886003Y-119172993D01*
X177886006Y-119172997D01*
X177992441Y-119319494D01*
X177992445Y-119319499D01*
X178120500Y-119447554D01*
X178120505Y-119447558D01*
X178209287Y-119512061D01*
X178267006Y-119553996D01*
X178343094Y-119592765D01*
X178428360Y-119636211D01*
X178428363Y-119636212D01*
X178495145Y-119657910D01*
X178600591Y-119692171D01*
X178683429Y-119705291D01*
X178779449Y-119720500D01*
X178779454Y-119720500D01*
X178960551Y-119720500D01*
X179053718Y-119705743D01*
X179139409Y-119692171D01*
X179311639Y-119636211D01*
X179472994Y-119553996D01*
X179619501Y-119447553D01*
X179747553Y-119319501D01*
X179853996Y-119172994D01*
X179936211Y-119011639D01*
X179992171Y-118839409D01*
X180013027Y-118707729D01*
X180042956Y-118644595D01*
X180102267Y-118607663D01*
X180172130Y-118608661D01*
X180230363Y-118647271D01*
X180258477Y-118711234D01*
X180259500Y-118727127D01*
X180259500Y-119464856D01*
X180259502Y-119464882D01*
X180262413Y-119489987D01*
X180262415Y-119489991D01*
X180307793Y-119592764D01*
X180307794Y-119592765D01*
X180387235Y-119672206D01*
X180490009Y-119717585D01*
X180515135Y-119720500D01*
X182098200Y-119720499D01*
X182165239Y-119740184D01*
X182210994Y-119792987D01*
X182222200Y-119844499D01*
X182222200Y-121437515D01*
X182205588Y-121499513D01*
X182197218Y-121514010D01*
X182197216Y-121514013D01*
X182178736Y-121582982D01*
X182159700Y-121654025D01*
X182159700Y-121654027D01*
X182159700Y-124929712D01*
X182140015Y-124996751D01*
X182123381Y-125017393D01*
X176093329Y-131047444D01*
X176032006Y-131080929D01*
X176029840Y-131081380D01*
X175942677Y-131098718D01*
X175942667Y-131098721D01*
X175815195Y-131151521D01*
X175815182Y-131151528D01*
X175700458Y-131228185D01*
X175700454Y-131228188D01*
X175602888Y-131325754D01*
X175602885Y-131325758D01*
X175526228Y-131440482D01*
X175526221Y-131440495D01*
X175473421Y-131567967D01*
X175473418Y-131567977D01*
X175446500Y-131703304D01*
X175446500Y-131703307D01*
X175446500Y-131841293D01*
X175446500Y-131841295D01*
X175446499Y-131841295D01*
X175473418Y-131976622D01*
X175473421Y-131976632D01*
X175526221Y-132104104D01*
X175526228Y-132104117D01*
X175602885Y-132218841D01*
X175602888Y-132218845D01*
X175700454Y-132316411D01*
X175700458Y-132316414D01*
X175815182Y-132393071D01*
X175815195Y-132393078D01*
X175908619Y-132431775D01*
X175942672Y-132445880D01*
X176029842Y-132463219D01*
X176091749Y-132495602D01*
X176093329Y-132497154D01*
X182138481Y-138542306D01*
X182171966Y-138603629D01*
X182174800Y-138629987D01*
X182174800Y-140326098D01*
X182155115Y-140393137D01*
X182102311Y-140438892D01*
X182033153Y-140448836D01*
X181994505Y-140436583D01*
X181851639Y-140363788D01*
X181851636Y-140363787D01*
X181679410Y-140307829D01*
X181500551Y-140279500D01*
X181500546Y-140279500D01*
X181319454Y-140279500D01*
X181319449Y-140279500D01*
X181140589Y-140307829D01*
X180968363Y-140363787D01*
X180968360Y-140363788D01*
X180807002Y-140446006D01*
X180660505Y-140552441D01*
X180660500Y-140552445D01*
X180532445Y-140680500D01*
X180532441Y-140680505D01*
X180426006Y-140827002D01*
X180343788Y-140988360D01*
X180343787Y-140988363D01*
X180287829Y-141160589D01*
X180262473Y-141320678D01*
X180232544Y-141383813D01*
X180173232Y-141420744D01*
X180103369Y-141419746D01*
X180045137Y-141381136D01*
X180017527Y-141320678D01*
X180003740Y-141233639D01*
X179992171Y-141160591D01*
X179936211Y-140988361D01*
X179936211Y-140988360D01*
X179907740Y-140932484D01*
X179853996Y-140827006D01*
X179840396Y-140808287D01*
X179747558Y-140680505D01*
X179747554Y-140680500D01*
X179619499Y-140552445D01*
X179619494Y-140552441D01*
X179472997Y-140446006D01*
X179472996Y-140446005D01*
X179472994Y-140446004D01*
X179383237Y-140400270D01*
X179311639Y-140363788D01*
X179311636Y-140363787D01*
X179139410Y-140307829D01*
X178960551Y-140279500D01*
X178960546Y-140279500D01*
X178779454Y-140279500D01*
X178779449Y-140279500D01*
X178600589Y-140307829D01*
X178428363Y-140363787D01*
X178428360Y-140363788D01*
X178267002Y-140446006D01*
X178120505Y-140552441D01*
X178120500Y-140552445D01*
X177992445Y-140680500D01*
X177992441Y-140680505D01*
X177886006Y-140827002D01*
X177803788Y-140988360D01*
X177803787Y-140988363D01*
X177747829Y-141160589D01*
X177722473Y-141320678D01*
X177692544Y-141383813D01*
X177633232Y-141420744D01*
X177563369Y-141419746D01*
X177505137Y-141381136D01*
X177477527Y-141320678D01*
X177463740Y-141233639D01*
X177452171Y-141160591D01*
X177396211Y-140988361D01*
X177396211Y-140988360D01*
X177367740Y-140932484D01*
X177313996Y-140827006D01*
X177300396Y-140808287D01*
X177207558Y-140680505D01*
X177207554Y-140680500D01*
X177079499Y-140552445D01*
X177079494Y-140552441D01*
X176932997Y-140446006D01*
X176932996Y-140446005D01*
X176932994Y-140446004D01*
X176843237Y-140400270D01*
X176771639Y-140363788D01*
X176771636Y-140363787D01*
X176599410Y-140307829D01*
X176420551Y-140279500D01*
X176420546Y-140279500D01*
X176239454Y-140279500D01*
X176239449Y-140279500D01*
X176060589Y-140307829D01*
X175888363Y-140363787D01*
X175888360Y-140363788D01*
X175727002Y-140446006D01*
X175580505Y-140552441D01*
X175580500Y-140552445D01*
X175452445Y-140680500D01*
X175452441Y-140680505D01*
X175346006Y-140827002D01*
X175263788Y-140988360D01*
X175263787Y-140988363D01*
X175207829Y-141160589D01*
X175182473Y-141320678D01*
X175152544Y-141383813D01*
X175093232Y-141420744D01*
X175023369Y-141419746D01*
X174965137Y-141381136D01*
X174937527Y-141320678D01*
X174923740Y-141233639D01*
X174912171Y-141160591D01*
X174856211Y-140988361D01*
X174856211Y-140988360D01*
X174827740Y-140932484D01*
X174773996Y-140827006D01*
X174760396Y-140808287D01*
X174667558Y-140680505D01*
X174667554Y-140680500D01*
X174539499Y-140552445D01*
X174539494Y-140552441D01*
X174392997Y-140446006D01*
X174392996Y-140446005D01*
X174392994Y-140446004D01*
X174303237Y-140400270D01*
X174231639Y-140363788D01*
X174231636Y-140363787D01*
X174059410Y-140307829D01*
X173880551Y-140279500D01*
X173880546Y-140279500D01*
X173699454Y-140279500D01*
X173699449Y-140279500D01*
X173520589Y-140307829D01*
X173348363Y-140363787D01*
X173348360Y-140363788D01*
X173211195Y-140433679D01*
X173142526Y-140446575D01*
X173077786Y-140420299D01*
X173037528Y-140363193D01*
X173030900Y-140323194D01*
X173030900Y-139726110D01*
X173050585Y-139659071D01*
X173067219Y-139638429D01*
X173597412Y-139108236D01*
X174135085Y-138570563D01*
X174191103Y-138473537D01*
X174220100Y-138365318D01*
X174220100Y-138253281D01*
X174220100Y-124355498D01*
X174228744Y-124326057D01*
X174235268Y-124296071D01*
X174239022Y-124291055D01*
X174239785Y-124288459D01*
X174256419Y-124267817D01*
X174274113Y-124250123D01*
X174335436Y-124216638D01*
X174405128Y-124221622D01*
X174449475Y-124250123D01*
X175109981Y-124910629D01*
X175143466Y-124971952D01*
X175146300Y-124998310D01*
X175146300Y-125228102D01*
X175126615Y-125295141D01*
X175109981Y-125315783D01*
X175091281Y-125334482D01*
X175091275Y-125334490D01*
X175012226Y-125471409D01*
X175012223Y-125471416D01*
X174971300Y-125624143D01*
X174971300Y-125782257D01*
X175011476Y-125932194D01*
X175012223Y-125934983D01*
X175012226Y-125934990D01*
X175091275Y-126071909D01*
X175091279Y-126071914D01*
X175091280Y-126071916D01*
X175203084Y-126183720D01*
X175203086Y-126183721D01*
X175203090Y-126183724D01*
X175304316Y-126242166D01*
X175340016Y-126262777D01*
X175492743Y-126303700D01*
X175492745Y-126303700D01*
X175650855Y-126303700D01*
X175650857Y-126303700D01*
X175803584Y-126262777D01*
X175940516Y-126183720D01*
X176052320Y-126071916D01*
X176131377Y-125934984D01*
X176172300Y-125782257D01*
X176172300Y-125624143D01*
X176131377Y-125471416D01*
X176126506Y-125462979D01*
X176052324Y-125334490D01*
X176052318Y-125334482D01*
X176033619Y-125315783D01*
X176000134Y-125254460D01*
X175997300Y-125228102D01*
X175997300Y-124714684D01*
X175997300Y-124714682D01*
X175968303Y-124606463D01*
X175912285Y-124509437D01*
X175833063Y-124430215D01*
X174794329Y-123391481D01*
X174760844Y-123330158D01*
X174765828Y-123260466D01*
X174807700Y-123204533D01*
X174873164Y-123180116D01*
X174882010Y-123179800D01*
X178183890Y-123179800D01*
X178250929Y-123199485D01*
X178271571Y-123216119D01*
X180017481Y-124962029D01*
X180050966Y-125023352D01*
X180053800Y-125049710D01*
X180053800Y-125076157D01*
X180094514Y-125228102D01*
X180094723Y-125228883D01*
X180094726Y-125228890D01*
X180173775Y-125365809D01*
X180173779Y-125365814D01*
X180173780Y-125365816D01*
X180285584Y-125477620D01*
X180285586Y-125477621D01*
X180285590Y-125477624D01*
X180405954Y-125547115D01*
X180422516Y-125556677D01*
X180575243Y-125597600D01*
X180575245Y-125597600D01*
X180733355Y-125597600D01*
X180733357Y-125597600D01*
X180886084Y-125556677D01*
X181023016Y-125477620D01*
X181134820Y-125365816D01*
X181213877Y-125228884D01*
X181254800Y-125076157D01*
X181254800Y-124918043D01*
X181213877Y-124765316D01*
X181180179Y-124706948D01*
X181134824Y-124628390D01*
X181134818Y-124628382D01*
X181023017Y-124516581D01*
X181023009Y-124516575D01*
X180886090Y-124437526D01*
X180886086Y-124437524D01*
X180886084Y-124437523D01*
X180733357Y-124396600D01*
X180733356Y-124396600D01*
X180706910Y-124396600D01*
X180639871Y-124376915D01*
X180619229Y-124360281D01*
X178672765Y-122413817D01*
X178672763Y-122413815D01*
X178575737Y-122357797D01*
X178467518Y-122328800D01*
X178467517Y-122328800D01*
X178019040Y-122328800D01*
X177952001Y-122309115D01*
X177906246Y-122256311D01*
X177896302Y-122187153D01*
X177899262Y-122172717D01*
X177924600Y-122078157D01*
X177924600Y-121920043D01*
X177883677Y-121767316D01*
X177858553Y-121723800D01*
X177804624Y-121630390D01*
X177804618Y-121630382D01*
X177692817Y-121518581D01*
X177692809Y-121518575D01*
X177555890Y-121439526D01*
X177555886Y-121439524D01*
X177555884Y-121439523D01*
X177403157Y-121398600D01*
X177403156Y-121398600D01*
X177376710Y-121398600D01*
X177309671Y-121378915D01*
X177289029Y-121362281D01*
X177218965Y-121292217D01*
X177218963Y-121292215D01*
X177121937Y-121236197D01*
X177013718Y-121207200D01*
X177013716Y-121207200D01*
X177012384Y-121206843D01*
X176956797Y-121174749D01*
X175195165Y-119413117D01*
X175195163Y-119413115D01*
X175098137Y-119357097D01*
X174989918Y-119328100D01*
X174989917Y-119328100D01*
X174897315Y-119328100D01*
X174830276Y-119308415D01*
X174784521Y-119255611D01*
X174774577Y-119186453D01*
X174786831Y-119147804D01*
X174856209Y-119011644D01*
X174856212Y-119011636D01*
X174889803Y-118908251D01*
X174912171Y-118839409D01*
X174933027Y-118707729D01*
X174937527Y-118679321D01*
X174967456Y-118616186D01*
X175026768Y-118579255D01*
X175096630Y-118580253D01*
X175154863Y-118618863D01*
X175182473Y-118679321D01*
X175207829Y-118839410D01*
X175263787Y-119011636D01*
X175263788Y-119011639D01*
X175319664Y-119121300D01*
X175346003Y-119172993D01*
X175346006Y-119172997D01*
X175452441Y-119319494D01*
X175452445Y-119319499D01*
X175580500Y-119447554D01*
X175580505Y-119447558D01*
X175669287Y-119512061D01*
X175727006Y-119553996D01*
X175803094Y-119592765D01*
X175888360Y-119636211D01*
X175888363Y-119636212D01*
X175955145Y-119657910D01*
X176060591Y-119692171D01*
X176143429Y-119705291D01*
X176239449Y-119720500D01*
X176239454Y-119720500D01*
X176420551Y-119720500D01*
X176513718Y-119705743D01*
X176599409Y-119692171D01*
X176771639Y-119636211D01*
X176932994Y-119553996D01*
X177079501Y-119447553D01*
X177207553Y-119319501D01*
X177313996Y-119172994D01*
X177396211Y-119011639D01*
X177452171Y-118839409D01*
X177473027Y-118707729D01*
X177477527Y-118679321D01*
X177507456Y-118616186D01*
X177566768Y-118579255D01*
X177636630Y-118580253D01*
G37*
%TD.AperFunction*%
%TA.AperFunction,Conductor*%
G36*
X117296630Y-102240253D02*
G01*
X117354863Y-102278863D01*
X117382473Y-102339321D01*
X117407829Y-102499410D01*
X117463787Y-102671636D01*
X117463788Y-102671639D01*
X117506041Y-102754563D01*
X117542964Y-102827028D01*
X117546006Y-102832997D01*
X117652441Y-102979494D01*
X117652445Y-102979499D01*
X117780500Y-103107554D01*
X117780505Y-103107558D01*
X117863422Y-103167800D01*
X117927006Y-103213996D01*
X118014705Y-103258681D01*
X118088360Y-103296211D01*
X118088363Y-103296212D01*
X118137260Y-103312099D01*
X118260591Y-103352171D01*
X118343429Y-103365291D01*
X118439449Y-103380500D01*
X118439454Y-103380500D01*
X118620551Y-103380500D01*
X118799409Y-103352171D01*
X118823498Y-103344344D01*
X118916600Y-103314093D01*
X118986439Y-103312099D01*
X119042597Y-103344344D01*
X119455174Y-103756921D01*
X119455184Y-103756932D01*
X119459514Y-103761262D01*
X119459515Y-103761263D01*
X119538737Y-103840485D01*
X119627264Y-103891596D01*
X119627266Y-103891598D01*
X119635761Y-103896502D01*
X119635763Y-103896503D01*
X119743981Y-103925500D01*
X119743982Y-103925500D01*
X120018104Y-103925500D01*
X120085143Y-103945185D01*
X120130898Y-103997989D01*
X120140842Y-104067147D01*
X120118422Y-104122385D01*
X120086006Y-104167002D01*
X120003788Y-104328360D01*
X120003787Y-104328363D01*
X119947829Y-104500589D01*
X119919500Y-104679448D01*
X119919500Y-104860551D01*
X119947829Y-105039410D01*
X120003787Y-105211636D01*
X120003788Y-105211639D01*
X120086006Y-105372997D01*
X120192441Y-105519494D01*
X120192445Y-105519499D01*
X120320500Y-105647554D01*
X120320505Y-105647558D01*
X120448287Y-105740396D01*
X120467006Y-105753996D01*
X120543094Y-105792765D01*
X120628360Y-105836211D01*
X120628363Y-105836212D01*
X120677260Y-105852099D01*
X120800591Y-105892171D01*
X120883429Y-105905291D01*
X120979449Y-105920500D01*
X120979454Y-105920500D01*
X121160551Y-105920500D01*
X121247259Y-105906765D01*
X121339409Y-105892171D01*
X121511639Y-105836211D01*
X121672994Y-105753996D01*
X121819501Y-105647553D01*
X121947553Y-105519501D01*
X122053996Y-105372994D01*
X122136211Y-105211639D01*
X122192171Y-105039409D01*
X122206422Y-104949425D01*
X122217527Y-104879321D01*
X122247456Y-104816186D01*
X122306768Y-104779255D01*
X122376630Y-104780253D01*
X122434863Y-104818863D01*
X122462473Y-104879321D01*
X122487829Y-105039410D01*
X122543787Y-105211636D01*
X122543788Y-105211639D01*
X122626006Y-105372997D01*
X122732441Y-105519494D01*
X122732445Y-105519499D01*
X122860500Y-105647554D01*
X122860505Y-105647558D01*
X122988287Y-105740396D01*
X123007006Y-105753996D01*
X123083094Y-105792765D01*
X123168360Y-105836211D01*
X123168363Y-105836212D01*
X123217260Y-105852099D01*
X123340591Y-105892171D01*
X123423429Y-105905291D01*
X123519449Y-105920500D01*
X123519454Y-105920500D01*
X123700551Y-105920500D01*
X123828305Y-105900265D01*
X123879409Y-105892171D01*
X123996600Y-105854093D01*
X124066438Y-105852099D01*
X124122596Y-105884344D01*
X135478116Y-117239864D01*
X135511601Y-117301187D01*
X135506617Y-117370879D01*
X135464745Y-117426812D01*
X135424957Y-117445500D01*
X135425225Y-117446323D01*
X135248363Y-117503787D01*
X135248360Y-117503788D01*
X135087002Y-117586006D01*
X134940505Y-117692441D01*
X134940500Y-117692445D01*
X134812445Y-117820500D01*
X134812441Y-117820505D01*
X134706006Y-117967002D01*
X134623788Y-118128360D01*
X134623787Y-118128363D01*
X134567829Y-118300589D01*
X134542473Y-118460678D01*
X134512544Y-118523813D01*
X134453232Y-118560744D01*
X134383369Y-118559746D01*
X134325137Y-118521136D01*
X134297527Y-118460678D01*
X134281245Y-118357880D01*
X134272171Y-118300591D01*
X134232183Y-118177519D01*
X134216212Y-118128363D01*
X134216211Y-118128360D01*
X134187740Y-118072484D01*
X134133996Y-117967006D01*
X134105938Y-117928387D01*
X134027558Y-117820505D01*
X134027554Y-117820500D01*
X133899499Y-117692445D01*
X133899494Y-117692441D01*
X133752997Y-117586006D01*
X133752996Y-117586005D01*
X133752994Y-117586004D01*
X133676906Y-117547235D01*
X133591639Y-117503788D01*
X133591636Y-117503787D01*
X133419410Y-117447829D01*
X133240551Y-117419500D01*
X133240546Y-117419500D01*
X133059454Y-117419500D01*
X133059449Y-117419500D01*
X132880589Y-117447829D01*
X132708363Y-117503787D01*
X132708360Y-117503788D01*
X132547002Y-117586006D01*
X132502385Y-117618422D01*
X132436578Y-117641902D01*
X132368525Y-117626076D01*
X132319830Y-117575970D01*
X132305500Y-117518104D01*
X132305500Y-117338784D01*
X132305500Y-117338782D01*
X132276503Y-117230563D01*
X132220485Y-117133537D01*
X132141263Y-117054315D01*
X132044237Y-116998297D01*
X131936018Y-116969300D01*
X131823982Y-116969300D01*
X131722935Y-116996375D01*
X131690844Y-117000600D01*
X130362245Y-117000600D01*
X130295206Y-116980915D01*
X130274564Y-116964281D01*
X127145896Y-113835613D01*
X127126190Y-113809932D01*
X127083612Y-113736185D01*
X127073885Y-113719337D01*
X125514063Y-112159515D01*
X125417037Y-112103497D01*
X125308818Y-112074500D01*
X125308817Y-112074500D01*
X114600421Y-112074500D01*
X114533382Y-112054815D01*
X114489937Y-112006796D01*
X114433996Y-111897006D01*
X114433994Y-111897003D01*
X114433993Y-111897001D01*
X114327558Y-111750505D01*
X114327554Y-111750500D01*
X114199499Y-111622445D01*
X114199494Y-111622441D01*
X114052997Y-111516006D01*
X114052996Y-111516005D01*
X114052994Y-111516004D01*
X114001300Y-111489664D01*
X113891639Y-111433788D01*
X113891636Y-111433787D01*
X113764351Y-111392431D01*
X113706676Y-111352994D01*
X113679477Y-111288636D01*
X113691391Y-111219789D01*
X113738635Y-111168313D01*
X113802669Y-111150500D01*
X114093097Y-111150500D01*
X114093102Y-111150500D01*
X114181564Y-111139877D01*
X114322342Y-111084361D01*
X114442922Y-110992922D01*
X114534361Y-110872342D01*
X114589877Y-110731564D01*
X114600500Y-110643102D01*
X114600500Y-109356898D01*
X114589877Y-109268436D01*
X114534361Y-109127658D01*
X114534360Y-109127657D01*
X114534360Y-109127656D01*
X114442922Y-109007077D01*
X114322343Y-108915639D01*
X114181561Y-108860122D01*
X114135926Y-108854642D01*
X114093102Y-108849500D01*
X112506898Y-108849500D01*
X112467853Y-108854188D01*
X112418438Y-108860122D01*
X112277656Y-108915639D01*
X112157077Y-109007077D01*
X112065639Y-109127656D01*
X112010122Y-109268438D01*
X112009204Y-109276085D01*
X111999500Y-109356898D01*
X111999500Y-110643102D01*
X112002734Y-110670030D01*
X112010122Y-110731561D01*
X112065639Y-110872343D01*
X112157077Y-110992922D01*
X112277656Y-111084360D01*
X112277657Y-111084360D01*
X112277658Y-111084361D01*
X112418436Y-111139877D01*
X112506898Y-111150500D01*
X112506903Y-111150500D01*
X112797331Y-111150500D01*
X112864370Y-111170185D01*
X112910125Y-111222989D01*
X112920069Y-111292147D01*
X112891044Y-111355703D01*
X112835649Y-111392431D01*
X112708363Y-111433787D01*
X112708360Y-111433788D01*
X112547002Y-111516006D01*
X112400505Y-111622441D01*
X112400500Y-111622445D01*
X112272445Y-111750500D01*
X112272441Y-111750505D01*
X112166006Y-111897002D01*
X112083788Y-112058360D01*
X112083787Y-112058363D01*
X112037947Y-112199447D01*
X111998510Y-112257123D01*
X111934151Y-112284321D01*
X111865305Y-112272406D01*
X111832335Y-112248810D01*
X110550319Y-110966794D01*
X110516834Y-110905471D01*
X110514000Y-110879113D01*
X110514000Y-110849827D01*
X110514000Y-110849825D01*
X110476484Y-110709815D01*
X110439361Y-110645516D01*
X110404010Y-110584285D01*
X107614319Y-107794594D01*
X107580834Y-107733271D01*
X107578000Y-107706913D01*
X107578000Y-106044499D01*
X107597685Y-105977460D01*
X107650489Y-105931705D01*
X107702000Y-105920499D01*
X109264856Y-105920499D01*
X109264864Y-105920499D01*
X109264879Y-105920497D01*
X109264882Y-105920497D01*
X109289987Y-105917586D01*
X109289988Y-105917585D01*
X109289991Y-105917585D01*
X109392765Y-105872206D01*
X109472206Y-105792765D01*
X109517585Y-105689991D01*
X109520500Y-105664865D01*
X109520499Y-104927125D01*
X109540183Y-104860089D01*
X109592987Y-104814334D01*
X109662146Y-104804390D01*
X109725702Y-104833415D01*
X109763476Y-104892193D01*
X109766972Y-104907729D01*
X109787829Y-105039410D01*
X109843787Y-105211636D01*
X109843788Y-105211639D01*
X109926006Y-105372997D01*
X110032441Y-105519494D01*
X110032445Y-105519499D01*
X110160500Y-105647554D01*
X110160505Y-105647558D01*
X110288287Y-105740396D01*
X110307006Y-105753996D01*
X110383094Y-105792765D01*
X110468360Y-105836211D01*
X110468363Y-105836212D01*
X110517260Y-105852099D01*
X110640591Y-105892171D01*
X110723429Y-105905291D01*
X110819449Y-105920500D01*
X110819454Y-105920500D01*
X111000551Y-105920500D01*
X111087259Y-105906765D01*
X111179409Y-105892171D01*
X111351639Y-105836211D01*
X111512994Y-105753996D01*
X111659501Y-105647553D01*
X111787553Y-105519501D01*
X111893996Y-105372994D01*
X111976211Y-105211639D01*
X112032171Y-105039409D01*
X112046422Y-104949425D01*
X112057527Y-104879321D01*
X112087456Y-104816186D01*
X112146768Y-104779255D01*
X112216630Y-104780253D01*
X112274863Y-104818863D01*
X112302473Y-104879321D01*
X112327829Y-105039410D01*
X112383787Y-105211636D01*
X112383788Y-105211639D01*
X112466006Y-105372997D01*
X112572441Y-105519494D01*
X112572445Y-105519499D01*
X112700500Y-105647554D01*
X112700505Y-105647558D01*
X112828287Y-105740396D01*
X112847006Y-105753996D01*
X112923094Y-105792765D01*
X113008360Y-105836211D01*
X113008363Y-105836212D01*
X113057260Y-105852099D01*
X113180591Y-105892171D01*
X113263429Y-105905291D01*
X113359449Y-105920500D01*
X113359454Y-105920500D01*
X113540551Y-105920500D01*
X113627259Y-105906765D01*
X113719409Y-105892171D01*
X113891639Y-105836211D01*
X114052994Y-105753996D01*
X114199501Y-105647553D01*
X114327553Y-105519501D01*
X114433996Y-105372994D01*
X114516211Y-105211639D01*
X114572171Y-105039409D01*
X114586422Y-104949425D01*
X114597527Y-104879321D01*
X114627456Y-104816186D01*
X114686768Y-104779255D01*
X114756630Y-104780253D01*
X114814863Y-104818863D01*
X114842473Y-104879321D01*
X114867829Y-105039410D01*
X114923787Y-105211636D01*
X114923788Y-105211639D01*
X115006006Y-105372997D01*
X115112441Y-105519494D01*
X115112445Y-105519499D01*
X115240500Y-105647554D01*
X115240505Y-105647558D01*
X115368287Y-105740396D01*
X115387006Y-105753996D01*
X115463094Y-105792765D01*
X115548360Y-105836211D01*
X115548363Y-105836212D01*
X115597260Y-105852099D01*
X115720591Y-105892171D01*
X115803429Y-105905291D01*
X115899449Y-105920500D01*
X115899454Y-105920500D01*
X116080551Y-105920500D01*
X116167259Y-105906765D01*
X116259409Y-105892171D01*
X116431639Y-105836211D01*
X116592994Y-105753996D01*
X116739501Y-105647553D01*
X116867553Y-105519501D01*
X116973996Y-105372994D01*
X117056211Y-105211639D01*
X117112171Y-105039409D01*
X117126765Y-104947259D01*
X117140500Y-104860551D01*
X117140500Y-104679448D01*
X117118832Y-104542649D01*
X117112171Y-104500591D01*
X117074095Y-104383402D01*
X117056212Y-104328363D01*
X117056211Y-104328360D01*
X116988967Y-104196389D01*
X116973996Y-104167006D01*
X116941577Y-104122385D01*
X116867558Y-104020505D01*
X116867554Y-104020500D01*
X116739499Y-103892445D01*
X116739494Y-103892441D01*
X116592997Y-103786006D01*
X116592996Y-103786005D01*
X116592994Y-103786004D01*
X116516906Y-103747235D01*
X116431639Y-103703788D01*
X116431636Y-103703787D01*
X116259410Y-103647829D01*
X116099321Y-103622473D01*
X116036186Y-103592544D01*
X115999255Y-103533232D01*
X116000253Y-103463370D01*
X116038863Y-103405137D01*
X116099321Y-103377527D01*
X116169425Y-103366422D01*
X116259409Y-103352171D01*
X116431639Y-103296211D01*
X116592994Y-103213996D01*
X116739501Y-103107553D01*
X116867553Y-102979501D01*
X116973996Y-102832994D01*
X117056211Y-102671639D01*
X117112171Y-102499409D01*
X117128026Y-102399304D01*
X117137527Y-102339321D01*
X117167456Y-102276186D01*
X117226768Y-102239255D01*
X117296630Y-102240253D01*
G37*
%TD.AperFunction*%
%TD*%
M02*
