M48
; DRILL file {KiCad 9.0.8+dfsg-1} date 2026-10-08T16:17:40+0530
; FORMAT={-:-/ absolute / metric / decimal}
; #@! TF.CreationDate,2026-10-08T16:17:40+05:30
; #@! TF.GenerationSoftware,Kicad,Pcbnew,9.0.8+dfsg-1
; #@! TF.FileFunction,MixedPlating,1,2
FMAT,2
METRIC
; #@! TA.AperFunction,Plated,PTH,ViaDrill
T1C0.300
; #@! TA.AperFunction,Plated,PTH,ViaDrill
T2C0.400
; #@! TA.AperFunction,Plated,PTH,ComponentDrill
T3C0.950
; #@! TA.AperFunction,Plated,PTH,ComponentDrill
T4C1.000
; #@! TA.AperFunction,NonPlated,NPTH,ComponentDrill
T5C2.700
%
G90
G05
T1
X105.625Y-106.124
X109.212Y-111.234
X110.557Y-124.819
X137.805Y-135.115
X142.436Y-125.801
X142.586Y-121.13
X144.217Y-130.145
X144.485Y-144.211
X144.935Y-122.795
X145.704Y-128.834
X146.518Y-122.929
X146.6Y-113.714
X148.398Y-123.745
X149.471Y-115.629
X150.315Y-113.899
X150.424Y-128.499
X151.333Y-125.507
X152.599Y-129.675
X153.361Y-125.561
X154.637Y-125.063
X155.193Y-122.018
X156.86Y-123.515
X157.546Y-127.899
X157.924Y-125.742
X157.93Y-129.644
X159.534Y-117.521
X159.919Y-123.922
X162.775Y-122.098
X164.109Y-123.747
X164.544Y-128.982
X164.9Y-119.247
X165.593Y-125.718
X166.997Y-135.515
X167.26Y-121.952
X168.007Y-130.478
X168.641Y-121.489
X168.702Y-123.773
X170.312Y-120.93
X170.458Y-125.383
X170.647Y-123.813
X171.238Y-128.982
X172.044Y-123.791
X172.16Y-122.063
X172.219Y-125.706
X173.795Y-123.88
X173.993Y-122.018
X175.572Y-125.703
X177.324Y-121.999
X180.654Y-124.997
T2
X119.098Y-113.264
X125.923Y-133.094
X130.767Y-124.709
X132.724Y-133.916
X135.009Y-113.508
X135.682Y-125.646
X149.432Y-129.943
X152.139Y-131.811
X173.592Y-139.941
X175.712Y-127.483
X176.147Y-131.772
T3
X104.5Y-110.0
X104.5Y-112.5
X104.5Y-115.0
X104.5Y-117.5
X104.5Y-124.0
X104.5Y-126.5
X104.5Y-129.0
X104.5Y-131.5
X111.0Y-147.5
X113.5Y-147.5
X116.0Y-147.5
X118.5Y-147.5
X127.0Y-147.5
X129.5Y-147.5
X132.0Y-147.5
X134.5Y-147.5
X143.0Y-147.5
X145.5Y-147.5
X148.0Y-147.5
X150.5Y-147.5
X168.5Y-147.5
X171.0Y-147.5
X173.5Y-147.5
X176.0Y-147.5
T4
X104.5Y-138.0
X104.5Y-140.5
X108.37Y-102.23
X108.37Y-104.77
X110.91Y-102.23
X110.91Y-104.77
X113.3Y-110.0
X113.3Y-112.5
X113.45Y-102.23
X113.45Y-104.77
X115.99Y-102.23
X115.99Y-104.77
X118.53Y-102.23
X118.53Y-104.77
X121.07Y-102.23
X121.07Y-104.77
X122.99Y-118.57
X122.99Y-141.43
X123.61Y-102.23
X123.61Y-104.77
X125.53Y-118.57
X125.53Y-141.43
X126.15Y-102.23
X126.15Y-104.77
X128.07Y-118.57
X128.07Y-141.43
X128.69Y-102.23
X128.69Y-104.77
X130.61Y-118.57
X130.61Y-141.43
X131.23Y-102.23
X131.23Y-104.77
X133.15Y-118.57
X133.15Y-141.43
X133.77Y-102.23
X133.77Y-104.77
X135.69Y-118.57
X135.69Y-141.43
X136.31Y-102.23
X136.31Y-104.77
X138.23Y-118.57
X138.23Y-141.43
X138.85Y-102.23
X138.85Y-104.77
X140.77Y-118.57
X140.77Y-141.43
X141.39Y-102.23
X141.39Y-104.77
X143.31Y-118.57
X143.31Y-141.43
X143.93Y-102.23
X143.93Y-104.77
X145.85Y-118.57
X145.85Y-141.43
X146.47Y-102.23
X146.47Y-104.77
X148.39Y-118.57
X148.39Y-141.43
X149.01Y-102.23
X149.01Y-104.77
X150.93Y-118.57
X150.93Y-141.43
X151.55Y-102.23
X151.55Y-104.77
X153.47Y-118.57
X153.47Y-141.43
X154.09Y-102.23
X154.09Y-104.77
X156.01Y-118.57
X156.01Y-141.43
X156.63Y-102.23
X156.63Y-104.77
X158.55Y-118.57
X158.55Y-141.43
X161.09Y-118.57
X161.09Y-141.43
X163.63Y-118.57
X163.63Y-141.43
X166.17Y-118.57
X166.17Y-141.43
X166.5Y-109.5
X168.71Y-118.57
X168.71Y-141.43
X171.25Y-118.57
X171.25Y-141.43
X173.79Y-118.57
X173.79Y-141.43
X174.1Y-109.5
X176.33Y-118.57
X176.33Y-141.43
X178.87Y-118.57
X178.87Y-141.43
X181.41Y-118.57
X181.41Y-141.43
T5
X103.5Y-103.5
X103.5Y-152.5
X161.5Y-103.5
X161.5Y-152.5
M30
