%TF.GenerationSoftware,KiCad,Pcbnew,9.0.8+dfsg-1*%
%TF.CreationDate,2026-10-08T16:17:40+05:30*%
%TF.ProjectId,VisionAid_Carrier,56697369-6f6e-4416-9964-5f4361727269,v0.1*%
%TF.SameCoordinates,Original*%
%TF.FileFunction,Legend,Bot*%
%TF.FilePolarity,Positive*%
%FSLAX46Y46*%
G04 Gerber Fmt 4.6, Leading zero omitted, Abs format (unit mm)*
G04 Created by KiCad (PCBNEW 9.0.8+dfsg-1) date 2026-10-08 16:17:40*
%MOMM*%
%LPD*%
G01*
G04 APERTURE LIST*
%ADD10C,0.150000*%
%ADD11C,0.180000*%
%ADD12C,0.300000*%
G04 APERTURE END LIST*
D10*
X164857146Y-132931009D02*
X165190479Y-132931009D01*
X165190479Y-133454819D02*
X165190479Y-132454819D01*
X165190479Y-132454819D02*
X164714289Y-132454819D01*
X164333336Y-133454819D02*
X164333336Y-132454819D01*
X164333336Y-132454819D02*
X163952384Y-132454819D01*
X163952384Y-132454819D02*
X163857146Y-132502438D01*
X163857146Y-132502438D02*
X163809527Y-132550057D01*
X163809527Y-132550057D02*
X163761908Y-132645295D01*
X163761908Y-132645295D02*
X163761908Y-132788152D01*
X163761908Y-132788152D02*
X163809527Y-132883390D01*
X163809527Y-132883390D02*
X163857146Y-132931009D01*
X163857146Y-132931009D02*
X163952384Y-132978628D01*
X163952384Y-132978628D02*
X164333336Y-132978628D01*
X162809527Y-132502438D02*
X162904765Y-132454819D01*
X162904765Y-132454819D02*
X163047622Y-132454819D01*
X163047622Y-132454819D02*
X163190479Y-132502438D01*
X163190479Y-132502438D02*
X163285717Y-132597676D01*
X163285717Y-132597676D02*
X163333336Y-132692914D01*
X163333336Y-132692914D02*
X163380955Y-132883390D01*
X163380955Y-132883390D02*
X163380955Y-133026247D01*
X163380955Y-133026247D02*
X163333336Y-133216723D01*
X163333336Y-133216723D02*
X163285717Y-133311961D01*
X163285717Y-133311961D02*
X163190479Y-133407200D01*
X163190479Y-133407200D02*
X163047622Y-133454819D01*
X163047622Y-133454819D02*
X162952384Y-133454819D01*
X162952384Y-133454819D02*
X162809527Y-133407200D01*
X162809527Y-133407200D02*
X162761908Y-133359580D01*
X162761908Y-133359580D02*
X162761908Y-133026247D01*
X162761908Y-133026247D02*
X162952384Y-133026247D01*
X162380955Y-133169104D02*
X161904765Y-133169104D01*
X162476193Y-133454819D02*
X162142860Y-132454819D01*
X162142860Y-132454819D02*
X161809527Y-133454819D01*
X160761907Y-133407200D02*
X160666669Y-133454819D01*
X160666669Y-133454819D02*
X160476193Y-133454819D01*
X160476193Y-133454819D02*
X160380955Y-133407200D01*
X160380955Y-133407200D02*
X160333336Y-133311961D01*
X160333336Y-133311961D02*
X160333336Y-133264342D01*
X160333336Y-133264342D02*
X160380955Y-133169104D01*
X160380955Y-133169104D02*
X160476193Y-133121485D01*
X160476193Y-133121485D02*
X160619050Y-133121485D01*
X160619050Y-133121485D02*
X160714288Y-133073866D01*
X160714288Y-133073866D02*
X160761907Y-132978628D01*
X160761907Y-132978628D02*
X160761907Y-132931009D01*
X160761907Y-132931009D02*
X160714288Y-132835771D01*
X160714288Y-132835771D02*
X160619050Y-132788152D01*
X160619050Y-132788152D02*
X160476193Y-132788152D01*
X160476193Y-132788152D02*
X160380955Y-132835771D01*
X159476193Y-133454819D02*
X159476193Y-132931009D01*
X159476193Y-132931009D02*
X159523812Y-132835771D01*
X159523812Y-132835771D02*
X159619050Y-132788152D01*
X159619050Y-132788152D02*
X159809526Y-132788152D01*
X159809526Y-132788152D02*
X159904764Y-132835771D01*
X159476193Y-133407200D02*
X159571431Y-133454819D01*
X159571431Y-133454819D02*
X159809526Y-133454819D01*
X159809526Y-133454819D02*
X159904764Y-133407200D01*
X159904764Y-133407200D02*
X159952383Y-133311961D01*
X159952383Y-133311961D02*
X159952383Y-133216723D01*
X159952383Y-133216723D02*
X159904764Y-133121485D01*
X159904764Y-133121485D02*
X159809526Y-133073866D01*
X159809526Y-133073866D02*
X159571431Y-133073866D01*
X159571431Y-133073866D02*
X159476193Y-133026247D01*
X159142859Y-132788152D02*
X158761907Y-132788152D01*
X159000002Y-133454819D02*
X159000002Y-132597676D01*
X159000002Y-132597676D02*
X158952383Y-132502438D01*
X158952383Y-132502438D02*
X158857145Y-132454819D01*
X158857145Y-132454819D02*
X158761907Y-132454819D01*
X158047621Y-133407200D02*
X158142859Y-133454819D01*
X158142859Y-133454819D02*
X158333335Y-133454819D01*
X158333335Y-133454819D02*
X158428573Y-133407200D01*
X158428573Y-133407200D02*
X158476192Y-133311961D01*
X158476192Y-133311961D02*
X158476192Y-132931009D01*
X158476192Y-132931009D02*
X158428573Y-132835771D01*
X158428573Y-132835771D02*
X158333335Y-132788152D01*
X158333335Y-132788152D02*
X158142859Y-132788152D01*
X158142859Y-132788152D02*
X158047621Y-132835771D01*
X158047621Y-132835771D02*
X158000002Y-132931009D01*
X158000002Y-132931009D02*
X158000002Y-133026247D01*
X158000002Y-133026247D02*
X158476192Y-133121485D01*
X157714287Y-132788152D02*
X157333335Y-132788152D01*
X157571430Y-132454819D02*
X157571430Y-133311961D01*
X157571430Y-133311961D02*
X157523811Y-133407200D01*
X157523811Y-133407200D02*
X157428573Y-133454819D01*
X157428573Y-133454819D02*
X157333335Y-133454819D01*
X157095239Y-132788152D02*
X156857144Y-133454819D01*
X156619049Y-132788152D02*
X156857144Y-133454819D01*
X156857144Y-133454819D02*
X156952382Y-133692914D01*
X156952382Y-133692914D02*
X157000001Y-133740533D01*
X157000001Y-133740533D02*
X157095239Y-133788152D01*
X155476191Y-133454819D02*
X155476191Y-132788152D01*
X155476191Y-132454819D02*
X155523810Y-132502438D01*
X155523810Y-132502438D02*
X155476191Y-132550057D01*
X155476191Y-132550057D02*
X155428572Y-132502438D01*
X155428572Y-132502438D02*
X155476191Y-132454819D01*
X155476191Y-132454819D02*
X155476191Y-132550057D01*
X155047620Y-133407200D02*
X154952382Y-133454819D01*
X154952382Y-133454819D02*
X154761906Y-133454819D01*
X154761906Y-133454819D02*
X154666668Y-133407200D01*
X154666668Y-133407200D02*
X154619049Y-133311961D01*
X154619049Y-133311961D02*
X154619049Y-133264342D01*
X154619049Y-133264342D02*
X154666668Y-133169104D01*
X154666668Y-133169104D02*
X154761906Y-133121485D01*
X154761906Y-133121485D02*
X154904763Y-133121485D01*
X154904763Y-133121485D02*
X155000001Y-133073866D01*
X155000001Y-133073866D02*
X155047620Y-132978628D01*
X155047620Y-132978628D02*
X155047620Y-132931009D01*
X155047620Y-132931009D02*
X155000001Y-132835771D01*
X155000001Y-132835771D02*
X154904763Y-132788152D01*
X154904763Y-132788152D02*
X154761906Y-132788152D01*
X154761906Y-132788152D02*
X154666668Y-132835771D01*
X154047620Y-133454819D02*
X154142858Y-133407200D01*
X154142858Y-133407200D02*
X154190477Y-133311961D01*
X154190477Y-133311961D02*
X154190477Y-132454819D01*
X153238096Y-133454819D02*
X153238096Y-132931009D01*
X153238096Y-132931009D02*
X153285715Y-132835771D01*
X153285715Y-132835771D02*
X153380953Y-132788152D01*
X153380953Y-132788152D02*
X153571429Y-132788152D01*
X153571429Y-132788152D02*
X153666667Y-132835771D01*
X153238096Y-133407200D02*
X153333334Y-133454819D01*
X153333334Y-133454819D02*
X153571429Y-133454819D01*
X153571429Y-133454819D02*
X153666667Y-133407200D01*
X153666667Y-133407200D02*
X153714286Y-133311961D01*
X153714286Y-133311961D02*
X153714286Y-133216723D01*
X153714286Y-133216723D02*
X153666667Y-133121485D01*
X153666667Y-133121485D02*
X153571429Y-133073866D01*
X153571429Y-133073866D02*
X153333334Y-133073866D01*
X153333334Y-133073866D02*
X153238096Y-133026247D01*
X152761905Y-132788152D02*
X152761905Y-133454819D01*
X152761905Y-132883390D02*
X152714286Y-132835771D01*
X152714286Y-132835771D02*
X152619048Y-132788152D01*
X152619048Y-132788152D02*
X152476191Y-132788152D01*
X152476191Y-132788152D02*
X152380953Y-132835771D01*
X152380953Y-132835771D02*
X152333334Y-132931009D01*
X152333334Y-132931009D02*
X152333334Y-133454819D01*
X151428572Y-133454819D02*
X151428572Y-132454819D01*
X151428572Y-133407200D02*
X151523810Y-133454819D01*
X151523810Y-133454819D02*
X151714286Y-133454819D01*
X151714286Y-133454819D02*
X151809524Y-133407200D01*
X151809524Y-133407200D02*
X151857143Y-133359580D01*
X151857143Y-133359580D02*
X151904762Y-133264342D01*
X151904762Y-133264342D02*
X151904762Y-132978628D01*
X151904762Y-132978628D02*
X151857143Y-132883390D01*
X151857143Y-132883390D02*
X151809524Y-132835771D01*
X151809524Y-132835771D02*
X151714286Y-132788152D01*
X151714286Y-132788152D02*
X151523810Y-132788152D01*
X151523810Y-132788152D02*
X151428572Y-132835771D01*
X150190476Y-133073866D02*
X149428572Y-133073866D01*
X149809524Y-133454819D02*
X149809524Y-132692914D01*
X148238095Y-133407200D02*
X148142857Y-133454819D01*
X148142857Y-133454819D02*
X147952381Y-133454819D01*
X147952381Y-133454819D02*
X147857143Y-133407200D01*
X147857143Y-133407200D02*
X147809524Y-133311961D01*
X147809524Y-133311961D02*
X147809524Y-133264342D01*
X147809524Y-133264342D02*
X147857143Y-133169104D01*
X147857143Y-133169104D02*
X147952381Y-133121485D01*
X147952381Y-133121485D02*
X148095238Y-133121485D01*
X148095238Y-133121485D02*
X148190476Y-133073866D01*
X148190476Y-133073866D02*
X148238095Y-132978628D01*
X148238095Y-132978628D02*
X148238095Y-132931009D01*
X148238095Y-132931009D02*
X148190476Y-132835771D01*
X148190476Y-132835771D02*
X148095238Y-132788152D01*
X148095238Y-132788152D02*
X147952381Y-132788152D01*
X147952381Y-132788152D02*
X147857143Y-132835771D01*
X147000000Y-133407200D02*
X147095238Y-133454819D01*
X147095238Y-133454819D02*
X147285714Y-133454819D01*
X147285714Y-133454819D02*
X147380952Y-133407200D01*
X147380952Y-133407200D02*
X147428571Y-133311961D01*
X147428571Y-133311961D02*
X147428571Y-132931009D01*
X147428571Y-132931009D02*
X147380952Y-132835771D01*
X147380952Y-132835771D02*
X147285714Y-132788152D01*
X147285714Y-132788152D02*
X147095238Y-132788152D01*
X147095238Y-132788152D02*
X147000000Y-132835771D01*
X147000000Y-132835771D02*
X146952381Y-132931009D01*
X146952381Y-132931009D02*
X146952381Y-133026247D01*
X146952381Y-133026247D02*
X147428571Y-133121485D01*
X146523809Y-132788152D02*
X146523809Y-133454819D01*
X146523809Y-132883390D02*
X146476190Y-132835771D01*
X146476190Y-132835771D02*
X146380952Y-132788152D01*
X146380952Y-132788152D02*
X146238095Y-132788152D01*
X146238095Y-132788152D02*
X146142857Y-132835771D01*
X146142857Y-132835771D02*
X146095238Y-132931009D01*
X146095238Y-132931009D02*
X146095238Y-133454819D01*
X145666666Y-133407200D02*
X145571428Y-133454819D01*
X145571428Y-133454819D02*
X145380952Y-133454819D01*
X145380952Y-133454819D02*
X145285714Y-133407200D01*
X145285714Y-133407200D02*
X145238095Y-133311961D01*
X145238095Y-133311961D02*
X145238095Y-133264342D01*
X145238095Y-133264342D02*
X145285714Y-133169104D01*
X145285714Y-133169104D02*
X145380952Y-133121485D01*
X145380952Y-133121485D02*
X145523809Y-133121485D01*
X145523809Y-133121485D02*
X145619047Y-133073866D01*
X145619047Y-133073866D02*
X145666666Y-132978628D01*
X145666666Y-132978628D02*
X145666666Y-132931009D01*
X145666666Y-132931009D02*
X145619047Y-132835771D01*
X145619047Y-132835771D02*
X145523809Y-132788152D01*
X145523809Y-132788152D02*
X145380952Y-132788152D01*
X145380952Y-132788152D02*
X145285714Y-132835771D01*
X144666666Y-133454819D02*
X144761904Y-133407200D01*
X144761904Y-133407200D02*
X144809523Y-133359580D01*
X144809523Y-133359580D02*
X144857142Y-133264342D01*
X144857142Y-133264342D02*
X144857142Y-132978628D01*
X144857142Y-132978628D02*
X144809523Y-132883390D01*
X144809523Y-132883390D02*
X144761904Y-132835771D01*
X144761904Y-132835771D02*
X144666666Y-132788152D01*
X144666666Y-132788152D02*
X144523809Y-132788152D01*
X144523809Y-132788152D02*
X144428571Y-132835771D01*
X144428571Y-132835771D02*
X144380952Y-132883390D01*
X144380952Y-132883390D02*
X144333333Y-132978628D01*
X144333333Y-132978628D02*
X144333333Y-133264342D01*
X144333333Y-133264342D02*
X144380952Y-133359580D01*
X144380952Y-133359580D02*
X144428571Y-133407200D01*
X144428571Y-133407200D02*
X144523809Y-133454819D01*
X144523809Y-133454819D02*
X144666666Y-133454819D01*
X143904761Y-133454819D02*
X143904761Y-132788152D01*
X143904761Y-132978628D02*
X143857142Y-132883390D01*
X143857142Y-132883390D02*
X143809523Y-132835771D01*
X143809523Y-132835771D02*
X143714285Y-132788152D01*
X143714285Y-132788152D02*
X143619047Y-132788152D01*
X142571428Y-132407200D02*
X143428570Y-133692914D01*
X142238094Y-133454819D02*
X142238094Y-132454819D01*
X141809523Y-133454819D02*
X141809523Y-132931009D01*
X141809523Y-132931009D02*
X141857142Y-132835771D01*
X141857142Y-132835771D02*
X141952380Y-132788152D01*
X141952380Y-132788152D02*
X142095237Y-132788152D01*
X142095237Y-132788152D02*
X142190475Y-132835771D01*
X142190475Y-132835771D02*
X142238094Y-132883390D01*
X140904761Y-133454819D02*
X140904761Y-132931009D01*
X140904761Y-132931009D02*
X140952380Y-132835771D01*
X140952380Y-132835771D02*
X141047618Y-132788152D01*
X141047618Y-132788152D02*
X141238094Y-132788152D01*
X141238094Y-132788152D02*
X141333332Y-132835771D01*
X140904761Y-133407200D02*
X140999999Y-133454819D01*
X140999999Y-133454819D02*
X141238094Y-133454819D01*
X141238094Y-133454819D02*
X141333332Y-133407200D01*
X141333332Y-133407200D02*
X141380951Y-133311961D01*
X141380951Y-133311961D02*
X141380951Y-133216723D01*
X141380951Y-133216723D02*
X141333332Y-133121485D01*
X141333332Y-133121485D02*
X141238094Y-133073866D01*
X141238094Y-133073866D02*
X140999999Y-133073866D01*
X140999999Y-133073866D02*
X140904761Y-133026247D01*
X140428570Y-132788152D02*
X140428570Y-133788152D01*
X140428570Y-132835771D02*
X140333332Y-132788152D01*
X140333332Y-132788152D02*
X140142856Y-132788152D01*
X140142856Y-132788152D02*
X140047618Y-132835771D01*
X140047618Y-132835771D02*
X139999999Y-132883390D01*
X139999999Y-132883390D02*
X139952380Y-132978628D01*
X139952380Y-132978628D02*
X139952380Y-133264342D01*
X139952380Y-133264342D02*
X139999999Y-133359580D01*
X139999999Y-133359580D02*
X140047618Y-133407200D01*
X140047618Y-133407200D02*
X140142856Y-133454819D01*
X140142856Y-133454819D02*
X140333332Y-133454819D01*
X140333332Y-133454819D02*
X140428570Y-133407200D01*
X139666665Y-132788152D02*
X139285713Y-132788152D01*
X139523808Y-132454819D02*
X139523808Y-133311961D01*
X139523808Y-133311961D02*
X139476189Y-133407200D01*
X139476189Y-133407200D02*
X139380951Y-133454819D01*
X139380951Y-133454819D02*
X139285713Y-133454819D01*
X138952379Y-133454819D02*
X138952379Y-132788152D01*
X138952379Y-132454819D02*
X138999998Y-132502438D01*
X138999998Y-132502438D02*
X138952379Y-132550057D01*
X138952379Y-132550057D02*
X138904760Y-132502438D01*
X138904760Y-132502438D02*
X138952379Y-132454819D01*
X138952379Y-132454819D02*
X138952379Y-132550057D01*
X138047618Y-133407200D02*
X138142856Y-133454819D01*
X138142856Y-133454819D02*
X138333332Y-133454819D01*
X138333332Y-133454819D02*
X138428570Y-133407200D01*
X138428570Y-133407200D02*
X138476189Y-133359580D01*
X138476189Y-133359580D02*
X138523808Y-133264342D01*
X138523808Y-133264342D02*
X138523808Y-132978628D01*
X138523808Y-132978628D02*
X138476189Y-132883390D01*
X138476189Y-132883390D02*
X138428570Y-132835771D01*
X138428570Y-132835771D02*
X138333332Y-132788152D01*
X138333332Y-132788152D02*
X138142856Y-132788152D01*
X138142856Y-132788152D02*
X138047618Y-132835771D01*
X136857141Y-133454819D02*
X136857141Y-132454819D01*
X135666666Y-132407200D02*
X136523808Y-133692914D01*
X135142856Y-132454819D02*
X134952380Y-132454819D01*
X134952380Y-132454819D02*
X134857142Y-132502438D01*
X134857142Y-132502438D02*
X134761904Y-132597676D01*
X134761904Y-132597676D02*
X134714285Y-132788152D01*
X134714285Y-132788152D02*
X134714285Y-133121485D01*
X134714285Y-133121485D02*
X134761904Y-133311961D01*
X134761904Y-133311961D02*
X134857142Y-133407200D01*
X134857142Y-133407200D02*
X134952380Y-133454819D01*
X134952380Y-133454819D02*
X135142856Y-133454819D01*
X135142856Y-133454819D02*
X135238094Y-133407200D01*
X135238094Y-133407200D02*
X135333332Y-133311961D01*
X135333332Y-133311961D02*
X135380951Y-133121485D01*
X135380951Y-133121485D02*
X135380951Y-132788152D01*
X135380951Y-132788152D02*
X135333332Y-132597676D01*
X135333332Y-132597676D02*
X135238094Y-132502438D01*
X135238094Y-132502438D02*
X135142856Y-132454819D01*
X133666665Y-132788152D02*
X133285713Y-132788152D01*
X133523808Y-133454819D02*
X133523808Y-132597676D01*
X133523808Y-132597676D02*
X133476189Y-132502438D01*
X133476189Y-132502438D02*
X133380951Y-132454819D01*
X133380951Y-132454819D02*
X133285713Y-132454819D01*
X132809522Y-133454819D02*
X132904760Y-133407200D01*
X132904760Y-133407200D02*
X132952379Y-133359580D01*
X132952379Y-133359580D02*
X132999998Y-133264342D01*
X132999998Y-133264342D02*
X132999998Y-132978628D01*
X132999998Y-132978628D02*
X132952379Y-132883390D01*
X132952379Y-132883390D02*
X132904760Y-132835771D01*
X132904760Y-132835771D02*
X132809522Y-132788152D01*
X132809522Y-132788152D02*
X132666665Y-132788152D01*
X132666665Y-132788152D02*
X132571427Y-132835771D01*
X132571427Y-132835771D02*
X132523808Y-132883390D01*
X132523808Y-132883390D02*
X132476189Y-132978628D01*
X132476189Y-132978628D02*
X132476189Y-133264342D01*
X132476189Y-133264342D02*
X132523808Y-133359580D01*
X132523808Y-133359580D02*
X132571427Y-133407200D01*
X132571427Y-133407200D02*
X132666665Y-133454819D01*
X132666665Y-133454819D02*
X132809522Y-133454819D01*
X132047617Y-133454819D02*
X132047617Y-132788152D01*
X132047617Y-132978628D02*
X131999998Y-132883390D01*
X131999998Y-132883390D02*
X131952379Y-132835771D01*
X131952379Y-132835771D02*
X131857141Y-132788152D01*
X131857141Y-132788152D02*
X131761903Y-132788152D01*
X130095236Y-133454819D02*
X130428569Y-132978628D01*
X130666664Y-133454819D02*
X130666664Y-132454819D01*
X130666664Y-132454819D02*
X130285712Y-132454819D01*
X130285712Y-132454819D02*
X130190474Y-132502438D01*
X130190474Y-132502438D02*
X130142855Y-132550057D01*
X130142855Y-132550057D02*
X130095236Y-132645295D01*
X130095236Y-132645295D02*
X130095236Y-132788152D01*
X130095236Y-132788152D02*
X130142855Y-132883390D01*
X130142855Y-132883390D02*
X130190474Y-132931009D01*
X130190474Y-132931009D02*
X130285712Y-132978628D01*
X130285712Y-132978628D02*
X130666664Y-132978628D01*
X129238093Y-133454819D02*
X129238093Y-132931009D01*
X129238093Y-132931009D02*
X129285712Y-132835771D01*
X129285712Y-132835771D02*
X129380950Y-132788152D01*
X129380950Y-132788152D02*
X129571426Y-132788152D01*
X129571426Y-132788152D02*
X129666664Y-132835771D01*
X129238093Y-133407200D02*
X129333331Y-133454819D01*
X129333331Y-133454819D02*
X129571426Y-133454819D01*
X129571426Y-133454819D02*
X129666664Y-133407200D01*
X129666664Y-133407200D02*
X129714283Y-133311961D01*
X129714283Y-133311961D02*
X129714283Y-133216723D01*
X129714283Y-133216723D02*
X129666664Y-133121485D01*
X129666664Y-133121485D02*
X129571426Y-133073866D01*
X129571426Y-133073866D02*
X129333331Y-133073866D01*
X129333331Y-133073866D02*
X129238093Y-133026247D01*
X128809521Y-133407200D02*
X128714283Y-133454819D01*
X128714283Y-133454819D02*
X128523807Y-133454819D01*
X128523807Y-133454819D02*
X128428569Y-133407200D01*
X128428569Y-133407200D02*
X128380950Y-133311961D01*
X128380950Y-133311961D02*
X128380950Y-133264342D01*
X128380950Y-133264342D02*
X128428569Y-133169104D01*
X128428569Y-133169104D02*
X128523807Y-133121485D01*
X128523807Y-133121485D02*
X128666664Y-133121485D01*
X128666664Y-133121485D02*
X128761902Y-133073866D01*
X128761902Y-133073866D02*
X128809521Y-132978628D01*
X128809521Y-132978628D02*
X128809521Y-132931009D01*
X128809521Y-132931009D02*
X128761902Y-132835771D01*
X128761902Y-132835771D02*
X128666664Y-132788152D01*
X128666664Y-132788152D02*
X128523807Y-132788152D01*
X128523807Y-132788152D02*
X128428569Y-132835771D01*
X127952378Y-132788152D02*
X127952378Y-133788152D01*
X127952378Y-132835771D02*
X127857140Y-132788152D01*
X127857140Y-132788152D02*
X127666664Y-132788152D01*
X127666664Y-132788152D02*
X127571426Y-132835771D01*
X127571426Y-132835771D02*
X127523807Y-132883390D01*
X127523807Y-132883390D02*
X127476188Y-132978628D01*
X127476188Y-132978628D02*
X127476188Y-133264342D01*
X127476188Y-133264342D02*
X127523807Y-133359580D01*
X127523807Y-133359580D02*
X127571426Y-133407200D01*
X127571426Y-133407200D02*
X127666664Y-133454819D01*
X127666664Y-133454819D02*
X127857140Y-133454819D01*
X127857140Y-133454819D02*
X127952378Y-133407200D01*
X127047616Y-133454819D02*
X127047616Y-132454819D01*
X127047616Y-132835771D02*
X126952378Y-132788152D01*
X126952378Y-132788152D02*
X126761902Y-132788152D01*
X126761902Y-132788152D02*
X126666664Y-132835771D01*
X126666664Y-132835771D02*
X126619045Y-132883390D01*
X126619045Y-132883390D02*
X126571426Y-132978628D01*
X126571426Y-132978628D02*
X126571426Y-133264342D01*
X126571426Y-133264342D02*
X126619045Y-133359580D01*
X126619045Y-133359580D02*
X126666664Y-133407200D01*
X126666664Y-133407200D02*
X126761902Y-133454819D01*
X126761902Y-133454819D02*
X126952378Y-133454819D01*
X126952378Y-133454819D02*
X127047616Y-133407200D01*
X125761902Y-133407200D02*
X125857140Y-133454819D01*
X125857140Y-133454819D02*
X126047616Y-133454819D01*
X126047616Y-133454819D02*
X126142854Y-133407200D01*
X126142854Y-133407200D02*
X126190473Y-133311961D01*
X126190473Y-133311961D02*
X126190473Y-132931009D01*
X126190473Y-132931009D02*
X126142854Y-132835771D01*
X126142854Y-132835771D02*
X126047616Y-132788152D01*
X126047616Y-132788152D02*
X125857140Y-132788152D01*
X125857140Y-132788152D02*
X125761902Y-132835771D01*
X125761902Y-132835771D02*
X125714283Y-132931009D01*
X125714283Y-132931009D02*
X125714283Y-133026247D01*
X125714283Y-133026247D02*
X126190473Y-133121485D01*
X125285711Y-133454819D02*
X125285711Y-132788152D01*
X125285711Y-132978628D02*
X125238092Y-132883390D01*
X125238092Y-132883390D02*
X125190473Y-132835771D01*
X125190473Y-132835771D02*
X125095235Y-132788152D01*
X125095235Y-132788152D02*
X124999997Y-132788152D01*
X124666663Y-133454819D02*
X124666663Y-132788152D01*
X124666663Y-132978628D02*
X124619044Y-132883390D01*
X124619044Y-132883390D02*
X124571425Y-132835771D01*
X124571425Y-132835771D02*
X124476187Y-132788152D01*
X124476187Y-132788152D02*
X124380949Y-132788152D01*
X124142853Y-132788152D02*
X123904758Y-133454819D01*
X123666663Y-132788152D02*
X123904758Y-133454819D01*
X123904758Y-133454819D02*
X123999996Y-133692914D01*
X123999996Y-133692914D02*
X124047615Y-133740533D01*
X124047615Y-133740533D02*
X124142853Y-133788152D01*
X122523805Y-133454819D02*
X122523805Y-132454819D01*
X122523805Y-132454819D02*
X122142853Y-132454819D01*
X122142853Y-132454819D02*
X122047615Y-132502438D01*
X122047615Y-132502438D02*
X121999996Y-132550057D01*
X121999996Y-132550057D02*
X121952377Y-132645295D01*
X121952377Y-132645295D02*
X121952377Y-132788152D01*
X121952377Y-132788152D02*
X121999996Y-132883390D01*
X121999996Y-132883390D02*
X122047615Y-132931009D01*
X122047615Y-132931009D02*
X122142853Y-132978628D01*
X122142853Y-132978628D02*
X122523805Y-132978628D01*
X121523805Y-133454819D02*
X121523805Y-132788152D01*
X121523805Y-132454819D02*
X121571424Y-132502438D01*
X121571424Y-132502438D02*
X121523805Y-132550057D01*
X121523805Y-132550057D02*
X121476186Y-132502438D01*
X121476186Y-132502438D02*
X121523805Y-132454819D01*
X121523805Y-132454819D02*
X121523805Y-132550057D01*
X119809520Y-132454819D02*
X120285710Y-132454819D01*
X120285710Y-132454819D02*
X120333329Y-132931009D01*
X120333329Y-132931009D02*
X120285710Y-132883390D01*
X120285710Y-132883390D02*
X120190472Y-132835771D01*
X120190472Y-132835771D02*
X119952377Y-132835771D01*
X119952377Y-132835771D02*
X119857139Y-132883390D01*
X119857139Y-132883390D02*
X119809520Y-132931009D01*
X119809520Y-132931009D02*
X119761901Y-133026247D01*
X119761901Y-133026247D02*
X119761901Y-133264342D01*
X119761901Y-133264342D02*
X119809520Y-133359580D01*
X119809520Y-133359580D02*
X119857139Y-133407200D01*
X119857139Y-133407200D02*
X119952377Y-133454819D01*
X119952377Y-133454819D02*
X120190472Y-133454819D01*
X120190472Y-133454819D02*
X120285710Y-133407200D01*
X120285710Y-133407200D02*
X120333329Y-133359580D01*
D11*
X163185713Y-129345782D02*
X162499999Y-129345782D01*
X162842856Y-130545782D02*
X162842856Y-129345782D01*
X161642855Y-130488640D02*
X161757141Y-130545782D01*
X161757141Y-130545782D02*
X161985713Y-130545782D01*
X161985713Y-130545782D02*
X162099998Y-130488640D01*
X162099998Y-130488640D02*
X162157141Y-130374354D01*
X162157141Y-130374354D02*
X162157141Y-129917211D01*
X162157141Y-129917211D02*
X162099998Y-129802925D01*
X162099998Y-129802925D02*
X161985713Y-129745782D01*
X161985713Y-129745782D02*
X161757141Y-129745782D01*
X161757141Y-129745782D02*
X161642855Y-129802925D01*
X161642855Y-129802925D02*
X161585713Y-129917211D01*
X161585713Y-129917211D02*
X161585713Y-130031497D01*
X161585713Y-130031497D02*
X162157141Y-130145782D01*
X160557142Y-130545782D02*
X160557142Y-129917211D01*
X160557142Y-129917211D02*
X160614284Y-129802925D01*
X160614284Y-129802925D02*
X160728570Y-129745782D01*
X160728570Y-129745782D02*
X160957142Y-129745782D01*
X160957142Y-129745782D02*
X161071427Y-129802925D01*
X160557142Y-130488640D02*
X160671427Y-130545782D01*
X160671427Y-130545782D02*
X160957142Y-130545782D01*
X160957142Y-130545782D02*
X161071427Y-130488640D01*
X161071427Y-130488640D02*
X161128570Y-130374354D01*
X161128570Y-130374354D02*
X161128570Y-130260068D01*
X161128570Y-130260068D02*
X161071427Y-130145782D01*
X161071427Y-130145782D02*
X160957142Y-130088640D01*
X160957142Y-130088640D02*
X160671427Y-130088640D01*
X160671427Y-130088640D02*
X160557142Y-130031497D01*
X159985713Y-130545782D02*
X159985713Y-129745782D01*
X159985713Y-129860068D02*
X159928570Y-129802925D01*
X159928570Y-129802925D02*
X159814285Y-129745782D01*
X159814285Y-129745782D02*
X159642856Y-129745782D01*
X159642856Y-129745782D02*
X159528570Y-129802925D01*
X159528570Y-129802925D02*
X159471428Y-129917211D01*
X159471428Y-129917211D02*
X159471428Y-130545782D01*
X159471428Y-129917211D02*
X159414285Y-129802925D01*
X159414285Y-129802925D02*
X159299999Y-129745782D01*
X159299999Y-129745782D02*
X159128570Y-129745782D01*
X159128570Y-129745782D02*
X159014285Y-129802925D01*
X159014285Y-129802925D02*
X158957142Y-129917211D01*
X158957142Y-129917211D02*
X158957142Y-130545782D01*
X157528570Y-130488640D02*
X157357142Y-130545782D01*
X157357142Y-130545782D02*
X157071427Y-130545782D01*
X157071427Y-130545782D02*
X156957142Y-130488640D01*
X156957142Y-130488640D02*
X156899999Y-130431497D01*
X156899999Y-130431497D02*
X156842856Y-130317211D01*
X156842856Y-130317211D02*
X156842856Y-130202925D01*
X156842856Y-130202925D02*
X156899999Y-130088640D01*
X156899999Y-130088640D02*
X156957142Y-130031497D01*
X156957142Y-130031497D02*
X157071427Y-129974354D01*
X157071427Y-129974354D02*
X157299999Y-129917211D01*
X157299999Y-129917211D02*
X157414284Y-129860068D01*
X157414284Y-129860068D02*
X157471427Y-129802925D01*
X157471427Y-129802925D02*
X157528570Y-129688640D01*
X157528570Y-129688640D02*
X157528570Y-129574354D01*
X157528570Y-129574354D02*
X157471427Y-129460068D01*
X157471427Y-129460068D02*
X157414284Y-129402925D01*
X157414284Y-129402925D02*
X157299999Y-129345782D01*
X157299999Y-129345782D02*
X157014284Y-129345782D01*
X157014284Y-129345782D02*
X156842856Y-129402925D01*
X156499999Y-129345782D02*
X156099999Y-130545782D01*
X156099999Y-130545782D02*
X155699999Y-129345782D01*
X155299999Y-130545782D02*
X155299999Y-129345782D01*
X155299999Y-129345782D02*
X154614285Y-130545782D01*
X154614285Y-130545782D02*
X154614285Y-129345782D01*
X154042856Y-130545782D02*
X154042856Y-129345782D01*
X153642856Y-129345782D02*
X152957142Y-129345782D01*
X153299999Y-130545782D02*
X153299999Y-129345782D01*
X151642855Y-130088640D02*
X150728570Y-130088640D01*
X149414284Y-129345782D02*
X149014284Y-130545782D01*
X149014284Y-130545782D02*
X148614284Y-129345782D01*
X148214284Y-130545782D02*
X148214284Y-129745782D01*
X148214284Y-129345782D02*
X148271427Y-129402925D01*
X148271427Y-129402925D02*
X148214284Y-129460068D01*
X148214284Y-129460068D02*
X148157141Y-129402925D01*
X148157141Y-129402925D02*
X148214284Y-129345782D01*
X148214284Y-129345782D02*
X148214284Y-129460068D01*
X147699998Y-130488640D02*
X147585712Y-130545782D01*
X147585712Y-130545782D02*
X147357141Y-130545782D01*
X147357141Y-130545782D02*
X147242855Y-130488640D01*
X147242855Y-130488640D02*
X147185712Y-130374354D01*
X147185712Y-130374354D02*
X147185712Y-130317211D01*
X147185712Y-130317211D02*
X147242855Y-130202925D01*
X147242855Y-130202925D02*
X147357141Y-130145782D01*
X147357141Y-130145782D02*
X147528570Y-130145782D01*
X147528570Y-130145782D02*
X147642855Y-130088640D01*
X147642855Y-130088640D02*
X147699998Y-129974354D01*
X147699998Y-129974354D02*
X147699998Y-129917211D01*
X147699998Y-129917211D02*
X147642855Y-129802925D01*
X147642855Y-129802925D02*
X147528570Y-129745782D01*
X147528570Y-129745782D02*
X147357141Y-129745782D01*
X147357141Y-129745782D02*
X147242855Y-129802925D01*
X146671426Y-130545782D02*
X146671426Y-129345782D01*
X146157141Y-130545782D02*
X146157141Y-129917211D01*
X146157141Y-129917211D02*
X146214283Y-129802925D01*
X146214283Y-129802925D02*
X146328569Y-129745782D01*
X146328569Y-129745782D02*
X146499998Y-129745782D01*
X146499998Y-129745782D02*
X146614283Y-129802925D01*
X146614283Y-129802925D02*
X146671426Y-129860068D01*
X145699998Y-129745782D02*
X145471427Y-130545782D01*
X145471427Y-130545782D02*
X145242855Y-129974354D01*
X145242855Y-129974354D02*
X145014284Y-130545782D01*
X145014284Y-130545782D02*
X144785712Y-129745782D01*
X143814284Y-130545782D02*
X143814284Y-129917211D01*
X143814284Y-129917211D02*
X143871426Y-129802925D01*
X143871426Y-129802925D02*
X143985712Y-129745782D01*
X143985712Y-129745782D02*
X144214284Y-129745782D01*
X144214284Y-129745782D02*
X144328569Y-129802925D01*
X143814284Y-130488640D02*
X143928569Y-130545782D01*
X143928569Y-130545782D02*
X144214284Y-130545782D01*
X144214284Y-130545782D02*
X144328569Y-130488640D01*
X144328569Y-130488640D02*
X144385712Y-130374354D01*
X144385712Y-130374354D02*
X144385712Y-130260068D01*
X144385712Y-130260068D02*
X144328569Y-130145782D01*
X144328569Y-130145782D02*
X144214284Y-130088640D01*
X144214284Y-130088640D02*
X143928569Y-130088640D01*
X143928569Y-130088640D02*
X143814284Y-130031497D01*
X143242855Y-130545782D02*
X143242855Y-129345782D01*
X143128570Y-130088640D02*
X142785712Y-130545782D01*
X142785712Y-129745782D02*
X143242855Y-130202925D01*
X141757141Y-130545782D02*
X141757141Y-129917211D01*
X141757141Y-129917211D02*
X141814283Y-129802925D01*
X141814283Y-129802925D02*
X141928569Y-129745782D01*
X141928569Y-129745782D02*
X142157141Y-129745782D01*
X142157141Y-129745782D02*
X142271426Y-129802925D01*
X141757141Y-130488640D02*
X141871426Y-130545782D01*
X141871426Y-130545782D02*
X142157141Y-130545782D01*
X142157141Y-130545782D02*
X142271426Y-130488640D01*
X142271426Y-130488640D02*
X142328569Y-130374354D01*
X142328569Y-130374354D02*
X142328569Y-130260068D01*
X142328569Y-130260068D02*
X142271426Y-130145782D01*
X142271426Y-130145782D02*
X142157141Y-130088640D01*
X142157141Y-130088640D02*
X141871426Y-130088640D01*
X141871426Y-130088640D02*
X141757141Y-130031497D01*
X141185712Y-130545782D02*
X141185712Y-129745782D01*
X141185712Y-129974354D02*
X141128569Y-129860068D01*
X141128569Y-129860068D02*
X141071427Y-129802925D01*
X141071427Y-129802925D02*
X140957141Y-129745782D01*
X140957141Y-129745782D02*
X140842855Y-129745782D01*
X140442855Y-130545782D02*
X140442855Y-129745782D01*
X140442855Y-129860068D02*
X140385712Y-129802925D01*
X140385712Y-129802925D02*
X140271427Y-129745782D01*
X140271427Y-129745782D02*
X140099998Y-129745782D01*
X140099998Y-129745782D02*
X139985712Y-129802925D01*
X139985712Y-129802925D02*
X139928570Y-129917211D01*
X139928570Y-129917211D02*
X139928570Y-130545782D01*
X139928570Y-129917211D02*
X139871427Y-129802925D01*
X139871427Y-129802925D02*
X139757141Y-129745782D01*
X139757141Y-129745782D02*
X139585712Y-129745782D01*
X139585712Y-129745782D02*
X139471427Y-129802925D01*
X139471427Y-129802925D02*
X139414284Y-129917211D01*
X139414284Y-129917211D02*
X139414284Y-130545782D01*
X138328570Y-130545782D02*
X138328570Y-129917211D01*
X138328570Y-129917211D02*
X138385712Y-129802925D01*
X138385712Y-129802925D02*
X138499998Y-129745782D01*
X138499998Y-129745782D02*
X138728570Y-129745782D01*
X138728570Y-129745782D02*
X138842855Y-129802925D01*
X138328570Y-130488640D02*
X138442855Y-130545782D01*
X138442855Y-130545782D02*
X138728570Y-130545782D01*
X138728570Y-130545782D02*
X138842855Y-130488640D01*
X138842855Y-130488640D02*
X138899998Y-130374354D01*
X138899998Y-130374354D02*
X138899998Y-130260068D01*
X138899998Y-130260068D02*
X138842855Y-130145782D01*
X138842855Y-130145782D02*
X138728570Y-130088640D01*
X138728570Y-130088640D02*
X138442855Y-130088640D01*
X138442855Y-130088640D02*
X138328570Y-130031497D01*
X136899998Y-130202925D02*
X136328570Y-130202925D01*
X137014284Y-130545782D02*
X136614284Y-129345782D01*
X136614284Y-129345782D02*
X136214284Y-130545782D01*
X135928570Y-129745782D02*
X135699999Y-130545782D01*
X135699999Y-130545782D02*
X135471427Y-129974354D01*
X135471427Y-129974354D02*
X135242856Y-130545782D01*
X135242856Y-130545782D02*
X135014284Y-129745782D01*
X134042856Y-130545782D02*
X134042856Y-129917211D01*
X134042856Y-129917211D02*
X134099998Y-129802925D01*
X134099998Y-129802925D02*
X134214284Y-129745782D01*
X134214284Y-129745782D02*
X134442856Y-129745782D01*
X134442856Y-129745782D02*
X134557141Y-129802925D01*
X134042856Y-130488640D02*
X134157141Y-130545782D01*
X134157141Y-130545782D02*
X134442856Y-130545782D01*
X134442856Y-130545782D02*
X134557141Y-130488640D01*
X134557141Y-130488640D02*
X134614284Y-130374354D01*
X134614284Y-130374354D02*
X134614284Y-130260068D01*
X134614284Y-130260068D02*
X134557141Y-130145782D01*
X134557141Y-130145782D02*
X134442856Y-130088640D01*
X134442856Y-130088640D02*
X134157141Y-130088640D01*
X134157141Y-130088640D02*
X134042856Y-130031497D01*
X133471427Y-130545782D02*
X133471427Y-129745782D01*
X133471427Y-129974354D02*
X133414284Y-129860068D01*
X133414284Y-129860068D02*
X133357142Y-129802925D01*
X133357142Y-129802925D02*
X133242856Y-129745782D01*
X133242856Y-129745782D02*
X133128570Y-129745782D01*
X132214285Y-130545782D02*
X132214285Y-129345782D01*
X132214285Y-130488640D02*
X132328570Y-130545782D01*
X132328570Y-130545782D02*
X132557142Y-130545782D01*
X132557142Y-130545782D02*
X132671427Y-130488640D01*
X132671427Y-130488640D02*
X132728570Y-130431497D01*
X132728570Y-130431497D02*
X132785713Y-130317211D01*
X132785713Y-130317211D02*
X132785713Y-129974354D01*
X132785713Y-129974354D02*
X132728570Y-129860068D01*
X132728570Y-129860068D02*
X132671427Y-129802925D01*
X132671427Y-129802925D02*
X132557142Y-129745782D01*
X132557142Y-129745782D02*
X132328570Y-129745782D01*
X132328570Y-129745782D02*
X132214285Y-129802925D01*
X131699999Y-130488640D02*
X131585713Y-130545782D01*
X131585713Y-130545782D02*
X131357142Y-130545782D01*
X131357142Y-130545782D02*
X131242856Y-130488640D01*
X131242856Y-130488640D02*
X131185713Y-130374354D01*
X131185713Y-130374354D02*
X131185713Y-130317211D01*
X131185713Y-130317211D02*
X131242856Y-130202925D01*
X131242856Y-130202925D02*
X131357142Y-130145782D01*
X131357142Y-130145782D02*
X131528571Y-130145782D01*
X131528571Y-130145782D02*
X131642856Y-130088640D01*
X131642856Y-130088640D02*
X131699999Y-129974354D01*
X131699999Y-129974354D02*
X131699999Y-129917211D01*
X131699999Y-129917211D02*
X131642856Y-129802925D01*
X131642856Y-129802925D02*
X131528571Y-129745782D01*
X131528571Y-129745782D02*
X131357142Y-129745782D01*
X131357142Y-129745782D02*
X131242856Y-129802925D01*
X129814284Y-129460068D02*
X129757141Y-129402925D01*
X129757141Y-129402925D02*
X129642856Y-129345782D01*
X129642856Y-129345782D02*
X129357141Y-129345782D01*
X129357141Y-129345782D02*
X129242856Y-129402925D01*
X129242856Y-129402925D02*
X129185713Y-129460068D01*
X129185713Y-129460068D02*
X129128570Y-129574354D01*
X129128570Y-129574354D02*
X129128570Y-129688640D01*
X129128570Y-129688640D02*
X129185713Y-129860068D01*
X129185713Y-129860068D02*
X129871427Y-130545782D01*
X129871427Y-130545782D02*
X129128570Y-130545782D01*
X128385713Y-129345782D02*
X128271427Y-129345782D01*
X128271427Y-129345782D02*
X128157141Y-129402925D01*
X128157141Y-129402925D02*
X128099999Y-129460068D01*
X128099999Y-129460068D02*
X128042856Y-129574354D01*
X128042856Y-129574354D02*
X127985713Y-129802925D01*
X127985713Y-129802925D02*
X127985713Y-130088640D01*
X127985713Y-130088640D02*
X128042856Y-130317211D01*
X128042856Y-130317211D02*
X128099999Y-130431497D01*
X128099999Y-130431497D02*
X128157141Y-130488640D01*
X128157141Y-130488640D02*
X128271427Y-130545782D01*
X128271427Y-130545782D02*
X128385713Y-130545782D01*
X128385713Y-130545782D02*
X128499999Y-130488640D01*
X128499999Y-130488640D02*
X128557141Y-130431497D01*
X128557141Y-130431497D02*
X128614284Y-130317211D01*
X128614284Y-130317211D02*
X128671427Y-130088640D01*
X128671427Y-130088640D02*
X128671427Y-129802925D01*
X128671427Y-129802925D02*
X128614284Y-129574354D01*
X128614284Y-129574354D02*
X128557141Y-129460068D01*
X128557141Y-129460068D02*
X128499999Y-129402925D01*
X128499999Y-129402925D02*
X128385713Y-129345782D01*
X127528570Y-129460068D02*
X127471427Y-129402925D01*
X127471427Y-129402925D02*
X127357142Y-129345782D01*
X127357142Y-129345782D02*
X127071427Y-129345782D01*
X127071427Y-129345782D02*
X126957142Y-129402925D01*
X126957142Y-129402925D02*
X126899999Y-129460068D01*
X126899999Y-129460068D02*
X126842856Y-129574354D01*
X126842856Y-129574354D02*
X126842856Y-129688640D01*
X126842856Y-129688640D02*
X126899999Y-129860068D01*
X126899999Y-129860068D02*
X127585713Y-130545782D01*
X127585713Y-130545782D02*
X126842856Y-130545782D01*
X125814285Y-129345782D02*
X126042856Y-129345782D01*
X126042856Y-129345782D02*
X126157142Y-129402925D01*
X126157142Y-129402925D02*
X126214285Y-129460068D01*
X126214285Y-129460068D02*
X126328570Y-129631497D01*
X126328570Y-129631497D02*
X126385713Y-129860068D01*
X126385713Y-129860068D02*
X126385713Y-130317211D01*
X126385713Y-130317211D02*
X126328570Y-130431497D01*
X126328570Y-130431497D02*
X126271427Y-130488640D01*
X126271427Y-130488640D02*
X126157142Y-130545782D01*
X126157142Y-130545782D02*
X125928570Y-130545782D01*
X125928570Y-130545782D02*
X125814285Y-130488640D01*
X125814285Y-130488640D02*
X125757142Y-130431497D01*
X125757142Y-130431497D02*
X125699999Y-130317211D01*
X125699999Y-130317211D02*
X125699999Y-130031497D01*
X125699999Y-130031497D02*
X125757142Y-129917211D01*
X125757142Y-129917211D02*
X125814285Y-129860068D01*
X125814285Y-129860068D02*
X125928570Y-129802925D01*
X125928570Y-129802925D02*
X126157142Y-129802925D01*
X126157142Y-129802925D02*
X126271427Y-129860068D01*
X126271427Y-129860068D02*
X126328570Y-129917211D01*
X126328570Y-129917211D02*
X126385713Y-130031497D01*
X125185713Y-130088640D02*
X124271428Y-130088640D01*
X123757142Y-129460068D02*
X123699999Y-129402925D01*
X123699999Y-129402925D02*
X123585714Y-129345782D01*
X123585714Y-129345782D02*
X123299999Y-129345782D01*
X123299999Y-129345782D02*
X123185714Y-129402925D01*
X123185714Y-129402925D02*
X123128571Y-129460068D01*
X123128571Y-129460068D02*
X123071428Y-129574354D01*
X123071428Y-129574354D02*
X123071428Y-129688640D01*
X123071428Y-129688640D02*
X123128571Y-129860068D01*
X123128571Y-129860068D02*
X123814285Y-130545782D01*
X123814285Y-130545782D02*
X123071428Y-130545782D01*
X122671428Y-129345782D02*
X121871428Y-129345782D01*
X121871428Y-129345782D02*
X122385714Y-130545782D01*
D12*
X158595239Y-124909638D02*
X157928573Y-126909638D01*
X157928573Y-126909638D02*
X157261906Y-124909638D01*
X156595239Y-126909638D02*
X156595239Y-125576304D01*
X156595239Y-124909638D02*
X156690477Y-125004876D01*
X156690477Y-125004876D02*
X156595239Y-125100114D01*
X156595239Y-125100114D02*
X156500001Y-125004876D01*
X156500001Y-125004876D02*
X156595239Y-124909638D01*
X156595239Y-124909638D02*
X156595239Y-125100114D01*
X155738096Y-126814400D02*
X155547620Y-126909638D01*
X155547620Y-126909638D02*
X155166668Y-126909638D01*
X155166668Y-126909638D02*
X154976191Y-126814400D01*
X154976191Y-126814400D02*
X154880953Y-126623923D01*
X154880953Y-126623923D02*
X154880953Y-126528685D01*
X154880953Y-126528685D02*
X154976191Y-126338209D01*
X154976191Y-126338209D02*
X155166668Y-126242971D01*
X155166668Y-126242971D02*
X155452382Y-126242971D01*
X155452382Y-126242971D02*
X155642858Y-126147733D01*
X155642858Y-126147733D02*
X155738096Y-125957257D01*
X155738096Y-125957257D02*
X155738096Y-125862019D01*
X155738096Y-125862019D02*
X155642858Y-125671542D01*
X155642858Y-125671542D02*
X155452382Y-125576304D01*
X155452382Y-125576304D02*
X155166668Y-125576304D01*
X155166668Y-125576304D02*
X154976191Y-125671542D01*
X154023810Y-126909638D02*
X154023810Y-125576304D01*
X154023810Y-124909638D02*
X154119048Y-125004876D01*
X154119048Y-125004876D02*
X154023810Y-125100114D01*
X154023810Y-125100114D02*
X153928572Y-125004876D01*
X153928572Y-125004876D02*
X154023810Y-124909638D01*
X154023810Y-124909638D02*
X154023810Y-125100114D01*
X152785715Y-126909638D02*
X152976191Y-126814400D01*
X152976191Y-126814400D02*
X153071429Y-126719161D01*
X153071429Y-126719161D02*
X153166667Y-126528685D01*
X153166667Y-126528685D02*
X153166667Y-125957257D01*
X153166667Y-125957257D02*
X153071429Y-125766780D01*
X153071429Y-125766780D02*
X152976191Y-125671542D01*
X152976191Y-125671542D02*
X152785715Y-125576304D01*
X152785715Y-125576304D02*
X152500000Y-125576304D01*
X152500000Y-125576304D02*
X152309524Y-125671542D01*
X152309524Y-125671542D02*
X152214286Y-125766780D01*
X152214286Y-125766780D02*
X152119048Y-125957257D01*
X152119048Y-125957257D02*
X152119048Y-126528685D01*
X152119048Y-126528685D02*
X152214286Y-126719161D01*
X152214286Y-126719161D02*
X152309524Y-126814400D01*
X152309524Y-126814400D02*
X152500000Y-126909638D01*
X152500000Y-126909638D02*
X152785715Y-126909638D01*
X151261905Y-125576304D02*
X151261905Y-126909638D01*
X151261905Y-125766780D02*
X151166667Y-125671542D01*
X151166667Y-125671542D02*
X150976191Y-125576304D01*
X150976191Y-125576304D02*
X150690476Y-125576304D01*
X150690476Y-125576304D02*
X150500000Y-125671542D01*
X150500000Y-125671542D02*
X150404762Y-125862019D01*
X150404762Y-125862019D02*
X150404762Y-126909638D01*
X149547619Y-126338209D02*
X148595238Y-126338209D01*
X149738095Y-126909638D02*
X149071429Y-124909638D01*
X149071429Y-124909638D02*
X148404762Y-126909638D01*
X147738095Y-126909638D02*
X147738095Y-125576304D01*
X147738095Y-124909638D02*
X147833333Y-125004876D01*
X147833333Y-125004876D02*
X147738095Y-125100114D01*
X147738095Y-125100114D02*
X147642857Y-125004876D01*
X147642857Y-125004876D02*
X147738095Y-124909638D01*
X147738095Y-124909638D02*
X147738095Y-125100114D01*
X145928571Y-126909638D02*
X145928571Y-124909638D01*
X145928571Y-126814400D02*
X146119047Y-126909638D01*
X146119047Y-126909638D02*
X146500000Y-126909638D01*
X146500000Y-126909638D02*
X146690476Y-126814400D01*
X146690476Y-126814400D02*
X146785714Y-126719161D01*
X146785714Y-126719161D02*
X146880952Y-126528685D01*
X146880952Y-126528685D02*
X146880952Y-125957257D01*
X146880952Y-125957257D02*
X146785714Y-125766780D01*
X146785714Y-125766780D02*
X146690476Y-125671542D01*
X146690476Y-125671542D02*
X146500000Y-125576304D01*
X146500000Y-125576304D02*
X146119047Y-125576304D01*
X146119047Y-125576304D02*
X145928571Y-125671542D01*
X142595237Y-126814400D02*
X142785713Y-126909638D01*
X142785713Y-126909638D02*
X143166666Y-126909638D01*
X143166666Y-126909638D02*
X143357142Y-126814400D01*
X143357142Y-126814400D02*
X143452380Y-126719161D01*
X143452380Y-126719161D02*
X143547618Y-126528685D01*
X143547618Y-126528685D02*
X143547618Y-125957257D01*
X143547618Y-125957257D02*
X143452380Y-125766780D01*
X143452380Y-125766780D02*
X143357142Y-125671542D01*
X143357142Y-125671542D02*
X143166666Y-125576304D01*
X143166666Y-125576304D02*
X142785713Y-125576304D01*
X142785713Y-125576304D02*
X142595237Y-125671542D01*
X140880951Y-126909638D02*
X140880951Y-125862019D01*
X140880951Y-125862019D02*
X140976189Y-125671542D01*
X140976189Y-125671542D02*
X141166665Y-125576304D01*
X141166665Y-125576304D02*
X141547618Y-125576304D01*
X141547618Y-125576304D02*
X141738094Y-125671542D01*
X140880951Y-126814400D02*
X141071427Y-126909638D01*
X141071427Y-126909638D02*
X141547618Y-126909638D01*
X141547618Y-126909638D02*
X141738094Y-126814400D01*
X141738094Y-126814400D02*
X141833332Y-126623923D01*
X141833332Y-126623923D02*
X141833332Y-126433447D01*
X141833332Y-126433447D02*
X141738094Y-126242971D01*
X141738094Y-126242971D02*
X141547618Y-126147733D01*
X141547618Y-126147733D02*
X141071427Y-126147733D01*
X141071427Y-126147733D02*
X140880951Y-126052495D01*
X139928570Y-126909638D02*
X139928570Y-125576304D01*
X139928570Y-125957257D02*
X139833332Y-125766780D01*
X139833332Y-125766780D02*
X139738094Y-125671542D01*
X139738094Y-125671542D02*
X139547618Y-125576304D01*
X139547618Y-125576304D02*
X139357141Y-125576304D01*
X138690475Y-126909638D02*
X138690475Y-125576304D01*
X138690475Y-125957257D02*
X138595237Y-125766780D01*
X138595237Y-125766780D02*
X138499999Y-125671542D01*
X138499999Y-125671542D02*
X138309523Y-125576304D01*
X138309523Y-125576304D02*
X138119046Y-125576304D01*
X137452380Y-126909638D02*
X137452380Y-125576304D01*
X137452380Y-124909638D02*
X137547618Y-125004876D01*
X137547618Y-125004876D02*
X137452380Y-125100114D01*
X137452380Y-125100114D02*
X137357142Y-125004876D01*
X137357142Y-125004876D02*
X137452380Y-124909638D01*
X137452380Y-124909638D02*
X137452380Y-125100114D01*
X135738094Y-126814400D02*
X135928570Y-126909638D01*
X135928570Y-126909638D02*
X136309523Y-126909638D01*
X136309523Y-126909638D02*
X136499999Y-126814400D01*
X136499999Y-126814400D02*
X136595237Y-126623923D01*
X136595237Y-126623923D02*
X136595237Y-125862019D01*
X136595237Y-125862019D02*
X136499999Y-125671542D01*
X136499999Y-125671542D02*
X136309523Y-125576304D01*
X136309523Y-125576304D02*
X135928570Y-125576304D01*
X135928570Y-125576304D02*
X135738094Y-125671542D01*
X135738094Y-125671542D02*
X135642856Y-125862019D01*
X135642856Y-125862019D02*
X135642856Y-126052495D01*
X135642856Y-126052495D02*
X136595237Y-126242971D01*
X134785713Y-126909638D02*
X134785713Y-125576304D01*
X134785713Y-125957257D02*
X134690475Y-125766780D01*
X134690475Y-125766780D02*
X134595237Y-125671542D01*
X134595237Y-125671542D02*
X134404761Y-125576304D01*
X134404761Y-125576304D02*
X134214284Y-125576304D01*
X132214284Y-125576304D02*
X131738094Y-126909638D01*
X131738094Y-126909638D02*
X131261903Y-125576304D01*
X130119046Y-124909638D02*
X129928569Y-124909638D01*
X129928569Y-124909638D02*
X129738093Y-125004876D01*
X129738093Y-125004876D02*
X129642855Y-125100114D01*
X129642855Y-125100114D02*
X129547617Y-125290590D01*
X129547617Y-125290590D02*
X129452379Y-125671542D01*
X129452379Y-125671542D02*
X129452379Y-126147733D01*
X129452379Y-126147733D02*
X129547617Y-126528685D01*
X129547617Y-126528685D02*
X129642855Y-126719161D01*
X129642855Y-126719161D02*
X129738093Y-126814400D01*
X129738093Y-126814400D02*
X129928569Y-126909638D01*
X129928569Y-126909638D02*
X130119046Y-126909638D01*
X130119046Y-126909638D02*
X130309522Y-126814400D01*
X130309522Y-126814400D02*
X130404760Y-126719161D01*
X130404760Y-126719161D02*
X130499998Y-126528685D01*
X130499998Y-126528685D02*
X130595236Y-126147733D01*
X130595236Y-126147733D02*
X130595236Y-125671542D01*
X130595236Y-125671542D02*
X130499998Y-125290590D01*
X130499998Y-125290590D02*
X130404760Y-125100114D01*
X130404760Y-125100114D02*
X130309522Y-125004876D01*
X130309522Y-125004876D02*
X130119046Y-124909638D01*
X128595236Y-126719161D02*
X128499998Y-126814400D01*
X128499998Y-126814400D02*
X128595236Y-126909638D01*
X128595236Y-126909638D02*
X128690474Y-126814400D01*
X128690474Y-126814400D02*
X128595236Y-126719161D01*
X128595236Y-126719161D02*
X128595236Y-126909638D01*
X126595236Y-126909638D02*
X127738093Y-126909638D01*
X127166665Y-126909638D02*
X127166665Y-124909638D01*
X127166665Y-124909638D02*
X127357141Y-125195352D01*
X127357141Y-125195352D02*
X127547617Y-125385828D01*
X127547617Y-125385828D02*
X127738093Y-125481066D01*
M02*
